G04*
G04 #@! TF.GenerationSoftware,Altium Limited,Altium Designer,21.3.2 (30)*
G04*
G04 Layer_Color=2752767*
%FSLAX25Y25*%
%MOIN*%
G70*
G04*
G04 #@! TF.SameCoordinates,223A028E-27ED-44F5-9DF7-BD247C2F6700*
G04*
G04*
G04 #@! TF.FilePolarity,Positive*
G04*
G01*
G75*
%ADD63C,0.00200*%
%ADD64C,0.00267*%
%ADD65C,0.00133*%
D63*
X20200Y384700D02*
Y386300D01*
X21800D01*
Y384700D01*
X20200D01*
Y354700D02*
Y356300D01*
X21800D01*
Y354700D01*
X20200D01*
Y344700D02*
Y346300D01*
X21800D01*
Y344700D01*
X20200D01*
Y334700D02*
Y336300D01*
X21800D01*
Y334700D01*
X20200D01*
Y324700D02*
Y326300D01*
X21800D01*
Y324700D01*
X20200D01*
Y304700D02*
Y306300D01*
X21800D01*
Y304700D01*
X20200D01*
Y374700D02*
Y376300D01*
X21800D01*
Y374700D01*
X20200D01*
Y294700D02*
Y296300D01*
X21800D01*
Y294700D01*
X20200D01*
Y284700D02*
Y286300D01*
X21800D01*
Y284700D01*
X20200D01*
Y274700D02*
Y276300D01*
X21800D01*
Y274700D01*
X20200D01*
Y264700D02*
Y266300D01*
X21800D01*
Y264700D01*
X20200D01*
Y254700D02*
Y256300D01*
X21800D01*
Y254700D01*
X20200D01*
Y364700D02*
Y366300D01*
X21800D01*
Y364700D01*
X20200D01*
Y244700D02*
Y246300D01*
X21800D01*
Y244700D01*
X20200D01*
Y234700D02*
Y236300D01*
X21800D01*
Y234700D01*
X20200D01*
Y224700D02*
Y226300D01*
X21800D01*
Y224700D01*
X20200D01*
Y214700D02*
Y216300D01*
X21800D01*
Y214700D01*
X20200D01*
Y204700D02*
Y206300D01*
X21800D01*
Y204700D01*
X20200D01*
Y194700D02*
Y196300D01*
X21800D01*
Y194700D01*
X20200D01*
X80200Y384700D02*
Y386300D01*
X81800D01*
Y384700D01*
X80200D01*
Y354700D02*
Y356300D01*
X81800D01*
Y354700D01*
X80200D01*
Y344700D02*
Y346300D01*
X81800D01*
Y344700D01*
X80200D01*
Y334700D02*
Y336300D01*
X81800D01*
Y334700D01*
X80200D01*
Y324700D02*
Y326300D01*
X81800D01*
Y324700D01*
X80200D01*
Y314700D02*
Y316300D01*
X81800D01*
Y314700D01*
X80200D01*
Y304700D02*
Y306300D01*
X81800D01*
Y304700D01*
X80200D01*
Y374700D02*
Y376300D01*
X81800D01*
Y374700D01*
X80200D01*
Y294700D02*
Y296300D01*
X81800D01*
Y294700D01*
X80200D01*
Y284700D02*
Y286300D01*
X81800D01*
Y284700D01*
X80200D01*
Y274700D02*
Y276300D01*
X81800D01*
Y274700D01*
X80200D01*
Y264700D02*
Y266300D01*
X81800D01*
Y264700D01*
X80200D01*
Y254700D02*
Y256300D01*
X81800D01*
Y254700D01*
X80200D01*
Y364700D02*
Y366300D01*
X81800D01*
Y364700D01*
X80200D01*
Y244700D02*
Y246300D01*
X81800D01*
Y244700D01*
X80200D01*
Y234700D02*
Y236300D01*
X81800D01*
Y234700D01*
X80200D01*
Y224700D02*
Y226300D01*
X81800D01*
Y224700D01*
X80200D01*
Y214700D02*
Y216300D01*
X81800D01*
Y214700D01*
X80200D01*
Y204700D02*
Y206300D01*
X81800D01*
Y204700D01*
X80200D01*
Y194700D02*
Y196300D01*
X81800D01*
Y194700D01*
X80200D01*
X20200Y314700D02*
Y316300D01*
X21800D01*
Y314700D01*
X20200D01*
X167200Y56700D02*
Y58300D01*
X168800D01*
Y56700D01*
X167200D01*
X177200D02*
Y58300D01*
X178800D01*
Y56700D01*
X177200D01*
X187200D02*
Y58300D01*
X188800D01*
Y56700D01*
X187200D01*
X197200D02*
Y58300D01*
X198800D01*
Y56700D01*
X197200D01*
X207200D02*
Y58300D01*
X208800D01*
Y56700D01*
X207200D01*
X217200D02*
Y58300D01*
X218800D01*
Y56700D01*
X217200D01*
X227200D02*
Y58300D01*
X228800D01*
Y56700D01*
X227200D01*
X237200D02*
Y58300D01*
X238800D01*
Y56700D01*
X237200D01*
X247200D02*
Y58300D01*
X248800D01*
Y56700D01*
X247200D01*
X257200D02*
Y58300D01*
X258800D01*
Y56700D01*
X257200D01*
X267200D02*
Y58300D01*
X268800D01*
Y56700D01*
X267200D01*
X277200Y56724D02*
Y58324D01*
X278800D01*
Y56724D01*
X277200D01*
X287200Y56700D02*
Y58300D01*
X288800D01*
Y56700D01*
X287200D01*
X297200D02*
Y58300D01*
X298800D01*
Y56700D01*
X297200D01*
X307200D02*
Y58300D01*
X308800D01*
Y56700D01*
X307200D01*
X317200D02*
Y58300D01*
X318800D01*
Y56700D01*
X317200D01*
X167200Y239377D02*
Y240977D01*
X168800D01*
Y239377D01*
X167200D01*
X177200D02*
Y240977D01*
X178800D01*
Y239377D01*
X177200D01*
X187200D02*
Y240977D01*
X188800D01*
Y239377D01*
X187200D01*
X197200D02*
Y240977D01*
X198800D01*
Y239377D01*
X197200D01*
X207200D02*
Y240977D01*
X208800D01*
Y239377D01*
X207200D01*
X217200D02*
Y240977D01*
X218800D01*
Y239377D01*
X217200D01*
X227200D02*
Y240977D01*
X228800D01*
Y239377D01*
X227200D01*
X237200D02*
Y240977D01*
X238800D01*
Y239377D01*
X237200D01*
X247200D02*
Y240977D01*
X248800D01*
Y239377D01*
X247200D01*
X257200D02*
Y240977D01*
X258800D01*
Y239377D01*
X257200D01*
X267200D02*
Y240977D01*
X268800D01*
Y239377D01*
X267200D01*
X277200D02*
Y240977D01*
X278800D01*
Y239377D01*
X277200D01*
X287200D02*
Y240977D01*
X288800D01*
Y239377D01*
X287200D01*
X297200D02*
Y240977D01*
X298800D01*
Y239377D01*
X297200D01*
X307200D02*
Y240977D01*
X308800D01*
Y239377D01*
X307200D01*
X317200D02*
Y240977D01*
X318800D01*
Y239377D01*
X317200D01*
X448239Y91800D02*
X447439Y93400D01*
X449039D01*
X448239Y91800D01*
Y81800D02*
X447439Y83400D01*
X449039D01*
X448239Y81800D01*
Y71800D02*
X447439Y73400D01*
X449039D01*
X448239Y71800D01*
Y61800D02*
X447439Y63400D01*
X449039D01*
X448239Y61800D01*
Y51800D02*
X447439Y53400D01*
X449039D01*
X448239Y51800D01*
Y41800D02*
X447439Y43400D01*
X449039D01*
X448239Y41800D01*
Y31800D02*
X447439Y33400D01*
X449039D01*
X448239Y31800D01*
Y21800D02*
X447439Y23400D01*
X449039D01*
X448239Y21800D01*
X478239Y91800D02*
X477439Y93400D01*
X479039D01*
X478239Y91800D01*
Y81800D02*
X477439Y83400D01*
X479039D01*
X478239Y81800D01*
Y71800D02*
X477439Y73400D01*
X479039D01*
X478239Y71800D01*
Y61800D02*
X477439Y63400D01*
X479039D01*
X478239Y61800D01*
Y51800D02*
X477439Y53400D01*
X479039D01*
X478239Y51800D01*
Y41800D02*
X477439Y43400D01*
X479039D01*
X478239Y41800D01*
Y31800D02*
X477439Y33400D01*
X479039D01*
X478239Y31800D01*
Y21800D02*
X477439Y23400D01*
X479039D01*
X478239Y21800D01*
X194000Y383700D02*
X193200Y385300D01*
X194800D01*
X194000Y383700D01*
X184000D02*
X183200Y385300D01*
X184800D01*
X184000Y383700D01*
X174000D02*
X173200Y385300D01*
X174800D01*
X174000Y383700D01*
X164000D02*
X163200Y385300D01*
X164800D01*
X164000Y383700D01*
X154000D02*
X153200Y385300D01*
X154800D01*
X154000Y383700D01*
X144000D02*
X143200Y385300D01*
X144800D01*
X144000Y383700D01*
X134000D02*
X133200Y385300D01*
X134800D01*
X134000Y383700D01*
X124000D02*
X123200Y385300D01*
X124800D01*
X124000Y383700D01*
X194000Y353700D02*
X193200Y355300D01*
X194800D01*
X194000Y353700D01*
X184000D02*
X183200Y355300D01*
X184800D01*
X184000Y353700D01*
X174000D02*
X173200Y355300D01*
X174800D01*
X174000Y353700D01*
X164000D02*
X163200Y355300D01*
X164800D01*
X164000Y353700D01*
X154000D02*
X153200Y355300D01*
X154800D01*
X154000Y353700D01*
X144000D02*
X143200Y355300D01*
X144800D01*
X144000Y353700D01*
X134000D02*
X133200Y355300D01*
X134800D01*
X134000Y353700D01*
X124000D02*
X123200Y355300D01*
X124800D01*
X124000Y353700D01*
X233000Y313700D02*
X233400Y314100D01*
X233800D01*
X233400Y314500D01*
X233800Y314900D01*
X233400D01*
X233000Y315300D01*
X232600Y314900D01*
X232200D01*
X232600Y314500D01*
X232200Y314100D01*
X232600D01*
X233000Y313700D01*
X223000D02*
X223400Y314100D01*
X223800D01*
X223400Y314500D01*
X223800Y314900D01*
X223400D01*
X223000Y315300D01*
X222600Y314900D01*
X222200D01*
X222600Y314500D01*
X222200Y314100D01*
X222600D01*
X223000Y313700D01*
X213000D02*
X213400Y314100D01*
X213800D01*
X213400Y314500D01*
X213800Y314900D01*
X213400D01*
X213000Y315300D01*
X212600Y314900D01*
X212200D01*
X212600Y314500D01*
X212200Y314100D01*
X212600D01*
X213000Y313700D01*
X256500D02*
X256900Y314100D01*
X257300D01*
X256900Y314500D01*
X257300Y314900D01*
X256900D01*
X256500Y315300D01*
X256100Y314900D01*
X255700D01*
X256100Y314500D01*
X255700Y314100D01*
X256100D01*
X256500Y313700D01*
X266500D02*
X266900Y314100D01*
X267300D01*
X266900Y314500D01*
X267300Y314900D01*
X266900D01*
X266500Y315300D01*
X266100Y314900D01*
X265700D01*
X266100Y314500D01*
X265700Y314100D01*
X266100D01*
X266500Y313700D01*
X276500D02*
X276900Y314100D01*
X277300D01*
X276900Y314500D01*
X277300Y314900D01*
X276900D01*
X276500Y315300D01*
X276100Y314900D01*
X275700D01*
X276100Y314500D01*
X275700Y314100D01*
X276100D01*
X276500Y313700D01*
X298000D02*
X298400Y314100D01*
X298800D01*
X298400Y314500D01*
X298800Y314900D01*
X298400D01*
X298000Y315300D01*
X297600Y314900D01*
X297200D01*
X297600Y314500D01*
X297200Y314100D01*
X297600D01*
X298000Y313700D01*
X308000D02*
X308400Y314100D01*
X308800D01*
X308400Y314500D01*
X308800Y314900D01*
X308400D01*
X308000Y315300D01*
X307600Y314900D01*
X307200D01*
X307600Y314500D01*
X307200Y314100D01*
X307600D01*
X308000Y313700D01*
X318000D02*
X318400Y314100D01*
X318800D01*
X318400Y314500D01*
X318800Y314900D01*
X318400D01*
X318000Y315300D01*
X317600Y314900D01*
X317200D01*
X317600Y314500D01*
X317200Y314100D01*
X317600D01*
X318000Y313700D01*
X214000Y373200D02*
X214400Y373600D01*
X214800D01*
X214400Y374000D01*
X214800Y374400D01*
X214400D01*
X214000Y374800D01*
X213600Y374400D01*
X213200D01*
X213600Y374000D01*
X213200Y373600D01*
X213600D01*
X214000Y373200D01*
X224000D02*
X224400Y373600D01*
X224800D01*
X224400Y374000D01*
X224800Y374400D01*
X224400D01*
X224000Y374800D01*
X223600Y374400D01*
X223200D01*
X223600Y374000D01*
X223200Y373600D01*
X223600D01*
X224000Y373200D01*
X234000D02*
X234400Y373600D01*
X234800D01*
X234400Y374000D01*
X234800Y374400D01*
X234400D01*
X234000Y374800D01*
X233600Y374400D01*
X233200D01*
X233600Y374000D01*
X233200Y373600D01*
X233600D01*
X234000Y373200D01*
X275000D02*
X275400Y373600D01*
X275800D01*
X275400Y374000D01*
X275800Y374400D01*
X275400D01*
X275000Y374800D01*
X274600Y374400D01*
X274200D01*
X274600Y374000D01*
X274200Y373600D01*
X274600D01*
X275000Y373200D01*
X265000D02*
X265400Y373600D01*
X265800D01*
X265400Y374000D01*
X265800Y374400D01*
X265400D01*
X265000Y374800D01*
X264600Y374400D01*
X264200D01*
X264600Y374000D01*
X264200Y373600D01*
X264600D01*
X265000Y373200D01*
X255000D02*
X255400Y373600D01*
X255800D01*
X255400Y374000D01*
X255800Y374400D01*
X255400D01*
X255000Y374800D01*
X254600Y374400D01*
X254200D01*
X254600Y374000D01*
X254200Y373600D01*
X254600D01*
X255000Y373200D01*
X318000D02*
X318400Y373600D01*
X318800D01*
X318400Y374000D01*
X318800Y374400D01*
X318400D01*
X318000Y374800D01*
X317600Y374400D01*
X317200D01*
X317600Y374000D01*
X317200Y373600D01*
X317600D01*
X318000Y373200D01*
X308000D02*
X308400Y373600D01*
X308800D01*
X308400Y374000D01*
X308800Y374400D01*
X308400D01*
X308000Y374800D01*
X307600Y374400D01*
X307200D01*
X307600Y374000D01*
X307200Y373600D01*
X307600D01*
X308000Y373200D01*
X298000D02*
X298400Y373600D01*
X298800D01*
X298400Y374000D01*
X298800Y374400D01*
X298400D01*
X298000Y374800D01*
X297600Y374400D01*
X297200D01*
X297600Y374000D01*
X297200Y373600D01*
X297600D01*
X298000Y373200D01*
X359500Y313700D02*
X359900Y314100D01*
X360300D01*
X359900Y314500D01*
X360300Y314900D01*
X359900D01*
X359500Y315300D01*
X359100Y314900D01*
X358700D01*
X359100Y314500D01*
X358700Y314100D01*
X359100D01*
X359500Y313700D01*
X349500D02*
X349900Y314100D01*
X350300D01*
X349900Y314500D01*
X350300Y314900D01*
X349900D01*
X349500Y315300D01*
X349100Y314900D01*
X348700D01*
X349100Y314500D01*
X348700Y314100D01*
X349100D01*
X349500Y313700D01*
X339500D02*
X339900Y314100D01*
X340300D01*
X339900Y314500D01*
X340300Y314900D01*
X339900D01*
X339500Y315300D01*
X339100Y314900D01*
X338700D01*
X339100Y314500D01*
X338700Y314100D01*
X339100D01*
X339500Y313700D01*
X392700Y316700D02*
X393100Y317500D01*
X392700Y318300D01*
X393500Y317900D01*
X394300Y318300D01*
X393900Y317500D01*
X394300Y316700D01*
X393500Y317100D01*
X392700Y316700D01*
X402700D02*
X403100Y317500D01*
X402700Y318300D01*
X403500Y317900D01*
X404300Y318300D01*
X403900Y317500D01*
X404300Y316700D01*
X403500Y317100D01*
X402700Y316700D01*
X412700D02*
X413100Y317500D01*
X412700Y318300D01*
X413500Y317900D01*
X414300Y318300D01*
X413900Y317500D01*
X414300Y316700D01*
X413500Y317100D01*
X412700Y316700D01*
X403100Y297100D02*
Y296700D01*
X403900D01*
Y297100D01*
X404300D01*
Y297900D01*
X403900D01*
Y298300D01*
X403100D01*
Y297900D01*
X402700D01*
Y297100D01*
X403100D01*
X458000Y303200D02*
X458400Y303600D01*
X458800D01*
X458400Y304000D01*
X458800Y304400D01*
X458400D01*
X458000Y304800D01*
X457600Y304400D01*
X457200D01*
X457600Y304000D01*
X457200Y303600D01*
X457600D01*
X458000Y303200D01*
X473000D02*
X473400Y303600D01*
X473800D01*
X473400Y304000D01*
X473800Y304400D01*
X473400D01*
X473000Y304800D01*
X472600Y304400D01*
X472200D01*
X472600Y304000D01*
X472200Y303600D01*
X472600D01*
X473000Y303200D01*
X86500Y14200D02*
X86900Y14600D01*
X87300D01*
X86900Y15000D01*
X87300Y15400D01*
X86900D01*
X86500Y15800D01*
X86100Y15400D01*
X85700D01*
X86100Y15000D01*
X85700Y14600D01*
X86100D01*
X86500Y14200D01*
Y24200D02*
X86900Y24600D01*
X87300D01*
X86900Y25000D01*
X87300Y25400D01*
X86900D01*
X86500Y25800D01*
X86100Y25400D01*
X85700D01*
X86100Y25000D01*
X85700Y24600D01*
X86100D01*
X86500Y24200D01*
Y34200D02*
X86900Y34600D01*
X87300D01*
X86900Y35000D01*
X87300Y35400D01*
X86900D01*
X86500Y35800D01*
X86100Y35400D01*
X85700D01*
X86100Y35000D01*
X85700Y34600D01*
X86100D01*
X86500Y34200D01*
X474500Y268700D02*
X473700Y270300D01*
X475300D01*
X474500Y268700D01*
X454500D02*
X453700Y270300D01*
X455300D01*
X454500Y268700D01*
X387200Y350200D02*
X387600D01*
X388000Y350600D01*
X388400Y350200D01*
X388800D01*
Y350600D01*
X388400Y351000D01*
X388800Y351400D01*
Y351800D01*
X388400D01*
X388000Y351400D01*
X387600Y351800D01*
X387200D01*
Y351400D01*
X387600Y351000D01*
X387200Y350600D01*
Y350200D01*
X407200Y365200D02*
X407600D01*
X408000Y365600D01*
X408400Y365200D01*
X408800D01*
Y365600D01*
X408400Y366000D01*
X408800Y366400D01*
Y366800D01*
X408400D01*
X408000Y366400D01*
X407600Y366800D01*
X407200D01*
Y366400D01*
X407600Y366000D01*
X407200Y365600D01*
Y365200D01*
Y340200D02*
X407600D01*
X408000Y340600D01*
X408400Y340200D01*
X408800D01*
Y340600D01*
X408400Y341000D01*
X408800Y341400D01*
Y341800D01*
X408400D01*
X408000Y341400D01*
X407600Y341800D01*
X407200D01*
Y341400D01*
X407600Y341000D01*
X407200Y340600D01*
Y340200D01*
X338000Y373200D02*
X338400Y373600D01*
X338800D01*
X338400Y374000D01*
X338800Y374400D01*
X338400D01*
X338000Y374800D01*
X337600Y374400D01*
X337200D01*
X337600Y374000D01*
X337200Y373600D01*
X337600D01*
X338000Y373200D01*
X348000D02*
X348400Y373600D01*
X348800D01*
X348400Y374000D01*
X348800Y374400D01*
X348400D01*
X348000Y374800D01*
X347600Y374400D01*
X347200D01*
X347600Y374000D01*
X347200Y373600D01*
X347600D01*
X348000Y373200D01*
X358000D02*
X358400Y373600D01*
X358800D01*
X358400Y374000D01*
X358800Y374400D01*
X358400D01*
X358000Y374800D01*
X357600Y374400D01*
X357200D01*
X357600Y374000D01*
X357200Y373600D01*
X357600D01*
X358000Y373200D01*
X448936Y113500D02*
X449736Y114300D01*
X450536Y113500D01*
X449736Y112700D01*
X448936Y113500D01*
X478464D02*
X479264Y114300D01*
X480064Y113500D01*
X479264Y112700D01*
X478464Y113500D01*
X376500Y261700D02*
X376900Y262100D01*
X377300D01*
X376900Y262500D01*
X377300Y262900D01*
X376900D01*
X376500Y263300D01*
X376100Y262900D01*
X375700D01*
X376100Y262500D01*
X375700Y262100D01*
X376100D01*
X376500Y261700D01*
X386500D02*
X386900Y262100D01*
X387300D01*
X386900Y262500D01*
X387300Y262900D01*
X386900D01*
X386500Y263300D01*
X386100Y262900D01*
X385700D01*
X386100Y262500D01*
X385700Y262100D01*
X386100D01*
X386500Y261700D01*
X23000Y36200D02*
X23400Y36600D01*
X23800D01*
X23400Y37000D01*
X23800Y37400D01*
X23400D01*
X23000Y37800D01*
X22600Y37400D01*
X22200D01*
X22600Y37000D01*
X22200Y36600D01*
X22600D01*
X23000Y36200D01*
Y26200D02*
X23400Y26600D01*
X23800D01*
X23400Y27000D01*
X23800Y27400D01*
X23400D01*
X23000Y27800D01*
X22600Y27400D01*
X22200D01*
X22600Y27000D01*
X22200Y26600D01*
X22600D01*
X23000Y26200D01*
Y16200D02*
X23400Y16600D01*
X23800D01*
X23400Y17000D01*
X23800Y17400D01*
X23400D01*
X23000Y17800D01*
X22600Y17400D01*
X22200D01*
X22600Y17000D01*
X22200Y16600D01*
X22600D01*
X23000Y16200D01*
X86500Y55200D02*
X86900Y55600D01*
X87300D01*
X86900Y56000D01*
X87300Y56400D01*
X86900D01*
X86500Y56800D01*
X86100Y56400D01*
X85700D01*
X86100Y56000D01*
X85700Y55600D01*
X86100D01*
X86500Y55200D01*
Y65200D02*
X86900Y65600D01*
X87300D01*
X86900Y66000D01*
X87300Y66400D01*
X86900D01*
X86500Y66800D01*
X86100Y66400D01*
X85700D01*
X86100Y66000D01*
X85700Y65600D01*
X86100D01*
X86500Y65200D01*
Y75200D02*
X86900Y75600D01*
X87300D01*
X86900Y76000D01*
X87300Y76400D01*
X86900D01*
X86500Y76800D01*
X86100Y76400D01*
X85700D01*
X86100Y76000D01*
X85700Y75600D01*
X86100D01*
X86500Y75200D01*
X23000Y72700D02*
X23400Y73100D01*
X23800D01*
X23400Y73500D01*
X23800Y73900D01*
X23400D01*
X23000Y74300D01*
X22600Y73900D01*
X22200D01*
X22600Y73500D01*
X22200Y73100D01*
X22600D01*
X23000Y72700D01*
Y62700D02*
X23400Y63100D01*
X23800D01*
X23400Y63500D01*
X23800Y63900D01*
X23400D01*
X23000Y64300D01*
X22600Y63900D01*
X22200D01*
X22600Y63500D01*
X22200Y63100D01*
X22600D01*
X23000Y62700D01*
Y52700D02*
X23400Y53100D01*
X23800D01*
X23400Y53500D01*
X23800Y53900D01*
X23400D01*
X23000Y54300D01*
X22600Y53900D01*
X22200D01*
X22600Y53500D01*
X22200Y53100D01*
X22600D01*
X23000Y52700D01*
X86500Y131700D02*
X86900Y132100D01*
X87300D01*
X86900Y132500D01*
X87300Y132900D01*
X86900D01*
X86500Y133300D01*
X86100Y132900D01*
X85700D01*
X86100Y132500D01*
X85700Y132100D01*
X86100D01*
X86500Y131700D01*
Y141700D02*
X86900Y142100D01*
X87300D01*
X86900Y142500D01*
X87300Y142900D01*
X86900D01*
X86500Y143300D01*
X86100Y142900D01*
X85700D01*
X86100Y142500D01*
X85700Y142100D01*
X86100D01*
X86500Y141700D01*
Y151700D02*
X86900Y152100D01*
X87300D01*
X86900Y152500D01*
X87300Y152900D01*
X86900D01*
X86500Y153300D01*
X86100Y152900D01*
X85700D01*
X86100Y152500D01*
X85700Y152100D01*
X86100D01*
X86500Y151700D01*
X23000Y150700D02*
X23400Y151100D01*
X23800D01*
X23400Y151500D01*
X23800Y151900D01*
X23400D01*
X23000Y152300D01*
X22600Y151900D01*
X22200D01*
X22600Y151500D01*
X22200Y151100D01*
X22600D01*
X23000Y150700D01*
Y140700D02*
X23400Y141100D01*
X23800D01*
X23400Y141500D01*
X23800Y141900D01*
X23400D01*
X23000Y142300D01*
X22600Y141900D01*
X22200D01*
X22600Y141500D01*
X22200Y141100D01*
X22600D01*
X23000Y140700D01*
Y130700D02*
X23400Y131100D01*
X23800D01*
X23400Y131500D01*
X23800Y131900D01*
X23400D01*
X23000Y132300D01*
X22600Y131900D01*
X22200D01*
X22600Y131500D01*
X22200Y131100D01*
X22600D01*
X23000Y130700D01*
X86500Y111200D02*
X86900Y111600D01*
X87300D01*
X86900Y112000D01*
X87300Y112400D01*
X86900D01*
X86500Y112800D01*
X86100Y112400D01*
X85700D01*
X86100Y112000D01*
X85700Y111600D01*
X86100D01*
X86500Y111200D01*
Y101200D02*
X86900Y101600D01*
X87300D01*
X86900Y102000D01*
X87300Y102400D01*
X86900D01*
X86500Y102800D01*
X86100Y102400D01*
X85700D01*
X86100Y102000D01*
X85700Y101600D01*
X86100D01*
X86500Y101200D01*
Y91200D02*
X86900Y91600D01*
X87300D01*
X86900Y92000D01*
X87300Y92400D01*
X86900D01*
X86500Y92800D01*
X86100Y92400D01*
X85700D01*
X86100Y92000D01*
X85700Y91600D01*
X86100D01*
X86500Y91200D01*
X23000Y91700D02*
X23400Y92100D01*
X23800D01*
X23400Y92500D01*
X23800Y92900D01*
X23400D01*
X23000Y93300D01*
X22600Y92900D01*
X22200D01*
X22600Y92500D01*
X22200Y92100D01*
X22600D01*
X23000Y91700D01*
Y101700D02*
X23400Y102100D01*
X23800D01*
X23400Y102500D01*
X23800Y102900D01*
X23400D01*
X23000Y103300D01*
X22600Y102900D01*
X22200D01*
X22600Y102500D01*
X22200Y102100D01*
X22600D01*
X23000Y101700D01*
Y111700D02*
X23400Y112100D01*
X23800D01*
X23400Y112500D01*
X23800Y112900D01*
X23400D01*
X23000Y113300D01*
X22600Y112900D01*
X22200D01*
X22600Y112500D01*
X22200Y112100D01*
X22600D01*
X23000Y111700D01*
X448739Y204800D02*
X447939Y206400D01*
X449539D01*
X448739Y204800D01*
Y194800D02*
X447939Y196400D01*
X449539D01*
X448739Y194800D01*
Y184800D02*
X447939Y186400D01*
X449539D01*
X448739Y184800D01*
Y174800D02*
X447939Y176400D01*
X449539D01*
X448739Y174800D01*
Y164800D02*
X447939Y166400D01*
X449539D01*
X448739Y164800D01*
Y154800D02*
X447939Y156400D01*
X449539D01*
X448739Y154800D01*
Y144800D02*
X447939Y146400D01*
X449539D01*
X448739Y144800D01*
Y134800D02*
X447939Y136400D01*
X449539D01*
X448739Y134800D01*
X478739Y204800D02*
X477939Y206400D01*
X479539D01*
X478739Y204800D01*
Y194800D02*
X477939Y196400D01*
X479539D01*
X478739Y194800D01*
Y184800D02*
X477939Y186400D01*
X479539D01*
X478739Y184800D01*
Y174800D02*
X477939Y176400D01*
X479539D01*
X478739Y174800D01*
Y164800D02*
X477939Y166400D01*
X479539D01*
X478739Y164800D01*
Y154800D02*
X477939Y156400D01*
X479539D01*
X478739Y154800D01*
Y144800D02*
X477939Y146400D01*
X479539D01*
X478739Y144800D01*
Y134800D02*
X477939Y136400D01*
X479539D01*
X478739Y134800D01*
X455000Y338200D02*
X454200Y339800D01*
X455800D01*
X455000Y338200D01*
X475000D02*
X474200Y339800D01*
X475800D01*
X475000Y338200D01*
X472563Y372700D02*
X472963Y373100D01*
X473363D01*
X472963Y373500D01*
X473363Y373900D01*
X472963D01*
X472563Y374300D01*
X472163Y373900D01*
X471763D01*
X472163Y373500D01*
X471763Y373100D01*
X472163D01*
X472563Y372700D01*
X457563D02*
X457963Y373100D01*
X458363D01*
X457963Y373500D01*
X458363Y373900D01*
X457963D01*
X457563Y374300D01*
X457163Y373900D01*
X456763D01*
X457163Y373500D01*
X456763Y373100D01*
X457163D01*
X457563Y372700D01*
X462800Y61800D02*
Y63400D01*
X464400D01*
Y61800D01*
X462800D01*
X463200Y62200D02*
Y63000D01*
X464000D01*
Y62200D01*
X463200D01*
D64*
X399039Y46678D02*
X398486Y47438D01*
X397591Y47148D01*
Y46207D01*
X398486Y45917D01*
X399039Y46678D01*
X429039D02*
X428486Y47438D01*
X427591Y47148D01*
Y46207D01*
X428486Y45917D01*
X429039Y46678D01*
Y108186D02*
X428486Y108947D01*
X427591Y108656D01*
Y107716D01*
X428486Y107425D01*
X429039Y108186D01*
X399039D02*
X398486Y108947D01*
X397591Y108656D01*
Y107716D01*
X398486Y107425D01*
X399039Y108186D01*
X429039Y34376D02*
X428486Y35137D01*
X427591Y34846D01*
Y33906D01*
X428486Y33615D01*
X429039Y34376D01*
X399039D02*
X398486Y35137D01*
X397591Y34846D01*
Y33906D01*
X398486Y33615D01*
X399039Y34376D01*
Y58979D02*
X398486Y59740D01*
X397591Y59449D01*
Y58509D01*
X398486Y58218D01*
X399039Y58979D01*
X429039D02*
X428486Y59740D01*
X427591Y59449D01*
Y58509D01*
X428486Y58218D01*
X429039Y58979D01*
Y71281D02*
X428486Y72042D01*
X427591Y71751D01*
Y70811D01*
X428486Y70520D01*
X429039Y71281D01*
X399039D02*
X398486Y72042D01*
X397591Y71751D01*
Y70811D01*
X398486Y70520D01*
X399039Y71281D01*
X429039Y83583D02*
X428486Y84343D01*
X427591Y84053D01*
Y83112D01*
X428486Y82822D01*
X429039Y83583D01*
X399039D02*
X398486Y84343D01*
X397591Y84053D01*
Y83112D01*
X398486Y82822D01*
X399039Y83583D01*
Y22074D02*
X398486Y22835D01*
X397591Y22544D01*
Y21604D01*
X398486Y21313D01*
X399039Y22074D01*
X429039D02*
X428486Y22835D01*
X427591Y22544D01*
Y21604D01*
X428486Y21313D01*
X429039Y22074D01*
Y95884D02*
X428486Y96645D01*
X427591Y96355D01*
Y95414D01*
X428486Y95123D01*
X429039Y95884D01*
X399039D02*
X398486Y96645D01*
X397591Y96355D01*
Y95414D01*
X398486Y95123D01*
X399039Y95884D01*
Y181996D02*
X398486Y182757D01*
X397591Y182466D01*
Y181526D01*
X398486Y181235D01*
X399039Y181996D01*
X429039D02*
X428486Y182757D01*
X427591Y182466D01*
Y181526D01*
X428486Y181235D01*
X429039Y181996D01*
X399039Y194298D02*
X398486Y195059D01*
X397591Y194768D01*
Y193828D01*
X398486Y193537D01*
X399039Y194298D01*
X429039D02*
X428486Y195059D01*
X427591Y194768D01*
Y193828D01*
X428486Y193537D01*
X429039Y194298D01*
X399039Y206600D02*
X398486Y207360D01*
X397591Y207070D01*
Y206129D01*
X398486Y205839D01*
X399039Y206600D01*
X429039D02*
X428486Y207360D01*
X427591Y207070D01*
Y206129D01*
X428486Y205839D01*
X429039Y206600D01*
X399039Y157393D02*
X398486Y158154D01*
X397591Y157863D01*
Y156923D01*
X398486Y156632D01*
X399039Y157393D01*
X429039D02*
X428486Y158154D01*
X427591Y157863D01*
Y156923D01*
X428486Y156632D01*
X429039Y157393D01*
X399039Y145091D02*
X398486Y145852D01*
X397591Y145561D01*
Y144621D01*
X398486Y144330D01*
X399039Y145091D01*
X429039D02*
X428486Y145852D01*
X427591Y145561D01*
Y144621D01*
X428486Y144330D01*
X429039Y145091D01*
X399039Y169694D02*
X398486Y170455D01*
X397591Y170165D01*
Y169224D01*
X398486Y168934D01*
X399039Y169694D01*
X429039D02*
X428486Y170455D01*
X427591Y170165D01*
Y169224D01*
X428486Y168934D01*
X429039Y169694D01*
X399039Y120488D02*
X398486Y121249D01*
X397591Y120958D01*
Y120018D01*
X398486Y119727D01*
X399039Y120488D01*
X429039D02*
X428486Y121249D01*
X427591Y120958D01*
Y120018D01*
X428486Y119727D01*
X429039Y120488D01*
X399039Y132789D02*
X398486Y133550D01*
X397591Y133260D01*
Y132319D01*
X398486Y132028D01*
X399039Y132789D01*
X429039D02*
X428486Y133550D01*
X427591Y133260D01*
Y132319D01*
X428486Y132028D01*
X429039Y132789D01*
X161871Y307500D02*
X161319Y308261D01*
X160424Y307970D01*
Y307030D01*
X161319Y306739D01*
X161871Y307500D01*
Y337500D02*
X161319Y338261D01*
X160424Y337970D01*
Y337030D01*
X161319Y336739D01*
X161871Y337500D01*
X150229Y307500D02*
X149676Y308261D01*
X148781Y307970D01*
Y307030D01*
X149676Y306739D01*
X150229Y307500D01*
Y337500D02*
X149676Y338261D01*
X148781Y337970D01*
Y337030D01*
X149676Y336739D01*
X150229Y337500D01*
X126943Y307500D02*
X126390Y308261D01*
X125496Y307970D01*
Y307030D01*
X126390Y306739D01*
X126943Y307500D01*
Y337500D02*
X126390Y338261D01*
X125496Y337970D01*
Y337030D01*
X126390Y336739D01*
X126943Y337500D01*
X138586Y307500D02*
X138033Y308261D01*
X137138Y307970D01*
Y307030D01*
X138033Y306739D01*
X138586Y307500D01*
Y337500D02*
X138033Y338261D01*
X137138Y337970D01*
Y337030D01*
X138033Y336739D01*
X138586Y337500D01*
X115300D02*
X114747Y338261D01*
X113853Y337970D01*
Y337030D01*
X114747Y336739D01*
X115300Y337500D01*
Y307500D02*
X114747Y308261D01*
X113853Y307970D01*
Y307030D01*
X114747Y306739D01*
X115300Y307500D01*
X173514D02*
X172961Y308261D01*
X172067Y307970D01*
Y307030D01*
X172961Y306739D01*
X173514Y307500D01*
Y337500D02*
X172961Y338261D01*
X172067Y337970D01*
Y337030D01*
X172961Y336739D01*
X173514Y337500D01*
X185157Y307500D02*
X184604Y308261D01*
X183710Y307970D01*
Y307030D01*
X184604Y306739D01*
X185157Y307500D01*
Y337500D02*
X184604Y338261D01*
X183710Y337970D01*
Y337030D01*
X184604Y336739D01*
X185157Y337500D01*
X196800Y307500D02*
X196247Y308261D01*
X195353Y307970D01*
Y307030D01*
X196247Y306739D01*
X196800Y307500D01*
Y337500D02*
X196247Y338261D01*
X195353Y337970D01*
Y337030D01*
X196247Y336739D01*
X196800Y337500D01*
X219300Y359000D02*
X218747Y359761D01*
X217853Y359470D01*
Y358530D01*
X218747Y358239D01*
X219300Y359000D01*
Y329000D02*
X218747Y329761D01*
X217853Y329470D01*
Y328530D01*
X218747Y328239D01*
X219300Y329000D01*
X230800D02*
X230247Y329761D01*
X229353Y329470D01*
Y328530D01*
X230247Y328239D01*
X230800Y329000D01*
Y359000D02*
X230247Y359761D01*
X229353Y359470D01*
Y358530D01*
X230247Y358239D01*
X230800Y359000D01*
X261300Y329000D02*
X260747Y329761D01*
X259853Y329470D01*
Y328530D01*
X260747Y328239D01*
X261300Y329000D01*
Y359000D02*
X260747Y359761D01*
X259853Y359470D01*
Y358530D01*
X260747Y358239D01*
X261300Y359000D01*
X272800D02*
X272247Y359761D01*
X271353Y359470D01*
Y358530D01*
X272247Y358239D01*
X272800Y359000D01*
Y329000D02*
X272247Y329761D01*
X271353Y329470D01*
Y328530D01*
X272247Y328239D01*
X272800Y329000D01*
X303300D02*
X302747Y329761D01*
X301853Y329470D01*
Y328530D01*
X302747Y328239D01*
X303300Y329000D01*
Y359000D02*
X302747Y359761D01*
X301853Y359470D01*
Y358530D01*
X302747Y358239D01*
X303300Y359000D01*
X314800Y329000D02*
X314247Y329761D01*
X313353Y329470D01*
Y328530D01*
X314247Y328239D01*
X314800Y329000D01*
Y359000D02*
X314247Y359761D01*
X313353Y359470D01*
Y358530D01*
X314247Y358239D01*
X314800Y359000D01*
X344300Y329000D02*
X343747Y329761D01*
X342853Y329470D01*
Y328530D01*
X343747Y328239D01*
X344300Y329000D01*
Y359000D02*
X343747Y359761D01*
X342853Y359470D01*
Y358530D01*
X343747Y358239D01*
X344300Y359000D01*
X355800D02*
X355247Y359761D01*
X354353Y359470D01*
Y358530D01*
X355247Y358239D01*
X355800Y359000D01*
Y329000D02*
X355247Y329761D01*
X354353Y329470D01*
Y328530D01*
X355247Y328239D01*
X355800Y329000D01*
X70300Y32500D02*
X69747Y33261D01*
X68853Y32970D01*
Y32030D01*
X69747Y31739D01*
X70300Y32500D01*
X40300D02*
X39747Y33261D01*
X38853Y32970D01*
Y32030D01*
X39747Y31739D01*
X40300Y32500D01*
Y21000D02*
X39747Y21761D01*
X38853Y21470D01*
Y20530D01*
X39747Y20239D01*
X40300Y21000D01*
X70300D02*
X69747Y21761D01*
X68853Y21470D01*
Y20530D01*
X69747Y20239D01*
X70300Y21000D01*
X40300Y60500D02*
X39747Y61261D01*
X38853Y60970D01*
Y60030D01*
X39747Y59739D01*
X40300Y60500D01*
X70300D02*
X69747Y61261D01*
X68853Y60970D01*
Y60030D01*
X69747Y59739D01*
X70300Y60500D01*
Y72000D02*
X69747Y72761D01*
X68853Y72470D01*
Y71530D01*
X69747Y71239D01*
X70300Y72000D01*
X40300D02*
X39747Y72761D01*
X38853Y72470D01*
Y71530D01*
X39747Y71239D01*
X40300Y72000D01*
Y137000D02*
X39747Y137761D01*
X38853Y137470D01*
Y136530D01*
X39747Y136239D01*
X40300Y137000D01*
X70300D02*
X69747Y137761D01*
X68853Y137470D01*
Y136530D01*
X69747Y136239D01*
X70300Y137000D01*
Y148500D02*
X69747Y149261D01*
X68853Y148970D01*
Y148030D01*
X69747Y147739D01*
X70300Y148500D01*
X40300D02*
X39747Y149261D01*
X38853Y148970D01*
Y148030D01*
X39747Y147739D01*
X40300Y148500D01*
Y109651D02*
X39747Y110412D01*
X38853Y110122D01*
Y109181D01*
X39747Y108890D01*
X40300Y109651D01*
X70300D02*
X69747Y110412D01*
X68853Y110122D01*
Y109181D01*
X69747Y108890D01*
X70300Y109651D01*
Y98500D02*
X69747Y99261D01*
X68853Y98970D01*
Y98030D01*
X69747Y97739D01*
X70300Y98500D01*
X40300D02*
X39747Y99261D01*
X38853Y98970D01*
Y98030D01*
X39747Y97739D01*
X40300Y98500D01*
X437300Y262500D02*
X436747Y263261D01*
X435853Y262970D01*
Y262030D01*
X436747Y261739D01*
X437300Y262500D01*
X407300D02*
X406747Y263261D01*
X405853Y262970D01*
Y262030D01*
X406747Y261739D01*
X407300Y262500D01*
X213800Y216500D02*
X213247Y217261D01*
X212353Y216970D01*
Y216030D01*
X213247Y215739D01*
X213800Y216500D01*
X103300D02*
X102747Y217261D01*
X101853Y216970D01*
Y216030D01*
X102747Y215739D01*
X103300Y216500D01*
X81800Y167000D02*
X81247Y167761D01*
X80353Y167470D01*
Y166530D01*
X81247Y166239D01*
X81800Y167000D01*
D65*
X213400Y216500D02*
X212800Y216846D01*
Y216154D01*
X213400Y216500D01*
X102900D02*
X102300Y216846D01*
Y216154D01*
X102900Y216500D01*
X81400Y167000D02*
X80800Y167346D01*
Y166654D01*
X81400Y167000D01*
M02*
