G04*
G04 #@! TF.GenerationSoftware,Altium Limited,Altium Designer,21.3.2 (30)*
G04*
G04 Layer_Physical_Order=1*
G04 Layer_Color=255*
%FSLAX25Y25*%
%MOIN*%
G70*
G04*
G04 #@! TF.SameCoordinates,223A028E-27ED-44F5-9DF7-BD247C2F6700*
G04*
G04*
G04 #@! TF.FilePolarity,Positive*
G04*
G01*
G75*
%ADD38C,0.05000*%
%ADD39C,0.02000*%
%ADD40O,0.07874X0.07087*%
%ADD41R,0.06890X0.06890*%
%ADD42C,0.08500*%
%ADD43R,0.06890X0.06890*%
%ADD44O,0.07087X0.07874*%
%ADD45R,0.09000X0.06000*%
%ADD46O,0.09000X0.06000*%
%ADD47O,0.06000X0.09000*%
%ADD48R,0.06000X0.09000*%
%ADD49O,0.06600X0.10000*%
G04:AMPARAMS|DCode=50|XSize=70mil|YSize=90mil|CornerRadius=0mil|HoleSize=0mil|Usage=FLASHONLY|Rotation=180.000|XOffset=0mil|YOffset=0mil|HoleType=Round|Shape=Octagon|*
%AMOCTAGOND50*
4,1,8,0.01750,-0.04500,-0.01750,-0.04500,-0.03500,-0.02750,-0.03500,0.02750,-0.01750,0.04500,0.01750,0.04500,0.03500,0.02750,0.03500,-0.02750,0.01750,-0.04500,0.0*
%
%ADD50OCTAGOND50*%

%ADD51C,0.10000*%
%ADD52R,0.07000X0.10000*%
%ADD53O,0.07000X0.10000*%
%ADD54O,0.10000X0.06600*%
%ADD55C,0.07000*%
%ADD56R,0.10000X0.16000*%
%ADD57R,0.16000X0.10000*%
%ADD58C,0.06496*%
%ADD59O,0.06500X0.10000*%
%ADD60R,0.06500X0.10000*%
%ADD61C,0.03500*%
%ADD62C,0.05000*%
G36*
X128115Y388701D02*
X127772Y388344D01*
X127239Y387698D01*
X127048Y387410D01*
X126909Y387144D01*
X126821Y386901D01*
X126783Y386681D01*
X126796Y386484D01*
X126860Y386309D01*
X126975Y386157D01*
X124157Y388975D01*
X124309Y388860D01*
X124484Y388796D01*
X124681Y388783D01*
X124901Y388821D01*
X125144Y388909D01*
X125410Y389048D01*
X125698Y389239D01*
X126010Y389480D01*
X126344Y389772D01*
X126700Y390115D01*
X128115Y388701D01*
D02*
G37*
G36*
X181656Y389772D02*
X182302Y389239D01*
X182590Y389048D01*
X182856Y388909D01*
X183099Y388821D01*
X183319Y388783D01*
X183517Y388796D01*
X183691Y388860D01*
X183843Y388975D01*
X181025Y386157D01*
X181140Y386309D01*
X181204Y386484D01*
X181217Y386681D01*
X181179Y386901D01*
X181091Y387144D01*
X180952Y387410D01*
X180761Y387698D01*
X180520Y388010D01*
X180228Y388344D01*
X179885Y388701D01*
X181299Y390115D01*
X181656Y389772D01*
D02*
G37*
G36*
X185804Y380759D02*
X185635Y380681D01*
X185486Y380551D01*
X185357Y380368D01*
X185248Y380134D01*
X185159Y379848D01*
X185089Y379509D01*
X185040Y379118D01*
X185010Y378676D01*
X185000Y378181D01*
X183000D01*
X182990Y378676D01*
X182911Y379509D01*
X182841Y379848D01*
X182752Y380134D01*
X182643Y380368D01*
X182514Y380551D01*
X182365Y380681D01*
X182196Y380759D01*
X182008Y380785D01*
X185992D01*
X185804Y380759D01*
D02*
G37*
G36*
X175804D02*
X175635Y380681D01*
X175486Y380551D01*
X175357Y380368D01*
X175248Y380134D01*
X175159Y379848D01*
X175089Y379509D01*
X175040Y379118D01*
X175010Y378676D01*
X175000Y378181D01*
X173000D01*
X172990Y378676D01*
X172911Y379509D01*
X172841Y379848D01*
X172752Y380134D01*
X172643Y380368D01*
X172514Y380551D01*
X172365Y380681D01*
X172196Y380759D01*
X172008Y380785D01*
X175992D01*
X175804Y380759D01*
D02*
G37*
G36*
X165804D02*
X165635Y380681D01*
X165486Y380551D01*
X165357Y380368D01*
X165248Y380134D01*
X165159Y379848D01*
X165089Y379509D01*
X165040Y379118D01*
X165010Y378676D01*
X165000Y378181D01*
X163000D01*
X162990Y378676D01*
X162911Y379509D01*
X162841Y379848D01*
X162752Y380134D01*
X162643Y380368D01*
X162514Y380551D01*
X162365Y380681D01*
X162196Y380759D01*
X162008Y380785D01*
X165992D01*
X165804Y380759D01*
D02*
G37*
G36*
X494455Y4893D02*
X494102Y4539D01*
X460824D01*
X460633Y5001D01*
X469566Y13934D01*
X470367Y14978D01*
X470871Y16195D01*
X471043Y17500D01*
X471043Y17500D01*
Y17764D01*
X471514Y17932D01*
X471765Y17626D01*
X472831Y16752D01*
X474047Y16102D01*
X475366Y15701D01*
X476739Y15566D01*
X479739D01*
X481111Y15701D01*
X482430Y16102D01*
X483646Y16752D01*
X484712Y17626D01*
X485587Y18692D01*
X486237Y19908D01*
X486637Y21228D01*
X486772Y22600D01*
X486637Y23972D01*
X486237Y25292D01*
X485587Y26508D01*
X485004Y27219D01*
X484731Y27600D01*
X485004Y27981D01*
X485587Y28692D01*
X486237Y29908D01*
X486637Y31228D01*
X486772Y32600D01*
X486769Y32637D01*
X491566Y37434D01*
X492368Y38478D01*
X492871Y39695D01*
X493043Y41000D01*
Y137200D01*
X492871Y138505D01*
X492368Y139722D01*
X491566Y140766D01*
X487224Y145108D01*
X487272Y145600D01*
X487224Y146092D01*
X491566Y150434D01*
X492368Y151478D01*
X492871Y152695D01*
X493043Y154000D01*
Y197839D01*
X492871Y199144D01*
X492368Y200360D01*
X491566Y201405D01*
X487262Y205709D01*
X487137Y206972D01*
X486737Y208292D01*
X486087Y209508D01*
X485212Y210574D01*
X484146Y211449D01*
X482930Y212099D01*
X481611Y212499D01*
X480239Y212634D01*
X477239D01*
X475866Y212499D01*
X474547Y212099D01*
X473331Y211449D01*
X472265Y210574D01*
X471390Y209508D01*
X470740Y208292D01*
X470340Y206972D01*
X470205Y205600D01*
X470340Y204228D01*
X470740Y202908D01*
X471390Y201692D01*
X471974Y200981D01*
X472246Y200600D01*
X471974Y200219D01*
X471390Y199508D01*
X470740Y198292D01*
X470340Y196972D01*
X470205Y195600D01*
X470340Y194228D01*
X470740Y192908D01*
X471390Y191692D01*
X471974Y190981D01*
X472246Y190600D01*
X471974Y190219D01*
X471390Y189508D01*
X470740Y188292D01*
X470340Y186972D01*
X470205Y185600D01*
X470340Y184228D01*
X470740Y182908D01*
X471390Y181692D01*
X472265Y180626D01*
X473331Y179752D01*
X474466Y179145D01*
X474617Y178630D01*
X474386Y178453D01*
X474255Y178283D01*
X476090Y178374D01*
Y176100D01*
X478739D01*
Y175100D01*
X476090D01*
Y172826D01*
X475942Y172878D01*
X475705Y172925D01*
X475378Y172966D01*
X474455Y173031D01*
X474164Y173037D01*
X474386Y172747D01*
X474617Y172570D01*
X474466Y172055D01*
X473331Y171449D01*
X472350Y170643D01*
X471600D01*
X471600Y170643D01*
X470295Y170471D01*
X469078Y169967D01*
X468034Y169166D01*
X465434Y166566D01*
X464633Y165522D01*
X464129Y164305D01*
X463957Y163000D01*
Y65463D01*
X464500Y65501D01*
X464502Y65240D01*
X464563Y64423D01*
X464591Y64276D01*
X464623Y64152D01*
X464661Y64051D01*
X464704Y63973D01*
X464752Y63918D01*
X462306Y63778D01*
X462343Y63832D01*
X462376Y63909D01*
X462405Y64010D01*
X462430Y64134D01*
X462451Y64280D01*
X462483Y64643D01*
X462495Y65137D01*
X461911Y64801D01*
X461399Y64289D01*
X461037Y63661D01*
X460887Y63100D01*
X463600D01*
Y62100D01*
X460887D01*
X461037Y61538D01*
X461399Y60912D01*
X461911Y60400D01*
X462538Y60037D01*
X463238Y59850D01*
X463957D01*
Y59089D01*
X457934Y53066D01*
X457231Y52149D01*
X456747Y52340D01*
X456772Y52600D01*
X456637Y53972D01*
X456237Y55292D01*
X455587Y56508D01*
X455004Y57219D01*
X454731Y57600D01*
X455004Y57981D01*
X455587Y58692D01*
X456237Y59908D01*
X456637Y61228D01*
X456772Y62600D01*
X456637Y63972D01*
X456237Y65292D01*
X455587Y66508D01*
X455004Y67219D01*
X454731Y67600D01*
X455004Y67981D01*
X455587Y68692D01*
X456237Y69908D01*
X456637Y71228D01*
X456772Y72600D01*
X456637Y73972D01*
X456237Y75292D01*
X455587Y76508D01*
X455004Y77219D01*
X454731Y77600D01*
X455004Y77981D01*
X455587Y78692D01*
X456237Y79908D01*
X456637Y81228D01*
X456772Y82600D01*
X456637Y83972D01*
X456295Y85100D01*
X456582Y85600D01*
X456739D01*
Y99600D01*
X440585D01*
X440520Y98950D01*
X440500Y98000D01*
X439739Y98914D01*
Y85600D01*
X439895D01*
X440182Y85100D01*
X439840Y83972D01*
X439705Y82600D01*
X439840Y81228D01*
X440240Y79908D01*
X440890Y78692D01*
X441473Y77981D01*
X441746Y77600D01*
X441473Y77219D01*
X440890Y76508D01*
X440240Y75292D01*
X439840Y73972D01*
X439705Y72600D01*
X439840Y71228D01*
X440240Y69908D01*
X440890Y68692D01*
X441473Y67981D01*
X441746Y67600D01*
X441473Y67219D01*
X440890Y66508D01*
X440240Y65292D01*
X439840Y63972D01*
X439705Y62600D01*
X439840Y61228D01*
X440240Y59908D01*
X440890Y58692D01*
X441473Y57981D01*
X441746Y57600D01*
X441473Y57219D01*
X440890Y56508D01*
X440240Y55292D01*
X439840Y53972D01*
X439705Y52600D01*
X439840Y51228D01*
X440240Y49908D01*
X440890Y48692D01*
X441473Y47981D01*
X441746Y47600D01*
X441473Y47219D01*
X440890Y46508D01*
X440240Y45292D01*
X439840Y43972D01*
X439705Y42600D01*
X439840Y41228D01*
X440240Y39908D01*
X440890Y38692D01*
X441473Y37981D01*
X441746Y37600D01*
X441473Y37219D01*
X440890Y36508D01*
X440240Y35292D01*
X439840Y33972D01*
X439705Y32600D01*
X439840Y31228D01*
X440240Y29908D01*
X440890Y28692D01*
X441765Y27626D01*
X442831Y26752D01*
X443966Y26145D01*
X444117Y25630D01*
X443886Y25453D01*
X443245Y24617D01*
X442841Y23644D01*
X442770Y23100D01*
X453707D01*
X453636Y23644D01*
X453233Y24617D01*
X452591Y25453D01*
X452360Y25630D01*
X452511Y26145D01*
X453646Y26752D01*
X454712Y27626D01*
X455587Y28692D01*
X455957Y29384D01*
X456457Y29259D01*
Y21589D01*
X452911Y18043D01*
X436040D01*
X435706Y18543D01*
X436171Y19668D01*
X436489Y21261D01*
Y22887D01*
X436171Y24480D01*
X435550Y25982D01*
X434647Y27333D01*
X433755Y28225D01*
X434647Y29117D01*
X435550Y30468D01*
X436171Y31969D01*
X436489Y33563D01*
Y35188D01*
X436171Y36782D01*
X435550Y38284D01*
X434647Y39635D01*
X433755Y40527D01*
X434647Y41418D01*
X435550Y42770D01*
X436171Y44271D01*
X436489Y45865D01*
Y47490D01*
X436171Y49084D01*
X435550Y50585D01*
X434647Y51937D01*
X433755Y52828D01*
X434647Y53720D01*
X435550Y55071D01*
X436171Y56573D01*
X436489Y58167D01*
Y59792D01*
X436171Y61386D01*
X435550Y62887D01*
X434647Y64238D01*
X433755Y65130D01*
X434647Y66022D01*
X435550Y67373D01*
X436171Y68875D01*
X436489Y70468D01*
Y72093D01*
X436171Y73687D01*
X435550Y75189D01*
X434647Y76540D01*
X433755Y77432D01*
X434647Y78324D01*
X435550Y79675D01*
X436171Y81176D01*
X436489Y82770D01*
Y84395D01*
X436171Y85989D01*
X435550Y87490D01*
X434647Y88842D01*
X433755Y89733D01*
X434647Y90625D01*
X435550Y91976D01*
X436171Y93478D01*
X436489Y95072D01*
Y96697D01*
X436171Y98291D01*
X435550Y99792D01*
X434647Y101143D01*
X433755Y102035D01*
X434647Y102927D01*
X435550Y104278D01*
X436171Y105780D01*
X436489Y107373D01*
Y108999D01*
X436171Y110592D01*
X435550Y112094D01*
X434647Y113445D01*
X433755Y114337D01*
X434647Y115229D01*
X435550Y116580D01*
X436171Y118081D01*
X436489Y119675D01*
Y121300D01*
X436171Y122894D01*
X435550Y124396D01*
X434647Y125747D01*
X433755Y126639D01*
X434647Y127530D01*
X435550Y128882D01*
X436171Y130383D01*
X436489Y131977D01*
Y133602D01*
X436171Y135196D01*
X435550Y136697D01*
X434647Y138049D01*
X433755Y138940D01*
X434647Y139832D01*
X435550Y141183D01*
X436171Y142685D01*
X436489Y144279D01*
Y145904D01*
X436171Y147497D01*
X435550Y148999D01*
X434647Y150350D01*
X433755Y151242D01*
X434647Y152134D01*
X435550Y153485D01*
X436171Y154986D01*
X436489Y156580D01*
Y158205D01*
X436171Y159799D01*
X435550Y161301D01*
X434647Y162652D01*
X433755Y163544D01*
X434647Y164435D01*
X435550Y165787D01*
X436171Y167288D01*
X436489Y168882D01*
Y170507D01*
X436171Y172101D01*
X435550Y173602D01*
X434647Y174954D01*
X433755Y175845D01*
X434647Y176737D01*
X435550Y178088D01*
X436171Y179590D01*
X436489Y181184D01*
Y182809D01*
X436171Y184403D01*
X435550Y185904D01*
X434647Y187255D01*
X433755Y188147D01*
X434647Y189039D01*
X435550Y190390D01*
X436171Y191892D01*
X436489Y193485D01*
Y195110D01*
X436171Y196704D01*
X435550Y198206D01*
X434647Y199557D01*
X433755Y200449D01*
X434647Y201341D01*
X435550Y202692D01*
X436171Y204193D01*
X436489Y205787D01*
Y207412D01*
X436171Y209006D01*
X435550Y210507D01*
X434647Y211859D01*
X433498Y213008D01*
X432146Y213911D01*
X430645Y214533D01*
X429051Y214850D01*
X427426D01*
X425832Y214533D01*
X424331Y213911D01*
X422979Y213008D01*
X421830Y211859D01*
X420927Y210507D01*
X420306Y209006D01*
X419989Y207412D01*
Y205787D01*
X420306Y204193D01*
X420927Y202692D01*
X421830Y201341D01*
X422722Y200449D01*
X421830Y199557D01*
X420927Y198206D01*
X420306Y196704D01*
X419989Y195110D01*
Y193485D01*
X420306Y191892D01*
X420927Y190390D01*
X421830Y189039D01*
X422722Y188147D01*
X421830Y187255D01*
X420927Y185904D01*
X420306Y184403D01*
X419989Y182809D01*
Y181184D01*
X420306Y179590D01*
X420927Y178088D01*
X421830Y176737D01*
X422722Y175845D01*
X421830Y174954D01*
X420927Y173602D01*
X420306Y172101D01*
X419989Y170507D01*
Y168882D01*
X420306Y167288D01*
X420927Y165787D01*
X421830Y164435D01*
X422722Y163544D01*
X421830Y162652D01*
X420927Y161301D01*
X420306Y159799D01*
X419989Y158205D01*
Y156580D01*
X420306Y154986D01*
X420927Y153485D01*
X421830Y152134D01*
X422722Y151242D01*
X421830Y150350D01*
X420927Y148999D01*
X420306Y147497D01*
X419989Y145904D01*
Y144279D01*
X420306Y142685D01*
X420927Y141183D01*
X421830Y139832D01*
X422722Y138940D01*
X421830Y138049D01*
X420927Y136697D01*
X420306Y135196D01*
X419989Y133602D01*
Y131977D01*
X420306Y130383D01*
X420927Y128882D01*
X421830Y127530D01*
X422722Y126639D01*
X421830Y125747D01*
X420927Y124396D01*
X420306Y122894D01*
X419989Y121300D01*
Y119675D01*
X420306Y118081D01*
X420927Y116580D01*
X421830Y115229D01*
X422722Y114337D01*
X421830Y113445D01*
X420927Y112094D01*
X420306Y110592D01*
X419989Y108999D01*
Y107373D01*
X420306Y105780D01*
X420927Y104278D01*
X421830Y102927D01*
X422722Y102035D01*
X421830Y101143D01*
X420927Y99792D01*
X420306Y98291D01*
X419989Y96697D01*
Y95072D01*
X420306Y93478D01*
X420927Y91976D01*
X421830Y90625D01*
X422722Y89733D01*
X421830Y88842D01*
X420927Y87490D01*
X420306Y85989D01*
X419989Y84395D01*
Y82770D01*
X420306Y81176D01*
X420927Y79675D01*
X421830Y78324D01*
X422722Y77432D01*
X421830Y76540D01*
X420927Y75189D01*
X420306Y73687D01*
X419989Y72093D01*
Y70468D01*
X420306Y68875D01*
X420927Y67373D01*
X421830Y66022D01*
X422722Y65130D01*
X421830Y64238D01*
X420927Y62887D01*
X420306Y61386D01*
X419989Y59792D01*
Y58167D01*
X420306Y56573D01*
X420927Y55071D01*
X421830Y53720D01*
X422722Y52828D01*
X421830Y51937D01*
X420927Y50585D01*
X420306Y49084D01*
X419989Y47490D01*
Y45865D01*
X420306Y44271D01*
X420927Y42770D01*
X421830Y41418D01*
X422722Y40527D01*
X421830Y39635D01*
X420927Y38284D01*
X420306Y36782D01*
X419989Y35188D01*
Y33563D01*
X420306Y31969D01*
X420927Y30468D01*
X421830Y29117D01*
X422722Y28225D01*
X421830Y27333D01*
X420927Y25982D01*
X420306Y24480D01*
X419989Y22887D01*
Y21261D01*
X420306Y19668D01*
X420771Y18543D01*
X420437Y18043D01*
X406040D01*
X405706Y18543D01*
X406172Y19668D01*
X406489Y21261D01*
Y22887D01*
X406172Y24480D01*
X405550Y25982D01*
X404647Y27333D01*
X403755Y28225D01*
X404647Y29117D01*
X405550Y30468D01*
X406172Y31969D01*
X406489Y33563D01*
Y35188D01*
X406172Y36782D01*
X405550Y38284D01*
X404647Y39635D01*
X403755Y40527D01*
X404647Y41418D01*
X405550Y42770D01*
X406172Y44271D01*
X406489Y45865D01*
Y47490D01*
X406172Y49084D01*
X405550Y50585D01*
X404647Y51937D01*
X403755Y52828D01*
X404647Y53720D01*
X405550Y55071D01*
X406172Y56573D01*
X406489Y58167D01*
Y59792D01*
X406172Y61386D01*
X405550Y62887D01*
X404647Y64238D01*
X403755Y65130D01*
X404647Y66022D01*
X405550Y67373D01*
X406172Y68875D01*
X406489Y70468D01*
Y72093D01*
X406172Y73687D01*
X405550Y75189D01*
X404647Y76540D01*
X403755Y77432D01*
X404647Y78324D01*
X405550Y79675D01*
X406172Y81176D01*
X406489Y82770D01*
Y84395D01*
X406172Y85989D01*
X405550Y87490D01*
X404647Y88842D01*
X403755Y89733D01*
X404647Y90625D01*
X405550Y91976D01*
X406172Y93478D01*
X406489Y95072D01*
Y96697D01*
X406172Y98291D01*
X405550Y99792D01*
X404647Y101143D01*
X403755Y102035D01*
X404647Y102927D01*
X405550Y104278D01*
X406172Y105780D01*
X406489Y107373D01*
Y108999D01*
X406172Y110592D01*
X405550Y112094D01*
X404647Y113445D01*
X403755Y114337D01*
X404647Y115229D01*
X405550Y116580D01*
X406172Y118081D01*
X406489Y119675D01*
Y121300D01*
X406172Y122894D01*
X405550Y124396D01*
X404647Y125747D01*
X403755Y126639D01*
X404647Y127530D01*
X405550Y128882D01*
X406172Y130383D01*
X406489Y131977D01*
Y133602D01*
X406172Y135196D01*
X405550Y136697D01*
X404647Y138049D01*
X403755Y138940D01*
X404647Y139832D01*
X405550Y141183D01*
X406172Y142685D01*
X406489Y144279D01*
Y145904D01*
X406172Y147497D01*
X405550Y148999D01*
X404647Y150350D01*
X403755Y151242D01*
X404647Y152134D01*
X405550Y153485D01*
X406172Y154986D01*
X406489Y156580D01*
Y158205D01*
X406172Y159799D01*
X405550Y161301D01*
X404647Y162652D01*
X403755Y163544D01*
X404647Y164435D01*
X405550Y165787D01*
X406172Y167288D01*
X406489Y168882D01*
Y170507D01*
X406172Y172101D01*
X405550Y173602D01*
X404647Y174954D01*
X403755Y175845D01*
X404647Y176737D01*
X405550Y178088D01*
X406172Y179590D01*
X406489Y181184D01*
Y182809D01*
X406172Y184403D01*
X405550Y185904D01*
X404647Y187255D01*
X403755Y188147D01*
X404647Y189039D01*
X405550Y190390D01*
X406172Y191892D01*
X406489Y193485D01*
Y195110D01*
X406172Y196704D01*
X405550Y198206D01*
X404647Y199557D01*
X403755Y200449D01*
X404647Y201341D01*
X405550Y202692D01*
X406172Y204193D01*
X406489Y205787D01*
Y207412D01*
X406172Y209006D01*
X405550Y210507D01*
X404647Y211859D01*
X403498Y213008D01*
X402146Y213911D01*
X400645Y214533D01*
X399051Y214850D01*
X397426D01*
X395832Y214533D01*
X394331Y213911D01*
X392980Y213008D01*
X391830Y211859D01*
X390928Y210507D01*
X390306Y209006D01*
X389989Y207412D01*
Y205787D01*
X390306Y204193D01*
X390928Y202692D01*
X391830Y201341D01*
X392722Y200449D01*
X391830Y199557D01*
X390928Y198206D01*
X390306Y196704D01*
X389989Y195110D01*
Y193485D01*
X390306Y191892D01*
X390928Y190390D01*
X391830Y189039D01*
X392722Y188147D01*
X391830Y187255D01*
X390928Y185904D01*
X390306Y184403D01*
X389989Y182809D01*
Y181184D01*
X390306Y179590D01*
X390928Y178088D01*
X391830Y176737D01*
X392722Y175845D01*
X391830Y174954D01*
X390928Y173602D01*
X390306Y172101D01*
X389989Y170507D01*
Y168882D01*
X390306Y167288D01*
X390928Y165787D01*
X391830Y164435D01*
X392722Y163544D01*
X391830Y162652D01*
X390928Y161301D01*
X390306Y159799D01*
X389989Y158205D01*
Y156580D01*
X390306Y154986D01*
X390928Y153485D01*
X391830Y152134D01*
X392722Y151242D01*
X391830Y150350D01*
X390928Y148999D01*
X390306Y147497D01*
X389989Y145904D01*
Y144279D01*
X390306Y142685D01*
X390928Y141183D01*
X391830Y139832D01*
X392722Y138940D01*
X391830Y138049D01*
X390928Y136697D01*
X390306Y135196D01*
X389989Y133602D01*
Y131977D01*
X390306Y130383D01*
X390928Y128882D01*
X391830Y127530D01*
X392722Y126639D01*
X391830Y125747D01*
X390928Y124396D01*
X390306Y122894D01*
X389989Y121300D01*
Y119675D01*
X390306Y118081D01*
X390928Y116580D01*
X391830Y115229D01*
X392722Y114337D01*
X391830Y113445D01*
X390928Y112094D01*
X390306Y110592D01*
X389989Y108999D01*
Y107373D01*
X390306Y105780D01*
X390928Y104278D01*
X391830Y102927D01*
X392722Y102035D01*
X391830Y101143D01*
X390928Y99792D01*
X390306Y98291D01*
X389989Y96697D01*
Y95072D01*
X390306Y93478D01*
X390928Y91976D01*
X391830Y90625D01*
X392722Y89733D01*
X391830Y88842D01*
X390928Y87490D01*
X390306Y85989D01*
X389989Y84395D01*
Y82770D01*
X390306Y81176D01*
X390928Y79675D01*
X391830Y78324D01*
X392722Y77432D01*
X391830Y76540D01*
X390928Y75189D01*
X390306Y73687D01*
X389989Y72093D01*
Y70468D01*
X390306Y68875D01*
X390928Y67373D01*
X391830Y66022D01*
X392722Y65130D01*
X391830Y64238D01*
X390928Y62887D01*
X390306Y61386D01*
X389989Y59792D01*
Y58167D01*
X390306Y56573D01*
X390928Y55071D01*
X391830Y53720D01*
X392722Y52828D01*
X391830Y51937D01*
X390928Y50585D01*
X390306Y49084D01*
X389989Y47490D01*
Y45865D01*
X390306Y44271D01*
X390928Y42770D01*
X391830Y41418D01*
X392722Y40527D01*
X391830Y39635D01*
X390928Y38284D01*
X390306Y36782D01*
X389989Y35188D01*
Y33563D01*
X390306Y31969D01*
X390928Y30468D01*
X391830Y29117D01*
X392722Y28225D01*
X391830Y27333D01*
X390928Y25982D01*
X390306Y24480D01*
X389989Y22887D01*
Y21261D01*
X390306Y19668D01*
X390771Y18543D01*
X390437Y18043D01*
X157589D01*
X131043Y44589D01*
Y160500D01*
X130871Y161805D01*
X130368Y163022D01*
X129566Y164066D01*
X113066Y180566D01*
X112022Y181368D01*
X110805Y181871D01*
X109500Y182043D01*
X72089D01*
X62543Y191589D01*
Y281911D01*
X71089Y290457D01*
X74331D01*
X74545Y290005D01*
X74304Y289711D01*
X73603Y288401D01*
X73172Y286979D01*
X73027Y285500D01*
X73172Y284021D01*
X73603Y282599D01*
X74304Y281289D01*
X74951Y280500D01*
X74304Y279711D01*
X73603Y278401D01*
X73172Y276979D01*
X73027Y275500D01*
X73172Y274021D01*
X73603Y272599D01*
X74304Y271289D01*
X74951Y270500D01*
X74304Y269711D01*
X73603Y268401D01*
X73172Y266979D01*
X73027Y265500D01*
X73172Y264021D01*
X73603Y262599D01*
X74304Y261289D01*
X74951Y260500D01*
X74304Y259711D01*
X73603Y258401D01*
X73172Y256979D01*
X73027Y255500D01*
X73172Y254021D01*
X73603Y252599D01*
X74304Y251289D01*
X74951Y250500D01*
X74304Y249711D01*
X73603Y248401D01*
X73172Y246979D01*
X73027Y245500D01*
X73172Y244021D01*
X73603Y242599D01*
X74304Y241289D01*
X74951Y240500D01*
X74304Y239711D01*
X73603Y238401D01*
X73172Y236979D01*
X73027Y235500D01*
X73172Y234021D01*
X73603Y232599D01*
X74304Y231289D01*
X74951Y230500D01*
X74304Y229711D01*
X73603Y228401D01*
X73172Y226979D01*
X73027Y225500D01*
X73172Y224021D01*
X73603Y222599D01*
X74304Y221289D01*
X74951Y220500D01*
X74304Y219711D01*
X73603Y218401D01*
X73172Y216979D01*
X73027Y215500D01*
X73172Y214021D01*
X73603Y212599D01*
X74304Y211289D01*
X74951Y210500D01*
X74304Y209711D01*
X73603Y208401D01*
X73172Y206979D01*
X73027Y205500D01*
X73172Y204021D01*
X73555Y202759D01*
Y188055D01*
X88445D01*
Y202759D01*
X88828Y204021D01*
X88973Y205500D01*
X88828Y206979D01*
X88397Y208401D01*
X87696Y209711D01*
X87049Y210500D01*
X87696Y211289D01*
X88397Y212599D01*
X88828Y214021D01*
X88973Y215500D01*
X88828Y216979D01*
X88397Y218401D01*
X87696Y219711D01*
X87049Y220500D01*
X87696Y221289D01*
X88397Y222599D01*
X88828Y224021D01*
X88973Y225500D01*
X88828Y226979D01*
X88397Y228401D01*
X87696Y229711D01*
X87455Y230005D01*
X87669Y230457D01*
X135500D01*
X136805Y230629D01*
X138022Y231133D01*
X139066Y231934D01*
X172589Y265457D01*
X331500D01*
X332805Y265629D01*
X334022Y266132D01*
X335066Y266934D01*
X372895Y304762D01*
X373696Y305807D01*
X374200Y307023D01*
X374372Y308328D01*
Y324500D01*
X374200Y325805D01*
X373696Y327022D01*
X372895Y328066D01*
X368394Y332566D01*
X367350Y333367D01*
X366134Y333871D01*
X364828Y334043D01*
X362389D01*
X362345Y334045D01*
X362179Y334065D01*
X362030Y334095D01*
X361889Y334137D01*
X361750Y334191D01*
X361607Y334261D01*
X361455Y334352D01*
X361289Y334469D01*
X361110Y334618D01*
X360820Y334894D01*
X360646Y335022D01*
X360259Y335408D01*
X358908Y336311D01*
X357406Y336933D01*
X355813Y337250D01*
X354187D01*
X352594Y336933D01*
X351092Y336311D01*
X349741Y335408D01*
X349250Y334917D01*
X348759Y335408D01*
X347408Y336311D01*
X345906Y336933D01*
X344313Y337250D01*
X342687D01*
X341094Y336933D01*
X339592Y336311D01*
X338241Y335408D01*
X337092Y334259D01*
X336189Y332908D01*
X335567Y331406D01*
X335250Y329813D01*
Y328187D01*
X335567Y326594D01*
X336189Y325092D01*
X337092Y323741D01*
X337241Y323591D01*
X337120Y323106D01*
X336693Y322977D01*
X335425Y322299D01*
X334313Y321387D01*
X333543Y320449D01*
X333043Y320627D01*
Y326000D01*
X332871Y327305D01*
X332367Y328522D01*
X331566Y329566D01*
X328566Y332566D01*
X327522Y333367D01*
X326305Y333871D01*
X325000Y334043D01*
X321389D01*
X321345Y334045D01*
X321179Y334065D01*
X321030Y334095D01*
X320889Y334137D01*
X320750Y334191D01*
X320607Y334261D01*
X320455Y334352D01*
X320289Y334469D01*
X320110Y334618D01*
X319820Y334894D01*
X319646Y335022D01*
X319259Y335408D01*
X317908Y336311D01*
X316406Y336933D01*
X314813Y337250D01*
X313187D01*
X311594Y336933D01*
X310092Y336311D01*
X308741Y335408D01*
X308250Y334917D01*
X307759Y335408D01*
X306408Y336311D01*
X304906Y336933D01*
X303313Y337250D01*
X301687D01*
X300094Y336933D01*
X298592Y336311D01*
X297241Y335408D01*
X296092Y334259D01*
X295189Y332908D01*
X294567Y331406D01*
X294250Y329813D01*
Y328187D01*
X294567Y326594D01*
X295189Y325092D01*
X296075Y323767D01*
X296116Y323676D01*
X295949Y323206D01*
X295193Y322977D01*
X293925Y322299D01*
X292813Y321387D01*
X291901Y320275D01*
X291223Y319007D01*
X291043Y318414D01*
X290543Y318488D01*
Y326500D01*
X290371Y327805D01*
X289867Y329022D01*
X289066Y330066D01*
X286566Y332566D01*
X285522Y333367D01*
X284305Y333871D01*
X283000Y334043D01*
X279389D01*
X279345Y334045D01*
X279179Y334065D01*
X279030Y334095D01*
X278889Y334137D01*
X278750Y334191D01*
X278607Y334261D01*
X278455Y334352D01*
X278289Y334469D01*
X278110Y334618D01*
X277820Y334894D01*
X277646Y335022D01*
X277259Y335408D01*
X275908Y336311D01*
X274406Y336933D01*
X272813Y337250D01*
X271187D01*
X269594Y336933D01*
X268092Y336311D01*
X266741Y335408D01*
X266250Y334917D01*
X265759Y335408D01*
X264408Y336311D01*
X262906Y336933D01*
X261313Y337250D01*
X259687D01*
X258094Y336933D01*
X256592Y336311D01*
X255241Y335408D01*
X254092Y334259D01*
X253189Y332908D01*
X252567Y331406D01*
X252250Y329813D01*
Y328187D01*
X252567Y326594D01*
X253189Y325092D01*
X254092Y323741D01*
X254241Y323591D01*
X254120Y323106D01*
X253693Y322977D01*
X252425Y322299D01*
X251313Y321387D01*
X250401Y320275D01*
X249723Y319007D01*
X249306Y317631D01*
X249165Y316200D01*
Y312800D01*
X249306Y311369D01*
X249723Y309993D01*
X250401Y308725D01*
X251313Y307613D01*
X252425Y306701D01*
X253693Y306023D01*
X255069Y305606D01*
X256500Y305465D01*
X257931Y305606D01*
X259307Y306023D01*
X260575Y306701D01*
X261500Y307460D01*
X262425Y306701D01*
X263693Y306023D01*
X265069Y305606D01*
X266500Y305465D01*
X267931Y305606D01*
X269307Y306023D01*
X270575Y306701D01*
X271500Y307460D01*
X272425Y306701D01*
X273693Y306023D01*
X275069Y305606D01*
X276500Y305465D01*
X276685Y305483D01*
X276899Y305031D01*
X263911Y292043D01*
X235828D01*
X235637Y292505D01*
X246066Y302934D01*
X246867Y303978D01*
X247371Y305195D01*
X247543Y306500D01*
Y325500D01*
X247371Y326805D01*
X246867Y328022D01*
X246066Y329066D01*
X242566Y332566D01*
X241522Y333367D01*
X240305Y333871D01*
X239000Y334043D01*
X237389D01*
X237345Y334045D01*
X237179Y334065D01*
X237030Y334095D01*
X236889Y334137D01*
X236750Y334191D01*
X236607Y334261D01*
X236455Y334352D01*
X236289Y334469D01*
X236110Y334618D01*
X235820Y334894D01*
X235646Y335022D01*
X235259Y335408D01*
X233908Y336311D01*
X232406Y336933D01*
X230813Y337250D01*
X229187D01*
X227594Y336933D01*
X226092Y336311D01*
X224741Y335408D01*
X224250Y334917D01*
X223759Y335408D01*
X222408Y336311D01*
X220906Y336933D01*
X219313Y337250D01*
X217687D01*
X216094Y336933D01*
X214592Y336311D01*
X213241Y335408D01*
X212092Y334259D01*
X211189Y332908D01*
X211043Y332556D01*
X210543Y332655D01*
Y355345D01*
X211043Y355444D01*
X211189Y355092D01*
X212092Y353741D01*
X213241Y352592D01*
X214592Y351689D01*
X216094Y351067D01*
X217687Y350750D01*
X219313D01*
X220906Y351067D01*
X222408Y351689D01*
X223759Y352592D01*
X224250Y353083D01*
X224741Y352592D01*
X226092Y351689D01*
X227594Y351067D01*
X229187Y350750D01*
X230813D01*
X232406Y351067D01*
X233908Y351689D01*
X235259Y352592D01*
X236408Y353741D01*
X237311Y355092D01*
X237933Y356594D01*
X238250Y358187D01*
Y359813D01*
X237933Y361406D01*
X237311Y362908D01*
X236408Y364259D01*
X235875Y364792D01*
X235997Y365277D01*
X236807Y365523D01*
X238075Y366201D01*
X239187Y367113D01*
X240099Y368225D01*
X240777Y369493D01*
X241194Y370869D01*
X241335Y372300D01*
Y375700D01*
X241194Y377131D01*
X240777Y378507D01*
X240099Y379775D01*
X239187Y380887D01*
X238075Y381799D01*
X236807Y382477D01*
X235431Y382894D01*
X234000Y383035D01*
X232569Y382894D01*
X231193Y382477D01*
X229925Y381799D01*
X229000Y381040D01*
X228075Y381799D01*
X226807Y382477D01*
X225431Y382894D01*
X224000Y383035D01*
X222569Y382894D01*
X221193Y382477D01*
X219925Y381799D01*
X218813Y380887D01*
X217901Y379775D01*
X217476Y378981D01*
X216874Y378915D01*
X216169Y379456D01*
X215123Y379889D01*
X214500Y379971D01*
Y374000D01*
Y368029D01*
X215123Y368111D01*
X216169Y368544D01*
X216874Y369085D01*
X217476Y369019D01*
X217901Y368225D01*
X218330Y367702D01*
X218116Y367250D01*
X217687D01*
X216094Y366933D01*
X214592Y366311D01*
X213241Y365408D01*
X212092Y364259D01*
X211189Y362908D01*
X211043Y362556D01*
X210543Y362655D01*
Y363000D01*
X210543Y363000D01*
X210371Y364305D01*
X209868Y365522D01*
X209066Y366566D01*
X203395Y372238D01*
X202350Y373039D01*
X201134Y373543D01*
X199828Y373715D01*
X192589D01*
X189305Y376998D01*
X189328Y377132D01*
X189871Y377333D01*
X190092Y377151D01*
X191308Y376501D01*
X192628Y376101D01*
X194000Y375966D01*
X195372Y376101D01*
X196692Y376501D01*
X197908Y377151D01*
X198974Y378026D01*
X199848Y379092D01*
X200499Y380308D01*
X200899Y381628D01*
X201034Y383000D01*
Y386000D01*
X200899Y387372D01*
X200499Y388692D01*
X199848Y389908D01*
X198974Y390974D01*
X197908Y391848D01*
X196692Y392498D01*
X195372Y392899D01*
X194000Y393034D01*
X192628Y392899D01*
X191308Y392498D01*
X190092Y391848D01*
X189381Y391265D01*
X189000Y390992D01*
X188619Y391265D01*
X187908Y391848D01*
X186692Y392498D01*
X185372Y392899D01*
X184109Y393023D01*
X181066Y396066D01*
X180022Y396867D01*
X178805Y397371D01*
X178123Y397461D01*
X178155Y397961D01*
X493967D01*
X494455Y4893D01*
D02*
G37*
G36*
X179632Y372650D02*
X180434Y371605D01*
X186934Y365106D01*
X187978Y364304D01*
X189195Y363800D01*
X190500Y363628D01*
X197740D01*
X200457Y360911D01*
Y344974D01*
X200016Y344739D01*
X199908Y344811D01*
X198406Y345433D01*
X196812Y345750D01*
X195187D01*
X193594Y345433D01*
X192092Y344811D01*
X190741Y343908D01*
X190179Y343346D01*
X189616Y343908D01*
X188265Y344811D01*
X186764Y345433D01*
X185633Y345658D01*
X185608Y346173D01*
X186692Y346501D01*
X187908Y347151D01*
X188974Y348026D01*
X189848Y349092D01*
X190455Y350227D01*
X190970Y350379D01*
X191147Y350147D01*
X191983Y349506D01*
X192956Y349103D01*
X193500Y349031D01*
Y354500D01*
Y359969D01*
X192956Y359897D01*
X191983Y359494D01*
X191147Y358853D01*
X190970Y358621D01*
X190455Y358772D01*
X189848Y359908D01*
X188974Y360974D01*
X187908Y361848D01*
X186692Y362498D01*
X185372Y362899D01*
X184000Y363034D01*
X182628Y362899D01*
X181308Y362498D01*
X180092Y361848D01*
X179381Y361265D01*
X179000Y360993D01*
X178619Y361265D01*
X177908Y361848D01*
X176692Y362498D01*
X175372Y362899D01*
X174000Y363034D01*
X172628Y362899D01*
X171308Y362498D01*
X170297Y361958D01*
X169996Y362364D01*
X177566Y369934D01*
X178367Y370978D01*
X178871Y372195D01*
X178970Y372943D01*
X179483Y373011D01*
X179632Y372650D01*
D02*
G37*
G36*
X159381Y347735D02*
X160092Y347151D01*
X161308Y346501D01*
X162527Y346132D01*
X162405Y345646D01*
X161884Y345750D01*
X160259D01*
X158665Y345433D01*
X157164Y344811D01*
X155812Y343908D01*
X155250Y343346D01*
X154688Y343908D01*
X153336Y344811D01*
X151835Y345433D01*
X150241Y345750D01*
X148616D01*
X147022Y345433D01*
X145521Y344811D01*
X144169Y343908D01*
X143607Y343346D01*
X143045Y343908D01*
X141693Y344811D01*
X140192Y345433D01*
X138598Y345750D01*
X136973D01*
X135379Y345433D01*
X133878Y344811D01*
X132527Y343908D01*
X131964Y343346D01*
X131402Y343908D01*
X130051Y344811D01*
X128549Y345433D01*
X128212Y345500D01*
X128261Y346000D01*
X131000D01*
Y346157D01*
X131500Y346443D01*
X132628Y346101D01*
X134000Y345966D01*
X135372Y346101D01*
X136692Y346501D01*
X137908Y347151D01*
X138619Y347735D01*
X139000Y348007D01*
X139381Y347735D01*
X140092Y347151D01*
X141308Y346501D01*
X142628Y346101D01*
X144000Y345966D01*
X145372Y346101D01*
X146692Y346501D01*
X147908Y347151D01*
X148619Y347735D01*
X149000Y348007D01*
X149381Y347735D01*
X150092Y347151D01*
X151308Y346501D01*
X152628Y346101D01*
X154000Y345966D01*
X155372Y346101D01*
X156692Y346501D01*
X157908Y347151D01*
X158619Y347735D01*
X159000Y348007D01*
X159381Y347735D01*
D02*
G37*
G36*
X117000Y346000D02*
X124024D01*
X124073Y345500D01*
X123736Y345433D01*
X122235Y344811D01*
X120884Y343908D01*
X120321Y343346D01*
X119759Y343908D01*
X118408Y344811D01*
X116906Y345433D01*
X115313Y345750D01*
X113687D01*
X112094Y345433D01*
X110592Y344811D01*
X109543Y344110D01*
X109043Y344377D01*
Y350911D01*
X116089Y357957D01*
X117000D01*
Y346000D01*
D02*
G37*
G36*
X190741Y331092D02*
X192092Y330189D01*
X193594Y329567D01*
X195187Y329250D01*
X196812D01*
X198406Y329567D01*
X199908Y330189D01*
X200016Y330261D01*
X200457Y330026D01*
Y314974D01*
X200016Y314739D01*
X199908Y314811D01*
X198406Y315433D01*
X196812Y315750D01*
X195187D01*
X193594Y315433D01*
X192092Y314811D01*
X190741Y313908D01*
X190179Y313346D01*
X189616Y313908D01*
X188265Y314811D01*
X186764Y315433D01*
X185170Y315750D01*
X183545D01*
X181951Y315433D01*
X180449Y314811D01*
X179098Y313908D01*
X178536Y313346D01*
X177973Y313908D01*
X176622Y314811D01*
X175121Y315433D01*
X173527Y315750D01*
X171902D01*
X170308Y315433D01*
X168806Y314811D01*
X167455Y313908D01*
X166893Y313346D01*
X166331Y313908D01*
X164979Y314811D01*
X163478Y315433D01*
X161884Y315750D01*
X160259D01*
X158665Y315433D01*
X157164Y314811D01*
X155812Y313908D01*
X155250Y313346D01*
X154688Y313908D01*
X153336Y314811D01*
X151835Y315433D01*
X150241Y315750D01*
X148616D01*
X147022Y315433D01*
X145521Y314811D01*
X144169Y313908D01*
X143607Y313346D01*
X143045Y313908D01*
X141693Y314811D01*
X140192Y315433D01*
X138598Y315750D01*
X136973D01*
X135379Y315433D01*
X133878Y314811D01*
X132527Y313908D01*
X131964Y313346D01*
X131402Y313908D01*
X130051Y314811D01*
X128549Y315433D01*
X126955Y315750D01*
X125330D01*
X123736Y315433D01*
X122235Y314811D01*
X120884Y313908D01*
X120321Y313346D01*
X119759Y313908D01*
X118408Y314811D01*
X116906Y315433D01*
X115313Y315750D01*
X113687D01*
X112094Y315433D01*
X110592Y314811D01*
X109543Y314110D01*
X109043Y314377D01*
Y330623D01*
X109543Y330890D01*
X110592Y330189D01*
X112094Y329567D01*
X113687Y329250D01*
X115313D01*
X116906Y329567D01*
X118408Y330189D01*
X119759Y331092D01*
X120321Y331654D01*
X120884Y331092D01*
X122235Y330189D01*
X123736Y329567D01*
X125330Y329250D01*
X126955D01*
X128549Y329567D01*
X130051Y330189D01*
X131402Y331092D01*
X131964Y331654D01*
X132527Y331092D01*
X133878Y330189D01*
X135379Y329567D01*
X136973Y329250D01*
X138598D01*
X140192Y329567D01*
X141693Y330189D01*
X143045Y331092D01*
X143607Y331654D01*
X144169Y331092D01*
X145521Y330189D01*
X147022Y329567D01*
X148616Y329250D01*
X150241D01*
X151835Y329567D01*
X153336Y330189D01*
X154688Y331092D01*
X155250Y331654D01*
X155812Y331092D01*
X157164Y330189D01*
X158665Y329567D01*
X160259Y329250D01*
X161884D01*
X163478Y329567D01*
X164979Y330189D01*
X166331Y331092D01*
X166893Y331654D01*
X167455Y331092D01*
X168806Y330189D01*
X170308Y329567D01*
X171902Y329250D01*
X173527D01*
X175121Y329567D01*
X176622Y330189D01*
X177973Y331092D01*
X178536Y331654D01*
X179098Y331092D01*
X180449Y330189D01*
X181951Y329567D01*
X183545Y329250D01*
X185170D01*
X186764Y329567D01*
X188265Y330189D01*
X189616Y331092D01*
X190179Y331654D01*
X190741Y331092D01*
D02*
G37*
G36*
X358429Y331600D02*
X358834Y331264D01*
X359253Y330968D01*
X359684Y330711D01*
X360127Y330494D01*
X360583Y330316D01*
X361051Y330178D01*
X361532Y330079D01*
X362025Y330020D01*
X362531Y330000D01*
Y328000D01*
X362025Y327980D01*
X361532Y327921D01*
X361051Y327822D01*
X360583Y327684D01*
X360127Y327506D01*
X359684Y327289D01*
X359253Y327032D01*
X358834Y326736D01*
X358429Y326400D01*
X358035Y326025D01*
Y331975D01*
X358429Y331600D01*
D02*
G37*
G36*
X317428D02*
X317834Y331264D01*
X318253Y330968D01*
X318684Y330711D01*
X319127Y330494D01*
X319583Y330316D01*
X320051Y330178D01*
X320532Y330079D01*
X321025Y330020D01*
X321531Y330000D01*
Y328000D01*
X321025Y327980D01*
X320532Y327921D01*
X320051Y327822D01*
X319583Y327684D01*
X319127Y327506D01*
X318684Y327289D01*
X318253Y327032D01*
X317834Y326736D01*
X317428Y326400D01*
X317035Y326025D01*
Y331975D01*
X317428Y331600D01*
D02*
G37*
G36*
X275429D02*
X275834Y331264D01*
X276253Y330968D01*
X276684Y330711D01*
X277127Y330494D01*
X277583Y330316D01*
X278051Y330178D01*
X278532Y330079D01*
X279025Y330020D01*
X279531Y330000D01*
Y328000D01*
X279025Y327980D01*
X278532Y327921D01*
X278051Y327822D01*
X277583Y327684D01*
X277127Y327506D01*
X276684Y327289D01*
X276253Y327032D01*
X275834Y326736D01*
X275429Y326400D01*
X275035Y326025D01*
Y331975D01*
X275429Y331600D01*
D02*
G37*
G36*
X233429D02*
X233834Y331264D01*
X234253Y330968D01*
X234684Y330711D01*
X235127Y330494D01*
X235583Y330316D01*
X236051Y330178D01*
X236532Y330079D01*
X237025Y330020D01*
X237531Y330000D01*
Y328000D01*
X237025Y327980D01*
X236532Y327921D01*
X236051Y327822D01*
X235583Y327684D01*
X235127Y327506D01*
X234684Y327289D01*
X234253Y327032D01*
X233834Y326736D01*
X233429Y326400D01*
X233035Y326025D01*
Y331975D01*
X233429Y331600D01*
D02*
G37*
G36*
X232568Y309551D02*
X232417Y309666D01*
X232244Y309732D01*
X232049Y309748D01*
X231833Y309714D01*
X231595Y309630D01*
X231335Y309496D01*
X231053Y309313D01*
X230750Y309080D01*
X230425Y308797D01*
X230078Y308464D01*
X228664Y309878D01*
X228996Y310225D01*
X229513Y310853D01*
X229696Y311135D01*
X229830Y311395D01*
X229914Y311633D01*
X229948Y311849D01*
X229932Y312044D01*
X229866Y312217D01*
X229751Y312368D01*
X232568Y309551D01*
D02*
G37*
G36*
X129877Y397461D02*
X129195Y397371D01*
X127978Y396867D01*
X126934Y396066D01*
X123891Y393023D01*
X122628Y392899D01*
X121308Y392498D01*
X120092Y391848D01*
X119026Y390974D01*
X118151Y389908D01*
X117501Y388692D01*
X117101Y387372D01*
X116966Y386000D01*
Y383000D01*
X117101Y381628D01*
X117501Y380308D01*
X118151Y379092D01*
X119026Y378026D01*
X120092Y377151D01*
X121308Y376501D01*
X122628Y376101D01*
X124000Y375966D01*
X125372Y376101D01*
X126692Y376501D01*
X127908Y377151D01*
X128619Y377735D01*
X129000Y378008D01*
X129381Y377735D01*
X130092Y377151D01*
X131308Y376501D01*
X132628Y376101D01*
X134000Y375966D01*
X135372Y376101D01*
X136692Y376501D01*
X137908Y377151D01*
X138619Y377735D01*
X139000Y378008D01*
X139381Y377735D01*
X140092Y377151D01*
X141308Y376501D01*
X142628Y376101D01*
X144000Y375966D01*
X145372Y376101D01*
X146692Y376501D01*
X147908Y377151D01*
X148974Y378026D01*
X149202Y378305D01*
X147462Y380098D01*
X148088Y380753D01*
X149162Y382058D01*
X149610Y382709D01*
X149999Y383359D01*
X150329Y384007D01*
X150599Y384653D01*
X150810Y385299D01*
X150962Y385943D01*
X151055Y386586D01*
X153500Y382788D01*
Y384500D01*
X154500D01*
Y381234D01*
X155149Y380226D01*
X154981Y380151D01*
X154757Y380009D01*
X154500Y379820D01*
Y379031D01*
X155044Y379103D01*
X156017Y379506D01*
X156853Y380147D01*
X157030Y380379D01*
X157545Y380227D01*
X158151Y379092D01*
X158957Y378111D01*
Y376589D01*
X155411Y373043D01*
X109000D01*
X107695Y372871D01*
X106478Y372368D01*
X105434Y371566D01*
X92434Y358566D01*
X91632Y357522D01*
X91129Y356305D01*
X90957Y355000D01*
Y303589D01*
X87970Y300602D01*
X87374Y300713D01*
X87321Y300832D01*
X87696Y301289D01*
X88397Y302599D01*
X88828Y304021D01*
X88973Y305500D01*
X88828Y306979D01*
X88397Y308401D01*
X87696Y309711D01*
X87049Y310500D01*
X87696Y311289D01*
X88397Y312599D01*
X88828Y314021D01*
X88973Y315500D01*
X88828Y316979D01*
X88397Y318401D01*
X87696Y319711D01*
X87049Y320500D01*
X87696Y321289D01*
X88397Y322599D01*
X88828Y324021D01*
X88973Y325500D01*
X88828Y326979D01*
X88397Y328401D01*
X87696Y329711D01*
X87049Y330500D01*
X87696Y331289D01*
X88397Y332599D01*
X88828Y334021D01*
X88973Y335500D01*
X88828Y336979D01*
X88397Y338401D01*
X87696Y339711D01*
X87049Y340500D01*
X87696Y341289D01*
X88397Y342599D01*
X88828Y344021D01*
X88973Y345500D01*
X88828Y346979D01*
X88397Y348401D01*
X87696Y349711D01*
X87049Y350500D01*
X87696Y351289D01*
X88397Y352599D01*
X88828Y354021D01*
X88973Y355500D01*
X88828Y356979D01*
X88397Y358401D01*
X87696Y359711D01*
X87049Y360500D01*
X87696Y361289D01*
X88397Y362599D01*
X88828Y364021D01*
X88973Y365500D01*
X88828Y366979D01*
X88397Y368401D01*
X87696Y369711D01*
X86753Y370860D01*
X85605Y371802D01*
X85008Y372121D01*
X84903Y372610D01*
X85054Y372808D01*
X85019Y372805D01*
X84436Y372720D01*
X83464Y372502D01*
X83075Y372370D01*
X82752Y372222D01*
Y375000D01*
X81000D01*
X79248D01*
Y372222D01*
X78925Y372370D01*
X78536Y372502D01*
X78083Y372619D01*
X77564Y372720D01*
X76954Y372797D01*
X77097Y372610D01*
X76992Y372121D01*
X76395Y371802D01*
X75247Y370860D01*
X74304Y369711D01*
X73603Y368401D01*
X73172Y366979D01*
X73027Y365500D01*
X73172Y364021D01*
X73603Y362599D01*
X74304Y361289D01*
X74951Y360500D01*
X74304Y359711D01*
X73603Y358401D01*
X73172Y356979D01*
X73027Y355500D01*
X73172Y354021D01*
X73603Y352599D01*
X74304Y351289D01*
X74951Y350500D01*
X74304Y349711D01*
X73603Y348401D01*
X73172Y346979D01*
X73027Y345500D01*
X73172Y344021D01*
X73603Y342599D01*
X74304Y341289D01*
X74951Y340500D01*
X74304Y339711D01*
X73603Y338401D01*
X73172Y336979D01*
X73027Y335500D01*
X73172Y334021D01*
X73603Y332599D01*
X74304Y331289D01*
X74951Y330500D01*
X74304Y329711D01*
X73603Y328401D01*
X73172Y326979D01*
X73027Y325500D01*
X73172Y324021D01*
X73603Y322599D01*
X74304Y321289D01*
X74951Y320500D01*
X74304Y319711D01*
X73603Y318401D01*
X73172Y316979D01*
X73027Y315500D01*
X73172Y314021D01*
X73603Y312599D01*
X74304Y311289D01*
X74951Y310500D01*
X74304Y309711D01*
X73603Y308401D01*
X73172Y306979D01*
X73027Y305500D01*
X73172Y304021D01*
X73603Y302599D01*
X74304Y301289D01*
X74545Y300995D01*
X74331Y300543D01*
X69000D01*
X67695Y300371D01*
X66478Y299868D01*
X65434Y299066D01*
X53934Y287566D01*
X53132Y286522D01*
X52629Y285305D01*
X52457Y284000D01*
Y189500D01*
X52629Y188195D01*
X53132Y186978D01*
X53934Y185934D01*
X66434Y173434D01*
X67478Y172633D01*
X68695Y172129D01*
X70000Y171957D01*
X76111D01*
X76302Y171495D01*
X75951Y171143D01*
X75240Y170079D01*
X74750Y168896D01*
X74500Y167640D01*
Y166360D01*
X74750Y165104D01*
X75240Y163921D01*
X75951Y162856D01*
X76856Y161951D01*
X77921Y161240D01*
X79104Y160750D01*
X80360Y160500D01*
X81640D01*
X82896Y160750D01*
X84079Y161240D01*
X85144Y161951D01*
X85149Y161957D01*
X95411D01*
X107957Y149411D01*
Y34500D01*
X108129Y33195D01*
X108633Y31978D01*
X109434Y30934D01*
X135367Y5001D01*
X135176Y4539D01*
X4539D01*
Y397961D01*
X129845D01*
X129877Y397461D01*
D02*
G37*
G36*
X155812Y301092D02*
X156633Y300543D01*
X156482Y300043D01*
X155500D01*
X154195Y299871D01*
X152978Y299367D01*
X151934Y298566D01*
X123911Y270543D01*
X87669D01*
X87455Y270995D01*
X87696Y271289D01*
X88397Y272599D01*
X88828Y274021D01*
X88973Y275500D01*
X88828Y276979D01*
X88397Y278401D01*
X87696Y279711D01*
X87455Y280005D01*
X87669Y280457D01*
X92500D01*
X93805Y280629D01*
X95022Y281133D01*
X96066Y281934D01*
X107566Y293434D01*
X108368Y294478D01*
X108871Y295695D01*
X109043Y297000D01*
Y300623D01*
X109543Y300890D01*
X110592Y300189D01*
X112094Y299567D01*
X113687Y299250D01*
X115313D01*
X116906Y299567D01*
X118408Y300189D01*
X119759Y301092D01*
X120321Y301654D01*
X120884Y301092D01*
X122235Y300189D01*
X123736Y299567D01*
X125330Y299250D01*
X126955D01*
X128549Y299567D01*
X130051Y300189D01*
X131402Y301092D01*
X131964Y301654D01*
X132527Y301092D01*
X133878Y300189D01*
X135379Y299567D01*
X136973Y299250D01*
X138598D01*
X140192Y299567D01*
X141693Y300189D01*
X143045Y301092D01*
X143607Y301654D01*
X144169Y301092D01*
X145521Y300189D01*
X147022Y299567D01*
X148616Y299250D01*
X150241D01*
X151835Y299567D01*
X153336Y300189D01*
X154688Y301092D01*
X155250Y301654D01*
X155812Y301092D01*
D02*
G37*
G36*
X77689Y293508D02*
X77664Y293696D01*
X77590Y293865D01*
X77466Y294014D01*
X77294Y294143D01*
X77071Y294252D01*
X76800Y294341D01*
X76479Y294411D01*
X76108Y294460D01*
X75689Y294490D01*
X75219Y294500D01*
Y296500D01*
X75689Y296510D01*
X76479Y296589D01*
X76800Y296659D01*
X77071Y296748D01*
X77294Y296857D01*
X77466Y296986D01*
X77590Y297135D01*
X77664Y297304D01*
X77689Y297492D01*
Y293508D01*
D02*
G37*
G36*
X84578Y296805D02*
X84623Y296636D01*
X84721Y296487D01*
X84873Y296358D01*
X85077Y296249D01*
X85334Y296159D01*
X85644Y296090D01*
X86008Y296040D01*
X86424Y296010D01*
X86893Y296000D01*
X86596Y294000D01*
X86115Y293990D01*
X85293Y293911D01*
X84953Y293841D01*
X84660Y293752D01*
X84414Y293643D01*
X84215Y293514D01*
X84063Y293365D01*
X83959Y293196D01*
X83901Y293008D01*
X84585Y296994D01*
X84578Y296805D01*
D02*
G37*
G36*
X291223Y309993D02*
X291901Y308725D01*
X292813Y307613D01*
X293925Y306701D01*
X295193Y306023D01*
X296569Y305606D01*
X298000Y305465D01*
X299431Y305606D01*
X300807Y306023D01*
X302075Y306701D01*
X303000Y307460D01*
X303925Y306701D01*
X305193Y306023D01*
X306569Y305606D01*
X308000Y305465D01*
X309431Y305606D01*
X310807Y306023D01*
X312075Y306701D01*
X313000Y307460D01*
X313925Y306701D01*
X315193Y306023D01*
X316569Y305606D01*
X318000Y305465D01*
X319431Y305606D01*
X320630Y305969D01*
X320895Y305527D01*
X299411Y284043D01*
X270829D01*
X270637Y284505D01*
X289066Y302934D01*
X289867Y303978D01*
X290371Y305195D01*
X290543Y306500D01*
Y310512D01*
X291043Y310586D01*
X291223Y309993D01*
D02*
G37*
G36*
X84336Y287304D02*
X84410Y287135D01*
X84534Y286986D01*
X84706Y286857D01*
X84929Y286748D01*
X85200Y286659D01*
X85521Y286589D01*
X85892Y286540D01*
X86311Y286510D01*
X86781Y286500D01*
Y284500D01*
X86311Y284490D01*
X85521Y284411D01*
X85200Y284341D01*
X84929Y284252D01*
X84706Y284143D01*
X84534Y284014D01*
X84410Y283865D01*
X84336Y283696D01*
X84311Y283508D01*
Y287492D01*
X84336Y287304D01*
D02*
G37*
G36*
X334313Y307613D02*
X335425Y306701D01*
X336693Y306023D01*
X338069Y305606D01*
X339500Y305465D01*
X340931Y305606D01*
X342307Y306023D01*
X343575Y306701D01*
X344500Y307460D01*
X345425Y306701D01*
X346693Y306023D01*
X348069Y305606D01*
X349500Y305465D01*
X350931Y305606D01*
X352307Y306023D01*
X353575Y306701D01*
X354500Y307460D01*
X355425Y306701D01*
X356693Y306023D01*
X358069Y305606D01*
X358766Y305537D01*
X358934Y305066D01*
X329411Y275543D01*
X305828D01*
X305637Y276005D01*
X331566Y301934D01*
X332367Y302978D01*
X332871Y304195D01*
X333043Y305500D01*
Y308372D01*
X333543Y308551D01*
X334313Y307613D01*
D02*
G37*
G36*
X84336Y267304D02*
X84410Y267135D01*
X84534Y266986D01*
X84706Y266857D01*
X84929Y266748D01*
X85200Y266659D01*
X85521Y266589D01*
X85892Y266540D01*
X86311Y266510D01*
X86781Y266500D01*
Y264500D01*
X86311Y264490D01*
X85521Y264411D01*
X85200Y264341D01*
X84929Y264252D01*
X84706Y264143D01*
X84534Y264014D01*
X84410Y263865D01*
X84336Y263696D01*
X84311Y263508D01*
Y267492D01*
X84336Y267304D01*
D02*
G37*
G36*
Y257304D02*
X84410Y257135D01*
X84534Y256986D01*
X84706Y256857D01*
X84929Y256748D01*
X85200Y256659D01*
X85521Y256589D01*
X85892Y256540D01*
X86311Y256510D01*
X86781Y256500D01*
Y254500D01*
X86311Y254490D01*
X85521Y254411D01*
X85200Y254341D01*
X84929Y254252D01*
X84706Y254143D01*
X84534Y254014D01*
X84410Y253865D01*
X84336Y253696D01*
X84311Y253508D01*
Y257492D01*
X84336Y257304D01*
D02*
G37*
G36*
Y247304D02*
X84410Y247135D01*
X84534Y246986D01*
X84706Y246857D01*
X84929Y246748D01*
X85200Y246659D01*
X85521Y246589D01*
X85892Y246540D01*
X86311Y246510D01*
X86781Y246500D01*
Y244500D01*
X86311Y244490D01*
X85521Y244411D01*
X85200Y244341D01*
X84929Y244252D01*
X84706Y244143D01*
X84534Y244014D01*
X84410Y243865D01*
X84336Y243696D01*
X84311Y243508D01*
Y247492D01*
X84336Y247304D01*
D02*
G37*
G36*
Y237304D02*
X84410Y237135D01*
X84534Y236986D01*
X84706Y236857D01*
X84929Y236748D01*
X85200Y236659D01*
X85521Y236589D01*
X85892Y236540D01*
X86311Y236510D01*
X86781Y236500D01*
Y234500D01*
X86311Y234490D01*
X85521Y234411D01*
X85200Y234341D01*
X84929Y234252D01*
X84706Y234143D01*
X84534Y234014D01*
X84410Y233865D01*
X84336Y233696D01*
X84311Y233508D01*
Y237492D01*
X84336Y237304D01*
D02*
G37*
G36*
X483099Y205291D02*
X483035Y205117D01*
X483021Y204919D01*
X483059Y204699D01*
X483148Y204456D01*
X483287Y204190D01*
X483477Y203902D01*
X483718Y203590D01*
X484010Y203256D01*
X484353Y202900D01*
X482939Y201485D01*
X482582Y201828D01*
X481937Y202361D01*
X481648Y202552D01*
X481383Y202691D01*
X481140Y202780D01*
X480919Y202817D01*
X480722Y202804D01*
X480548Y202740D01*
X480396Y202625D01*
X483214Y205443D01*
X483099Y205291D01*
D02*
G37*
G36*
X82943Y168607D02*
X83121Y168480D01*
X83320Y168368D01*
X83539Y168270D01*
X83779Y168187D01*
X84040Y168120D01*
X84322Y168068D01*
X84624Y168030D01*
X84948Y168008D01*
X85291Y168000D01*
Y166000D01*
X84948Y165992D01*
X84322Y165933D01*
X84040Y165880D01*
X83779Y165813D01*
X83539Y165730D01*
X83320Y165632D01*
X83121Y165520D01*
X82943Y165392D01*
X82785Y165250D01*
Y168750D01*
X82943Y168607D01*
D02*
G37*
G36*
X475024Y163608D02*
X474998Y163796D01*
X474920Y163965D01*
X474789Y164114D01*
X474607Y164243D01*
X474373Y164352D01*
X474086Y164441D01*
X473748Y164511D01*
X473357Y164560D01*
X472914Y164590D01*
X472419Y164600D01*
Y166600D01*
X472914Y166610D01*
X473748Y166689D01*
X474086Y166759D01*
X474373Y166848D01*
X474607Y166957D01*
X474789Y167086D01*
X474920Y167235D01*
X474998Y167404D01*
X475024Y167592D01*
Y163608D01*
D02*
G37*
G36*
X484126Y148711D02*
X483786Y148358D01*
X483267Y147726D01*
X483088Y147449D01*
X482962Y147196D01*
X482889Y146969D01*
X482870Y146767D01*
X482904Y146590D01*
X482992Y146438D01*
X483133Y146312D01*
X479774Y148591D01*
X479951Y148501D01*
X480149Y148461D01*
X480368Y148469D01*
X480607Y148526D01*
X480867Y148631D01*
X481147Y148785D01*
X481448Y148988D01*
X481769Y149239D01*
X482111Y149539D01*
X482474Y149888D01*
X484126Y148711D01*
D02*
G37*
G36*
X482992Y144762D02*
X482904Y144610D01*
X482870Y144433D01*
X482889Y144231D01*
X482962Y144004D01*
X483088Y143751D01*
X483267Y143474D01*
X483500Y143171D01*
X483786Y142842D01*
X484126Y142489D01*
X482474Y141312D01*
X482111Y141661D01*
X481448Y142212D01*
X481147Y142415D01*
X480867Y142569D01*
X480607Y142674D01*
X480368Y142731D01*
X480149Y142739D01*
X479951Y142699D01*
X479774Y142610D01*
X483133Y144888D01*
X482992Y144762D01*
D02*
G37*
G36*
X474547Y129102D02*
X475866Y128701D01*
X477239Y128566D01*
X480239D01*
X481611Y128701D01*
X482457Y128958D01*
X482957Y128587D01*
Y120317D01*
X482457Y120023D01*
X481378Y120469D01*
X479978Y120748D01*
X478550D01*
X477150Y120469D01*
X475831Y119923D01*
X474643Y119130D01*
X474505Y118992D01*
X474043Y119183D01*
Y128884D01*
X474472Y129141D01*
X474547Y129102D01*
D02*
G37*
G36*
X474643Y107870D02*
X475831Y107077D01*
X477150Y106530D01*
X478550Y106252D01*
X479978D01*
X481378Y106530D01*
X482457Y106977D01*
X482957Y106683D01*
Y99303D01*
X482528Y99046D01*
X482430Y99098D01*
X481111Y99499D01*
X479739Y99634D01*
X476739D01*
X475366Y99499D01*
X474543Y99249D01*
X474043Y99620D01*
Y107817D01*
X474505Y108008D01*
X474643Y107870D01*
D02*
G37*
G36*
X474524Y50608D02*
X474498Y50796D01*
X474420Y50965D01*
X474289Y51114D01*
X474107Y51243D01*
X473873Y51352D01*
X473586Y51441D01*
X473248Y51511D01*
X472857Y51560D01*
X472414Y51590D01*
X471919Y51600D01*
Y53600D01*
X472414Y53610D01*
X473248Y53689D01*
X473586Y53759D01*
X473873Y53848D01*
X474107Y53957D01*
X474289Y54086D01*
X474420Y54235D01*
X474498Y54404D01*
X474524Y54592D01*
Y50608D01*
D02*
G37*
G36*
Y40608D02*
X474498Y40796D01*
X474420Y40965D01*
X474289Y41114D01*
X474107Y41243D01*
X473873Y41352D01*
X473586Y41441D01*
X473248Y41511D01*
X472857Y41560D01*
X472414Y41590D01*
X471919Y41600D01*
Y43600D01*
X472414Y43610D01*
X473248Y43689D01*
X473586Y43759D01*
X473873Y43848D01*
X474107Y43957D01*
X474289Y44086D01*
X474420Y44235D01*
X474498Y44404D01*
X474524Y44592D01*
Y40608D01*
D02*
G37*
G36*
X483805Y35391D02*
X483464Y35036D01*
X482935Y34395D01*
X482748Y34109D01*
X482612Y33847D01*
X482527Y33608D01*
X482494Y33392D01*
X482512Y33199D01*
X482581Y33030D01*
X482701Y32883D01*
X479770Y35587D01*
X479927Y35478D01*
X480106Y35419D01*
X480308Y35410D01*
X480533Y35452D01*
X480780Y35544D01*
X481049Y35687D01*
X481340Y35881D01*
X481654Y36124D01*
X481990Y36418D01*
X482349Y36763D01*
X483805Y35391D01*
D02*
G37*
G36*
X120957Y158411D02*
Y42500D01*
X121129Y41195D01*
X121633Y39978D01*
X122434Y38934D01*
X148363Y13005D01*
X148171Y12543D01*
X142089D01*
X118043Y36589D01*
Y151500D01*
X117871Y152805D01*
X117367Y154022D01*
X116566Y155066D01*
X101066Y170566D01*
X100022Y171368D01*
X99806Y171457D01*
X99905Y171957D01*
X107411D01*
X120957Y158411D01*
D02*
G37*
%LPC*%
G36*
X318000Y383035D02*
X316569Y382894D01*
X315193Y382477D01*
X313925Y381799D01*
X313000Y381040D01*
X312075Y381799D01*
X310807Y382477D01*
X309431Y382894D01*
X308000Y383035D01*
X306569Y382894D01*
X305193Y382477D01*
X303925Y381799D01*
X302813Y380887D01*
X301901Y379775D01*
X301476Y378981D01*
X300874Y378915D01*
X300169Y379456D01*
X299123Y379889D01*
X298500Y379971D01*
Y374000D01*
Y368029D01*
X299123Y368111D01*
X300169Y368544D01*
X300874Y369085D01*
X301476Y369019D01*
X301901Y368225D01*
X302330Y367702D01*
X302116Y367250D01*
X301687D01*
X300094Y366933D01*
X298592Y366311D01*
X297241Y365408D01*
X296092Y364259D01*
X295189Y362908D01*
X294567Y361406D01*
X294250Y359813D01*
Y358187D01*
X294567Y356594D01*
X295189Y355092D01*
X296092Y353741D01*
X297241Y352592D01*
X298592Y351689D01*
X300094Y351067D01*
X301687Y350750D01*
X303313D01*
X304906Y351067D01*
X306408Y351689D01*
X307759Y352592D01*
X308250Y353083D01*
X308741Y352592D01*
X310092Y351689D01*
X311594Y351067D01*
X313187Y350750D01*
X314813D01*
X316406Y351067D01*
X317908Y351689D01*
X319259Y352592D01*
X320408Y353741D01*
X321311Y355092D01*
X321933Y356594D01*
X322250Y358187D01*
Y359813D01*
X321933Y361406D01*
X321311Y362908D01*
X320408Y364259D01*
X319875Y364792D01*
X319997Y365277D01*
X320807Y365523D01*
X322075Y366201D01*
X323187Y367113D01*
X324099Y368225D01*
X324777Y369493D01*
X325194Y370869D01*
X325335Y372300D01*
Y375700D01*
X325194Y377131D01*
X324777Y378507D01*
X324099Y379775D01*
X323187Y380887D01*
X322075Y381799D01*
X320807Y382477D01*
X319431Y382894D01*
X318000Y383035D01*
D02*
G37*
G36*
X358000D02*
X356569Y382894D01*
X355193Y382477D01*
X353925Y381799D01*
X353000Y381040D01*
X352075Y381799D01*
X350807Y382477D01*
X349431Y382894D01*
X348000Y383035D01*
X346569Y382894D01*
X345193Y382477D01*
X343925Y381799D01*
X342813Y380887D01*
X341901Y379775D01*
X341476Y378981D01*
X340874Y378915D01*
X340169Y379456D01*
X339123Y379889D01*
X338500Y379971D01*
Y374000D01*
Y368029D01*
X339123Y368111D01*
X340169Y368544D01*
X340874Y369085D01*
X341476Y369019D01*
X341901Y368225D01*
X342339Y367690D01*
X342143Y367142D01*
X341094Y366933D01*
X339592Y366311D01*
X338241Y365408D01*
X337092Y364259D01*
X336189Y362908D01*
X335567Y361406D01*
X335250Y359813D01*
Y358187D01*
X335567Y356594D01*
X336189Y355092D01*
X337092Y353741D01*
X338241Y352592D01*
X339592Y351689D01*
X341094Y351067D01*
X342687Y350750D01*
X344313D01*
X345906Y351067D01*
X347408Y351689D01*
X348759Y352592D01*
X349250Y353083D01*
X349741Y352592D01*
X351092Y351689D01*
X352594Y351067D01*
X354187Y350750D01*
X355813D01*
X357406Y351067D01*
X358908Y351689D01*
X360259Y352592D01*
X361408Y353741D01*
X362311Y355092D01*
X362933Y356594D01*
X363250Y358187D01*
Y359813D01*
X362933Y361406D01*
X362311Y362908D01*
X361408Y364259D01*
X360680Y364987D01*
X360759Y365477D01*
X360836Y365539D01*
X362075Y366201D01*
X363187Y367113D01*
X364099Y368225D01*
X364777Y369493D01*
X365194Y370869D01*
X365335Y372300D01*
Y375700D01*
X365194Y377131D01*
X364777Y378507D01*
X364099Y379775D01*
X363187Y380887D01*
X362075Y381799D01*
X360807Y382477D01*
X359431Y382894D01*
X358000Y383035D01*
D02*
G37*
G36*
X275000D02*
X273569Y382894D01*
X272193Y382477D01*
X270925Y381799D01*
X270000Y381040D01*
X269075Y381799D01*
X267807Y382477D01*
X266431Y382894D01*
X265000Y383035D01*
X263569Y382894D01*
X262193Y382477D01*
X260925Y381799D01*
X259813Y380887D01*
X258901Y379775D01*
X258476Y378981D01*
X257874Y378915D01*
X257169Y379456D01*
X256122Y379889D01*
X255500Y379971D01*
Y374000D01*
Y368029D01*
X256122Y368111D01*
X257169Y368544D01*
X257874Y369085D01*
X258476Y369019D01*
X258901Y368225D01*
X259339Y367690D01*
X259143Y367142D01*
X258094Y366933D01*
X256592Y366311D01*
X255241Y365408D01*
X254092Y364259D01*
X253189Y362908D01*
X252567Y361406D01*
X252250Y359813D01*
Y358187D01*
X252567Y356594D01*
X253189Y355092D01*
X254092Y353741D01*
X255241Y352592D01*
X256592Y351689D01*
X258094Y351067D01*
X259687Y350750D01*
X261313D01*
X262906Y351067D01*
X264408Y351689D01*
X265759Y352592D01*
X266250Y353083D01*
X266741Y352592D01*
X268092Y351689D01*
X269594Y351067D01*
X271187Y350750D01*
X272813D01*
X274406Y351067D01*
X275908Y351689D01*
X277259Y352592D01*
X278408Y353741D01*
X279311Y355092D01*
X279933Y356594D01*
X280250Y358187D01*
Y359813D01*
X279933Y361406D01*
X279311Y362908D01*
X278408Y364259D01*
X277680Y364987D01*
X277759Y365477D01*
X277836Y365539D01*
X279075Y366201D01*
X280187Y367113D01*
X281099Y368225D01*
X281777Y369493D01*
X282194Y370869D01*
X282335Y372300D01*
Y375700D01*
X282194Y377131D01*
X281777Y378507D01*
X281099Y379775D01*
X280187Y380887D01*
X279075Y381799D01*
X277807Y382477D01*
X276431Y382894D01*
X275000Y383035D01*
D02*
G37*
G36*
X337500Y379971D02*
X336877Y379889D01*
X335831Y379456D01*
X334933Y378767D01*
X334244Y377869D01*
X333811Y376822D01*
X333663Y375700D01*
Y374500D01*
X337500D01*
Y379971D01*
D02*
G37*
G36*
X297500D02*
X296878Y379889D01*
X295831Y379456D01*
X294933Y378767D01*
X294244Y377869D01*
X293811Y376822D01*
X293663Y375700D01*
Y374500D01*
X297500D01*
Y379971D01*
D02*
G37*
G36*
X254500D02*
X253877Y379889D01*
X252831Y379456D01*
X251933Y378767D01*
X251244Y377869D01*
X250811Y376822D01*
X250663Y375700D01*
Y374500D01*
X254500D01*
Y379971D01*
D02*
G37*
G36*
X213500D02*
X212877Y379889D01*
X211831Y379456D01*
X210933Y378767D01*
X210244Y377869D01*
X209811Y376822D01*
X209663Y375700D01*
Y374500D01*
X213500D01*
Y379971D01*
D02*
G37*
G36*
X473063Y379473D02*
Y374000D01*
X477102D01*
Y375000D01*
X476947Y376175D01*
X476494Y377269D01*
X475773Y378209D01*
X474833Y378931D01*
X473738Y379384D01*
X473063Y379473D01*
D02*
G37*
G36*
X472063D02*
X471389Y379384D01*
X470294Y378931D01*
X469354Y378209D01*
X468633Y377269D01*
X468179Y376175D01*
X468024Y375000D01*
Y374000D01*
X472063D01*
Y379473D01*
D02*
G37*
G36*
X337500Y373500D02*
X333663D01*
Y372300D01*
X333811Y371178D01*
X334244Y370131D01*
X334933Y369233D01*
X335831Y368544D01*
X336877Y368111D01*
X337500Y368029D01*
Y373500D01*
D02*
G37*
G36*
X297500D02*
X293663D01*
Y372300D01*
X293811Y371178D01*
X294244Y370131D01*
X294933Y369233D01*
X295831Y368544D01*
X296878Y368111D01*
X297500Y368029D01*
Y373500D01*
D02*
G37*
G36*
X254500D02*
X250663D01*
Y372300D01*
X250811Y371178D01*
X251244Y370131D01*
X251933Y369233D01*
X252831Y368544D01*
X253877Y368111D01*
X254500Y368029D01*
Y373500D01*
D02*
G37*
G36*
X213500D02*
X209663D01*
Y372300D01*
X209811Y371178D01*
X210244Y370131D01*
X210933Y369233D01*
X211831Y368544D01*
X212877Y368111D01*
X213500Y368029D01*
Y373500D01*
D02*
G37*
G36*
X477102Y373000D02*
X473063D01*
Y367527D01*
X473738Y367616D01*
X474833Y368069D01*
X475773Y368791D01*
X476494Y369731D01*
X476947Y370825D01*
X477102Y372000D01*
Y373000D01*
D02*
G37*
G36*
X472063D02*
X468024D01*
Y372000D01*
X468179Y370825D01*
X468633Y369731D01*
X469354Y368791D01*
X470294Y368069D01*
X471389Y367616D01*
X472063Y367527D01*
Y373000D01*
D02*
G37*
G36*
X417000Y372000D02*
X408500D01*
Y366500D01*
X417000D01*
Y372000D01*
D02*
G37*
G36*
X407500D02*
X399000D01*
Y366500D01*
X407500D01*
Y372000D01*
D02*
G37*
G36*
X465063Y382500D02*
X450063D01*
Y364500D01*
X465063D01*
Y382500D01*
D02*
G37*
G36*
X417000Y365500D02*
X408500D01*
Y360000D01*
X417000D01*
Y365500D01*
D02*
G37*
G36*
X407500D02*
X399000D01*
Y360000D01*
X407500D01*
Y365500D01*
D02*
G37*
G36*
X394000Y360000D02*
X388500D01*
Y351500D01*
X394000D01*
Y360000D01*
D02*
G37*
G36*
X387500D02*
X382000D01*
Y351500D01*
X387500D01*
Y360000D01*
D02*
G37*
G36*
X394000Y350500D02*
X388500D01*
Y342000D01*
X394000D01*
Y350500D01*
D02*
G37*
G36*
X387500D02*
X382000D01*
Y342000D01*
X387500D01*
Y350500D01*
D02*
G37*
G36*
X475592Y343500D02*
X475500D01*
Y339500D01*
X479500D01*
Y339592D01*
X479193Y340737D01*
X478601Y341763D01*
X477763Y342601D01*
X476737Y343193D01*
X475592Y343500D01*
D02*
G37*
G36*
X474500D02*
X474408D01*
X473263Y343193D01*
X472237Y342601D01*
X471399Y341763D01*
X470807Y340737D01*
X470500Y339592D01*
Y339500D01*
X474500D01*
Y343500D01*
D02*
G37*
G36*
X479500Y338500D02*
X475500D01*
Y334500D01*
X475592D01*
X476737Y334807D01*
X477763Y335399D01*
X478601Y336237D01*
X479193Y337263D01*
X479500Y338408D01*
Y338500D01*
D02*
G37*
G36*
X474500D02*
X470500D01*
Y338408D01*
X470807Y337263D01*
X471399Y336237D01*
X472237Y335399D01*
X473263Y334807D01*
X474408Y334500D01*
X474500D01*
Y338500D01*
D02*
G37*
G36*
X420000Y350000D02*
X396000D01*
Y332000D01*
X420000D01*
Y350000D01*
D02*
G37*
G36*
X455739Y346500D02*
X454261D01*
X452812Y346212D01*
X451447Y345646D01*
X450219Y344826D01*
X449174Y343781D01*
X448354Y342553D01*
X447788Y341188D01*
X447500Y339739D01*
Y338261D01*
X447788Y336812D01*
X448354Y335447D01*
X449174Y334219D01*
X450219Y333174D01*
X451447Y332354D01*
X452812Y331788D01*
X454261Y331500D01*
X455739D01*
X457188Y331788D01*
X458553Y332354D01*
X459781Y333174D01*
X460826Y334219D01*
X461646Y335447D01*
X462212Y336812D01*
X462500Y338261D01*
Y339739D01*
X462212Y341188D01*
X461646Y342553D01*
X460826Y343781D01*
X459781Y344826D01*
X458553Y345646D01*
X457188Y346212D01*
X455739Y346500D01*
D02*
G37*
G36*
X417250Y326000D02*
X409750D01*
X406250Y322500D01*
X405750Y323000D01*
X404000D01*
Y317500D01*
Y314756D01*
X406988D01*
X406800Y314518D01*
X406632Y314200D01*
X406484Y313802D01*
X406356Y313324D01*
X406247Y312765D01*
X406204Y312454D01*
X406250Y312500D01*
X409750Y309000D01*
X417250D01*
X421000Y312750D01*
Y322250D01*
X417250Y326000D01*
D02*
G37*
G36*
X397250D02*
X389750D01*
X386000Y322250D01*
Y312750D01*
X389750Y309000D01*
X397250D01*
X400750Y312500D01*
X400776Y312474D01*
X400753Y312765D01*
X400644Y313324D01*
X400516Y313802D01*
X400368Y314200D01*
X400200Y314518D01*
X400012Y314756D01*
X403000D01*
Y317500D01*
Y323000D01*
X401250D01*
X400750Y322500D01*
X397250Y326000D01*
D02*
G37*
G36*
X473500Y309973D02*
Y304500D01*
X477539D01*
Y305500D01*
X477384Y306675D01*
X476931Y307769D01*
X476209Y308709D01*
X475269Y309431D01*
X474175Y309884D01*
X473500Y309973D01*
D02*
G37*
G36*
X472500D02*
X471825Y309884D01*
X470731Y309431D01*
X469791Y308709D01*
X469069Y307769D01*
X468616Y306675D01*
X468461Y305500D01*
Y304500D01*
X472500D01*
Y309973D01*
D02*
G37*
G36*
X406230Y302864D02*
X406250Y302751D01*
X406360Y302303D01*
X406490Y301911D01*
X406640Y301575D01*
X406810Y301295D01*
X407000Y301071D01*
X404000D01*
Y298000D01*
X407235D01*
X407674Y300252D01*
X407864Y300022D01*
X408113Y299817D01*
X408422Y299636D01*
X408790Y299479D01*
X409218Y299345D01*
X409231Y299343D01*
X408817Y300342D01*
X408160Y301325D01*
X407325Y302161D01*
X406342Y302817D01*
X406230Y302864D01*
D02*
G37*
G36*
X477539Y303500D02*
X473500D01*
Y298027D01*
X474175Y298116D01*
X475269Y298569D01*
X476209Y299291D01*
X476931Y300231D01*
X477384Y301325D01*
X477539Y302500D01*
Y303500D01*
D02*
G37*
G36*
X472500D02*
X468461D01*
Y302500D01*
X468616Y301325D01*
X469069Y300231D01*
X469791Y299291D01*
X470731Y298569D01*
X471825Y298116D01*
X472500Y298027D01*
Y303500D01*
D02*
G37*
G36*
X400770Y302864D02*
X400658Y302817D01*
X399675Y302161D01*
X398839Y301325D01*
X398183Y300342D01*
X397731Y299250D01*
X397500Y298091D01*
Y298000D01*
X403000D01*
Y301071D01*
X400000D01*
X400190Y301295D01*
X400360Y301575D01*
X400510Y301911D01*
X400640Y302303D01*
X400750Y302751D01*
X400770Y302864D01*
D02*
G37*
G36*
X465500Y313000D02*
X450500D01*
Y295000D01*
X465500D01*
Y313000D01*
D02*
G37*
G36*
X407041Y297000D02*
X404000D01*
Y291500D01*
X404091D01*
X405250Y291731D01*
X406342Y292183D01*
X407325Y292840D01*
X408160Y293675D01*
X408309Y293898D01*
X408010Y293878D01*
X407561Y293805D01*
X407169Y293719D01*
X406834Y293620D01*
X406556Y293507D01*
X406335Y293381D01*
X407041Y297000D01*
D02*
G37*
G36*
X403000D02*
X397500D01*
Y296909D01*
X397731Y295750D01*
X398183Y294658D01*
X398839Y293675D01*
X399675Y292840D01*
X400658Y292183D01*
X401750Y291731D01*
X402909Y291500D01*
X403000D01*
Y297000D01*
D02*
G37*
G36*
X475092Y274000D02*
X475000D01*
Y270000D01*
X479000D01*
Y270092D01*
X478693Y271237D01*
X478101Y272263D01*
X477263Y273101D01*
X476237Y273693D01*
X475092Y274000D01*
D02*
G37*
G36*
X474000D02*
X473908D01*
X472763Y273693D01*
X471737Y273101D01*
X470899Y272263D01*
X470307Y271237D01*
X470000Y270092D01*
Y270000D01*
X474000D01*
Y274000D01*
D02*
G37*
G36*
X393750Y271500D02*
X379250D01*
Y268062D01*
X378802Y267841D01*
X378643Y267962D01*
X377609Y268391D01*
X377000Y268471D01*
Y262500D01*
Y256529D01*
X377609Y256609D01*
X378643Y257038D01*
X378802Y257159D01*
X379250Y256938D01*
Y253500D01*
X393750D01*
Y271500D01*
D02*
G37*
G36*
X479000Y269000D02*
X475000D01*
Y265000D01*
X475092D01*
X476237Y265307D01*
X477263Y265899D01*
X478101Y266737D01*
X478693Y267763D01*
X479000Y268908D01*
Y269000D01*
D02*
G37*
G36*
X474000D02*
X470000D01*
Y268908D01*
X470307Y267763D01*
X470899Y266737D01*
X471737Y265899D01*
X472763Y265307D01*
X473908Y265000D01*
X474000D01*
Y269000D01*
D02*
G37*
G36*
X376000Y268471D02*
X375391Y268391D01*
X374357Y267962D01*
X373469Y267281D01*
X372788Y266393D01*
X372359Y265359D01*
X372213Y264250D01*
Y263000D01*
X376000D01*
Y268471D01*
D02*
G37*
G36*
X455239Y277000D02*
X453761D01*
X452312Y276712D01*
X450947Y276146D01*
X449719Y275326D01*
X448674Y274281D01*
X447854Y273053D01*
X447288Y271688D01*
X447000Y270239D01*
Y268761D01*
X447288Y267312D01*
X447854Y265947D01*
X448674Y264719D01*
X449719Y263674D01*
X450947Y262854D01*
X452312Y262288D01*
X453761Y262000D01*
X455239D01*
X456688Y262288D01*
X458053Y262854D01*
X459281Y263674D01*
X460326Y264719D01*
X461146Y265947D01*
X461712Y267312D01*
X462000Y268761D01*
Y270239D01*
X461712Y271688D01*
X461146Y273053D01*
X460326Y274281D01*
X459281Y275326D01*
X458053Y276146D01*
X456688Y276712D01*
X455239Y277000D01*
D02*
G37*
G36*
X376000Y262000D02*
X372213D01*
Y260750D01*
X372359Y259641D01*
X372788Y258607D01*
X373469Y257719D01*
X374357Y257038D01*
X375391Y256609D01*
X376000Y256529D01*
Y262000D01*
D02*
G37*
G36*
X437313Y270750D02*
X435687D01*
X434094Y270433D01*
X432592Y269811D01*
X431241Y268908D01*
X430092Y267759D01*
X429189Y266408D01*
X428567Y264906D01*
X428250Y263313D01*
Y261687D01*
X428567Y260094D01*
X429189Y258592D01*
X430092Y257241D01*
X431241Y256092D01*
X432592Y255189D01*
X434094Y254567D01*
X435687Y254250D01*
X437313D01*
X438906Y254567D01*
X440408Y255189D01*
X441759Y256092D01*
X442908Y257241D01*
X443811Y258592D01*
X444433Y260094D01*
X444750Y261687D01*
Y263313D01*
X444433Y264906D01*
X443811Y266408D01*
X442908Y267759D01*
X441759Y268908D01*
X440408Y269811D01*
X438906Y270433D01*
X437313Y270750D01*
D02*
G37*
G36*
X407313D02*
X405687D01*
X404094Y270433D01*
X402592Y269811D01*
X401241Y268908D01*
X400092Y267759D01*
X399189Y266408D01*
X398567Y264906D01*
X398250Y263313D01*
Y261687D01*
X398567Y260094D01*
X399189Y258592D01*
X400092Y257241D01*
X401241Y256092D01*
X402592Y255189D01*
X404094Y254567D01*
X405687Y254250D01*
X407313D01*
X408906Y254567D01*
X410408Y255189D01*
X411759Y256092D01*
X412908Y257241D01*
X413811Y258592D01*
X414433Y260094D01*
X414750Y261687D01*
Y263313D01*
X414433Y264906D01*
X413811Y266408D01*
X412908Y267759D01*
X411759Y268908D01*
X410408Y269811D01*
X408906Y270433D01*
X407313Y270750D01*
D02*
G37*
G36*
X318000Y248151D02*
X316521Y248005D01*
X315099Y247574D01*
X313789Y246873D01*
X313000Y246226D01*
X312211Y246873D01*
X310901Y247574D01*
X309479Y248005D01*
X308000Y248151D01*
X306521Y248005D01*
X305099Y247574D01*
X303789Y246873D01*
X303000Y246226D01*
X302211Y246873D01*
X300901Y247574D01*
X299479Y248005D01*
X298000Y248151D01*
X296521Y248005D01*
X295099Y247574D01*
X293789Y246873D01*
X293000Y246226D01*
X292211Y246873D01*
X290901Y247574D01*
X289479Y248005D01*
X288000Y248151D01*
X286521Y248005D01*
X285099Y247574D01*
X283789Y246873D01*
X283000Y246226D01*
X282211Y246873D01*
X280901Y247574D01*
X279479Y248005D01*
X278000Y248151D01*
X276521Y248005D01*
X275099Y247574D01*
X273789Y246873D01*
X273000Y246226D01*
X272211Y246873D01*
X270901Y247574D01*
X269479Y248005D01*
X268000Y248151D01*
X266521Y248005D01*
X265099Y247574D01*
X263789Y246873D01*
X263000Y246226D01*
X262211Y246873D01*
X260901Y247574D01*
X259479Y248005D01*
X258000Y248151D01*
X256521Y248005D01*
X255099Y247574D01*
X253789Y246873D01*
X253000Y246226D01*
X252211Y246873D01*
X250901Y247574D01*
X249479Y248005D01*
X248000Y248151D01*
X246521Y248005D01*
X245099Y247574D01*
X243789Y246873D01*
X243000Y246226D01*
X242211Y246873D01*
X240901Y247574D01*
X239479Y248005D01*
X238000Y248151D01*
X236521Y248005D01*
X235099Y247574D01*
X233789Y246873D01*
X233000Y246226D01*
X232211Y246873D01*
X230901Y247574D01*
X229479Y248005D01*
X228000Y248151D01*
X226521Y248005D01*
X225099Y247574D01*
X223789Y246873D01*
X223000Y246226D01*
X222211Y246873D01*
X220901Y247574D01*
X219479Y248005D01*
X218000Y248151D01*
X216521Y248005D01*
X215099Y247574D01*
X213789Y246873D01*
X213000Y246226D01*
X212211Y246873D01*
X210901Y247574D01*
X209479Y248005D01*
X208000Y248151D01*
X206521Y248005D01*
X205099Y247574D01*
X203789Y246873D01*
X203000Y246226D01*
X202211Y246873D01*
X200901Y247574D01*
X199479Y248005D01*
X198000Y248151D01*
X196521Y248005D01*
X195099Y247574D01*
X193789Y246873D01*
X193000Y246226D01*
X192211Y246873D01*
X190901Y247574D01*
X189479Y248005D01*
X188000Y248151D01*
X186521Y248005D01*
X185099Y247574D01*
X183789Y246873D01*
X183000Y246226D01*
X182211Y246873D01*
X180901Y247574D01*
X179479Y248005D01*
X178000Y248151D01*
X176521Y248005D01*
X175099Y247574D01*
X173789Y246873D01*
X173000Y246226D01*
X172211Y246873D01*
X170901Y247574D01*
X169479Y248005D01*
X168000Y248151D01*
X166521Y248005D01*
X165099Y247574D01*
X163789Y246873D01*
X162640Y245931D01*
X161698Y244782D01*
X160997Y243472D01*
X160566Y242050D01*
X160420Y240571D01*
Y239784D01*
X160566Y238305D01*
X160997Y236883D01*
X161698Y235572D01*
X162640Y234424D01*
X163789Y233481D01*
X165099Y232781D01*
X166521Y232349D01*
X168000Y232204D01*
X169479Y232349D01*
X170901Y232781D01*
X172211Y233481D01*
X173000Y234128D01*
X173789Y233481D01*
X175099Y232781D01*
X176521Y232349D01*
X178000Y232204D01*
X179479Y232349D01*
X180901Y232781D01*
X182211Y233481D01*
X183000Y234128D01*
X183789Y233481D01*
X185099Y232781D01*
X186521Y232349D01*
X188000Y232204D01*
X189479Y232349D01*
X190901Y232781D01*
X192211Y233481D01*
X193000Y234128D01*
X193789Y233481D01*
X195099Y232781D01*
X196521Y232349D01*
X198000Y232204D01*
X199479Y232349D01*
X200901Y232781D01*
X202211Y233481D01*
X203000Y234128D01*
X203789Y233481D01*
X205099Y232781D01*
X206521Y232349D01*
X208000Y232204D01*
X209479Y232349D01*
X210901Y232781D01*
X212211Y233481D01*
X213000Y234128D01*
X213789Y233481D01*
X215099Y232781D01*
X216521Y232349D01*
X218000Y232204D01*
X219479Y232349D01*
X220901Y232781D01*
X222211Y233481D01*
X223000Y234128D01*
X223789Y233481D01*
X225099Y232781D01*
X226521Y232349D01*
X228000Y232204D01*
X229479Y232349D01*
X230901Y232781D01*
X232211Y233481D01*
X233000Y234128D01*
X233789Y233481D01*
X235099Y232781D01*
X236521Y232349D01*
X238000Y232204D01*
X239479Y232349D01*
X240901Y232781D01*
X242211Y233481D01*
X243000Y234128D01*
X243789Y233481D01*
X245099Y232781D01*
X246521Y232349D01*
X248000Y232204D01*
X249479Y232349D01*
X250901Y232781D01*
X252211Y233481D01*
X253000Y234128D01*
X253789Y233481D01*
X255099Y232781D01*
X256521Y232349D01*
X258000Y232204D01*
X259479Y232349D01*
X260901Y232781D01*
X262211Y233481D01*
X263000Y234128D01*
X263789Y233481D01*
X265099Y232781D01*
X266521Y232349D01*
X268000Y232204D01*
X269479Y232349D01*
X270901Y232781D01*
X272211Y233481D01*
X273000Y234128D01*
X273789Y233481D01*
X275099Y232781D01*
X276521Y232349D01*
X278000Y232204D01*
X279479Y232349D01*
X280901Y232781D01*
X282211Y233481D01*
X283000Y234128D01*
X283789Y233481D01*
X285099Y232781D01*
X286521Y232349D01*
X288000Y232204D01*
X289479Y232349D01*
X290901Y232781D01*
X292211Y233481D01*
X293000Y234128D01*
X293789Y233481D01*
X295099Y232781D01*
X296521Y232349D01*
X298000Y232204D01*
X299479Y232349D01*
X300901Y232781D01*
X302211Y233481D01*
X303000Y234128D01*
X303789Y233481D01*
X305099Y232781D01*
X306521Y232349D01*
X308000Y232204D01*
X309479Y232349D01*
X310901Y232781D01*
X312211Y233481D01*
X313000Y234128D01*
X313789Y233481D01*
X315099Y232781D01*
X316521Y232349D01*
X318000Y232204D01*
X319479Y232349D01*
X320901Y232781D01*
X322211Y233481D01*
X323360Y234424D01*
X324302Y235572D01*
X325003Y236883D01*
X325434Y238305D01*
X325580Y239784D01*
Y240571D01*
X325434Y242050D01*
X325003Y243472D01*
X324302Y244782D01*
X323360Y245931D01*
X322211Y246873D01*
X320901Y247574D01*
X319479Y248005D01*
X318000Y248151D01*
D02*
G37*
G36*
X213640Y223000D02*
X212360D01*
X211104Y222750D01*
X209921Y222260D01*
X208857Y221549D01*
X208851Y221543D01*
X106649D01*
X106643Y221549D01*
X105579Y222260D01*
X104396Y222750D01*
X103140Y223000D01*
X101860D01*
X100604Y222750D01*
X99421Y222260D01*
X98356Y221549D01*
X97451Y220643D01*
X96740Y219579D01*
X96250Y218396D01*
X96000Y217140D01*
Y215860D01*
X96250Y214604D01*
X96740Y213421D01*
X97451Y212356D01*
X98356Y211451D01*
X99421Y210740D01*
X100604Y210250D01*
X101860Y210000D01*
X103140D01*
X104396Y210250D01*
X105579Y210740D01*
X106643Y211451D01*
X106649Y211457D01*
X208851D01*
X208857Y211451D01*
X209921Y210740D01*
X211104Y210250D01*
X212360Y210000D01*
X213640D01*
X214896Y210250D01*
X216079Y210740D01*
X217144Y211451D01*
X218049Y212356D01*
X218760Y213421D01*
X219250Y214604D01*
X219500Y215860D01*
Y217140D01*
X219250Y218396D01*
X218760Y219579D01*
X218049Y220643D01*
X217144Y221549D01*
X216079Y222260D01*
X214896Y222750D01*
X213640Y223000D01*
D02*
G37*
G36*
X457239Y212600D02*
X440239D01*
Y198600D01*
X440395D01*
X440682Y198100D01*
X440340Y196972D01*
X440205Y195600D01*
X440340Y194228D01*
X440740Y192908D01*
X441390Y191692D01*
X441973Y190981D01*
X442246Y190600D01*
X441973Y190219D01*
X441390Y189508D01*
X440740Y188292D01*
X440340Y186972D01*
X440205Y185600D01*
X440340Y184228D01*
X440740Y182908D01*
X441390Y181692D01*
X441973Y180981D01*
X442246Y180600D01*
X441973Y180219D01*
X441390Y179508D01*
X440740Y178292D01*
X440340Y176972D01*
X440205Y175600D01*
X440340Y174228D01*
X440740Y172908D01*
X441390Y171692D01*
X441973Y170981D01*
X442246Y170600D01*
X441973Y170219D01*
X441390Y169508D01*
X440740Y168292D01*
X440340Y166972D01*
X440205Y165600D01*
X440340Y164228D01*
X440740Y162908D01*
X441390Y161692D01*
X441973Y160981D01*
X442246Y160600D01*
X441973Y160219D01*
X441390Y159508D01*
X440740Y158292D01*
X440340Y156972D01*
X440205Y155600D01*
X440340Y154228D01*
X440740Y152908D01*
X441390Y151692D01*
X441973Y150981D01*
X442246Y150600D01*
X441973Y150219D01*
X441390Y149508D01*
X440740Y148292D01*
X440340Y146972D01*
X440205Y145600D01*
X440340Y144228D01*
X440740Y142908D01*
X441390Y141692D01*
X442265Y140626D01*
X443331Y139752D01*
X444466Y139145D01*
X444617Y138630D01*
X444386Y138453D01*
X443745Y137617D01*
X443341Y136644D01*
X443270Y136100D01*
X443877D01*
X444465Y136749D01*
X445473Y136100D01*
X450451D01*
X446653Y138545D01*
X447317Y138640D01*
X447979Y138793D01*
X448641Y139006D01*
X449302Y139277D01*
X449961Y139607D01*
X450619Y139995D01*
X451276Y140443D01*
X451932Y140949D01*
X452587Y141514D01*
X453241Y142138D01*
X454928Y140393D01*
X455212Y140626D01*
X456087Y141692D01*
X456737Y142908D01*
X457137Y144228D01*
X457272Y145600D01*
X457137Y146972D01*
X456737Y148292D01*
X456087Y149508D01*
X455504Y150219D01*
X455231Y150600D01*
X455504Y150981D01*
X456087Y151692D01*
X456737Y152908D01*
X457137Y154228D01*
X457272Y155600D01*
X457137Y156972D01*
X456737Y158292D01*
X456087Y159508D01*
X455504Y160219D01*
X455231Y160600D01*
X455504Y160981D01*
X456087Y161692D01*
X456737Y162908D01*
X457137Y164228D01*
X457272Y165600D01*
X457137Y166972D01*
X456737Y168292D01*
X456087Y169508D01*
X455504Y170219D01*
X455231Y170600D01*
X455504Y170981D01*
X456087Y171692D01*
X456737Y172908D01*
X457137Y174228D01*
X457272Y175600D01*
X457137Y176972D01*
X456737Y178292D01*
X456087Y179508D01*
X455504Y180219D01*
X455231Y180600D01*
X455504Y180981D01*
X456087Y181692D01*
X456737Y182908D01*
X457137Y184228D01*
X457272Y185600D01*
X457137Y186972D01*
X456737Y188292D01*
X456087Y189508D01*
X455504Y190219D01*
X455231Y190600D01*
X455504Y190981D01*
X456087Y191692D01*
X456737Y192908D01*
X457137Y194228D01*
X457272Y195600D01*
X457137Y196972D01*
X456795Y198100D01*
X457082Y198600D01*
X457239D01*
Y212600D01*
D02*
G37*
G36*
X454207Y135100D02*
X453600D01*
X453013Y134451D01*
X452004Y135100D01*
X449239D01*
Y133676D01*
X450824Y132655D01*
X450160Y132560D01*
X449498Y132407D01*
X449239Y132324D01*
Y131565D01*
X450239D01*
X451283Y131703D01*
X452256Y132106D01*
X453091Y132747D01*
X453733Y133583D01*
X454136Y134556D01*
X454207Y135100D01*
D02*
G37*
G36*
X448239D02*
X447026D01*
X448239Y134320D01*
Y135100D01*
D02*
G37*
G36*
Y131949D02*
X448176Y131923D01*
X447516Y131593D01*
X447469Y131565D01*
X448239D01*
Y131949D01*
D02*
G37*
G36*
X450450Y120748D02*
X449022D01*
X447622Y120469D01*
X446303Y119923D01*
X445116Y119130D01*
X444106Y118120D01*
X443313Y116933D01*
X442767Y115614D01*
X442488Y114214D01*
Y112786D01*
X442767Y111386D01*
X443313Y110067D01*
X444106Y108880D01*
X445116Y107870D01*
X446303Y107077D01*
X447622Y106530D01*
X449022Y106252D01*
X450450D01*
X451850Y106530D01*
X453169Y107077D01*
X454357Y107870D01*
X455366Y108880D01*
X456159Y110067D01*
X456706Y111386D01*
X456984Y112786D01*
Y114214D01*
X456706Y115614D01*
X456159Y116933D01*
X455366Y118120D01*
X454357Y119130D01*
X453169Y119923D01*
X451850Y120469D01*
X450450Y120748D01*
D02*
G37*
G36*
X278000Y65498D02*
X276521Y65352D01*
X275099Y64921D01*
X273789Y64220D01*
X272985Y63561D01*
X272211Y64196D01*
X270901Y64897D01*
X269479Y65328D01*
X268000Y65474D01*
X266521Y65328D01*
X265099Y64897D01*
X263789Y64196D01*
X263000Y63549D01*
X262211Y64196D01*
X260901Y64897D01*
X259479Y65328D01*
X258000Y65474D01*
X256521Y65328D01*
X255099Y64897D01*
X253789Y64196D01*
X253000Y63549D01*
X252211Y64196D01*
X250901Y64897D01*
X249479Y65328D01*
X248000Y65474D01*
X246521Y65328D01*
X245099Y64897D01*
X243789Y64196D01*
X243000Y63549D01*
X242211Y64196D01*
X240901Y64897D01*
X239479Y65328D01*
X238000Y65474D01*
X236521Y65328D01*
X235099Y64897D01*
X233789Y64196D01*
X233000Y63549D01*
X232211Y64196D01*
X230901Y64897D01*
X229479Y65328D01*
X228000Y65474D01*
X226521Y65328D01*
X225099Y64897D01*
X223789Y64196D01*
X223000Y63549D01*
X222211Y64196D01*
X220901Y64897D01*
X219479Y65328D01*
X218000Y65474D01*
X216521Y65328D01*
X215099Y64897D01*
X213789Y64196D01*
X213000Y63549D01*
X212211Y64196D01*
X210901Y64897D01*
X209479Y65328D01*
X208000Y65474D01*
X206521Y65328D01*
X205099Y64897D01*
X203789Y64196D01*
X203000Y63549D01*
X202211Y64196D01*
X200901Y64897D01*
X199479Y65328D01*
X198000Y65474D01*
X196521Y65328D01*
X195099Y64897D01*
X193789Y64196D01*
X193000Y63549D01*
X192211Y64196D01*
X190901Y64897D01*
X189479Y65328D01*
X188000Y65474D01*
X186521Y65328D01*
X185099Y64897D01*
X183789Y64196D01*
X183000Y63549D01*
X182211Y64196D01*
X180901Y64897D01*
X179479Y65328D01*
X178000Y65474D01*
X176521Y65328D01*
X175259Y64945D01*
X160555D01*
Y50055D01*
X175259D01*
X176521Y49672D01*
X178000Y49527D01*
X179479Y49672D01*
X180901Y50103D01*
X182211Y50804D01*
X183000Y51451D01*
X183789Y50804D01*
X185099Y50103D01*
X186521Y49672D01*
X188000Y49527D01*
X189479Y49672D01*
X190901Y50103D01*
X192211Y50804D01*
X193000Y51451D01*
X193789Y50804D01*
X195099Y50103D01*
X196521Y49672D01*
X198000Y49527D01*
X199479Y49672D01*
X200901Y50103D01*
X202211Y50804D01*
X203000Y51451D01*
X203789Y50804D01*
X205099Y50103D01*
X206521Y49672D01*
X208000Y49527D01*
X209479Y49672D01*
X210901Y50103D01*
X212211Y50804D01*
X213000Y51451D01*
X213789Y50804D01*
X215099Y50103D01*
X216521Y49672D01*
X218000Y49527D01*
X219479Y49672D01*
X220901Y50103D01*
X222211Y50804D01*
X223000Y51451D01*
X223789Y50804D01*
X225099Y50103D01*
X226521Y49672D01*
X228000Y49527D01*
X229479Y49672D01*
X230901Y50103D01*
X232211Y50804D01*
X233000Y51451D01*
X233789Y50804D01*
X235099Y50103D01*
X236521Y49672D01*
X238000Y49527D01*
X239479Y49672D01*
X240901Y50103D01*
X242211Y50804D01*
X243000Y51451D01*
X243789Y50804D01*
X245099Y50103D01*
X246521Y49672D01*
X248000Y49527D01*
X249479Y49672D01*
X250901Y50103D01*
X252211Y50804D01*
X253000Y51451D01*
X253789Y50804D01*
X255099Y50103D01*
X256521Y49672D01*
X258000Y49527D01*
X259479Y49672D01*
X260901Y50103D01*
X262211Y50804D01*
X263000Y51451D01*
X263789Y50804D01*
X265099Y50103D01*
X266521Y49672D01*
X268000Y49527D01*
X269479Y49672D01*
X270901Y50103D01*
X272211Y50804D01*
X273015Y51463D01*
X273789Y50828D01*
X275099Y50128D01*
X276521Y49696D01*
X278000Y49551D01*
X279479Y49696D01*
X280901Y50128D01*
X282211Y50828D01*
X282985Y51463D01*
X283789Y50804D01*
X285099Y50103D01*
X286521Y49672D01*
X288000Y49527D01*
X289479Y49672D01*
X290901Y50103D01*
X292211Y50804D01*
X293000Y51451D01*
X293789Y50804D01*
X295099Y50103D01*
X296521Y49672D01*
X298000Y49527D01*
X299479Y49672D01*
X300901Y50103D01*
X302211Y50804D01*
X303000Y51451D01*
X303789Y50804D01*
X305099Y50103D01*
X306521Y49672D01*
X308000Y49527D01*
X309479Y49672D01*
X310901Y50103D01*
X312211Y50804D01*
X313000Y51451D01*
X313789Y50804D01*
X315099Y50103D01*
X316521Y49672D01*
X318000Y49527D01*
X319479Y49672D01*
X320901Y50103D01*
X322211Y50804D01*
X323360Y51747D01*
X324302Y52895D01*
X325003Y54206D01*
X325434Y55628D01*
X325580Y57106D01*
Y57894D01*
X325434Y59373D01*
X325003Y60794D01*
X324302Y62105D01*
X323360Y63253D01*
X322211Y64196D01*
X320901Y64897D01*
X319479Y65328D01*
X318000Y65474D01*
X316521Y65328D01*
X315099Y64897D01*
X313789Y64196D01*
X313000Y63549D01*
X312211Y64196D01*
X310901Y64897D01*
X309479Y65328D01*
X308000Y65474D01*
X306521Y65328D01*
X305099Y64897D01*
X303789Y64196D01*
X303000Y63549D01*
X302211Y64196D01*
X300901Y64897D01*
X299479Y65328D01*
X298000Y65474D01*
X296521Y65328D01*
X295099Y64897D01*
X293789Y64196D01*
X293000Y63549D01*
X292211Y64196D01*
X290901Y64897D01*
X289479Y65328D01*
X288000Y65474D01*
X286521Y65328D01*
X285099Y64897D01*
X283789Y64196D01*
X283015Y63561D01*
X282211Y64220D01*
X280901Y64921D01*
X279479Y65352D01*
X278000Y65498D01*
D02*
G37*
G36*
X453707Y22100D02*
X448739D01*
Y18565D01*
X449739D01*
X450783Y18703D01*
X451756Y19106D01*
X452591Y19747D01*
X453233Y20583D01*
X453636Y21556D01*
X453707Y22100D01*
D02*
G37*
G36*
X447739D02*
X442770D01*
X442841Y21556D01*
X443245Y20583D01*
X443886Y19747D01*
X444721Y19106D01*
X445694Y18703D01*
X446739Y18565D01*
X447739D01*
Y22100D01*
D02*
G37*
%LPD*%
G36*
X211215Y214750D02*
X211057Y214893D01*
X210879Y215020D01*
X210680Y215132D01*
X210461Y215230D01*
X210221Y215313D01*
X209960Y215380D01*
X209678Y215433D01*
X209376Y215470D01*
X209052Y215493D01*
X208709Y215500D01*
Y217500D01*
X209052Y217508D01*
X209678Y217567D01*
X209960Y217620D01*
X210221Y217688D01*
X210461Y217770D01*
X210680Y217867D01*
X210879Y217980D01*
X211057Y218108D01*
X211215Y218250D01*
Y214750D01*
D02*
G37*
G36*
X104443Y218108D02*
X104621Y217980D01*
X104820Y217867D01*
X105039Y217770D01*
X105279Y217688D01*
X105540Y217620D01*
X105822Y217567D01*
X106124Y217530D01*
X106448Y217508D01*
X106791Y217500D01*
Y215500D01*
X106448Y215493D01*
X105822Y215433D01*
X105540Y215380D01*
X105279Y215313D01*
X105039Y215230D01*
X104820Y215132D01*
X104621Y215020D01*
X104443Y214893D01*
X104285Y214750D01*
Y218250D01*
X104443Y218108D01*
D02*
G37*
%LPC*%
G36*
X194500Y359969D02*
Y355000D01*
X198035D01*
Y356000D01*
X197897Y357044D01*
X197494Y358017D01*
X196853Y358853D01*
X196017Y359494D01*
X195044Y359897D01*
X194500Y359969D01*
D02*
G37*
G36*
X198035Y354000D02*
X194500D01*
Y349031D01*
X195044Y349103D01*
X196017Y349506D01*
X196853Y350147D01*
X197494Y350983D01*
X197897Y351956D01*
X198035Y353000D01*
Y354000D01*
D02*
G37*
G36*
X81500Y390069D02*
Y386000D01*
X85910D01*
X85820Y386686D01*
X85362Y387791D01*
X84634Y388740D01*
X83685Y389469D01*
X82580Y389926D01*
X81500Y390069D01*
D02*
G37*
G36*
X80500D02*
X79420Y389926D01*
X78315Y389469D01*
X77366Y388740D01*
X76638Y387791D01*
X76180Y386686D01*
X76090Y386000D01*
X80500D01*
Y390069D01*
D02*
G37*
G36*
X85910Y385000D02*
X81500D01*
Y384142D01*
X84672D01*
X84449Y383683D01*
X84250Y383181D01*
X84074Y382638D01*
X83922Y382052D01*
X83851Y381659D01*
X84634Y382260D01*
X85362Y383209D01*
X85820Y384314D01*
X85910Y385000D01*
D02*
G37*
G36*
X80500D02*
X76090D01*
X76180Y384314D01*
X76638Y383209D01*
X77366Y382260D01*
X78154Y381655D01*
X77926Y382638D01*
X77750Y383181D01*
X77551Y383683D01*
X77328Y384142D01*
X80500D01*
Y385000D01*
D02*
G37*
G36*
X83846Y379345D02*
X84074Y378362D01*
X84078Y378350D01*
X84436Y378280D01*
X85046Y378203D01*
X84634Y378740D01*
X83846Y379345D01*
D02*
G37*
G36*
X78149Y379341D02*
X77366Y378740D01*
X76946Y378192D01*
X76981Y378195D01*
X77564Y378280D01*
X77925Y378361D01*
X77926Y378362D01*
X78078Y378947D01*
X78149Y379341D01*
D02*
G37*
G36*
X82752Y376858D02*
X81500D01*
Y376000D01*
X82752D01*
Y376858D01*
D02*
G37*
G36*
X80500D02*
X79248D01*
Y376000D01*
X80500D01*
Y376858D01*
D02*
G37*
G36*
X21394Y393080D02*
X20606D01*
X19128Y392934D01*
X17706Y392503D01*
X16395Y391802D01*
X15247Y390860D01*
X14304Y389711D01*
X13603Y388401D01*
X13172Y386979D01*
X13026Y385500D01*
X13172Y384021D01*
X13603Y382599D01*
X14304Y381289D01*
X14951Y380500D01*
X14304Y379711D01*
X13603Y378401D01*
X13172Y376979D01*
X13026Y375500D01*
X13172Y374021D01*
X13603Y372599D01*
X14304Y371289D01*
X14951Y370500D01*
X14304Y369711D01*
X13603Y368401D01*
X13172Y366979D01*
X13026Y365500D01*
X13172Y364021D01*
X13603Y362599D01*
X14304Y361289D01*
X14951Y360500D01*
X14304Y359711D01*
X13603Y358401D01*
X13172Y356979D01*
X13026Y355500D01*
X13172Y354021D01*
X13603Y352599D01*
X14304Y351289D01*
X14951Y350500D01*
X14304Y349711D01*
X13603Y348401D01*
X13172Y346979D01*
X13026Y345500D01*
X13172Y344021D01*
X13603Y342599D01*
X14304Y341289D01*
X14951Y340500D01*
X14304Y339711D01*
X13603Y338401D01*
X13172Y336979D01*
X13026Y335500D01*
X13172Y334021D01*
X13603Y332599D01*
X14304Y331289D01*
X14951Y330500D01*
X14304Y329711D01*
X13603Y328401D01*
X13172Y326979D01*
X13026Y325500D01*
X13172Y324021D01*
X13603Y322599D01*
X14304Y321289D01*
X14951Y320500D01*
X14304Y319711D01*
X13603Y318401D01*
X13172Y316979D01*
X13026Y315500D01*
X13172Y314021D01*
X13603Y312599D01*
X14304Y311289D01*
X14951Y310500D01*
X14304Y309711D01*
X13603Y308401D01*
X13172Y306979D01*
X13026Y305500D01*
X13172Y304021D01*
X13603Y302599D01*
X14304Y301289D01*
X14951Y300500D01*
X14304Y299711D01*
X13603Y298401D01*
X13172Y296979D01*
X13026Y295500D01*
X13172Y294021D01*
X13603Y292599D01*
X14304Y291289D01*
X14951Y290500D01*
X14304Y289711D01*
X13603Y288401D01*
X13172Y286979D01*
X13026Y285500D01*
X13172Y284021D01*
X13603Y282599D01*
X14304Y281289D01*
X14951Y280500D01*
X14304Y279711D01*
X13603Y278401D01*
X13172Y276979D01*
X13026Y275500D01*
X13172Y274021D01*
X13603Y272599D01*
X14304Y271289D01*
X14951Y270500D01*
X14304Y269711D01*
X13603Y268401D01*
X13172Y266979D01*
X13026Y265500D01*
X13172Y264021D01*
X13603Y262599D01*
X14304Y261289D01*
X14951Y260500D01*
X14304Y259711D01*
X13603Y258401D01*
X13172Y256979D01*
X13026Y255500D01*
X13172Y254021D01*
X13603Y252599D01*
X14304Y251289D01*
X14951Y250500D01*
X14304Y249711D01*
X13603Y248401D01*
X13172Y246979D01*
X13026Y245500D01*
X13172Y244021D01*
X13603Y242599D01*
X14304Y241289D01*
X14951Y240500D01*
X14304Y239711D01*
X13603Y238401D01*
X13172Y236979D01*
X13026Y235500D01*
X13172Y234021D01*
X13603Y232599D01*
X14304Y231289D01*
X14951Y230500D01*
X14304Y229711D01*
X13603Y228401D01*
X13172Y226979D01*
X13026Y225500D01*
X13172Y224021D01*
X13603Y222599D01*
X14304Y221289D01*
X14951Y220500D01*
X14304Y219711D01*
X13603Y218401D01*
X13172Y216979D01*
X13026Y215500D01*
X13172Y214021D01*
X13603Y212599D01*
X14304Y211289D01*
X14951Y210500D01*
X14304Y209711D01*
X13603Y208401D01*
X13172Y206979D01*
X13026Y205500D01*
X13172Y204021D01*
X13603Y202599D01*
X14304Y201289D01*
X14951Y200500D01*
X14304Y199711D01*
X13603Y198401D01*
X13172Y196979D01*
X13026Y195500D01*
X13172Y194021D01*
X13603Y192599D01*
X14304Y191289D01*
X15247Y190140D01*
X16395Y189198D01*
X17706Y188497D01*
X19128Y188066D01*
X20606Y187920D01*
X21394D01*
X22873Y188066D01*
X24294Y188497D01*
X25605Y189198D01*
X26753Y190140D01*
X27696Y191289D01*
X28396Y192599D01*
X28828Y194021D01*
X28973Y195500D01*
X28828Y196979D01*
X28396Y198401D01*
X27696Y199711D01*
X27049Y200500D01*
X27696Y201289D01*
X28396Y202599D01*
X28828Y204021D01*
X28973Y205500D01*
X28828Y206979D01*
X28396Y208401D01*
X27696Y209711D01*
X27049Y210500D01*
X27696Y211289D01*
X28396Y212599D01*
X28828Y214021D01*
X28973Y215500D01*
X28828Y216979D01*
X28396Y218401D01*
X27696Y219711D01*
X27049Y220500D01*
X27696Y221289D01*
X28396Y222599D01*
X28828Y224021D01*
X28973Y225500D01*
X28828Y226979D01*
X28396Y228401D01*
X27696Y229711D01*
X27049Y230500D01*
X27696Y231289D01*
X28396Y232599D01*
X28828Y234021D01*
X28973Y235500D01*
X28828Y236979D01*
X28396Y238401D01*
X27696Y239711D01*
X27049Y240500D01*
X27696Y241289D01*
X28396Y242599D01*
X28828Y244021D01*
X28973Y245500D01*
X28828Y246979D01*
X28396Y248401D01*
X27696Y249711D01*
X27049Y250500D01*
X27696Y251289D01*
X28396Y252599D01*
X28828Y254021D01*
X28973Y255500D01*
X28828Y256979D01*
X28396Y258401D01*
X27696Y259711D01*
X27049Y260500D01*
X27696Y261289D01*
X28396Y262599D01*
X28828Y264021D01*
X28973Y265500D01*
X28828Y266979D01*
X28396Y268401D01*
X27696Y269711D01*
X27049Y270500D01*
X27696Y271289D01*
X28396Y272599D01*
X28828Y274021D01*
X28973Y275500D01*
X28828Y276979D01*
X28396Y278401D01*
X27696Y279711D01*
X27049Y280500D01*
X27696Y281289D01*
X28396Y282599D01*
X28828Y284021D01*
X28973Y285500D01*
X28828Y286979D01*
X28396Y288401D01*
X27696Y289711D01*
X27049Y290500D01*
X27696Y291289D01*
X28396Y292599D01*
X28828Y294021D01*
X28973Y295500D01*
X28828Y296979D01*
X28396Y298401D01*
X27696Y299711D01*
X27049Y300500D01*
X27696Y301289D01*
X28396Y302599D01*
X28828Y304021D01*
X28973Y305500D01*
X28828Y306979D01*
X28396Y308401D01*
X27696Y309711D01*
X27049Y310500D01*
X27696Y311289D01*
X28396Y312599D01*
X28828Y314021D01*
X28973Y315500D01*
X28828Y316979D01*
X28396Y318401D01*
X27696Y319711D01*
X27049Y320500D01*
X27696Y321289D01*
X28396Y322599D01*
X28828Y324021D01*
X28973Y325500D01*
X28828Y326979D01*
X28396Y328401D01*
X27696Y329711D01*
X27049Y330500D01*
X27696Y331289D01*
X28396Y332599D01*
X28828Y334021D01*
X28973Y335500D01*
X28828Y336979D01*
X28396Y338401D01*
X27696Y339711D01*
X27049Y340500D01*
X27696Y341289D01*
X28396Y342599D01*
X28828Y344021D01*
X28973Y345500D01*
X28828Y346979D01*
X28396Y348401D01*
X27696Y349711D01*
X27049Y350500D01*
X27696Y351289D01*
X28396Y352599D01*
X28828Y354021D01*
X28973Y355500D01*
X28828Y356979D01*
X28396Y358401D01*
X27696Y359711D01*
X27049Y360500D01*
X27696Y361289D01*
X28396Y362599D01*
X28828Y364021D01*
X28973Y365500D01*
X28828Y366979D01*
X28396Y368401D01*
X27696Y369711D01*
X27049Y370500D01*
X27696Y371289D01*
X28396Y372599D01*
X28828Y374021D01*
X28973Y375500D01*
X28828Y376979D01*
X28396Y378401D01*
X27696Y379711D01*
X27049Y380500D01*
X27696Y381289D01*
X28396Y382599D01*
X28828Y384021D01*
X28973Y385500D01*
X28828Y386979D01*
X28396Y388401D01*
X27696Y389711D01*
X26753Y390860D01*
X25605Y391802D01*
X24294Y392503D01*
X22873Y392934D01*
X21394Y393080D01*
D02*
G37*
G36*
X88200Y159835D02*
X84800D01*
X83369Y159694D01*
X81993Y159277D01*
X80725Y158599D01*
X79613Y157687D01*
X78701Y156575D01*
X78023Y155307D01*
X77606Y153931D01*
X77465Y152500D01*
X77512Y152023D01*
X77021Y151900D01*
X76811Y152408D01*
X75908Y153759D01*
X74759Y154908D01*
X73408Y155811D01*
X71906Y156433D01*
X70312Y156750D01*
X68687D01*
X67094Y156433D01*
X65592Y155811D01*
X64241Y154908D01*
X63092Y153759D01*
X62189Y152408D01*
X61567Y150906D01*
X61250Y149313D01*
Y147687D01*
X61567Y146094D01*
X62189Y144592D01*
X63092Y143241D01*
X63583Y142750D01*
X63092Y142259D01*
X62189Y140908D01*
X61567Y139406D01*
X61250Y137813D01*
Y136187D01*
X61567Y134594D01*
X62189Y133092D01*
X63092Y131741D01*
X64241Y130592D01*
X65592Y129689D01*
X67094Y129067D01*
X68687Y128750D01*
X70312D01*
X71906Y129067D01*
X73408Y129689D01*
X74759Y130592D01*
X75908Y131741D01*
X76811Y133092D01*
X77086Y133756D01*
X77576Y133633D01*
X77465Y132500D01*
X77606Y131069D01*
X78023Y129693D01*
X78701Y128425D01*
X79613Y127313D01*
X80725Y126401D01*
X81993Y125723D01*
X83369Y125306D01*
X84800Y125165D01*
X88200D01*
X89631Y125306D01*
X91007Y125723D01*
X92275Y126401D01*
X92957Y126960D01*
X93457Y126724D01*
Y117776D01*
X92957Y117540D01*
X92275Y118099D01*
X91007Y118777D01*
X89631Y119194D01*
X88200Y119335D01*
X84800D01*
X83369Y119194D01*
X81993Y118777D01*
X80725Y118099D01*
X79613Y117187D01*
X78701Y116075D01*
X78023Y114807D01*
X77606Y113431D01*
X77567Y113040D01*
X77057Y112965D01*
X76811Y113559D01*
X75908Y114910D01*
X74759Y116059D01*
X73408Y116962D01*
X71906Y117584D01*
X70312Y117901D01*
X68687D01*
X67094Y117584D01*
X65592Y116962D01*
X64241Y116059D01*
X63092Y114910D01*
X62189Y113559D01*
X61567Y112058D01*
X61250Y110464D01*
Y108839D01*
X61567Y107245D01*
X62189Y105743D01*
X63092Y104392D01*
X63408Y104076D01*
X63092Y103759D01*
X62189Y102408D01*
X61567Y100906D01*
X61250Y99313D01*
Y97688D01*
X61567Y96094D01*
X62189Y94592D01*
X63092Y93241D01*
X64241Y92092D01*
X65592Y91189D01*
X67094Y90567D01*
X68687Y90250D01*
X70312D01*
X71906Y90567D01*
X73408Y91189D01*
X74759Y92092D01*
X75908Y93241D01*
X76811Y94592D01*
X77433Y96094D01*
X77750Y97688D01*
Y98643D01*
X78250Y98768D01*
X78701Y97925D01*
X79460Y97000D01*
X78701Y96075D01*
X78023Y94807D01*
X77606Y93431D01*
X77465Y92000D01*
X77606Y90569D01*
X78023Y89193D01*
X78701Y87925D01*
X79613Y86813D01*
X80725Y85901D01*
X81993Y85223D01*
X83369Y84806D01*
X84800Y84665D01*
X88200D01*
X89631Y84806D01*
X91007Y85223D01*
X92275Y85901D01*
X92957Y86460D01*
X93457Y86224D01*
Y81776D01*
X92957Y81540D01*
X92275Y82099D01*
X91007Y82777D01*
X89631Y83194D01*
X88200Y83335D01*
X84800D01*
X83369Y83194D01*
X81993Y82777D01*
X80725Y82099D01*
X79613Y81187D01*
X78701Y80075D01*
X78023Y78807D01*
X77606Y77431D01*
X77465Y76000D01*
X77512Y75523D01*
X77021Y75400D01*
X76811Y75908D01*
X75908Y77259D01*
X74759Y78408D01*
X73408Y79311D01*
X71906Y79933D01*
X70312Y80250D01*
X68687D01*
X67094Y79933D01*
X65592Y79311D01*
X64241Y78408D01*
X63092Y77259D01*
X62189Y75908D01*
X61567Y74406D01*
X61250Y72812D01*
Y71188D01*
X61567Y69594D01*
X62189Y68092D01*
X63092Y66741D01*
X63583Y66250D01*
X63092Y65759D01*
X62189Y64408D01*
X61567Y62906D01*
X61250Y61313D01*
Y59688D01*
X61567Y58094D01*
X62189Y56592D01*
X63092Y55241D01*
X64241Y54092D01*
X65592Y53189D01*
X67094Y52567D01*
X68687Y52250D01*
X70312D01*
X71906Y52567D01*
X73408Y53189D01*
X74759Y54092D01*
X75908Y55241D01*
X76811Y56592D01*
X77086Y57256D01*
X77576Y57133D01*
X77465Y56000D01*
X77606Y54569D01*
X78023Y53193D01*
X78701Y51925D01*
X79613Y50813D01*
X80725Y49901D01*
X81993Y49223D01*
X83369Y48806D01*
X84800Y48665D01*
X88200D01*
X89631Y48806D01*
X91007Y49223D01*
X92275Y49901D01*
X92957Y50460D01*
X93457Y50224D01*
Y40776D01*
X92988Y40514D01*
X92275Y41099D01*
X91007Y41777D01*
X89631Y42194D01*
X88200Y42335D01*
X84800D01*
X83369Y42194D01*
X81993Y41777D01*
X80725Y41099D01*
X79613Y40187D01*
X78701Y39075D01*
X78023Y37807D01*
X77606Y36431D01*
X77555Y35918D01*
X77045Y35842D01*
X76811Y36408D01*
X75908Y37759D01*
X74759Y38908D01*
X73408Y39811D01*
X71906Y40433D01*
X70312Y40750D01*
X68687D01*
X67094Y40433D01*
X65592Y39811D01*
X64241Y38908D01*
X63092Y37759D01*
X62189Y36408D01*
X61567Y34906D01*
X61250Y33312D01*
Y31688D01*
X61567Y30094D01*
X62189Y28592D01*
X63092Y27241D01*
X63583Y26750D01*
X63092Y26259D01*
X62189Y24908D01*
X61567Y23406D01*
X61250Y21813D01*
Y20188D01*
X61567Y18594D01*
X62189Y17092D01*
X63092Y15741D01*
X64241Y14592D01*
X65592Y13689D01*
X67094Y13067D01*
X68687Y12750D01*
X70312D01*
X71906Y13067D01*
X73408Y13689D01*
X74759Y14592D01*
X75908Y15741D01*
X76811Y17092D01*
X77433Y18594D01*
X77750Y20188D01*
Y21643D01*
X78250Y21768D01*
X78701Y20925D01*
X79460Y20000D01*
X78701Y19075D01*
X78023Y17807D01*
X77606Y16431D01*
X77465Y15000D01*
X77606Y13569D01*
X78023Y12193D01*
X78701Y10925D01*
X79613Y9813D01*
X80725Y8901D01*
X81993Y8223D01*
X83369Y7806D01*
X84800Y7665D01*
X88200D01*
X89631Y7806D01*
X91007Y8223D01*
X92275Y8901D01*
X93387Y9813D01*
X94299Y10925D01*
X94977Y12193D01*
X95394Y13569D01*
X95535Y15000D01*
X95394Y16431D01*
X94977Y17807D01*
X94299Y19075D01*
X93540Y20000D01*
X94299Y20925D01*
X94977Y22193D01*
X95394Y23569D01*
X95535Y25000D01*
X95394Y26431D01*
X94977Y27807D01*
X94299Y29075D01*
X93947Y29505D01*
X94160Y29957D01*
X95000D01*
X96305Y30129D01*
X97522Y30632D01*
X98566Y31434D01*
X102066Y34934D01*
X102867Y35978D01*
X103371Y37195D01*
X103543Y38500D01*
Y75000D01*
Y112500D01*
Y147500D01*
X103371Y148805D01*
X102867Y150022D01*
X102066Y151066D01*
X97066Y156066D01*
X96022Y156868D01*
X94805Y157371D01*
X93505Y157542D01*
X93387Y157687D01*
X92275Y158599D01*
X91007Y159277D01*
X89631Y159694D01*
X88200Y159835D01*
D02*
G37*
G36*
X25493Y131000D02*
X23500D01*
Y130068D01*
X25493Y131000D01*
D02*
G37*
G36*
X28971D02*
X28223D01*
X28337Y130703D01*
X28585Y130188D01*
X28716Y129960D01*
X28889Y130377D01*
X28971Y131000D01*
D02*
G37*
G36*
X24700Y158835D02*
X21300D01*
X19869Y158694D01*
X18493Y158277D01*
X17225Y157599D01*
X16113Y156687D01*
X15201Y155575D01*
X14523Y154307D01*
X14106Y152931D01*
X13965Y151500D01*
X14106Y150069D01*
X14523Y148693D01*
X15201Y147425D01*
X15960Y146500D01*
X15201Y145575D01*
X14523Y144307D01*
X14106Y142931D01*
X13965Y141500D01*
X14106Y140069D01*
X14523Y138693D01*
X15201Y137425D01*
X16113Y136313D01*
X17225Y135401D01*
X18019Y134976D01*
X18085Y134374D01*
X17544Y133669D01*
X17111Y132623D01*
X17029Y132000D01*
X23000D01*
X27631D01*
X27940Y132145D01*
X27964Y132000D01*
X28971D01*
X28889Y132623D01*
X28456Y133669D01*
X27915Y134374D01*
X27981Y134976D01*
X28775Y135401D01*
X29887Y136313D01*
X30750Y137365D01*
X30963Y137346D01*
X31250Y137208D01*
Y136187D01*
X31567Y134594D01*
X32189Y133092D01*
X33092Y131741D01*
X34241Y130592D01*
X35592Y129689D01*
X37094Y129067D01*
X38688Y128750D01*
X40312D01*
X41906Y129067D01*
X43408Y129689D01*
X44759Y130592D01*
X45908Y131741D01*
X46811Y133092D01*
X47433Y134594D01*
X47750Y136187D01*
Y137813D01*
X47433Y139406D01*
X46811Y140908D01*
X45908Y142259D01*
X45417Y142750D01*
X45908Y143241D01*
X46811Y144592D01*
X47433Y146094D01*
X47750Y147687D01*
Y149313D01*
X47433Y150906D01*
X46811Y152408D01*
X45908Y153759D01*
X44759Y154908D01*
X43408Y155811D01*
X41906Y156433D01*
X40312Y156750D01*
X38688D01*
X37094Y156433D01*
X35592Y155811D01*
X34241Y154908D01*
X33092Y153759D01*
X32415Y152746D01*
X31900Y152875D01*
X31894Y152931D01*
X31477Y154307D01*
X30799Y155575D01*
X29887Y156687D01*
X28775Y157599D01*
X27507Y158277D01*
X26131Y158694D01*
X24700Y158835D01*
D02*
G37*
G36*
X22500Y131000D02*
X17029D01*
X17111Y130377D01*
X17544Y129331D01*
X18233Y128433D01*
X19131Y127744D01*
X20177Y127311D01*
X21300Y127163D01*
X22500D01*
Y127354D01*
X22229Y127519D01*
X21486Y127891D01*
X20754Y128200D01*
X20036Y128448D01*
X22500Y129600D01*
Y131000D01*
D02*
G37*
G36*
X28971Y92000D02*
X28931D01*
X28966Y91958D01*
X28971Y92000D01*
D02*
G37*
G36*
X25073D02*
X23500D01*
Y90964D01*
X25073Y92000D01*
D02*
G37*
G36*
X24700Y119835D02*
X21300D01*
X19869Y119694D01*
X18493Y119277D01*
X17225Y118599D01*
X16113Y117687D01*
X15201Y116575D01*
X14523Y115307D01*
X14106Y113931D01*
X13965Y112500D01*
X14106Y111069D01*
X14523Y109693D01*
X15201Y108425D01*
X15960Y107500D01*
X15201Y106575D01*
X14523Y105307D01*
X14106Y103931D01*
X13965Y102500D01*
X14106Y101069D01*
X14523Y99693D01*
X15201Y98425D01*
X16113Y97313D01*
X17225Y96401D01*
X18019Y95976D01*
X18085Y95374D01*
X17544Y94669D01*
X17111Y93622D01*
X17029Y93000D01*
X23000D01*
X26592D01*
X27752Y93764D01*
X27851Y93517D01*
X28012Y93224D01*
X28158Y93000D01*
X28971D01*
X28889Y93622D01*
X28456Y94669D01*
X27915Y95374D01*
X27981Y95976D01*
X28775Y96401D01*
X29887Y97313D01*
X30750Y98365D01*
X31200Y98324D01*
X31250Y98312D01*
Y97688D01*
X31567Y96094D01*
X32189Y94592D01*
X33092Y93241D01*
X34241Y92092D01*
X35592Y91189D01*
X37094Y90567D01*
X38688Y90250D01*
X40312D01*
X41906Y90567D01*
X43408Y91189D01*
X44759Y92092D01*
X45908Y93241D01*
X46811Y94592D01*
X47433Y96094D01*
X47750Y97688D01*
Y99313D01*
X47433Y100906D01*
X46811Y102408D01*
X45908Y103759D01*
X45592Y104076D01*
X45908Y104392D01*
X46811Y105743D01*
X47433Y107245D01*
X47750Y108839D01*
Y110464D01*
X47433Y112058D01*
X46811Y113559D01*
X45908Y114910D01*
X44759Y116059D01*
X43408Y116962D01*
X41906Y117584D01*
X40312Y117901D01*
X38688D01*
X37094Y117584D01*
X35592Y116962D01*
X34241Y116059D01*
X33092Y114910D01*
X32402Y113878D01*
X32058Y113914D01*
X31876Y113991D01*
X31477Y115307D01*
X30799Y116575D01*
X29887Y117687D01*
X28775Y118599D01*
X27507Y119277D01*
X26131Y119694D01*
X24700Y119835D01*
D02*
G37*
G36*
X23500Y89151D02*
Y88163D01*
X24700D01*
X25075Y88212D01*
X24473Y88628D01*
X23733Y89051D01*
X23500Y89151D01*
D02*
G37*
G36*
X22500Y92000D02*
X17029D01*
X17111Y91378D01*
X17544Y90331D01*
X18233Y89433D01*
X19131Y88744D01*
X20177Y88311D01*
X21300Y88163D01*
X22500D01*
Y89493D01*
X22426Y89513D01*
X21858Y89552D01*
X21347Y89464D01*
X20894Y89248D01*
X22500Y90306D01*
Y92000D01*
D02*
G37*
G36*
X24700Y80835D02*
X21300D01*
X19869Y80694D01*
X18493Y80277D01*
X17225Y79599D01*
X16113Y78687D01*
X15201Y77575D01*
X14523Y76307D01*
X14106Y74931D01*
X13965Y73500D01*
X14106Y72069D01*
X14523Y70693D01*
X15201Y69425D01*
X15960Y68500D01*
X15201Y67575D01*
X14523Y66307D01*
X14106Y64931D01*
X13965Y63500D01*
X14106Y62069D01*
X14523Y60693D01*
X15201Y59425D01*
X16113Y58313D01*
X17225Y57401D01*
X18019Y56976D01*
X18085Y56374D01*
X17544Y55669D01*
X17111Y54623D01*
X17029Y54000D01*
X23000D01*
X27631D01*
X27940Y54145D01*
X27964Y54000D01*
X28971D01*
X28889Y54623D01*
X28456Y55669D01*
X27915Y56374D01*
X27981Y56976D01*
X28775Y57401D01*
X29887Y58313D01*
X30794Y59418D01*
X30822Y59421D01*
X31320Y59338D01*
X31567Y58094D01*
X32189Y56592D01*
X33092Y55241D01*
X34241Y54092D01*
X35592Y53189D01*
X37094Y52567D01*
X38688Y52250D01*
X40312D01*
X41906Y52567D01*
X43408Y53189D01*
X44759Y54092D01*
X45908Y55241D01*
X46811Y56592D01*
X47433Y58094D01*
X47750Y59688D01*
Y61313D01*
X47433Y62906D01*
X46811Y64408D01*
X45908Y65759D01*
X45417Y66250D01*
X45908Y66741D01*
X46811Y68092D01*
X47433Y69594D01*
X47750Y71188D01*
Y72812D01*
X47433Y74406D01*
X46811Y75908D01*
X45908Y77259D01*
X44759Y78408D01*
X43408Y79311D01*
X41906Y79933D01*
X40312Y80250D01*
X38688D01*
X37094Y79933D01*
X35592Y79311D01*
X34241Y78408D01*
X33092Y77259D01*
X32189Y75908D01*
X32132Y75770D01*
X31632Y75795D01*
X31477Y76307D01*
X30799Y77575D01*
X29887Y78687D01*
X28775Y79599D01*
X27507Y80277D01*
X26131Y80694D01*
X24700Y80835D01*
D02*
G37*
G36*
X25493Y53000D02*
X23500D01*
Y52068D01*
X25493Y53000D01*
D02*
G37*
G36*
X28971D02*
X28223D01*
X28337Y52703D01*
X28585Y52188D01*
X28716Y51960D01*
X28889Y52377D01*
X28971Y53000D01*
D02*
G37*
G36*
X22500D02*
X17029D01*
X17111Y52377D01*
X17544Y51331D01*
X18233Y50433D01*
X19131Y49744D01*
X20177Y49311D01*
X21300Y49163D01*
X22500D01*
Y49354D01*
X22229Y49519D01*
X21486Y49891D01*
X20754Y50200D01*
X20036Y50448D01*
X22500Y51600D01*
Y53000D01*
D02*
G37*
G36*
X25493Y16500D02*
X23500D01*
Y15568D01*
X25493Y16500D01*
D02*
G37*
G36*
X28971D02*
X28223D01*
X28337Y16203D01*
X28585Y15688D01*
X28716Y15460D01*
X28889Y15878D01*
X28971Y16500D01*
D02*
G37*
G36*
X24700Y44335D02*
X21300D01*
X19869Y44194D01*
X18493Y43777D01*
X17225Y43099D01*
X16113Y42187D01*
X15201Y41075D01*
X14523Y39807D01*
X14106Y38431D01*
X13965Y37000D01*
X14106Y35569D01*
X14523Y34193D01*
X15201Y32925D01*
X15960Y32000D01*
X15201Y31075D01*
X14523Y29807D01*
X14106Y28431D01*
X13965Y27000D01*
X14106Y25569D01*
X14523Y24193D01*
X15201Y22925D01*
X16113Y21813D01*
X17225Y20901D01*
X18019Y20476D01*
X18085Y19874D01*
X17544Y19169D01*
X17111Y18123D01*
X17029Y17500D01*
X23000D01*
X27631D01*
X27940Y17645D01*
X27964Y17500D01*
X28971D01*
X28889Y18123D01*
X28456Y19169D01*
X27915Y19874D01*
X27981Y20476D01*
X28775Y20901D01*
X29887Y21813D01*
X30799Y22925D01*
X31058Y23408D01*
X31534Y23238D01*
X31250Y21813D01*
Y20188D01*
X31567Y18594D01*
X32189Y17092D01*
X33092Y15741D01*
X34241Y14592D01*
X35592Y13689D01*
X37094Y13067D01*
X38688Y12750D01*
X40312D01*
X41906Y13067D01*
X43408Y13689D01*
X44759Y14592D01*
X45908Y15741D01*
X46811Y17092D01*
X47433Y18594D01*
X47750Y20188D01*
Y21813D01*
X47433Y23406D01*
X46811Y24908D01*
X45908Y26259D01*
X45417Y26750D01*
X45908Y27241D01*
X46811Y28592D01*
X47433Y30094D01*
X47750Y31688D01*
Y33312D01*
X47433Y34906D01*
X46811Y36408D01*
X45908Y37759D01*
X44759Y38908D01*
X43408Y39811D01*
X41906Y40433D01*
X40312Y40750D01*
X38688D01*
X37094Y40433D01*
X35592Y39811D01*
X34241Y38908D01*
X33092Y37759D01*
X32530Y36918D01*
X32191Y36974D01*
X32029Y37068D01*
X31894Y38431D01*
X31477Y39807D01*
X30799Y41075D01*
X29887Y42187D01*
X28775Y43099D01*
X27507Y43777D01*
X26131Y44194D01*
X24700Y44335D01*
D02*
G37*
G36*
X22500Y16500D02*
X17029D01*
X17111Y15878D01*
X17544Y14831D01*
X18233Y13933D01*
X19131Y13244D01*
X20177Y12811D01*
X21300Y12663D01*
X22500D01*
Y12854D01*
X22229Y13019D01*
X21486Y13391D01*
X20754Y13700D01*
X20036Y13948D01*
X22500Y15100D01*
Y16500D01*
D02*
G37*
%LPD*%
G36*
X90831Y154301D02*
X90907Y154133D01*
X91034Y153984D01*
X91210Y153856D01*
X91438Y153747D01*
X91716Y153658D01*
X92044Y153589D01*
X92423Y153540D01*
X92853Y153510D01*
X93333Y153500D01*
Y151500D01*
X92853Y151490D01*
X92044Y151411D01*
X91716Y151342D01*
X91438Y151253D01*
X91210Y151144D01*
X91034Y151016D01*
X90907Y150867D01*
X90831Y150699D01*
X90806Y150512D01*
Y154489D01*
X90831Y154301D01*
D02*
G37*
G36*
X90828Y113804D02*
X90904Y113635D01*
X91031Y113486D01*
X91208Y113357D01*
X91435Y113248D01*
X91714Y113159D01*
X92042Y113089D01*
X92422Y113040D01*
X92852Y113010D01*
X93333Y113000D01*
Y111000D01*
X92852Y110990D01*
X92042Y110911D01*
X91714Y110841D01*
X91435Y110752D01*
X91208Y110643D01*
X91031Y110514D01*
X90904Y110365D01*
X90828Y110196D01*
X90803Y110008D01*
Y113992D01*
X90828Y113804D01*
D02*
G37*
G36*
Y77804D02*
X90904Y77635D01*
X91031Y77486D01*
X91208Y77357D01*
X91435Y77248D01*
X91714Y77159D01*
X92042Y77089D01*
X92422Y77040D01*
X92852Y77010D01*
X93333Y77000D01*
Y75000D01*
X92852Y74990D01*
X92042Y74911D01*
X91714Y74841D01*
X91435Y74752D01*
X91208Y74643D01*
X91031Y74514D01*
X90904Y74365D01*
X90828Y74196D01*
X90803Y74008D01*
Y77992D01*
X90828Y77804D01*
D02*
G37*
G36*
Y36804D02*
X90904Y36635D01*
X91031Y36486D01*
X91208Y36357D01*
X91435Y36248D01*
X91714Y36159D01*
X92042Y36089D01*
X92422Y36040D01*
X92852Y36010D01*
X93333Y36000D01*
Y34000D01*
X92852Y33990D01*
X92042Y33911D01*
X91714Y33841D01*
X91435Y33752D01*
X91208Y33643D01*
X91031Y33514D01*
X90904Y33365D01*
X90828Y33196D01*
X90803Y33008D01*
Y36992D01*
X90828Y36804D01*
D02*
G37*
D38*
X429000Y244500D02*
X437000Y236500D01*
X427500Y246000D02*
X429000Y244500D01*
X422500Y248500D02*
X425000Y246000D01*
X429000Y244500D02*
X461000D01*
X425000Y246000D02*
X427500D01*
X405500D02*
X425000D01*
X81000Y375500D02*
X146399D01*
X154000Y383101D01*
X404457Y296543D02*
X413457D01*
X422500Y287500D01*
Y248500D02*
Y287500D01*
X53000Y82000D02*
Y112500D01*
X403500Y297500D02*
Y317500D01*
X438000Y104000D02*
Y126361D01*
Y25529D02*
Y104000D01*
X154000Y383101D02*
Y384500D01*
X403500Y297500D02*
X404457Y296543D01*
X81000Y375500D02*
Y385500D01*
X39000Y346500D02*
X68000Y375500D01*
X81000D01*
X39000Y177000D02*
Y346500D01*
Y177000D02*
X53000Y163000D01*
Y112500D02*
Y163000D01*
X438000Y25529D02*
X440929Y22600D01*
X438000Y126361D02*
X446912Y135273D01*
X448412D02*
X448739Y135600D01*
X440929Y22600D02*
X448239D01*
X446912Y135273D02*
X448412D01*
X461000Y175600D02*
X478739D01*
X461000D02*
Y244500D01*
Y146361D02*
Y175600D01*
Y244500D02*
X474500Y258000D01*
X450239Y135600D02*
X461000Y146361D01*
X448739Y135600D02*
X450239D01*
X474500Y258000D02*
Y269500D01*
X23000Y131500D02*
X24267D01*
X25006Y130761D01*
Y129494D02*
Y130761D01*
Y129494D02*
X33000Y121500D01*
X44000D01*
X24267Y17000D02*
X25006Y16261D01*
Y14994D02*
X31500Y8500D01*
X25006Y14994D02*
Y16261D01*
X23000Y17000D02*
X24267D01*
X31500Y8500D02*
X45000D01*
X23000Y53500D02*
X24267D01*
X25006Y52761D01*
Y51494D02*
X30500Y46000D01*
X53000D01*
X25006Y51494D02*
Y52761D01*
X53000Y46000D02*
Y82000D01*
Y16500D02*
Y46000D01*
X33200Y84000D02*
X51000D01*
X53000Y82000D01*
X23000Y92500D02*
X24700D01*
X33200Y84000D01*
X45000Y8500D02*
X53000Y16500D01*
X44000Y121500D02*
X53000Y112500D01*
D39*
X126000Y42500D02*
Y160500D01*
Y42500D02*
X155500Y13000D01*
X109500Y177000D02*
X126000Y160500D01*
X104000Y353000D02*
X114000Y363000D01*
X92500Y285500D02*
X104000Y297000D01*
Y353000D01*
X177500Y392500D02*
X184000Y386000D01*
X124000D02*
X130500Y392500D01*
X177500D01*
X184000Y375172D02*
Y384500D01*
Y386000D01*
X98500Y75000D02*
Y112500D01*
Y38500D02*
Y75000D01*
X86500Y76000D02*
X97500D01*
X98500Y75000D01*
Y112500D02*
Y147500D01*
X86500Y112000D02*
X98000D01*
X98500Y112500D01*
X86500Y35000D02*
X95000D01*
X98500Y38500D01*
X438000Y104000D02*
X457000D01*
X463500Y62700D02*
Y97500D01*
X457000Y104000D02*
X463500Y97500D01*
Y62700D02*
X463600Y62600D01*
X93500Y152500D02*
X98500Y147500D01*
X86500Y152500D02*
X93500D01*
X102500Y216500D02*
X213000D01*
X455000Y13000D02*
X461500Y19500D01*
Y49500D01*
X468500Y56500D01*
X155500Y13000D02*
X455000D01*
X114000Y363000D02*
X163500D01*
X109000Y368000D02*
X157500D01*
X164000Y374500D01*
X96000Y355000D02*
X109000Y368000D01*
X163500Y363000D02*
X174000Y373500D01*
X81000Y285500D02*
X92500D01*
X96000Y301500D02*
Y355000D01*
X89500Y295000D02*
X96000Y301500D01*
X81000Y295500D02*
X81500Y295000D01*
X89500D01*
X174000Y373500D02*
Y384500D01*
X233000Y312800D02*
Y314500D01*
X223700Y303500D02*
X233000Y312800D01*
X210500Y303500D02*
X223700D01*
X205500Y308500D02*
X210500Y303500D01*
X205500Y308500D02*
Y363000D01*
X199828Y368672D02*
X205500Y363000D01*
X190500Y368672D02*
X199828D01*
X184000Y375172D02*
X190500Y368672D01*
X124000Y384500D02*
Y386000D01*
X469000Y55000D02*
Y56500D01*
Y163000D01*
X488000Y41000D02*
Y137200D01*
X479600Y32600D02*
X488000Y41000D01*
X478239Y32600D02*
X479600D01*
X478739Y145600D02*
X479600D01*
X488000Y137200D01*
Y154000D02*
Y197839D01*
X479600Y145600D02*
X488000Y154000D01*
X478739Y205600D02*
X480239D01*
X488000Y197839D01*
X471400Y52600D02*
X478239D01*
X469000Y55000D02*
X471400Y52600D01*
X469000Y163000D02*
X471600Y165600D01*
X478739D01*
X97500Y167000D02*
X113000Y151500D01*
X81000Y167000D02*
X97500D01*
X113000Y34500D02*
Y151500D01*
X140000Y7500D02*
X456000D01*
X113000Y34500D02*
X140000Y7500D01*
X456000D02*
X466000Y17500D01*
X70000Y177000D02*
X109500D01*
X57500Y189500D02*
X70000Y177000D01*
X57500Y189500D02*
Y284000D01*
X69000Y295500D02*
X81000D01*
X57500Y284000D02*
X69000Y295500D01*
X466000Y17500D02*
Y39000D01*
X469600Y42600D01*
X478239D01*
X81000Y245500D02*
X133000D01*
X130000Y255500D02*
X161500Y287000D01*
X135500Y235500D02*
X170500Y270500D01*
X81000Y235500D02*
X135500D01*
X81000Y255500D02*
X130000D01*
X133000Y245500D02*
X166500Y279000D01*
X164000Y374500D02*
Y384500D01*
X170500Y270500D02*
X331500D01*
X369328Y308328D01*
Y324500D01*
X355000Y329000D02*
X364828D01*
X369328Y324500D01*
X166500Y279000D02*
X301500D01*
X328000Y305500D01*
Y326000D01*
X325000Y329000D02*
X328000Y326000D01*
X314000Y329000D02*
X325000D01*
X161500Y287000D02*
X266000D01*
X285500Y306500D01*
Y326500D01*
X283000Y329000D02*
X285500Y326500D01*
X272000Y329000D02*
X283000D01*
X126000Y265500D02*
X155500Y295000D01*
X81000Y265500D02*
X126000D01*
X155500Y295000D02*
X231000D01*
X242500Y306500D01*
Y325500D01*
X239000Y329000D02*
X242500Y325500D01*
X230000Y329000D02*
X239000D01*
X39354Y148354D02*
X39500Y148500D01*
D40*
X21000Y385500D02*
D03*
Y355500D02*
D03*
Y345500D02*
D03*
Y335500D02*
D03*
Y325500D02*
D03*
Y305500D02*
D03*
Y375500D02*
D03*
Y295500D02*
D03*
Y285500D02*
D03*
Y275500D02*
D03*
Y265500D02*
D03*
Y255500D02*
D03*
Y365500D02*
D03*
Y245500D02*
D03*
Y235500D02*
D03*
Y225500D02*
D03*
Y215500D02*
D03*
Y205500D02*
D03*
Y195500D02*
D03*
X81000Y385500D02*
D03*
Y355500D02*
D03*
Y345500D02*
D03*
Y335500D02*
D03*
Y325500D02*
D03*
Y315500D02*
D03*
Y305500D02*
D03*
Y375500D02*
D03*
Y295500D02*
D03*
Y285500D02*
D03*
Y275500D02*
D03*
Y265500D02*
D03*
Y255500D02*
D03*
Y365500D02*
D03*
Y245500D02*
D03*
Y235500D02*
D03*
Y225500D02*
D03*
Y215500D02*
D03*
Y205500D02*
D03*
X21000Y315500D02*
D03*
D41*
X81000Y195500D02*
D03*
D42*
X398239Y46678D02*
D03*
X428239D02*
D03*
Y108186D02*
D03*
X398239D02*
D03*
X428239Y34376D02*
D03*
X398239D02*
D03*
Y58979D02*
D03*
X428239D02*
D03*
Y71281D02*
D03*
X398239D02*
D03*
X428239Y83583D02*
D03*
X398239D02*
D03*
Y22074D02*
D03*
X428239D02*
D03*
Y95884D02*
D03*
X398239D02*
D03*
Y181996D02*
D03*
X428239D02*
D03*
X398239Y194298D02*
D03*
X428239D02*
D03*
X398239Y206600D02*
D03*
X428239D02*
D03*
X398239Y157393D02*
D03*
X428239D02*
D03*
X398239Y145091D02*
D03*
X428239D02*
D03*
X398239Y169694D02*
D03*
X428239D02*
D03*
X398239Y120488D02*
D03*
X428239D02*
D03*
X398239Y132789D02*
D03*
X428239D02*
D03*
X161071Y307500D02*
D03*
Y337500D02*
D03*
X149428Y307500D02*
D03*
Y337500D02*
D03*
X126143Y307500D02*
D03*
Y337500D02*
D03*
X137786Y307500D02*
D03*
Y337500D02*
D03*
X114500D02*
D03*
Y307500D02*
D03*
X172714D02*
D03*
Y337500D02*
D03*
X184357Y307500D02*
D03*
Y337500D02*
D03*
X196000Y307500D02*
D03*
Y337500D02*
D03*
X218500Y359000D02*
D03*
Y329000D02*
D03*
X230000D02*
D03*
Y359000D02*
D03*
X260500Y329000D02*
D03*
Y359000D02*
D03*
X272000D02*
D03*
Y329000D02*
D03*
X302500D02*
D03*
Y359000D02*
D03*
X314000Y329000D02*
D03*
Y359000D02*
D03*
X343500Y329000D02*
D03*
Y359000D02*
D03*
X355000D02*
D03*
Y329000D02*
D03*
X69500Y32500D02*
D03*
X39500D02*
D03*
Y21000D02*
D03*
X69500D02*
D03*
X39500Y60500D02*
D03*
X69500D02*
D03*
Y72000D02*
D03*
X39500D02*
D03*
Y137000D02*
D03*
X69500D02*
D03*
Y148500D02*
D03*
X39500D02*
D03*
Y109651D02*
D03*
X69500D02*
D03*
Y98500D02*
D03*
X39500D02*
D03*
X436500Y262500D02*
D03*
X406500D02*
D03*
D43*
X168000Y57500D02*
D03*
D44*
X178000D02*
D03*
X188000D02*
D03*
X198000D02*
D03*
X208000D02*
D03*
X218000D02*
D03*
X228000D02*
D03*
X238000D02*
D03*
X248000D02*
D03*
X258000D02*
D03*
X268000D02*
D03*
X278000Y57524D02*
D03*
X288000Y57500D02*
D03*
X298000D02*
D03*
X308000D02*
D03*
X318000D02*
D03*
X168000Y240177D02*
D03*
X178000D02*
D03*
X188000D02*
D03*
X198000D02*
D03*
X208000D02*
D03*
X218000D02*
D03*
X228000D02*
D03*
X238000D02*
D03*
X248000D02*
D03*
X258000D02*
D03*
X268000D02*
D03*
X278000D02*
D03*
X288000D02*
D03*
X298000D02*
D03*
X308000D02*
D03*
X318000D02*
D03*
D45*
X448239Y92600D02*
D03*
X448739Y205600D02*
D03*
D46*
X448239Y82600D02*
D03*
Y72600D02*
D03*
Y62600D02*
D03*
Y52600D02*
D03*
Y42600D02*
D03*
Y32600D02*
D03*
Y22600D02*
D03*
X478239Y92600D02*
D03*
Y82600D02*
D03*
Y72600D02*
D03*
Y62600D02*
D03*
Y52600D02*
D03*
Y42600D02*
D03*
Y32600D02*
D03*
Y22600D02*
D03*
X448739Y195600D02*
D03*
Y185600D02*
D03*
Y175600D02*
D03*
Y165600D02*
D03*
Y155600D02*
D03*
Y145600D02*
D03*
Y135600D02*
D03*
X478739Y205600D02*
D03*
Y195600D02*
D03*
Y185600D02*
D03*
Y175600D02*
D03*
Y165600D02*
D03*
Y155600D02*
D03*
Y145600D02*
D03*
Y135600D02*
D03*
D47*
X194000Y384500D02*
D03*
X184000D02*
D03*
X174000D02*
D03*
X164000D02*
D03*
X154000D02*
D03*
X144000D02*
D03*
X134000D02*
D03*
X124000D02*
D03*
X194000Y354500D02*
D03*
X184000D02*
D03*
X174000D02*
D03*
X164000D02*
D03*
X154000D02*
D03*
X144000D02*
D03*
X134000D02*
D03*
D48*
X124000D02*
D03*
D49*
X233000Y314500D02*
D03*
X223000D02*
D03*
X213000D02*
D03*
X256500D02*
D03*
X266500D02*
D03*
X276500D02*
D03*
X298000D02*
D03*
X308000D02*
D03*
X318000D02*
D03*
X214000Y374000D02*
D03*
X224000D02*
D03*
X234000D02*
D03*
X275000D02*
D03*
X265000D02*
D03*
X255000D02*
D03*
X318000D02*
D03*
X308000D02*
D03*
X298000D02*
D03*
X359500Y314500D02*
D03*
X349500D02*
D03*
X339500D02*
D03*
X338000Y374000D02*
D03*
X348000D02*
D03*
X358000D02*
D03*
D50*
X393500Y317500D02*
D03*
X403500D02*
D03*
X413500D02*
D03*
D51*
X403500Y297500D02*
D03*
D52*
X458000Y304000D02*
D03*
X457563Y373500D02*
D03*
D53*
X473000Y304000D02*
D03*
X472563Y373500D02*
D03*
D54*
X86500Y15000D02*
D03*
Y25000D02*
D03*
Y35000D02*
D03*
X23000Y37000D02*
D03*
Y27000D02*
D03*
Y17000D02*
D03*
X86500Y56000D02*
D03*
Y66000D02*
D03*
Y76000D02*
D03*
X23000Y73500D02*
D03*
Y63500D02*
D03*
Y53500D02*
D03*
X86500Y132500D02*
D03*
Y142500D02*
D03*
Y152500D02*
D03*
X23000Y151500D02*
D03*
Y141500D02*
D03*
Y131500D02*
D03*
X86500Y112000D02*
D03*
Y102000D02*
D03*
Y92000D02*
D03*
X23000Y92500D02*
D03*
Y102500D02*
D03*
Y112500D02*
D03*
D55*
X474500Y269500D02*
D03*
X454500D02*
D03*
X455000Y339000D02*
D03*
X475000D02*
D03*
D56*
X388000Y351000D02*
D03*
D57*
X408000Y366000D02*
D03*
Y341000D02*
D03*
D58*
X449736Y113500D02*
D03*
X479264D02*
D03*
D59*
X376500Y262500D02*
D03*
D60*
X386500D02*
D03*
D61*
X463600Y62600D02*
D03*
D62*
X213000Y216500D02*
D03*
X102500D02*
D03*
X81000Y167000D02*
D03*
M02*
