G04*
G04 #@! TF.GenerationSoftware,Altium Limited,Altium Designer,21.3.2 (30)*
G04*
G04 Layer_Color=128*
%FSLAX25Y25*%
%MOIN*%
G70*
G04*
G04 #@! TF.SameCoordinates,223A028E-27ED-44F5-9DF7-BD247C2F6700*
G04*
G04*
G04 #@! TF.FilePolarity,Positive*
G04*
G01*
G75*
%ADD63C,0.00200*%
D63*
X19031Y385500D02*
X22968D01*
X21000Y383531D02*
Y387469D01*
X19031Y355500D02*
X22968D01*
X21000Y353532D02*
Y357469D01*
X19031Y345500D02*
X22968D01*
X21000Y343531D02*
Y347468D01*
X19031Y335500D02*
X22968D01*
X21000Y333531D02*
Y337469D01*
X19031Y325500D02*
X22968D01*
X21000Y323532D02*
Y327468D01*
X19031Y305500D02*
X22968D01*
X21000Y303532D02*
Y307469D01*
X19031Y375500D02*
X22968D01*
X21000Y373532D02*
Y377468D01*
X19031Y295500D02*
X22968D01*
X21000Y293531D02*
Y297468D01*
X19031Y285500D02*
X22968D01*
X21000Y283531D02*
Y287469D01*
X19031Y275500D02*
X22968D01*
X21000Y273532D02*
Y277468D01*
X19031Y265500D02*
X22968D01*
X21000Y263531D02*
Y267469D01*
X19031Y255500D02*
X22968D01*
X21000Y253532D02*
Y257469D01*
X19031Y365500D02*
X22968D01*
X21000Y363531D02*
Y367469D01*
X19031Y245500D02*
X22968D01*
X21000Y243531D02*
Y247468D01*
X19031Y235500D02*
X22968D01*
X21000Y233531D02*
Y237469D01*
X19031Y225500D02*
X22968D01*
X21000Y223532D02*
Y227468D01*
X19031Y215500D02*
X22968D01*
X21000Y213531D02*
Y217469D01*
X19031Y205500D02*
X22968D01*
X21000Y203532D02*
Y207469D01*
X19031Y195500D02*
X22968D01*
X21000Y193532D02*
Y197468D01*
X79031Y385500D02*
X82968D01*
X81000Y383531D02*
Y387469D01*
X79031Y355500D02*
X82968D01*
X81000Y353532D02*
Y357469D01*
X79031Y345500D02*
X82968D01*
X81000Y343531D02*
Y347468D01*
X79031Y335500D02*
X82968D01*
X81000Y333531D02*
Y337469D01*
X79031Y325500D02*
X82968D01*
X81000Y323532D02*
Y327468D01*
X79031Y315500D02*
X82968D01*
X81000Y313531D02*
Y317469D01*
X79031Y305500D02*
X82968D01*
X81000Y303532D02*
Y307469D01*
X79031Y375500D02*
X82968D01*
X81000Y373532D02*
Y377468D01*
X79031Y295500D02*
X82968D01*
X81000Y293531D02*
Y297468D01*
X79031Y285500D02*
X82968D01*
X81000Y283531D02*
Y287469D01*
X79031Y275500D02*
X82968D01*
X81000Y273532D02*
Y277468D01*
X79031Y265500D02*
X82968D01*
X81000Y263531D02*
Y267469D01*
X79031Y255500D02*
X82968D01*
X81000Y253532D02*
Y257469D01*
X79031Y365500D02*
X82968D01*
X81000Y363531D02*
Y367469D01*
X79031Y245500D02*
X82968D01*
X81000Y243531D02*
Y247468D01*
X79031Y235500D02*
X82968D01*
X81000Y233531D02*
Y237469D01*
X79031Y225500D02*
X82968D01*
X81000Y223532D02*
Y227468D01*
X79031Y215500D02*
X82968D01*
X81000Y213531D02*
Y217469D01*
X79031Y205500D02*
X82968D01*
X81000Y203532D02*
Y207469D01*
X79031Y195500D02*
X82968D01*
X81000Y193532D02*
Y197468D01*
X19031Y315500D02*
X22968D01*
X21000Y313531D02*
Y317469D01*
X396489Y46678D02*
X399989D01*
X398239Y44927D02*
Y48428D01*
X426489Y46678D02*
X429989D01*
X428239Y44927D02*
Y48428D01*
X426489Y108186D02*
X429989D01*
X428239Y106436D02*
Y109936D01*
X396489Y108186D02*
X399989D01*
X398239Y106436D02*
Y109936D01*
X426489Y34376D02*
X429989D01*
X428239Y32626D02*
Y36126D01*
X396489Y34376D02*
X399989D01*
X398239Y32626D02*
Y36126D01*
X396489Y58979D02*
X399989D01*
X398239Y57229D02*
Y60729D01*
X426489Y58979D02*
X429989D01*
X428239Y57229D02*
Y60729D01*
X426489Y71281D02*
X429989D01*
X428239Y69531D02*
Y73031D01*
X396489Y71281D02*
X399989D01*
X398239Y69531D02*
Y73031D01*
X426489Y83583D02*
X429989D01*
X428239Y81833D02*
Y85333D01*
X396489Y83583D02*
X399989D01*
X398239Y81833D02*
Y85333D01*
X396489Y22074D02*
X399989D01*
X398239Y20324D02*
Y23824D01*
X426489Y22074D02*
X429989D01*
X428239Y20324D02*
Y23824D01*
X426489Y95884D02*
X429989D01*
X428239Y94134D02*
Y97634D01*
X396489Y95884D02*
X399989D01*
X398239Y94134D02*
Y97634D01*
X396489Y181996D02*
X399989D01*
X398239Y180246D02*
Y183746D01*
X426489Y181996D02*
X429989D01*
X428239Y180246D02*
Y183746D01*
X396489Y194298D02*
X399989D01*
X398239Y192548D02*
Y196048D01*
X426489Y194298D02*
X429989D01*
X428239Y192548D02*
Y196048D01*
X396489Y206600D02*
X399989D01*
X398239Y204850D02*
Y208350D01*
X426489Y206600D02*
X429989D01*
X428239Y204850D02*
Y208350D01*
X396489Y157393D02*
X399989D01*
X398239Y155643D02*
Y159143D01*
X426489Y157393D02*
X429989D01*
X428239Y155643D02*
Y159143D01*
X396489Y145091D02*
X399989D01*
X398239Y143341D02*
Y146841D01*
X426489Y145091D02*
X429989D01*
X428239Y143341D02*
Y146841D01*
X396489Y169694D02*
X399989D01*
X398239Y167945D02*
Y171444D01*
X426489Y169694D02*
X429989D01*
X428239Y167945D02*
Y171444D01*
X396489Y120488D02*
X399989D01*
X398239Y118738D02*
Y122238D01*
X426489Y120488D02*
X429989D01*
X428239Y118738D02*
Y122238D01*
X396489Y132789D02*
X399989D01*
X398239Y131039D02*
Y134539D01*
X426489Y132789D02*
X429989D01*
X428239Y131039D02*
Y134539D01*
X166032Y57500D02*
X169968D01*
X168000Y55532D02*
Y59469D01*
X176031Y57500D02*
X179969D01*
X178000Y55532D02*
Y59469D01*
X186031Y57500D02*
X189969D01*
X188000Y55532D02*
Y59469D01*
X196031Y57500D02*
X199969D01*
X198000Y55532D02*
Y59469D01*
X206031Y57500D02*
X209968D01*
X208000Y55532D02*
Y59469D01*
X216032Y57500D02*
X219969D01*
X218000Y55532D02*
Y59469D01*
X226031Y57500D02*
X229969D01*
X228000Y55532D02*
Y59469D01*
X236032Y57500D02*
X239968D01*
X238000Y55532D02*
Y59469D01*
X246031Y57500D02*
X249969D01*
X248000Y55532D02*
Y59469D01*
X256031Y57500D02*
X259968D01*
X258000Y55532D02*
Y59469D01*
X266032Y57500D02*
X269969D01*
X268000Y55532D02*
Y59469D01*
X276031Y57524D02*
X279969D01*
X278000Y55556D02*
Y59493D01*
X286032Y57500D02*
X289968D01*
X288000Y55532D02*
Y59469D01*
X296031Y57500D02*
X299969D01*
X298000Y55532D02*
Y59469D01*
X306031Y57500D02*
X309968D01*
X308000Y55532D02*
Y59469D01*
X316032Y57500D02*
X319969D01*
X318000Y55532D02*
Y59469D01*
X166032Y240177D02*
X169968D01*
X168000Y238209D02*
Y242146D01*
X176031Y240177D02*
X179969D01*
X178000Y238209D02*
Y242146D01*
X186031Y240177D02*
X189969D01*
X188000Y238209D02*
Y242146D01*
X196031Y240177D02*
X199969D01*
X198000Y238209D02*
Y242146D01*
X206031Y240177D02*
X209968D01*
X208000Y238209D02*
Y242146D01*
X216032Y240177D02*
X219969D01*
X218000Y238209D02*
Y242146D01*
X226031Y240177D02*
X229969D01*
X228000Y238209D02*
Y242146D01*
X236032Y240177D02*
X239968D01*
X238000Y238209D02*
Y242146D01*
X246031Y240177D02*
X249969D01*
X248000Y238209D02*
Y242146D01*
X256031Y240177D02*
X259968D01*
X258000Y238209D02*
Y242146D01*
X266032Y240177D02*
X269969D01*
X268000Y238209D02*
Y242146D01*
X276031Y240177D02*
X279969D01*
X278000Y238209D02*
Y242146D01*
X286032Y240177D02*
X289968D01*
X288000Y238209D02*
Y242146D01*
X296031Y240177D02*
X299969D01*
X298000Y238209D02*
Y242146D01*
X306031Y240177D02*
X309968D01*
X308000Y238209D02*
Y242146D01*
X316032Y240177D02*
X319969D01*
X318000Y238209D02*
Y242146D01*
X446689Y92600D02*
X449789D01*
X448239Y91050D02*
Y94150D01*
X446689Y82600D02*
X449789D01*
X448239Y81050D02*
Y84150D01*
X446689Y72600D02*
X449789D01*
X448239Y71050D02*
Y74150D01*
X446689Y62600D02*
X449789D01*
X448239Y61050D02*
Y64150D01*
X446689Y52600D02*
X449789D01*
X448239Y51050D02*
Y54150D01*
X446689Y42600D02*
X449789D01*
X448239Y41050D02*
Y44150D01*
X446689Y32600D02*
X449789D01*
X448239Y31050D02*
Y34150D01*
X446689Y22600D02*
X449789D01*
X448239Y21050D02*
Y24150D01*
X476689Y92600D02*
X479789D01*
X478239Y91050D02*
Y94150D01*
X476689Y82600D02*
X479789D01*
X478239Y81050D02*
Y84150D01*
X476689Y72600D02*
X479789D01*
X478239Y71050D02*
Y74150D01*
X476689Y62600D02*
X479789D01*
X478239Y61050D02*
Y64150D01*
X476689Y52600D02*
X479789D01*
X478239Y51050D02*
Y54150D01*
X476689Y42600D02*
X479789D01*
X478239Y41050D02*
Y44150D01*
X476689Y32600D02*
X479789D01*
X478239Y31050D02*
Y34150D01*
X476689Y22600D02*
X479789D01*
X478239Y21050D02*
Y24150D01*
X159321Y307500D02*
X162821D01*
X161071Y305750D02*
Y309250D01*
X159321Y337500D02*
X162821D01*
X161071Y335750D02*
Y339250D01*
X147678Y307500D02*
X151179D01*
X149428Y305750D02*
Y309250D01*
X147678Y337500D02*
X151179D01*
X149428Y335750D02*
Y339250D01*
X124393Y307500D02*
X127893D01*
X126143Y305750D02*
Y309250D01*
X124393Y337500D02*
X127893D01*
X126143Y335750D02*
Y339250D01*
X136036Y307500D02*
X139536D01*
X137786Y305750D02*
Y309250D01*
X136036Y337500D02*
X139536D01*
X137786Y335750D02*
Y339250D01*
X112750Y337500D02*
X116250D01*
X114500Y335750D02*
Y339250D01*
X112750Y307500D02*
X116250D01*
X114500Y305750D02*
Y309250D01*
X170964Y307500D02*
X174464D01*
X172714Y305750D02*
Y309250D01*
X170964Y337500D02*
X174464D01*
X172714Y335750D02*
Y339250D01*
X192450Y384500D02*
X195550D01*
X194000Y382950D02*
Y386050D01*
X182450Y384500D02*
X185550D01*
X184000Y382950D02*
Y386050D01*
X172450Y384500D02*
X175550D01*
X174000Y382950D02*
Y386050D01*
X162450Y384500D02*
X165550D01*
X164000Y382950D02*
Y386050D01*
X152450Y384500D02*
X155550D01*
X154000Y382950D02*
Y386050D01*
X142450Y384500D02*
X145550D01*
X144000Y382950D02*
Y386050D01*
X132450Y384500D02*
X135550D01*
X134000Y382950D02*
Y386050D01*
X122450Y384500D02*
X125550D01*
X124000Y382950D02*
Y386050D01*
X192450Y354500D02*
X195550D01*
X194000Y352950D02*
Y356050D01*
X182450Y354500D02*
X185550D01*
X184000Y352950D02*
Y356050D01*
X172450Y354500D02*
X175550D01*
X174000Y352950D02*
Y356050D01*
X162450Y354500D02*
X165550D01*
X164000Y352950D02*
Y356050D01*
X152450Y354500D02*
X155550D01*
X154000Y352950D02*
Y356050D01*
X142450Y354500D02*
X145550D01*
X144000Y352950D02*
Y356050D01*
X132450Y354500D02*
X135550D01*
X134000Y352950D02*
Y356050D01*
X122450Y354500D02*
X125550D01*
X124000Y352950D02*
Y356050D01*
X182607Y307500D02*
X186107D01*
X184357Y305750D02*
Y309250D01*
X182607Y337500D02*
X186107D01*
X184357Y335750D02*
Y339250D01*
X194250Y307500D02*
X197750D01*
X196000Y305750D02*
Y309250D01*
X194250Y337500D02*
X197750D01*
X196000Y335750D02*
Y339250D01*
X231400Y314500D02*
X234600D01*
X233000Y312900D02*
Y316100D01*
X221400Y314500D02*
X224600D01*
X223000Y312900D02*
Y316100D01*
X211400Y314500D02*
X214600D01*
X213000Y312900D02*
Y316100D01*
X216750Y359000D02*
X220250D01*
X218500Y357250D02*
Y360750D01*
X216750Y329000D02*
X220250D01*
X218500Y327250D02*
Y330750D01*
X228250Y329000D02*
X231750D01*
X230000Y327250D02*
Y330750D01*
X228250Y359000D02*
X231750D01*
X230000Y357250D02*
Y360750D01*
X254900Y314500D02*
X258100D01*
X256500Y312900D02*
Y316100D01*
X264900Y314500D02*
X268100D01*
X266500Y312900D02*
Y316100D01*
X274900Y314500D02*
X278100D01*
X276500Y312900D02*
Y316100D01*
X258750Y329000D02*
X262250D01*
X260500Y327250D02*
Y330750D01*
X258750Y359000D02*
X262250D01*
X260500Y357250D02*
Y360750D01*
X270250Y359000D02*
X273750D01*
X272000Y357250D02*
Y360750D01*
X270250Y329000D02*
X273750D01*
X272000Y327250D02*
Y330750D01*
X296400Y314500D02*
X299600D01*
X298000Y312900D02*
Y316100D01*
X306400Y314500D02*
X309600D01*
X308000Y312900D02*
Y316100D01*
X316400Y314500D02*
X319600D01*
X318000Y312900D02*
Y316100D01*
X300750Y329000D02*
X304250D01*
X302500Y327250D02*
Y330750D01*
X300750Y359000D02*
X304250D01*
X302500Y357250D02*
Y360750D01*
X212400Y374000D02*
X215600D01*
X214000Y372400D02*
Y375600D01*
X222400Y374000D02*
X225600D01*
X224000Y372400D02*
Y375600D01*
X232400Y374000D02*
X235600D01*
X234000Y372400D02*
Y375600D01*
X273400Y374000D02*
X276600D01*
X275000Y372400D02*
Y375600D01*
X263400Y374000D02*
X266600D01*
X265000Y372400D02*
Y375600D01*
X253400Y374000D02*
X256600D01*
X255000Y372400D02*
Y375600D01*
X316400Y374000D02*
X319600D01*
X318000Y372400D02*
Y375600D01*
X306400Y374000D02*
X309600D01*
X308000Y372400D02*
Y375600D01*
X296400Y374000D02*
X299600D01*
X298000Y372400D02*
Y375600D01*
X357900Y314500D02*
X361100D01*
X359500Y312900D02*
Y316100D01*
X347900Y314500D02*
X351100D01*
X349500Y312900D02*
Y316100D01*
X337900Y314500D02*
X341100D01*
X339500Y312900D02*
Y316100D01*
X391500Y317500D02*
X395500D01*
X393500Y315500D02*
Y319500D01*
X401500Y317500D02*
X405500D01*
X403500Y315500D02*
Y319500D01*
X411500Y317500D02*
X415500D01*
X413500Y315500D02*
Y319500D01*
X399750Y297500D02*
X407250D01*
X403500Y293750D02*
Y301250D01*
X456400Y304000D02*
X459600D01*
X458000Y302400D02*
Y305600D01*
X471400Y304000D02*
X474600D01*
X473000Y302400D02*
Y305600D01*
X84900Y15000D02*
X88100D01*
X86500Y13400D02*
Y16600D01*
X84900Y25000D02*
X88100D01*
X86500Y23400D02*
Y26600D01*
X84900Y35000D02*
X88100D01*
X86500Y33400D02*
Y36600D01*
X312250Y329000D02*
X315750D01*
X314000Y327250D02*
Y330750D01*
X312250Y359000D02*
X315750D01*
X314000Y357250D02*
Y360750D01*
X472950Y269500D02*
X476050D01*
X474500Y267950D02*
Y271050D01*
X452950Y269500D02*
X456050D01*
X454500Y267950D02*
Y271050D01*
X385047Y351000D02*
X390953D01*
X388000Y348047D02*
Y353953D01*
X405047Y366000D02*
X410953D01*
X408000Y363047D02*
Y368953D01*
X405047Y341000D02*
X410953D01*
X408000Y338047D02*
Y343953D01*
X341750Y329000D02*
X345250D01*
X343500Y327250D02*
Y330750D01*
X341750Y359000D02*
X345250D01*
X343500Y357250D02*
Y360750D01*
X336400Y374000D02*
X339600D01*
X338000Y372400D02*
Y375600D01*
X346400Y374000D02*
X349600D01*
X348000Y372400D02*
Y375600D01*
X356400Y374000D02*
X359600D01*
X358000Y372400D02*
Y375600D01*
X353250Y359000D02*
X356750D01*
X355000Y357250D02*
Y360750D01*
X353250Y329000D02*
X356750D01*
X355000Y327250D02*
Y330750D01*
X448142Y113500D02*
X451331D01*
X449736Y111906D02*
Y115094D01*
X477669Y113500D02*
X480858D01*
X479264Y111906D02*
Y115094D01*
X374900Y262500D02*
X378100D01*
X376500Y260900D02*
Y264100D01*
X384900Y262500D02*
X388100D01*
X386500Y260900D02*
Y264100D01*
X21400Y37000D02*
X24600D01*
X23000Y35400D02*
Y38600D01*
X21400Y27000D02*
X24600D01*
X23000Y25400D02*
Y28600D01*
X21400Y17000D02*
X24600D01*
X23000Y15400D02*
Y18600D01*
X67750Y32500D02*
X71250D01*
X69500Y30750D02*
Y34250D01*
X37750Y32500D02*
X41250D01*
X39500Y30750D02*
Y34250D01*
X37750Y21000D02*
X41250D01*
X39500Y19250D02*
Y22750D01*
X67750Y21000D02*
X71250D01*
X69500Y19250D02*
Y22750D01*
X84900Y56000D02*
X88100D01*
X86500Y54400D02*
Y57600D01*
X84900Y66000D02*
X88100D01*
X86500Y64400D02*
Y67600D01*
X84900Y76000D02*
X88100D01*
X86500Y74400D02*
Y77600D01*
X37750Y60500D02*
X41250D01*
X39500Y58750D02*
Y62250D01*
X67750Y60500D02*
X71250D01*
X69500Y58750D02*
Y62250D01*
X67750Y72000D02*
X71250D01*
X69500Y70250D02*
Y73750D01*
X37750Y72000D02*
X41250D01*
X39500Y70250D02*
Y73750D01*
X21400Y73500D02*
X24600D01*
X23000Y71900D02*
Y75100D01*
X21400Y63500D02*
X24600D01*
X23000Y61900D02*
Y65100D01*
X21400Y53500D02*
X24600D01*
X23000Y51900D02*
Y55100D01*
X84900Y132500D02*
X88100D01*
X86500Y130900D02*
Y134100D01*
X84900Y142500D02*
X88100D01*
X86500Y140900D02*
Y144100D01*
X84900Y152500D02*
X88100D01*
X86500Y150900D02*
Y154100D01*
X21400Y151500D02*
X24600D01*
X23000Y149900D02*
Y153100D01*
X21400Y141500D02*
X24600D01*
X23000Y139900D02*
Y143100D01*
X21400Y131500D02*
X24600D01*
X23000Y129900D02*
Y133100D01*
X37750Y137000D02*
X41250D01*
X39500Y135250D02*
Y138750D01*
X67750Y137000D02*
X71250D01*
X69500Y135250D02*
Y138750D01*
X67750Y148500D02*
X71250D01*
X69500Y146750D02*
Y150250D01*
X37750Y148500D02*
X41250D01*
X39500Y146750D02*
Y150250D01*
X84900Y112000D02*
X88100D01*
X86500Y110400D02*
Y113600D01*
X84900Y102000D02*
X88100D01*
X86500Y100400D02*
Y103600D01*
X84900Y92000D02*
X88100D01*
X86500Y90400D02*
Y93600D01*
X37750Y109651D02*
X41250D01*
X39500Y107901D02*
Y111401D01*
X67750Y109651D02*
X71250D01*
X69500Y107901D02*
Y111401D01*
X67750Y98500D02*
X71250D01*
X69500Y96750D02*
Y100250D01*
X37750Y98500D02*
X41250D01*
X39500Y96750D02*
Y100250D01*
X21400Y92500D02*
X24600D01*
X23000Y90900D02*
Y94100D01*
X21400Y102500D02*
X24600D01*
X23000Y100900D02*
Y104100D01*
X21400Y112500D02*
X24600D01*
X23000Y110900D02*
Y114100D01*
X447189Y205600D02*
X450289D01*
X448739Y204050D02*
Y207150D01*
X447189Y195600D02*
X450289D01*
X448739Y194050D02*
Y197150D01*
X447189Y185600D02*
X450289D01*
X448739Y184050D02*
Y187150D01*
X447189Y175600D02*
X450289D01*
X448739Y174050D02*
Y177150D01*
X447189Y165600D02*
X450289D01*
X448739Y164050D02*
Y167150D01*
X447189Y155600D02*
X450289D01*
X448739Y154050D02*
Y157150D01*
X447189Y145600D02*
X450289D01*
X448739Y144050D02*
Y147150D01*
X447189Y135600D02*
X450289D01*
X448739Y134050D02*
Y137150D01*
X477189Y205600D02*
X480289D01*
X478739Y204050D02*
Y207150D01*
X477189Y195600D02*
X480289D01*
X478739Y194050D02*
Y197150D01*
X477189Y185600D02*
X480289D01*
X478739Y184050D02*
Y187150D01*
X477189Y175600D02*
X480289D01*
X478739Y174050D02*
Y177150D01*
X477189Y165600D02*
X480289D01*
X478739Y164050D02*
Y167150D01*
X477189Y155600D02*
X480289D01*
X478739Y154050D02*
Y157150D01*
X477189Y145600D02*
X480289D01*
X478739Y144050D02*
Y147150D01*
X477189Y135600D02*
X480289D01*
X478739Y134050D02*
Y137150D01*
X453450Y339000D02*
X456550D01*
X455000Y337450D02*
Y340550D01*
X473450Y339000D02*
X476550D01*
X475000Y337450D02*
Y340550D01*
X470963Y373500D02*
X474163D01*
X472563Y371900D02*
Y375100D01*
X455963Y373500D02*
X459163D01*
X457563Y371900D02*
Y375100D01*
X434750Y262500D02*
X438250D01*
X436500Y260750D02*
Y264250D01*
X404750Y262500D02*
X408250D01*
X406500Y260750D02*
Y264250D01*
X462600Y62600D02*
X464600D01*
X463600Y61600D02*
Y63600D01*
X211600Y216500D02*
X214400D01*
X213000Y215100D02*
Y217900D01*
X101100Y216500D02*
X103900D01*
X102500Y215100D02*
Y217900D01*
X79600Y167000D02*
X82400D01*
X81000Y165600D02*
Y168400D01*
M02*
