G04*
G04 #@! TF.GenerationSoftware,Altium Limited,Altium Designer,21.3.2 (30)*
G04*
G04 Layer_Physical_Order=2*
G04 Layer_Color=16711680*
%FSLAX25Y25*%
%MOIN*%
G70*
G04*
G04 #@! TF.SameCoordinates,223A028E-27ED-44F5-9DF7-BD247C2F6700*
G04*
G04*
G04 #@! TF.FilePolarity,Positive*
G04*
G01*
G75*
%ADD10C,0.01500*%
%ADD38C,0.05000*%
%ADD39C,0.02000*%
%ADD40O,0.07874X0.07087*%
%ADD41R,0.06890X0.06890*%
%ADD42C,0.08500*%
%ADD43R,0.06890X0.06890*%
%ADD44O,0.07087X0.07874*%
%ADD45R,0.09000X0.06000*%
%ADD46O,0.09000X0.06000*%
%ADD47O,0.06000X0.09000*%
%ADD48R,0.06000X0.09000*%
%ADD49O,0.06600X0.10000*%
G04:AMPARAMS|DCode=50|XSize=70mil|YSize=90mil|CornerRadius=0mil|HoleSize=0mil|Usage=FLASHONLY|Rotation=180.000|XOffset=0mil|YOffset=0mil|HoleType=Round|Shape=Octagon|*
%AMOCTAGOND50*
4,1,8,0.01750,-0.04500,-0.01750,-0.04500,-0.03500,-0.02750,-0.03500,0.02750,-0.01750,0.04500,0.01750,0.04500,0.03500,0.02750,0.03500,-0.02750,0.01750,-0.04500,0.0*
%
%ADD50OCTAGOND50*%

%ADD51C,0.10000*%
%ADD52R,0.07000X0.10000*%
%ADD53O,0.07000X0.10000*%
%ADD54O,0.10000X0.06600*%
%ADD55C,0.07000*%
%ADD56R,0.10000X0.16000*%
%ADD57R,0.16000X0.10000*%
%ADD58C,0.06496*%
%ADD59O,0.06500X0.10000*%
%ADD60R,0.06500X0.10000*%
%ADD61C,0.03500*%
%ADD62C,0.05000*%
G36*
X149877Y397461D02*
X149195Y397371D01*
X147978Y396867D01*
X146934Y396066D01*
X143891Y393023D01*
X142628Y392899D01*
X141308Y392498D01*
X140092Y391848D01*
X139381Y391265D01*
X139000Y390992D01*
X138619Y391265D01*
X137908Y391848D01*
X136692Y392498D01*
X135372Y392899D01*
X134000Y393034D01*
X132628Y392899D01*
X131308Y392498D01*
X130092Y391848D01*
X129381Y391265D01*
X129000Y390992D01*
X128619Y391265D01*
X127908Y391848D01*
X126692Y392498D01*
X125372Y392899D01*
X124000Y393034D01*
X122628Y392899D01*
X121308Y392498D01*
X120092Y391848D01*
X119026Y390974D01*
X118151Y389908D01*
X117957Y389543D01*
X109000D01*
X107695Y389371D01*
X106478Y388867D01*
X105434Y388066D01*
X100434Y383066D01*
X99633Y382022D01*
X99129Y380805D01*
X98957Y379500D01*
Y302688D01*
X98457Y302655D01*
X98371Y303305D01*
X97868Y304522D01*
X97066Y305566D01*
X93566Y309066D01*
X92522Y309868D01*
X91305Y310371D01*
X90000Y310543D01*
X87669D01*
X87455Y310995D01*
X87696Y311289D01*
X88397Y312599D01*
X88828Y314021D01*
X88973Y315500D01*
X88828Y316979D01*
X88397Y318401D01*
X87696Y319711D01*
X87049Y320500D01*
X87696Y321289D01*
X88397Y322599D01*
X88828Y324021D01*
X88973Y325500D01*
X88828Y326979D01*
X88397Y328401D01*
X87696Y329711D01*
X87049Y330500D01*
X87696Y331289D01*
X88397Y332599D01*
X88828Y334021D01*
X88973Y335500D01*
X88828Y336979D01*
X88397Y338401D01*
X87696Y339711D01*
X87049Y340500D01*
X87696Y341289D01*
X88397Y342599D01*
X88828Y344021D01*
X88973Y345500D01*
X88828Y346979D01*
X88397Y348401D01*
X87696Y349711D01*
X87049Y350500D01*
X87696Y351289D01*
X88397Y352599D01*
X88828Y354021D01*
X88973Y355500D01*
X88828Y356979D01*
X88397Y358401D01*
X87696Y359711D01*
X87049Y360500D01*
X87696Y361289D01*
X88397Y362599D01*
X88828Y364021D01*
X88973Y365500D01*
X88828Y366979D01*
X88397Y368401D01*
X87696Y369711D01*
X86753Y370860D01*
X85605Y371802D01*
X85008Y372121D01*
X84903Y372610D01*
X85362Y373209D01*
X85820Y374314D01*
X85910Y375000D01*
X81000D01*
X76090D01*
X76180Y374314D01*
X76638Y373209D01*
X77097Y372610D01*
X76992Y372121D01*
X76395Y371802D01*
X75247Y370860D01*
X74304Y369711D01*
X73603Y368401D01*
X73172Y366979D01*
X73027Y365500D01*
X73172Y364021D01*
X73603Y362599D01*
X74304Y361289D01*
X74951Y360500D01*
X74304Y359711D01*
X73603Y358401D01*
X73172Y356979D01*
X73027Y355500D01*
X73172Y354021D01*
X73603Y352599D01*
X74304Y351289D01*
X74545Y350995D01*
X74331Y350543D01*
X66500D01*
X65195Y350371D01*
X63978Y349868D01*
X62934Y349066D01*
X44434Y330566D01*
X43633Y329522D01*
X43129Y328305D01*
X42957Y327000D01*
Y156448D01*
X42541Y156170D01*
X41906Y156433D01*
X40312Y156750D01*
X38688D01*
X37094Y156433D01*
X35592Y155811D01*
X34241Y154908D01*
X33982Y154650D01*
X33566Y155066D01*
X32522Y155868D01*
X31305Y156371D01*
X30005Y156542D01*
X29887Y156687D01*
X28775Y157599D01*
X27507Y158277D01*
X26131Y158694D01*
X24700Y158835D01*
X21300D01*
X19869Y158694D01*
X18493Y158277D01*
X17225Y157599D01*
X16113Y156687D01*
X15201Y155575D01*
X14523Y154307D01*
X14106Y152931D01*
X13965Y151500D01*
X14106Y150069D01*
X14523Y148693D01*
X15201Y147425D01*
X15960Y146500D01*
X15201Y145575D01*
X14523Y144307D01*
X14106Y142931D01*
X13965Y141500D01*
X14106Y140069D01*
X14523Y138693D01*
X15201Y137425D01*
X16113Y136313D01*
X17225Y135401D01*
X18019Y134976D01*
X18085Y134374D01*
X17544Y133669D01*
X17111Y132623D01*
X17029Y132000D01*
X23000D01*
X28971D01*
X28895Y132582D01*
X28983Y132679D01*
X29322Y132884D01*
X29650Y132633D01*
X30866Y132129D01*
X31843Y132000D01*
X32040Y131968D01*
X32106Y131965D01*
X32172Y131957D01*
X32369D01*
X32416Y131955D01*
X32615Y131935D01*
X32766Y131907D01*
X32874Y131878D01*
X32945Y131852D01*
X32989Y131832D01*
X33015Y131816D01*
X33035Y131801D01*
X33058Y131780D01*
X33087Y131748D01*
X33092Y131741D01*
X33108Y131725D01*
X33217Y131604D01*
X33296Y131536D01*
X33360Y131454D01*
X33443Y131389D01*
X34241Y130592D01*
X35592Y129689D01*
X37094Y129067D01*
X38688Y128750D01*
X40312D01*
X41906Y129067D01*
X42541Y129330D01*
X42957Y129052D01*
Y117599D01*
X42541Y117321D01*
X41906Y117584D01*
X40312Y117901D01*
X38688D01*
X37094Y117584D01*
X35592Y116962D01*
X34241Y116059D01*
X33854Y115673D01*
X33680Y115546D01*
X33390Y115269D01*
X33211Y115120D01*
X33045Y115003D01*
X32990Y114971D01*
X32394Y115566D01*
X31350Y116367D01*
X30774Y116606D01*
X29887Y117687D01*
X28775Y118599D01*
X27507Y119277D01*
X26131Y119694D01*
X24700Y119835D01*
X21300D01*
X19869Y119694D01*
X18493Y119277D01*
X17225Y118599D01*
X16113Y117687D01*
X15201Y116575D01*
X14523Y115307D01*
X14106Y113931D01*
X13965Y112500D01*
X14106Y111069D01*
X14523Y109693D01*
X15201Y108425D01*
X15960Y107500D01*
X15201Y106575D01*
X14523Y105307D01*
X14106Y103931D01*
X13965Y102500D01*
X14106Y101069D01*
X14523Y99693D01*
X15201Y98425D01*
X16113Y97313D01*
X17225Y96401D01*
X18019Y95976D01*
X18085Y95374D01*
X17544Y94669D01*
X17111Y93622D01*
X17029Y93000D01*
X23000D01*
X28971D01*
X28907Y93485D01*
X29279Y93872D01*
X29866Y93629D01*
X31172Y93457D01*
X32111D01*
X32155Y93455D01*
X32321Y93435D01*
X32470Y93405D01*
X32611Y93363D01*
X32750Y93309D01*
X32893Y93239D01*
X33045Y93148D01*
X33211Y93031D01*
X33390Y92882D01*
X33680Y92606D01*
X33854Y92478D01*
X34241Y92092D01*
X35592Y91189D01*
X37094Y90567D01*
X38688Y90250D01*
X40312D01*
X41906Y90567D01*
X42541Y90830D01*
X42957Y90552D01*
Y79948D01*
X42541Y79670D01*
X41906Y79933D01*
X40312Y80250D01*
X38688D01*
X37094Y79933D01*
X35592Y79311D01*
X34241Y78408D01*
X33794Y77962D01*
X32805Y78371D01*
X31500Y78543D01*
X30005D01*
X29887Y78687D01*
X28775Y79599D01*
X27507Y80277D01*
X26131Y80694D01*
X24700Y80835D01*
X21300D01*
X19869Y80694D01*
X18493Y80277D01*
X17225Y79599D01*
X16113Y78687D01*
X15201Y77575D01*
X14523Y76307D01*
X14106Y74931D01*
X13965Y73500D01*
X14106Y72069D01*
X14523Y70693D01*
X15201Y69425D01*
X15960Y68500D01*
X15201Y67575D01*
X14523Y66307D01*
X14106Y64931D01*
X13965Y63500D01*
X14106Y62069D01*
X14523Y60693D01*
X15201Y59425D01*
X16113Y58313D01*
X17225Y57401D01*
X18019Y56976D01*
X18085Y56374D01*
X17544Y55669D01*
X17111Y54623D01*
X17029Y54000D01*
X23000D01*
X28971D01*
X28889Y54623D01*
X28456Y55669D01*
X27915Y56374D01*
X27981Y56976D01*
X28775Y57401D01*
X29155Y57713D01*
X30434Y56434D01*
X31478Y55633D01*
X32695Y55129D01*
X33281Y55051D01*
X34241Y54092D01*
X35592Y53189D01*
X37094Y52567D01*
X38688Y52250D01*
X40312D01*
X41906Y52567D01*
X42541Y52830D01*
X42957Y52552D01*
Y40539D01*
X42457Y40205D01*
X41906Y40433D01*
X40312Y40750D01*
X38688D01*
X37094Y40433D01*
X35592Y39811D01*
X34241Y38908D01*
X33923Y38929D01*
X33566Y39395D01*
X32394Y40566D01*
X31350Y41368D01*
X30152Y41864D01*
X29887Y42187D01*
X28775Y43099D01*
X27507Y43777D01*
X26131Y44194D01*
X24700Y44335D01*
X21300D01*
X19869Y44194D01*
X18493Y43777D01*
X17225Y43099D01*
X16113Y42187D01*
X15201Y41075D01*
X14523Y39807D01*
X14106Y38431D01*
X13965Y37000D01*
X14106Y35569D01*
X14523Y34193D01*
X15201Y32925D01*
X15960Y32000D01*
X15201Y31075D01*
X14523Y29807D01*
X14106Y28431D01*
X13965Y27000D01*
X14106Y25569D01*
X14523Y24193D01*
X15201Y22925D01*
X16113Y21813D01*
X17225Y20901D01*
X18019Y20476D01*
X18085Y19874D01*
X17544Y19169D01*
X17111Y18123D01*
X17029Y17500D01*
X23000D01*
Y17000D01*
X23500D01*
Y12663D01*
X24700D01*
X25822Y12811D01*
X26869Y13244D01*
X27767Y13933D01*
X28456Y14831D01*
X28889Y15878D01*
X28968Y16478D01*
X29430Y16669D01*
X29478Y16633D01*
X30695Y16129D01*
X31649Y16003D01*
X31859Y15968D01*
X31936Y15965D01*
X32000Y15957D01*
X32175D01*
X32236Y15955D01*
X32435Y15933D01*
X32599Y15902D01*
X32734Y15864D01*
X32847Y15822D01*
X32945Y15775D01*
X33038Y15720D01*
X33132Y15652D01*
X33232Y15565D01*
X33456Y15337D01*
X33474Y15322D01*
X33489Y15303D01*
X33663Y15170D01*
X34241Y14592D01*
X35592Y13689D01*
X37094Y13067D01*
X38688Y12750D01*
X40312D01*
X41906Y13067D01*
X43408Y13689D01*
X44759Y14592D01*
X45908Y15741D01*
X46811Y17092D01*
X47433Y18594D01*
X47750Y20188D01*
Y21813D01*
X47433Y23406D01*
X46811Y24908D01*
X45908Y26259D01*
X45417Y26750D01*
X45908Y27241D01*
X46811Y28592D01*
X47433Y30094D01*
X47750Y31688D01*
Y32465D01*
X48212Y32656D01*
X51934Y28934D01*
X52978Y28133D01*
X54195Y27629D01*
X55500Y27457D01*
X62111D01*
X62155Y27455D01*
X62321Y27435D01*
X62470Y27405D01*
X62611Y27363D01*
X62750Y27309D01*
X62893Y27239D01*
X63045Y27148D01*
X63179Y27053D01*
X63212Y27013D01*
X63269Y26436D01*
X63092Y26259D01*
X62189Y24908D01*
X61567Y23406D01*
X61250Y21813D01*
Y20188D01*
X61567Y18594D01*
X62189Y17092D01*
X63092Y15741D01*
X64241Y14592D01*
X65592Y13689D01*
X67094Y13067D01*
X68687Y12750D01*
X70312D01*
X71509Y12988D01*
X71934Y12434D01*
X73434Y10934D01*
X74478Y10132D01*
X75695Y9629D01*
X77000Y9457D01*
X80042D01*
X80070Y9438D01*
X80725Y8901D01*
X81993Y8223D01*
X83369Y7806D01*
X84800Y7665D01*
X88200D01*
X89631Y7806D01*
X91007Y8223D01*
X92275Y8901D01*
X93387Y9813D01*
X94299Y10925D01*
X94977Y12193D01*
X95394Y13569D01*
X95535Y15000D01*
X95394Y16431D01*
X94977Y17807D01*
X94299Y19075D01*
X93947Y19505D01*
X94160Y19957D01*
X132500D01*
X133805Y20129D01*
X135022Y20632D01*
X136066Y21434D01*
X157066Y42434D01*
X157868Y43478D01*
X158371Y44695D01*
X158543Y46000D01*
Y114411D01*
X201566Y157434D01*
X202367Y158478D01*
X202871Y159695D01*
X203043Y161000D01*
Y233508D01*
X203495Y233722D01*
X203789Y233481D01*
X205099Y232781D01*
X206521Y232349D01*
X208000Y232204D01*
X209479Y232349D01*
X210901Y232781D01*
X212211Y233481D01*
X213000Y234128D01*
X213789Y233481D01*
X215099Y232781D01*
X216521Y232349D01*
X218000Y232204D01*
X219479Y232349D01*
X220901Y232781D01*
X222211Y233481D01*
X223000Y234128D01*
X223789Y233481D01*
X225099Y232781D01*
X226521Y232349D01*
X228000Y232204D01*
X229479Y232349D01*
X230901Y232781D01*
X232211Y233481D01*
X233000Y234128D01*
X233789Y233481D01*
X235099Y232781D01*
X236521Y232349D01*
X238000Y232204D01*
X239479Y232349D01*
X240901Y232781D01*
X242211Y233481D01*
X243000Y234128D01*
X243789Y233481D01*
X245099Y232781D01*
X246521Y232349D01*
X248000Y232204D01*
X249479Y232349D01*
X250901Y232781D01*
X252211Y233481D01*
X253000Y234128D01*
X253789Y233481D01*
X255099Y232781D01*
X256521Y232349D01*
X258000Y232204D01*
X259479Y232349D01*
X260901Y232781D01*
X262211Y233481D01*
X263000Y234128D01*
X263789Y233481D01*
X265099Y232781D01*
X266521Y232349D01*
X268000Y232204D01*
X269479Y232349D01*
X270901Y232781D01*
X272211Y233481D01*
X273000Y234128D01*
X273789Y233481D01*
X275099Y232781D01*
X276521Y232349D01*
X278000Y232204D01*
X279479Y232349D01*
X280901Y232781D01*
X282211Y233481D01*
X283000Y234128D01*
X283789Y233481D01*
X285099Y232781D01*
X286521Y232349D01*
X288000Y232204D01*
X289479Y232349D01*
X290901Y232781D01*
X292211Y233481D01*
X293000Y234128D01*
X293789Y233481D01*
X295099Y232781D01*
X296521Y232349D01*
X298000Y232204D01*
X299479Y232349D01*
X300901Y232781D01*
X302211Y233481D01*
X303000Y234128D01*
X303789Y233481D01*
X305099Y232781D01*
X306521Y232349D01*
X308000Y232204D01*
X309479Y232349D01*
X310901Y232781D01*
X312211Y233481D01*
X313000Y234128D01*
X313789Y233481D01*
X315099Y232781D01*
X316521Y232349D01*
X318000Y232204D01*
X319479Y232349D01*
X320901Y232781D01*
X322211Y233481D01*
X323360Y234424D01*
X324302Y235572D01*
X325003Y236883D01*
X325434Y238305D01*
X325580Y239784D01*
Y240571D01*
X325434Y242050D01*
X325003Y243472D01*
X324302Y244782D01*
X323543Y245707D01*
Y263911D01*
X353066Y293434D01*
X353868Y294478D01*
X354371Y295695D01*
X354543Y297000D01*
Y306840D01*
X354995Y307053D01*
X355425Y306701D01*
X356693Y306023D01*
X358069Y305606D01*
X359500Y305465D01*
X360931Y305606D01*
X362307Y306023D01*
X363575Y306701D01*
X364687Y307613D01*
X365599Y308725D01*
X365990Y309457D01*
X380000D01*
X381305Y309629D01*
X382522Y310133D01*
X383566Y310934D01*
X385089Y312457D01*
X386293D01*
X387707Y311043D01*
X387808Y310011D01*
X388180Y308786D01*
X388784Y307657D01*
X389596Y306667D01*
X393882Y302382D01*
X394871Y301569D01*
X396001Y300966D01*
X397226Y300594D01*
X397732Y300544D01*
X398046Y300011D01*
X397769Y299343D01*
X397782Y299345D01*
X398210Y299479D01*
X398579Y299636D01*
X398887Y299817D01*
X399136Y300022D01*
X399326Y300252D01*
X399765Y298000D01*
X403500D01*
X409500D01*
Y298091D01*
X409269Y299250D01*
X408972Y299969D01*
X409306Y300469D01*
X424795D01*
X425882Y299382D01*
X426871Y298569D01*
X428000Y297966D01*
X429226Y297594D01*
X430500Y297469D01*
X449396D01*
X449406Y297467D01*
X450233Y297445D01*
X450500Y297422D01*
Y295000D01*
X451444D01*
X451457Y294808D01*
X451466Y293970D01*
X451469Y293950D01*
Y276362D01*
X450947Y276146D01*
X449719Y275326D01*
X449399Y275005D01*
X449234Y274886D01*
X449061Y274724D01*
X449014Y274686D01*
X448973Y274659D01*
X448932Y274636D01*
X448886Y274616D01*
X448833Y274597D01*
X448004Y274543D01*
X444500D01*
X443195Y274371D01*
X441978Y273868D01*
X440934Y273066D01*
X438746Y270878D01*
X438707Y270842D01*
X438598Y270758D01*
X438516Y270706D01*
X438455Y270676D01*
X438408Y270658D01*
X438363Y270646D01*
X438307Y270637D01*
X438227Y270633D01*
X438113Y270638D01*
X437789Y270682D01*
X437654Y270682D01*
X437313Y270750D01*
X435687D01*
X434094Y270433D01*
X432592Y269811D01*
X431241Y268908D01*
X430092Y267759D01*
X429189Y266408D01*
X428567Y264906D01*
X428250Y263313D01*
Y261687D01*
X428567Y260094D01*
X429189Y258592D01*
X430092Y257241D01*
X430478Y256854D01*
X430606Y256680D01*
X430882Y256390D01*
X431031Y256211D01*
X431148Y256045D01*
X431239Y255893D01*
X431309Y255750D01*
X431363Y255611D01*
X431405Y255470D01*
X431435Y255321D01*
X431455Y255155D01*
X431457Y255111D01*
Y239500D01*
X431629Y238195D01*
X432132Y236978D01*
X432934Y235934D01*
X445434Y223434D01*
X446478Y222633D01*
X447695Y222129D01*
X449000Y221957D01*
X467411D01*
X473695Y215672D01*
Y211643D01*
X473331Y211449D01*
X472265Y210574D01*
X471390Y209508D01*
X470740Y208292D01*
X470340Y206972D01*
X470205Y205600D01*
X470340Y204228D01*
X470740Y202908D01*
X471240Y201974D01*
X470834Y201673D01*
X456940Y215566D01*
X455896Y216368D01*
X454679Y216871D01*
X453374Y217043D01*
X433639D01*
X432334Y216871D01*
X431117Y216368D01*
X430073Y215566D01*
X429895Y215388D01*
X429861Y215357D01*
X429727Y215251D01*
X429598Y215166D01*
X429470Y215096D01*
X429336Y215037D01*
X429189Y214986D01*
X429023Y214944D01*
X428830Y214912D01*
X428607Y214891D01*
X428214Y214883D01*
X427996Y214850D01*
X427426D01*
X425832Y214533D01*
X424331Y213911D01*
X422979Y213008D01*
X421830Y211859D01*
X420927Y210507D01*
X420306Y209006D01*
X419989Y207412D01*
Y205787D01*
X420306Y204193D01*
X420927Y202692D01*
X421830Y201341D01*
X422722Y200449D01*
X421830Y199557D01*
X420927Y198206D01*
X420306Y196704D01*
X419989Y195110D01*
Y193485D01*
X420306Y191892D01*
X420927Y190390D01*
X421830Y189039D01*
X422722Y188147D01*
X421830Y187255D01*
X420927Y185904D01*
X420306Y184403D01*
X419989Y182809D01*
Y181184D01*
X420306Y179590D01*
X420927Y178088D01*
X421830Y176737D01*
X422722Y175845D01*
X421830Y174954D01*
X420927Y173602D01*
X420306Y172101D01*
X419989Y170507D01*
Y168882D01*
X420306Y167288D01*
X420927Y165787D01*
X421830Y164435D01*
X422722Y163544D01*
X421830Y162652D01*
X420927Y161301D01*
X420306Y159799D01*
X419989Y158205D01*
Y156580D01*
X420306Y154986D01*
X420927Y153485D01*
X421830Y152134D01*
X422722Y151242D01*
X421830Y150350D01*
X420927Y148999D01*
X420306Y147497D01*
X419989Y145904D01*
Y144279D01*
X420306Y142685D01*
X420927Y141183D01*
X421830Y139832D01*
X422722Y138940D01*
X421830Y138049D01*
X420927Y136697D01*
X420306Y135196D01*
X419989Y133602D01*
Y131977D01*
X420306Y130383D01*
X420927Y128882D01*
X421830Y127530D01*
X422722Y126639D01*
X421830Y125747D01*
X420927Y124396D01*
X420306Y122894D01*
X419989Y121300D01*
Y119675D01*
X420306Y118081D01*
X420927Y116580D01*
X421830Y115229D01*
X422722Y114337D01*
X421830Y113445D01*
X420927Y112094D01*
X420306Y110592D01*
X419989Y108999D01*
Y107373D01*
X420306Y105780D01*
X420927Y104278D01*
X421830Y102927D01*
X422722Y102035D01*
X421830Y101143D01*
X420927Y99792D01*
X420306Y98291D01*
X419989Y96697D01*
Y95072D01*
X420306Y93478D01*
X420927Y91976D01*
X421830Y90625D01*
X422722Y89733D01*
X421830Y88842D01*
X420927Y87490D01*
X420306Y85989D01*
X419989Y84395D01*
Y82770D01*
X420306Y81176D01*
X420927Y79675D01*
X421830Y78324D01*
X422722Y77432D01*
X421830Y76540D01*
X420927Y75189D01*
X420306Y73687D01*
X419989Y72093D01*
Y70468D01*
X420306Y68875D01*
X420927Y67373D01*
X421830Y66022D01*
X422722Y65130D01*
X421830Y64238D01*
X420927Y62887D01*
X420306Y61386D01*
X419989Y59792D01*
Y58167D01*
X420306Y56573D01*
X420927Y55071D01*
X421830Y53720D01*
X422722Y52828D01*
X421830Y51937D01*
X420927Y50585D01*
X420306Y49084D01*
X419989Y47490D01*
Y45865D01*
X420306Y44271D01*
X420927Y42770D01*
X421830Y41418D01*
X422722Y40527D01*
X421830Y39635D01*
X420927Y38284D01*
X420306Y36782D01*
X419989Y35188D01*
Y33563D01*
X420306Y31969D01*
X420927Y30468D01*
X421830Y29117D01*
X422722Y28225D01*
X421830Y27333D01*
X420927Y25982D01*
X420306Y24480D01*
X419989Y22887D01*
Y21261D01*
X420306Y19668D01*
X420410Y19416D01*
X419994Y19138D01*
X419043Y20089D01*
Y206828D01*
X418871Y208134D01*
X418367Y209350D01*
X417566Y210395D01*
X407895Y220066D01*
X406850Y220867D01*
X405634Y221371D01*
X404328Y221543D01*
X217149D01*
X217144Y221549D01*
X216079Y222260D01*
X214896Y222750D01*
X213640Y223000D01*
X212360D01*
X211104Y222750D01*
X209921Y222260D01*
X208857Y221549D01*
X207951Y220643D01*
X207240Y219579D01*
X206750Y218396D01*
X206500Y217140D01*
Y215860D01*
X206750Y214604D01*
X207240Y213421D01*
X207951Y212356D01*
X208857Y211451D01*
X209921Y210740D01*
X211104Y210250D01*
X212360Y210000D01*
X213640D01*
X214896Y210250D01*
X216079Y210740D01*
X217144Y211451D01*
X217149Y211457D01*
X263454D01*
X263570Y211000D01*
X263565Y210957D01*
X262534Y210166D01*
X164434Y112066D01*
X163633Y111022D01*
X163129Y109805D01*
X162957Y108500D01*
Y64945D01*
X160555D01*
Y50055D01*
X175259D01*
X176521Y49672D01*
X178000Y49527D01*
X179479Y49672D01*
X180901Y50103D01*
X182211Y50804D01*
X183000Y51451D01*
X183789Y50804D01*
X185099Y50103D01*
X186521Y49672D01*
X188000Y49527D01*
X189479Y49672D01*
X190901Y50103D01*
X192211Y50804D01*
X193000Y51451D01*
X193789Y50804D01*
X195099Y50103D01*
X196521Y49672D01*
X198000Y49527D01*
X199479Y49672D01*
X200901Y50103D01*
X202211Y50804D01*
X203000Y51451D01*
X203789Y50804D01*
X205099Y50103D01*
X206521Y49672D01*
X208000Y49527D01*
X209479Y49672D01*
X210901Y50103D01*
X212211Y50804D01*
X213000Y51451D01*
X213789Y50804D01*
X215099Y50103D01*
X216521Y49672D01*
X218000Y49527D01*
X219479Y49672D01*
X220901Y50103D01*
X222211Y50804D01*
X223000Y51451D01*
X223789Y50804D01*
X225099Y50103D01*
X226521Y49672D01*
X228000Y49527D01*
X229479Y49672D01*
X230901Y50103D01*
X232211Y50804D01*
X233000Y51451D01*
X233789Y50804D01*
X235099Y50103D01*
X236521Y49672D01*
X238000Y49527D01*
X239479Y49672D01*
X240901Y50103D01*
X242211Y50804D01*
X243000Y51451D01*
X243789Y50804D01*
X245099Y50103D01*
X246521Y49672D01*
X248000Y49527D01*
X249479Y49672D01*
X250901Y50103D01*
X252211Y50804D01*
X253000Y51451D01*
X253789Y50804D01*
X255099Y50103D01*
X256521Y49672D01*
X258000Y49527D01*
X259479Y49672D01*
X260901Y50103D01*
X262211Y50804D01*
X263000Y51451D01*
X263789Y50804D01*
X265099Y50103D01*
X266521Y49672D01*
X268000Y49527D01*
X269479Y49672D01*
X270901Y50103D01*
X272211Y50804D01*
X273015Y51463D01*
X273789Y50828D01*
X275099Y50128D01*
X276521Y49696D01*
X278000Y49551D01*
X279479Y49696D01*
X280901Y50128D01*
X282211Y50828D01*
X282985Y51463D01*
X283789Y50804D01*
X285099Y50103D01*
X286521Y49672D01*
X288000Y49527D01*
X289479Y49672D01*
X290901Y50103D01*
X292211Y50804D01*
X293000Y51451D01*
X293789Y50804D01*
X295099Y50103D01*
X296521Y49672D01*
X298000Y49527D01*
X299479Y49672D01*
X300901Y50103D01*
X302211Y50804D01*
X303000Y51451D01*
X303789Y50804D01*
X305099Y50103D01*
X306521Y49672D01*
X308000Y49527D01*
X309479Y49672D01*
X310901Y50103D01*
X312211Y50804D01*
X313000Y51451D01*
X313789Y50804D01*
X315099Y50103D01*
X316521Y49672D01*
X318000Y49527D01*
X319479Y49672D01*
X320901Y50103D01*
X322211Y50804D01*
X323360Y51747D01*
X324302Y52895D01*
X325003Y54206D01*
X325434Y55628D01*
X325580Y57106D01*
Y57894D01*
X325434Y59373D01*
X325003Y60794D01*
X324302Y62105D01*
X323360Y63253D01*
X323043Y63513D01*
Y66411D01*
X326089Y69457D01*
X336957D01*
Y40000D01*
X337129Y38695D01*
X337632Y37478D01*
X338434Y36434D01*
X356360Y18508D01*
X357404Y17707D01*
X358621Y17203D01*
X359926Y17031D01*
X390850D01*
X390894Y17029D01*
X391059Y17009D01*
X391209Y16979D01*
X391349Y16937D01*
X391488Y16883D01*
X391631Y16813D01*
X391784Y16722D01*
X391949Y16605D01*
X392129Y16456D01*
X392419Y16180D01*
X392593Y16052D01*
X392980Y15666D01*
X394331Y14763D01*
X395832Y14141D01*
X397426Y13824D01*
X399051D01*
X400645Y14141D01*
X402146Y14763D01*
X403498Y15666D01*
X404647Y16815D01*
X405550Y18166D01*
X406172Y19668D01*
X406489Y21261D01*
Y22887D01*
X406172Y24480D01*
X405550Y25982D01*
X404647Y27333D01*
X403755Y28225D01*
X404647Y29117D01*
X405550Y30468D01*
X406172Y31969D01*
X406489Y33563D01*
Y35188D01*
X406172Y36782D01*
X405550Y38284D01*
X404647Y39635D01*
X403755Y40527D01*
X404647Y41418D01*
X405550Y42770D01*
X406172Y44271D01*
X406489Y45865D01*
Y47490D01*
X406172Y49084D01*
X405550Y50585D01*
X404647Y51937D01*
X403755Y52828D01*
X404647Y53720D01*
X405550Y55071D01*
X406172Y56573D01*
X406489Y58167D01*
Y59792D01*
X406172Y61386D01*
X405550Y62887D01*
X404647Y64238D01*
X403755Y65130D01*
X404647Y66022D01*
X405550Y67373D01*
X406172Y68875D01*
X406489Y70468D01*
Y72093D01*
X406172Y73687D01*
X405550Y75189D01*
X404647Y76540D01*
X403755Y77432D01*
X404647Y78324D01*
X405550Y79675D01*
X406172Y81176D01*
X406489Y82770D01*
Y84395D01*
X406172Y85989D01*
X405550Y87490D01*
X404647Y88842D01*
X403755Y89733D01*
X404647Y90625D01*
X405550Y91976D01*
X406172Y93478D01*
X406489Y95072D01*
Y96697D01*
X406172Y98291D01*
X405550Y99792D01*
X404647Y101143D01*
X403755Y102035D01*
X404647Y102927D01*
X405550Y104278D01*
X406172Y105780D01*
X406489Y107373D01*
Y108999D01*
X406172Y110592D01*
X405550Y112094D01*
X404647Y113445D01*
X403755Y114337D01*
X404647Y115229D01*
X405550Y116580D01*
X406172Y118081D01*
X406489Y119675D01*
Y121300D01*
X406172Y122894D01*
X405550Y124396D01*
X404647Y125747D01*
X403755Y126639D01*
X404647Y127530D01*
X405550Y128882D01*
X406172Y130383D01*
X406489Y131977D01*
Y133602D01*
X406172Y135196D01*
X405550Y136697D01*
X404647Y138049D01*
X403755Y138940D01*
X404647Y139832D01*
X405550Y141183D01*
X406172Y142685D01*
X406489Y144279D01*
Y145904D01*
X406172Y147497D01*
X405550Y148999D01*
X404647Y150350D01*
X403755Y151242D01*
X404647Y152134D01*
X405550Y153485D01*
X406172Y154986D01*
X406489Y156580D01*
Y158205D01*
X406172Y159799D01*
X405550Y161301D01*
X404647Y162652D01*
X403755Y163544D01*
X404647Y164435D01*
X405550Y165787D01*
X406172Y167288D01*
X406489Y168882D01*
Y170507D01*
X406172Y172101D01*
X405550Y173602D01*
X404647Y174954D01*
X403755Y175845D01*
X404647Y176737D01*
X405550Y178088D01*
X406172Y179590D01*
X406489Y181184D01*
Y182809D01*
X406172Y184403D01*
X405550Y185904D01*
X404647Y187255D01*
X403755Y188147D01*
X404647Y189039D01*
X405550Y190390D01*
X406172Y191892D01*
X406489Y193485D01*
Y195110D01*
X406172Y196704D01*
X405550Y198206D01*
X404647Y199557D01*
X403755Y200449D01*
X404647Y201341D01*
X405550Y202692D01*
X406172Y204193D01*
X406489Y205787D01*
Y206555D01*
X406951Y206746D01*
X408957Y204739D01*
Y18000D01*
X409129Y16695D01*
X409632Y15478D01*
X410434Y14434D01*
X415434Y9434D01*
X416478Y8632D01*
X417695Y8129D01*
X419000Y7957D01*
X452500D01*
X453805Y8129D01*
X455022Y8632D01*
X456066Y9434D01*
X461066Y14434D01*
X461868Y15478D01*
X462371Y16695D01*
X462543Y18000D01*
Y59626D01*
X462940Y59930D01*
X463100Y59887D01*
Y62600D01*
X463600D01*
Y63100D01*
X464850D01*
Y63825D01*
X464951Y63735D01*
X465068Y63654D01*
X465201Y63583D01*
X465350Y63521D01*
X465515Y63469D01*
X465696Y63426D01*
X465894Y63393D01*
X466107Y63369D01*
X466242Y63364D01*
X466163Y63661D01*
X465801Y64289D01*
X465288Y64801D01*
X464662Y65163D01*
X464461Y65216D01*
X464331Y65699D01*
X466189Y67557D01*
X471849D01*
X472831Y66751D01*
X473966Y66145D01*
X474117Y65630D01*
X473886Y65453D01*
X473245Y64617D01*
X472842Y63644D01*
X472805Y63369D01*
X473271Y63417D01*
X473508Y63469D01*
X473708Y63536D01*
X473872Y63618D01*
X473999Y63715D01*
X474090Y63826D01*
X474145Y63953D01*
X474163Y64094D01*
Y63100D01*
X478239D01*
Y62100D01*
X474163D01*
Y61106D01*
X474145Y61247D01*
X474090Y61374D01*
X473999Y61485D01*
X473872Y61582D01*
X473708Y61664D01*
X473508Y61731D01*
X473271Y61783D01*
X472999Y61820D01*
X472805Y61834D01*
X472842Y61556D01*
X473245Y60583D01*
X473886Y59747D01*
X474117Y59570D01*
X473966Y59055D01*
X472831Y58448D01*
X471765Y57574D01*
X470890Y56508D01*
X470240Y55292D01*
X469840Y53972D01*
X469705Y52600D01*
X469840Y51228D01*
X470240Y49908D01*
X470890Y48692D01*
X471474Y47981D01*
X471746Y47600D01*
X471474Y47219D01*
X470890Y46508D01*
X470240Y45292D01*
X469840Y43972D01*
X469705Y42600D01*
X469840Y41228D01*
X470240Y39908D01*
X470890Y38692D01*
X471474Y37981D01*
X471746Y37600D01*
X471474Y37219D01*
X470890Y36508D01*
X470240Y35292D01*
X469840Y33972D01*
X469705Y32600D01*
X469840Y31228D01*
X470240Y29908D01*
X470890Y28692D01*
X471474Y27981D01*
X471746Y27600D01*
X471474Y27219D01*
X470890Y26508D01*
X470240Y25292D01*
X469840Y23972D01*
X469705Y22600D01*
X469840Y21228D01*
X470240Y19908D01*
X470890Y18692D01*
X471765Y17626D01*
X472831Y16752D01*
X474047Y16102D01*
X475366Y15701D01*
X476739Y15566D01*
X479739D01*
X481111Y15701D01*
X482430Y16102D01*
X483646Y16752D01*
X484712Y17626D01*
X485587Y18692D01*
X486237Y19908D01*
X486637Y21228D01*
X486762Y22491D01*
X493962Y29692D01*
X494424Y29501D01*
X494455Y4893D01*
X494102Y4539D01*
X4539D01*
Y397961D01*
X149845D01*
X149877Y397461D01*
D02*
G37*
G36*
X493977Y389809D02*
X493515Y389617D01*
X487066Y396066D01*
X486022Y396867D01*
X484805Y397371D01*
X484123Y397461D01*
X484155Y397961D01*
X493967D01*
X493977Y389809D01*
D02*
G37*
G36*
X148115Y388701D02*
X147772Y388344D01*
X147239Y387698D01*
X147048Y387410D01*
X146909Y387144D01*
X146820Y386901D01*
X146783Y386681D01*
X146796Y386484D01*
X146860Y386309D01*
X146975Y386157D01*
X144157Y388975D01*
X144309Y388860D01*
X144483Y388796D01*
X144681Y388783D01*
X144901Y388821D01*
X145144Y388909D01*
X145410Y389048D01*
X145698Y389239D01*
X146010Y389480D01*
X146344Y389772D01*
X146701Y390115D01*
X148115Y388701D01*
D02*
G37*
G36*
X196962Y386309D02*
X197024Y386139D01*
X197127Y385989D01*
X197271Y385860D01*
X197457Y385750D01*
X197683Y385660D01*
X197951Y385590D01*
X198260Y385540D01*
X198611Y385510D01*
X199003Y385500D01*
Y383500D01*
X198611Y383490D01*
X198260Y383460D01*
X197951Y383410D01*
X197683Y383340D01*
X197457Y383250D01*
X197271Y383140D01*
X197127Y383011D01*
X197024Y382861D01*
X196962Y382691D01*
X196941Y382501D01*
Y386499D01*
X196962Y386309D01*
D02*
G37*
G36*
X121059Y382501D02*
X121038Y382691D01*
X120976Y382861D01*
X120873Y383011D01*
X120729Y383140D01*
X120543Y383250D01*
X120317Y383340D01*
X120049Y383410D01*
X119740Y383460D01*
X119389Y383490D01*
X118998Y383500D01*
Y385500D01*
X119389Y385510D01*
X119740Y385540D01*
X120049Y385590D01*
X120317Y385660D01*
X120543Y385750D01*
X120729Y385860D01*
X120873Y385989D01*
X120976Y386139D01*
X121038Y386309D01*
X121059Y386499D01*
Y382501D01*
D02*
G37*
G36*
X154500Y381851D02*
X156774D01*
X156758Y381772D01*
X156744Y381595D01*
X156707Y380035D01*
X156853Y380147D01*
X157030Y380379D01*
X157545Y380227D01*
X158151Y379092D01*
X159026Y378026D01*
X160092Y377151D01*
X161308Y376501D01*
X162628Y376101D01*
X164000Y375966D01*
X165372Y376101D01*
X166692Y376501D01*
X167908Y377151D01*
X168619Y377735D01*
X169000Y378008D01*
X169381Y377735D01*
X170092Y377151D01*
X171308Y376501D01*
X172628Y376101D01*
X174000Y375966D01*
X175372Y376101D01*
X176692Y376501D01*
X177908Y377151D01*
X178619Y377735D01*
X179000Y378008D01*
X179381Y377735D01*
X180092Y377151D01*
X181308Y376501D01*
X182628Y376101D01*
X184000Y375966D01*
X185372Y376101D01*
X186692Y376501D01*
X187908Y377151D01*
X188619Y377735D01*
X189000Y378008D01*
X189381Y377735D01*
X190092Y377151D01*
X191308Y376501D01*
X192628Y376101D01*
X194000Y375966D01*
X195372Y376101D01*
X196692Y376501D01*
X197908Y377151D01*
X198974Y378026D01*
X199848Y379092D01*
X200043Y379457D01*
X211011D01*
X211181Y378957D01*
X210933Y378767D01*
X210244Y377869D01*
X209811Y376822D01*
X209711Y376064D01*
X210088Y376155D01*
X210445Y376286D01*
X210716Y376441D01*
X210899Y376620D01*
X210996Y376822D01*
X211006Y377048D01*
X211363Y374500D01*
X214000D01*
Y373500D01*
X211503D01*
X212039Y369671D01*
X211959Y369897D01*
X211785Y370098D01*
X211516Y370276D01*
X211153Y370431D01*
X210696Y370561D01*
X210145Y370668D01*
X210015Y370685D01*
X210244Y370131D01*
X210933Y369233D01*
X211831Y368544D01*
X212877Y368111D01*
X213591Y368017D01*
X213457Y367000D01*
Y366389D01*
X213455Y366345D01*
X213435Y366179D01*
X213405Y366030D01*
X213363Y365889D01*
X213309Y365750D01*
X213239Y365607D01*
X213148Y365455D01*
X213031Y365289D01*
X212882Y365110D01*
X212606Y364820D01*
X212478Y364646D01*
X212092Y364259D01*
X211189Y362908D01*
X210567Y361406D01*
X210250Y359813D01*
Y358187D01*
X210567Y356594D01*
X211189Y355092D01*
X212092Y353741D01*
X213241Y352592D01*
X214592Y351689D01*
X216094Y351067D01*
X217687Y350750D01*
X219313D01*
X220906Y351067D01*
X222408Y351689D01*
X223759Y352592D01*
X224250Y353083D01*
X224741Y352592D01*
X226092Y351689D01*
X227594Y351067D01*
X229187Y350750D01*
X230813D01*
X232406Y351067D01*
X233908Y351689D01*
X235259Y352592D01*
X236408Y353741D01*
X237311Y355092D01*
X237933Y356594D01*
X238250Y358187D01*
Y359813D01*
X237933Y361406D01*
X237311Y362908D01*
X236408Y364259D01*
X236022Y364646D01*
X235952Y364741D01*
X235988Y365029D01*
X236115Y365313D01*
X236807Y365523D01*
X238075Y366201D01*
X239187Y367113D01*
X240099Y368225D01*
X240777Y369493D01*
X241194Y370869D01*
X241335Y372300D01*
Y375700D01*
X241194Y377131D01*
X240777Y378507D01*
X240498Y379028D01*
X240756Y379457D01*
X252011D01*
X252181Y378957D01*
X251933Y378767D01*
X251244Y377869D01*
X250957Y377176D01*
X251028Y377201D01*
X251607Y377454D01*
X252156Y377746D01*
X252675Y378077D01*
X253164Y378447D01*
Y374500D01*
X255000D01*
Y373500D01*
X253164D01*
Y369553D01*
X252675Y369923D01*
X252156Y370254D01*
X251607Y370546D01*
X251028Y370799D01*
X250957Y370824D01*
X251244Y370131D01*
X251933Y369233D01*
X252831Y368544D01*
X253877Y368111D01*
X255000Y367963D01*
X255081Y367974D01*
X255457Y367644D01*
Y366389D01*
X255455Y366345D01*
X255435Y366179D01*
X255405Y366030D01*
X255363Y365889D01*
X255309Y365750D01*
X255239Y365607D01*
X255148Y365455D01*
X255031Y365289D01*
X254882Y365110D01*
X254606Y364820D01*
X254478Y364646D01*
X254092Y364259D01*
X253189Y362908D01*
X252567Y361406D01*
X252250Y359813D01*
Y358187D01*
X252567Y356594D01*
X253189Y355092D01*
X254092Y353741D01*
X255241Y352592D01*
X256592Y351689D01*
X258094Y351067D01*
X259687Y350750D01*
X261313D01*
X262906Y351067D01*
X264408Y351689D01*
X265759Y352592D01*
X266250Y353083D01*
X266741Y352592D01*
X268092Y351689D01*
X269594Y351067D01*
X271187Y350750D01*
X272813D01*
X274406Y351067D01*
X275908Y351689D01*
X277259Y352592D01*
X278408Y353741D01*
X279311Y355092D01*
X279933Y356594D01*
X280250Y358187D01*
Y359813D01*
X279933Y361406D01*
X279311Y362908D01*
X278659Y363884D01*
X279367Y364807D01*
X279871Y366023D01*
X279994Y366955D01*
X280187Y367113D01*
X281099Y368225D01*
X281777Y369493D01*
X282194Y370869D01*
X282335Y372300D01*
Y375700D01*
X282194Y377131D01*
X281777Y378507D01*
X281499Y379028D01*
X281756Y379457D01*
X295011D01*
X295181Y378957D01*
X294933Y378767D01*
X294244Y377869D01*
X293961Y377185D01*
X294008Y377201D01*
X294596Y377454D01*
X295151Y377746D01*
X295674Y378077D01*
X296164Y378447D01*
Y374500D01*
X298000D01*
Y373500D01*
X296164D01*
Y369553D01*
X295674Y369923D01*
X295151Y370254D01*
X294596Y370546D01*
X294008Y370799D01*
X293961Y370815D01*
X294244Y370131D01*
X294933Y369233D01*
X295831Y368544D01*
X296878Y368111D01*
X297526Y368025D01*
X297457Y367500D01*
Y366389D01*
X297455Y366345D01*
X297435Y366179D01*
X297405Y366030D01*
X297363Y365889D01*
X297309Y365750D01*
X297239Y365607D01*
X297148Y365455D01*
X297031Y365289D01*
X296882Y365110D01*
X296606Y364820D01*
X296478Y364646D01*
X296092Y364259D01*
X295189Y362908D01*
X294567Y361406D01*
X294250Y359813D01*
Y358187D01*
X294567Y356594D01*
X295189Y355092D01*
X296092Y353741D01*
X297241Y352592D01*
X298592Y351689D01*
X300094Y351067D01*
X301687Y350750D01*
X303313D01*
X304906Y351067D01*
X306408Y351689D01*
X307759Y352592D01*
X308250Y353083D01*
X308741Y352592D01*
X310092Y351689D01*
X311594Y351067D01*
X313187Y350750D01*
X314813D01*
X316406Y351067D01*
X317908Y351689D01*
X319259Y352592D01*
X320408Y353741D01*
X321311Y355092D01*
X321933Y356594D01*
X322250Y358187D01*
Y359813D01*
X321933Y361406D01*
X321311Y362908D01*
X320408Y364259D01*
X320022Y364646D01*
X319952Y364741D01*
X319988Y365029D01*
X320115Y365313D01*
X320807Y365523D01*
X322075Y366201D01*
X323187Y367113D01*
X324099Y368225D01*
X324777Y369493D01*
X325194Y370869D01*
X325335Y372300D01*
Y375700D01*
X325194Y377131D01*
X324777Y378507D01*
X324499Y379028D01*
X324756Y379457D01*
X335011D01*
X335181Y378957D01*
X334933Y378767D01*
X334244Y377869D01*
X333961Y377185D01*
X334008Y377201D01*
X334596Y377454D01*
X335151Y377746D01*
X335674Y378077D01*
X336164Y378447D01*
Y374500D01*
X338000D01*
Y373500D01*
X336164D01*
Y369553D01*
X335674Y369923D01*
X335151Y370254D01*
X334596Y370546D01*
X334008Y370799D01*
X333961Y370815D01*
X334244Y370131D01*
X334933Y369233D01*
X335831Y368544D01*
X336877Y368111D01*
X338000Y367963D01*
X338457Y367519D01*
Y366389D01*
X338455Y366345D01*
X338435Y366179D01*
X338405Y366030D01*
X338363Y365889D01*
X338309Y365750D01*
X338239Y365607D01*
X338148Y365455D01*
X338031Y365289D01*
X337882Y365110D01*
X337606Y364820D01*
X337478Y364646D01*
X337092Y364259D01*
X336189Y362908D01*
X335567Y361406D01*
X335250Y359813D01*
Y358187D01*
X335567Y356594D01*
X336189Y355092D01*
X337092Y353741D01*
X338241Y352592D01*
X339592Y351689D01*
X341094Y351067D01*
X342687Y350750D01*
X344313D01*
X345906Y351067D01*
X347408Y351689D01*
X348759Y352592D01*
X349250Y353083D01*
X349741Y352592D01*
X351092Y351689D01*
X352594Y351067D01*
X354187Y350750D01*
X355813D01*
X357406Y351067D01*
X358908Y351689D01*
X360259Y352592D01*
X361408Y353741D01*
X362311Y355092D01*
X362933Y356594D01*
X363250Y358187D01*
Y359813D01*
X362933Y361406D01*
X362311Y362908D01*
X361408Y364259D01*
X361022Y364646D01*
X360894Y364820D01*
X360741Y364981D01*
X360793Y365405D01*
X360889Y365567D01*
X362075Y366201D01*
X363187Y367113D01*
X364099Y368225D01*
X364777Y369493D01*
X365194Y370869D01*
X365335Y372300D01*
Y375700D01*
X365194Y377131D01*
X364777Y378507D01*
X364498Y379028D01*
X364756Y379457D01*
X450063D01*
Y373667D01*
X449569Y373065D01*
X448966Y371936D01*
X448594Y370711D01*
X448468Y369437D01*
Y363731D01*
X448466Y363579D01*
X448468Y363557D01*
Y363535D01*
X448465Y363512D01*
X448468Y363489D01*
Y347531D01*
X421104D01*
X421094Y347533D01*
X420267Y347555D01*
X420000Y347578D01*
Y350000D01*
X416159D01*
X415988Y350023D01*
X415817Y350000D01*
X415569D01*
X415564Y350000D01*
X415563Y350000D01*
X396000D01*
Y332000D01*
X402522D01*
X402538Y331332D01*
X402569Y331134D01*
X402665Y330155D01*
X403037Y328929D01*
X403640Y327800D01*
X404453Y326811D01*
X406459Y324804D01*
X406404Y323053D01*
X405898Y322852D01*
X405750Y323000D01*
X405401D01*
X405465Y322154D01*
X405544Y321796D01*
X405637Y321523D01*
X405745Y321335D01*
X405867Y321231D01*
X406004Y321212D01*
X404000Y320888D01*
Y317500D01*
X403000D01*
Y320726D01*
X400012Y320244D01*
X400064Y320343D01*
X400110Y320530D01*
X400151Y320806D01*
X400217Y321623D01*
X400251Y322999D01*
X397250Y326000D01*
X389750D01*
X386293Y322543D01*
X383000D01*
X381695Y322371D01*
X380543Y321894D01*
X380043Y322085D01*
Y330000D01*
X380043Y330000D01*
X379871Y331305D01*
X379367Y332522D01*
X378566Y333566D01*
X370066Y342066D01*
X369022Y342867D01*
X367805Y343371D01*
X366500Y343543D01*
X296672D01*
X296672Y343543D01*
X296672Y343543D01*
X256000D01*
X256000Y343543D01*
X254695Y343371D01*
X253478Y342867D01*
X252434Y342066D01*
X243934Y333566D01*
X243132Y332522D01*
X242629Y331305D01*
X242457Y330000D01*
Y320589D01*
X241411Y319543D01*
X239490D01*
X239099Y320275D01*
X238187Y321387D01*
X237075Y322299D01*
X236162Y322787D01*
X236070Y323403D01*
X236408Y323741D01*
X237311Y325092D01*
X237933Y326594D01*
X238250Y328187D01*
Y329813D01*
X237933Y331406D01*
X237311Y332908D01*
X236408Y334259D01*
X235259Y335408D01*
X233908Y336311D01*
X232406Y336933D01*
X230813Y337250D01*
X229187D01*
X227594Y336933D01*
X226092Y336311D01*
X224741Y335408D01*
X224250Y334917D01*
X223759Y335408D01*
X222408Y336311D01*
X220906Y336933D01*
X219313Y337250D01*
X217687D01*
X216094Y336933D01*
X214592Y336311D01*
X213241Y335408D01*
X212092Y334259D01*
X211189Y332908D01*
X210567Y331406D01*
X210250Y329813D01*
Y328513D01*
X210240Y328382D01*
X210250Y328202D01*
Y328187D01*
X210251Y328182D01*
X210260Y328018D01*
X210256Y327844D01*
X210240Y327702D01*
X210216Y327586D01*
X210186Y327486D01*
X210148Y327392D01*
X210098Y327297D01*
X210030Y327192D01*
X209937Y327072D01*
X209904Y327036D01*
X209434Y326566D01*
X208632Y325522D01*
X208129Y324305D01*
X207957Y323000D01*
Y321505D01*
X207813Y321387D01*
X206901Y320275D01*
X206223Y319007D01*
X205806Y317631D01*
X205665Y316200D01*
Y312800D01*
X205806Y311369D01*
X206223Y309993D01*
X206901Y308725D01*
X207813Y307613D01*
X208925Y306701D01*
X210193Y306023D01*
X211569Y305606D01*
X213000Y305465D01*
X214431Y305606D01*
X215807Y306023D01*
X217075Y306701D01*
X217505Y307053D01*
X217957Y306840D01*
Y304000D01*
X218129Y302695D01*
X218633Y301478D01*
X219434Y300434D01*
X220363Y299505D01*
X220171Y299043D01*
X203589D01*
X201449Y301183D01*
X201469Y301211D01*
X201618Y301390D01*
X201894Y301680D01*
X202022Y301854D01*
X202408Y302241D01*
X203311Y303592D01*
X203933Y305094D01*
X204250Y306687D01*
Y308313D01*
X203933Y309906D01*
X203311Y311408D01*
X202408Y312759D01*
X201259Y313908D01*
X199908Y314811D01*
X198406Y315433D01*
X196812Y315750D01*
X195187D01*
X193594Y315433D01*
X192092Y314811D01*
X190741Y313908D01*
X190179Y313346D01*
X189616Y313908D01*
X188265Y314811D01*
X186764Y315433D01*
X185170Y315750D01*
X183545D01*
X181951Y315433D01*
X180449Y314811D01*
X179098Y313908D01*
X178536Y313346D01*
X177973Y313908D01*
X176622Y314811D01*
X175121Y315433D01*
X173527Y315750D01*
X171902D01*
X170308Y315433D01*
X168806Y314811D01*
X167455Y313908D01*
X166893Y313346D01*
X166331Y313908D01*
X164979Y314811D01*
X163478Y315433D01*
X161884Y315750D01*
X160259D01*
X158665Y315433D01*
X157164Y314811D01*
X155812Y313908D01*
X155250Y313346D01*
X154688Y313908D01*
X153336Y314811D01*
X151835Y315433D01*
X150241Y315750D01*
X148616D01*
X147022Y315433D01*
X145521Y314811D01*
X144169Y313908D01*
X143607Y313346D01*
X143045Y313908D01*
X141693Y314811D01*
X140192Y315433D01*
X138598Y315750D01*
X136973D01*
X135379Y315433D01*
X133878Y314811D01*
X132527Y313908D01*
X131964Y313346D01*
X131402Y313908D01*
X130051Y314811D01*
X128549Y315433D01*
X126955Y315750D01*
X125330D01*
X123736Y315433D01*
X122235Y314811D01*
X120884Y313908D01*
X120321Y313346D01*
X119759Y313908D01*
X118408Y314811D01*
X116906Y315433D01*
X115313Y315750D01*
X113687D01*
X112094Y315433D01*
X110592Y314811D01*
X109543Y314110D01*
X109043Y314377D01*
Y330623D01*
X109543Y330890D01*
X110592Y330189D01*
X112094Y329567D01*
X113687Y329250D01*
X115313D01*
X116906Y329567D01*
X118408Y330189D01*
X119759Y331092D01*
X120321Y331654D01*
X120884Y331092D01*
X122235Y330189D01*
X123736Y329567D01*
X125330Y329250D01*
X126955D01*
X128549Y329567D01*
X130051Y330189D01*
X131402Y331092D01*
X131964Y331654D01*
X132527Y331092D01*
X133878Y330189D01*
X135379Y329567D01*
X136973Y329250D01*
X138598D01*
X140192Y329567D01*
X141693Y330189D01*
X143045Y331092D01*
X143607Y331654D01*
X144169Y331092D01*
X145521Y330189D01*
X147022Y329567D01*
X148616Y329250D01*
X150241D01*
X151835Y329567D01*
X153336Y330189D01*
X154688Y331092D01*
X155250Y331654D01*
X155812Y331092D01*
X157164Y330189D01*
X158665Y329567D01*
X160259Y329250D01*
X161884D01*
X163478Y329567D01*
X164979Y330189D01*
X166331Y331092D01*
X166893Y331654D01*
X167455Y331092D01*
X168806Y330189D01*
X170308Y329567D01*
X171902Y329250D01*
X173527D01*
X175121Y329567D01*
X176622Y330189D01*
X177973Y331092D01*
X178536Y331654D01*
X179098Y331092D01*
X180449Y330189D01*
X181951Y329567D01*
X183545Y329250D01*
X185170D01*
X186764Y329567D01*
X188265Y330189D01*
X189616Y331092D01*
X190179Y331654D01*
X190741Y331092D01*
X192092Y330189D01*
X193594Y329567D01*
X195187Y329250D01*
X196812D01*
X198406Y329567D01*
X199908Y330189D01*
X201259Y331092D01*
X202408Y332241D01*
X203311Y333592D01*
X203933Y335094D01*
X204250Y336687D01*
Y338313D01*
X203933Y339906D01*
X203311Y341408D01*
X202408Y342759D01*
X201830Y343337D01*
X201697Y343511D01*
X201678Y343526D01*
X201663Y343544D01*
X201435Y343767D01*
X201348Y343868D01*
X201280Y343962D01*
X201225Y344054D01*
X201178Y344153D01*
X201136Y344266D01*
X201098Y344401D01*
X201067Y344565D01*
X201045Y344764D01*
X201043Y344825D01*
Y345000D01*
X201035Y345064D01*
X201032Y345141D01*
X200997Y345351D01*
X200871Y346305D01*
X200367Y347522D01*
X199566Y348566D01*
X197344Y350788D01*
X197494Y350983D01*
X197714Y351513D01*
X197528Y351461D01*
X196987Y351267D01*
X196498Y351042D01*
X196058Y350788D01*
X195668Y350503D01*
Y354000D01*
X194000D01*
Y354500D01*
X193500D01*
Y359969D01*
X192956Y359897D01*
X191983Y359494D01*
X191147Y358853D01*
X190970Y358621D01*
X190455Y358772D01*
X189848Y359908D01*
X188974Y360974D01*
X187908Y361848D01*
X186692Y362498D01*
X185372Y362899D01*
X184000Y363034D01*
X182628Y362899D01*
X181308Y362498D01*
X180092Y361848D01*
X179381Y361265D01*
X179000Y360993D01*
X178619Y361265D01*
X177908Y361848D01*
X176692Y362498D01*
X175372Y362899D01*
X174000Y363034D01*
X172628Y362899D01*
X171308Y362498D01*
X170092Y361848D01*
X169381Y361265D01*
X169000Y360993D01*
X168619Y361265D01*
X167908Y361848D01*
X166692Y362498D01*
X165372Y362899D01*
X164000Y363034D01*
X162628Y362899D01*
X161308Y362498D01*
X160092Y361848D01*
X159381Y361265D01*
X159000Y360993D01*
X158619Y361265D01*
X157908Y361848D01*
X156692Y362498D01*
X155372Y362899D01*
X154000Y363034D01*
X152628Y362899D01*
X151308Y362498D01*
X150092Y361848D01*
X149381Y361265D01*
X149000Y360993D01*
X148619Y361265D01*
X147908Y361848D01*
X146692Y362498D01*
X145372Y362899D01*
X144000Y363034D01*
X142628Y362899D01*
X141308Y362498D01*
X140092Y361848D01*
X139381Y361265D01*
X139000Y360993D01*
X138619Y361265D01*
X137908Y361848D01*
X136692Y362498D01*
X135372Y362899D01*
X134000Y363034D01*
X133190Y362954D01*
X133068Y363444D01*
X133522Y363632D01*
X134566Y364434D01*
X137566Y367434D01*
X138367Y368478D01*
X138871Y369695D01*
X139043Y371000D01*
Y377428D01*
X139495Y377642D01*
X140092Y377151D01*
X141308Y376501D01*
X142628Y376101D01*
X144000Y375966D01*
X145372Y376101D01*
X146692Y376501D01*
X147908Y377151D01*
X148974Y378026D01*
X149848Y379092D01*
X150455Y380227D01*
X150970Y380379D01*
X151147Y380147D01*
X151493Y379882D01*
X151394Y381343D01*
X151314Y381637D01*
X151226Y381851D01*
X153500D01*
Y384500D01*
X154500D01*
Y381851D01*
D02*
G37*
G36*
X135804Y380759D02*
X135635Y380681D01*
X135486Y380551D01*
X135357Y380368D01*
X135248Y380134D01*
X135159Y379848D01*
X135089Y379509D01*
X135040Y379118D01*
X135010Y378676D01*
X135000Y378181D01*
X133000D01*
X132990Y378676D01*
X132911Y379509D01*
X132841Y379848D01*
X132752Y380134D01*
X132643Y380368D01*
X132514Y380551D01*
X132365Y380681D01*
X132196Y380759D01*
X132008Y380785D01*
X135992D01*
X135804Y380759D01*
D02*
G37*
G36*
X481457Y375239D02*
Y222829D01*
X480995Y222637D01*
X473066Y230566D01*
X472022Y231367D01*
X470805Y231871D01*
X469500Y232043D01*
X451089D01*
X441543Y241589D01*
Y255111D01*
X441545Y255155D01*
X441565Y255321D01*
X441595Y255470D01*
X441637Y255611D01*
X441691Y255750D01*
X441761Y255893D01*
X441852Y256045D01*
X441969Y256211D01*
X442118Y256390D01*
X442394Y256680D01*
X442522Y256854D01*
X442908Y257241D01*
X443811Y258592D01*
X444433Y260094D01*
X444584Y260853D01*
X444666Y261106D01*
X444752Y261574D01*
X444832Y261911D01*
X444922Y262215D01*
X445019Y262486D01*
X445123Y262727D01*
X445232Y262940D01*
X445345Y263130D01*
X445463Y263300D01*
X445587Y263453D01*
X445604Y263472D01*
X446589Y264457D01*
X448065D01*
X448714Y264432D01*
X448749Y264425D01*
X448827Y264405D01*
X448886Y264384D01*
X448932Y264364D01*
X448973Y264341D01*
X449014Y264314D01*
X449061Y264276D01*
X449234Y264114D01*
X449399Y263995D01*
X449719Y263674D01*
X450947Y262854D01*
X452312Y262288D01*
X453761Y262000D01*
X455239D01*
X456688Y262288D01*
X458053Y262854D01*
X459281Y263674D01*
X460326Y264719D01*
X461146Y265947D01*
X461712Y267312D01*
X461887Y268191D01*
X462618Y268923D01*
X463431Y269913D01*
X464034Y271042D01*
X464406Y272267D01*
X464532Y273541D01*
Y293950D01*
X464534Y293970D01*
X464543Y294841D01*
X464551Y295000D01*
X465500D01*
Y298837D01*
X465522Y299006D01*
X465522Y299009D01*
X465522Y299012D01*
X465500Y299183D01*
Y313000D01*
X454937D01*
X454936Y313000D01*
X454931Y313000D01*
X454683D01*
X454512Y313022D01*
X454341Y313000D01*
X450500D01*
Y310578D01*
X450233Y310555D01*
X449406Y310533D01*
X449396Y310531D01*
X433205D01*
X432118Y311618D01*
X431129Y312431D01*
X429999Y313034D01*
X428774Y313406D01*
X427500Y313531D01*
X421000D01*
Y319874D01*
X421009Y319917D01*
X421001Y320081D01*
X421023Y320244D01*
X421000Y320415D01*
Y322250D01*
X419832Y323418D01*
X419805Y323518D01*
X419719Y323958D01*
X419649Y324464D01*
X419547Y325938D01*
X419534Y326794D01*
X419531Y326812D01*
Y327500D01*
X419406Y328774D01*
X419034Y329999D01*
X418431Y331129D01*
X418087Y331548D01*
X418300Y332000D01*
X420000D01*
Y334422D01*
X420267Y334445D01*
X421094Y334467D01*
X421104Y334469D01*
X449008D01*
X449174Y334219D01*
X450219Y333174D01*
X451447Y332354D01*
X452812Y331788D01*
X454261Y331500D01*
X455739D01*
X457188Y331788D01*
X458553Y332354D01*
X459781Y333174D01*
X460826Y334219D01*
X461646Y335447D01*
X462212Y336812D01*
X462500Y338261D01*
Y339739D01*
X462212Y341188D01*
X461646Y342553D01*
X461531Y342725D01*
Y363395D01*
X461533Y363406D01*
X461555Y364231D01*
X461579Y364500D01*
X465063D01*
Y379457D01*
X470258D01*
X470357Y378957D01*
X470294Y378931D01*
X469354Y378209D01*
X468633Y377269D01*
X468179Y376175D01*
X468024Y375000D01*
Y374000D01*
X477102D01*
Y375000D01*
X476947Y376175D01*
X476494Y377269D01*
X475773Y378209D01*
X474833Y378931D01*
X474770Y378957D01*
X474869Y379457D01*
X477240D01*
X481457Y375239D01*
D02*
G37*
G36*
X316296Y369496D02*
X316225Y369593D01*
X316135Y369654D01*
X316024Y369676D01*
X315895Y369662D01*
X315746Y369610D01*
X315577Y369521D01*
X315389Y369395D01*
X315181Y369232D01*
X314954Y369031D01*
X314707Y368793D01*
X313344Y370258D01*
X313658Y370581D01*
X314363Y371417D01*
X314519Y371653D01*
X314636Y371866D01*
X314713Y372058D01*
X314751Y372227D01*
X314749Y372375D01*
X314708Y372501D01*
X316296Y369496D01*
D02*
G37*
G36*
X263637Y369314D02*
X263528Y369472D01*
X263392Y369576D01*
X263230Y369626D01*
X263043Y369621D01*
X262829Y369562D01*
X262589Y369449D01*
X262322Y369281D01*
X262030Y369060D01*
X261712Y368783D01*
X261367Y368453D01*
X260344Y370258D01*
X260689Y370618D01*
X261241Y371281D01*
X261447Y371586D01*
X261607Y371872D01*
X261720Y372139D01*
X261787Y372388D01*
X261807Y372619D01*
X261781Y372831D01*
X261708Y373025D01*
X263637Y369314D01*
D02*
G37*
G36*
X232899Y369211D02*
X232784Y369337D01*
X232645Y369415D01*
X232484Y369445D01*
X232299Y369426D01*
X232091Y369358D01*
X231860Y369242D01*
X231607Y369078D01*
X231330Y368865D01*
X231030Y368603D01*
X230707Y368293D01*
X229457Y369872D01*
X229788Y370215D01*
X230313Y370841D01*
X230506Y371124D01*
X230654Y371386D01*
X230757Y371628D01*
X230813Y371850D01*
X230824Y372051D01*
X230789Y372232D01*
X230708Y372393D01*
X232899Y369211D01*
D02*
G37*
G36*
X307000Y369180D02*
X306874Y369321D01*
X306723Y369409D01*
X306548Y369445D01*
X306348Y369428D01*
X306125Y369359D01*
X305877Y369238D01*
X305605Y369064D01*
X305308Y368837D01*
X304987Y368559D01*
X304642Y368228D01*
X303457Y369872D01*
X303798Y370226D01*
X304335Y370875D01*
X304532Y371170D01*
X304680Y371445D01*
X304782Y371701D01*
X304835Y371936D01*
X304840Y372152D01*
X304798Y372348D01*
X304708Y372524D01*
X307000Y369180D01*
D02*
G37*
G36*
X347386Y369069D02*
X347243Y369192D01*
X347077Y369265D01*
X346889Y369287D01*
X346679Y369259D01*
X346446Y369181D01*
X346191Y369052D01*
X345914Y368873D01*
X345614Y368644D01*
X345292Y368364D01*
X344948Y368033D01*
X343594Y369508D01*
X343929Y369858D01*
X344452Y370493D01*
X344640Y370779D01*
X344778Y371043D01*
X344868Y371287D01*
X344908Y371510D01*
X344899Y371711D01*
X344840Y371891D01*
X344733Y372050D01*
X347386Y369069D01*
D02*
G37*
G36*
X223386D02*
X223243Y369192D01*
X223077Y369265D01*
X222889Y369287D01*
X222679Y369259D01*
X222446Y369181D01*
X222191Y369052D01*
X221914Y368873D01*
X221614Y368644D01*
X221292Y368364D01*
X220948Y368033D01*
X219594Y369508D01*
X219929Y369858D01*
X220452Y370493D01*
X220640Y370779D01*
X220778Y371043D01*
X220868Y371287D01*
X220908Y371510D01*
X220899Y371711D01*
X220840Y371891D01*
X220733Y372050D01*
X223386Y369069D01*
D02*
G37*
G36*
X358645Y369060D02*
X358373Y369021D01*
X358103Y368960D01*
X357835Y368876D01*
X357568Y368768D01*
X357303Y368638D01*
X357039Y368484D01*
X356777Y368308D01*
X356516Y368108D01*
X356257Y367885D01*
X355999Y367640D01*
X354293Y368762D01*
X354598Y369081D01*
X355056Y369646D01*
X355208Y369893D01*
X355310Y370115D01*
X355360Y370313D01*
X355359Y370487D01*
X355308Y370638D01*
X355205Y370764D01*
X355052Y370866D01*
X358645Y369060D01*
D02*
G37*
G36*
X276536Y369452D02*
X276424Y369388D01*
X276324Y369281D01*
X276238Y369130D01*
X276166Y368937D01*
X276106Y368701D01*
X276060Y368423D01*
X276027Y368101D01*
X276000Y367328D01*
X274000D01*
X273993Y367736D01*
X273940Y368423D01*
X273894Y368701D01*
X273834Y368937D01*
X273762Y369130D01*
X273676Y369281D01*
X273576Y369388D01*
X273464Y369452D01*
X273338Y369474D01*
X276662D01*
X276536Y369452D01*
D02*
G37*
G36*
X459525Y368462D02*
X459100Y368312D01*
X458725Y368062D01*
X458400Y367712D01*
X458125Y367262D01*
X457900Y366712D01*
X457725Y366062D01*
X457600Y365312D01*
X457525Y364462D01*
X457500Y363512D01*
X452500D01*
X452516Y364462D01*
X452642Y366062D01*
X452752Y366712D01*
X452894Y367262D01*
X453067Y367712D01*
X453272Y368062D01*
X453508Y368312D01*
X453776Y368462D01*
X454075Y368512D01*
X460000D01*
X459525Y368462D01*
D02*
G37*
G36*
X118151Y379092D02*
X119026Y378026D01*
X120092Y377151D01*
X121308Y376501D01*
X122628Y376101D01*
X124000Y375966D01*
X125372Y376101D01*
X126692Y376501D01*
X127908Y377151D01*
X128505Y377642D01*
X128957Y377428D01*
Y373089D01*
X128911Y373043D01*
X120000D01*
X118695Y372871D01*
X117478Y372368D01*
X116434Y371566D01*
X110934Y366066D01*
X110133Y365022D01*
X109629Y363805D01*
X109543Y363155D01*
X109043Y363188D01*
Y377411D01*
X111089Y379457D01*
X117957D01*
X118151Y379092D01*
D02*
G37*
G36*
X356020Y366025D02*
X356079Y365532D01*
X356178Y365051D01*
X356316Y364583D01*
X356494Y364127D01*
X356711Y363684D01*
X356968Y363253D01*
X357264Y362834D01*
X357600Y362428D01*
X357975Y362035D01*
X352025D01*
X352400Y362428D01*
X352736Y362834D01*
X353032Y363253D01*
X353289Y363684D01*
X353506Y364127D01*
X353684Y364583D01*
X353822Y365051D01*
X353921Y365532D01*
X353980Y366025D01*
X354000Y366531D01*
X356000D01*
X356020Y366025D01*
D02*
G37*
G36*
X344520D02*
X344579Y365532D01*
X344678Y365051D01*
X344816Y364583D01*
X344994Y364127D01*
X345211Y363684D01*
X345468Y363253D01*
X345764Y362834D01*
X346100Y362428D01*
X346475Y362035D01*
X340525D01*
X340900Y362428D01*
X341236Y362834D01*
X341532Y363253D01*
X341789Y363684D01*
X342006Y364127D01*
X342184Y364583D01*
X342322Y365051D01*
X342421Y365532D01*
X342480Y366025D01*
X342500Y366531D01*
X344500D01*
X344520Y366025D01*
D02*
G37*
G36*
X315020D02*
X315079Y365532D01*
X315178Y365051D01*
X315316Y364583D01*
X315494Y364127D01*
X315711Y363684D01*
X315968Y363253D01*
X316264Y362834D01*
X316600Y362428D01*
X316975Y362035D01*
X311025D01*
X311400Y362428D01*
X311736Y362834D01*
X312032Y363253D01*
X312289Y363684D01*
X312506Y364127D01*
X312684Y364583D01*
X312822Y365051D01*
X312921Y365532D01*
X312980Y366025D01*
X313000Y366531D01*
X315000D01*
X315020Y366025D01*
D02*
G37*
G36*
X303520D02*
X303579Y365532D01*
X303678Y365051D01*
X303816Y364583D01*
X303994Y364127D01*
X304211Y363684D01*
X304468Y363253D01*
X304764Y362834D01*
X305100Y362428D01*
X305475Y362035D01*
X299525D01*
X299900Y362428D01*
X300236Y362834D01*
X300532Y363253D01*
X300789Y363684D01*
X301006Y364127D01*
X301184Y364583D01*
X301322Y365051D01*
X301421Y365532D01*
X301480Y366025D01*
X301500Y366531D01*
X303500D01*
X303520Y366025D01*
D02*
G37*
G36*
X261520D02*
X261579Y365532D01*
X261678Y365051D01*
X261816Y364583D01*
X261994Y364127D01*
X262211Y363684D01*
X262468Y363253D01*
X262764Y362834D01*
X263100Y362428D01*
X263475Y362035D01*
X257525D01*
X257900Y362428D01*
X258236Y362834D01*
X258532Y363253D01*
X258789Y363684D01*
X259006Y364127D01*
X259184Y364583D01*
X259322Y365051D01*
X259421Y365532D01*
X259480Y366025D01*
X259500Y366531D01*
X261500D01*
X261520Y366025D01*
D02*
G37*
G36*
X231020D02*
X231079Y365532D01*
X231178Y365051D01*
X231316Y364583D01*
X231494Y364127D01*
X231711Y363684D01*
X231968Y363253D01*
X232264Y362834D01*
X232600Y362428D01*
X232975Y362035D01*
X227025D01*
X227400Y362428D01*
X227736Y362834D01*
X228032Y363253D01*
X228289Y363684D01*
X228506Y364127D01*
X228684Y364583D01*
X228822Y365051D01*
X228921Y365532D01*
X228980Y366025D01*
X229000Y366531D01*
X231000D01*
X231020Y366025D01*
D02*
G37*
G36*
X219520D02*
X219579Y365532D01*
X219678Y365051D01*
X219816Y364583D01*
X219994Y364127D01*
X220211Y363684D01*
X220468Y363253D01*
X220764Y362834D01*
X221100Y362428D01*
X221475Y362035D01*
X215525D01*
X215900Y362428D01*
X216236Y362834D01*
X216532Y363253D01*
X216789Y363684D01*
X217006Y364127D01*
X217184Y364583D01*
X217322Y365051D01*
X217421Y365532D01*
X217480Y366025D01*
X217500Y366531D01*
X219500D01*
X219520Y366025D01*
D02*
G37*
G36*
X135398Y350404D02*
X135315Y350346D01*
X135241Y350250D01*
X135177Y350115D01*
X135123Y349942D01*
X135079Y349731D01*
X135044Y349481D01*
X135005Y348865D01*
X135000Y348500D01*
X133000D01*
X132995Y348865D01*
X132921Y349731D01*
X132877Y349942D01*
X132823Y350115D01*
X132759Y350250D01*
X132685Y350346D01*
X132602Y350404D01*
X132508Y350423D01*
X135492D01*
X135398Y350404D01*
D02*
G37*
G36*
X175663Y350618D02*
X175524Y350544D01*
X175401Y350421D01*
X175295Y350249D01*
X175205Y350027D01*
X175131Y349756D01*
X175074Y349436D01*
X175033Y349067D01*
X175000Y348181D01*
X173000D01*
X172992Y348649D01*
X172926Y349436D01*
X172869Y349756D01*
X172795Y350027D01*
X172705Y350249D01*
X172599Y350421D01*
X172476Y350544D01*
X172337Y350618D01*
X172182Y350642D01*
X175818D01*
X175663Y350618D01*
D02*
G37*
G36*
X155804Y350759D02*
X155635Y350681D01*
X155486Y350551D01*
X155357Y350368D01*
X155248Y350134D01*
X155159Y349848D01*
X155089Y349509D01*
X155040Y349118D01*
X155010Y348676D01*
X155000Y348181D01*
X153000D01*
X152990Y348676D01*
X152911Y349509D01*
X152841Y349848D01*
X152752Y350134D01*
X152643Y350368D01*
X152514Y350551D01*
X152365Y350681D01*
X152196Y350759D01*
X152008Y350785D01*
X155992D01*
X155804Y350759D01*
D02*
G37*
G36*
X145804D02*
X145635Y350681D01*
X145486Y350551D01*
X145357Y350368D01*
X145248Y350134D01*
X145159Y349848D01*
X145089Y349509D01*
X145040Y349118D01*
X145010Y348676D01*
X145000Y348181D01*
X143000D01*
X142990Y348676D01*
X142911Y349509D01*
X142841Y349848D01*
X142752Y350134D01*
X142643Y350368D01*
X142514Y350551D01*
X142365Y350681D01*
X142196Y350759D01*
X142008Y350785D01*
X145992D01*
X145804Y350759D01*
D02*
G37*
G36*
X166358Y351144D02*
X166233Y350937D01*
X166124Y350710D01*
X166028Y350465D01*
X165948Y350199D01*
X165882Y349915D01*
X165831Y349611D01*
X165795Y349288D01*
X165765Y348583D01*
X163765Y348021D01*
X163755Y348501D01*
X163676Y349292D01*
X163606Y349603D01*
X163517Y349857D01*
X163407Y350055D01*
X163278Y350197D01*
X163129Y350282D01*
X162960Y350310D01*
X162771Y350283D01*
X166497Y351332D01*
X166358Y351144D01*
D02*
G37*
G36*
X125810Y349992D02*
X125640Y349932D01*
X125490Y349832D01*
X125360Y349692D01*
X125250Y349512D01*
X125160Y349292D01*
X125090Y349032D01*
X125040Y348732D01*
X125010Y348392D01*
X125000Y348012D01*
X123000D01*
X122990Y348392D01*
X122960Y348732D01*
X122910Y349032D01*
X122840Y349292D01*
X122750Y349512D01*
X122640Y349692D01*
X122510Y349832D01*
X122360Y349932D01*
X122190Y349992D01*
X122000Y350012D01*
X126000D01*
X125810Y349992D01*
D02*
G37*
G36*
X77689Y343508D02*
X77664Y343696D01*
X77590Y343865D01*
X77466Y344014D01*
X77294Y344143D01*
X77071Y344252D01*
X76800Y344341D01*
X76479Y344411D01*
X76108Y344460D01*
X75689Y344490D01*
X75219Y344500D01*
Y346500D01*
X75689Y346510D01*
X76479Y346589D01*
X76800Y346659D01*
X77071Y346748D01*
X77294Y346857D01*
X77466Y346986D01*
X77590Y347135D01*
X77664Y347304D01*
X77689Y347492D01*
Y343508D01*
D02*
G37*
G36*
X150439Y343633D02*
X150470Y343229D01*
X150521Y342860D01*
X150594Y342524D01*
X150686Y342223D01*
X150800Y341957D01*
X150934Y341724D01*
X151089Y341526D01*
X151264Y341363D01*
X151460Y341233D01*
X147397D01*
X147593Y341363D01*
X147768Y341526D01*
X147923Y341724D01*
X148057Y341957D01*
X148171Y342223D01*
X148264Y342524D01*
X148336Y342860D01*
X148387Y343229D01*
X148418Y343633D01*
X148428Y344072D01*
X150428D01*
X150439Y343633D01*
D02*
G37*
G36*
X162088Y344244D02*
X162137Y343758D01*
X162218Y343298D01*
X162332Y342866D01*
X162479Y342460D01*
X162659Y342082D01*
X162871Y341730D01*
X163115Y341406D01*
X163393Y341108D01*
X163702Y340838D01*
X158440D01*
X158750Y341108D01*
X159028Y341406D01*
X159272Y341730D01*
X159484Y342082D01*
X159664Y342460D01*
X159810Y342866D01*
X159925Y343298D01*
X160006Y343758D01*
X160055Y344244D01*
X160071Y344757D01*
X162071D01*
X162088Y344244D01*
D02*
G37*
G36*
X138766Y344239D02*
X138815Y343754D01*
X138897Y343298D01*
X139011Y342868D01*
X139158Y342466D01*
X139338Y342091D01*
X139550Y341743D01*
X139795Y341423D01*
X140073Y341130D01*
X140383Y340864D01*
X135133Y340820D01*
X135440Y341092D01*
X135715Y341391D01*
X135958Y341717D01*
X136168Y342069D01*
X136346Y342449D01*
X136491Y342855D01*
X136604Y343289D01*
X136685Y343749D01*
X136734Y344236D01*
X136750Y344750D01*
X138750D01*
X138766Y344239D01*
D02*
G37*
G36*
X127160Y344337D02*
X127212Y343842D01*
X127297Y343372D01*
X127418Y342926D01*
X127573Y342505D01*
X127762Y342108D01*
X127985Y341736D01*
X128243Y341388D01*
X128535Y341065D01*
X128862Y340767D01*
X123424D01*
X123751Y341065D01*
X124043Y341388D01*
X124301Y341736D01*
X124524Y342108D01*
X124713Y342505D01*
X124868Y342926D01*
X124988Y343372D01*
X125074Y343842D01*
X125126Y344337D01*
X125143Y344857D01*
X127143D01*
X127160Y344337D01*
D02*
G37*
G36*
X197018Y344474D02*
X197074Y343968D01*
X197166Y343483D01*
X197295Y343018D01*
X197461Y342574D01*
X197664Y342150D01*
X197903Y341746D01*
X198180Y341363D01*
X198493Y341001D01*
X198844Y340658D01*
X193156D01*
X193507Y341001D01*
X193820Y341363D01*
X194097Y341746D01*
X194336Y342150D01*
X194539Y342574D01*
X194705Y343018D01*
X194834Y343483D01*
X194926Y343968D01*
X194982Y344474D01*
X195000Y345000D01*
X197000D01*
X197018Y344474D01*
D02*
G37*
G36*
X173318Y344251D02*
X173369Y343781D01*
X173455Y343340D01*
X173575Y342928D01*
X173730Y342546D01*
X173919Y342192D01*
X174143Y341868D01*
X174401Y341573D01*
X174693Y341307D01*
X175020Y341070D01*
X169760Y340555D01*
X170053Y340865D01*
X170314Y341200D01*
X170545Y341558D01*
X170746Y341941D01*
X170915Y342349D01*
X171054Y342780D01*
X171162Y343236D01*
X171239Y343717D01*
X171285Y344221D01*
X171300Y344750D01*
X173300D01*
X173318Y344251D01*
D02*
G37*
G36*
X115520Y344525D02*
X115579Y344032D01*
X115678Y343551D01*
X115816Y343083D01*
X115994Y342627D01*
X116211Y342184D01*
X116468Y341753D01*
X116764Y341334D01*
X117100Y340929D01*
X117475Y340535D01*
X111525D01*
X111900Y340929D01*
X112236Y341334D01*
X112532Y341753D01*
X112789Y342184D01*
X113006Y342627D01*
X113184Y343083D01*
X113322Y343551D01*
X113421Y344032D01*
X113480Y344525D01*
X113500Y345031D01*
X115500D01*
X115520Y344525D01*
D02*
G37*
G36*
X184818Y344255D02*
X184871Y343789D01*
X184958Y343353D01*
X185081Y342947D01*
X185239Y342571D01*
X185433Y342225D01*
X185661Y341908D01*
X185924Y341621D01*
X186223Y341364D01*
X186557Y341137D01*
X181288Y340440D01*
X181576Y340767D01*
X181833Y341118D01*
X182059Y341491D01*
X182256Y341887D01*
X182422Y342307D01*
X182558Y342749D01*
X182664Y343215D01*
X182740Y343704D01*
X182785Y344215D01*
X182800Y344750D01*
X184800D01*
X184818Y344255D01*
D02*
G37*
G36*
X336914Y337500D02*
X336520Y337486D01*
X336138Y337443D01*
X335767Y337373D01*
X335408Y337274D01*
X335061Y337146D01*
X334725Y336991D01*
X334401Y336807D01*
X334089Y336595D01*
X333789Y336354D01*
X333500Y336086D01*
X330672D01*
X330920Y336354D01*
X331101Y336595D01*
X331213Y336807D01*
X331257Y336991D01*
X331232Y337146D01*
X331139Y337274D01*
X330978Y337373D01*
X330749Y337443D01*
X330452Y337486D01*
X330086Y337500D01*
X334500Y339500D01*
X336914Y337500D01*
D02*
G37*
G36*
X299086D02*
X298692Y337486D01*
X298309Y337443D01*
X297938Y337373D01*
X297580Y337274D01*
X297232Y337146D01*
X296897Y336991D01*
X296573Y336807D01*
X296261Y336595D01*
X295960Y336354D01*
X295672Y336086D01*
X292843D01*
X293092Y336354D01*
X293272Y336595D01*
X293384Y336807D01*
X293428Y336991D01*
X293404Y337146D01*
X293311Y337274D01*
X293150Y337373D01*
X292921Y337443D01*
X292623Y337486D01*
X292257Y337500D01*
X296672Y339500D01*
X299086Y337500D01*
D02*
G37*
G36*
X416038Y345515D02*
X416188Y345092D01*
X416438Y344719D01*
X416788Y344396D01*
X417238Y344122D01*
X417788Y343898D01*
X418438Y343724D01*
X419188Y343600D01*
X420038Y343525D01*
X420988Y343500D01*
Y338500D01*
X420038Y338475D01*
X419188Y338401D01*
X418438Y338276D01*
X417788Y338102D01*
X417238Y337878D01*
X416788Y337604D01*
X416438Y337281D01*
X416188Y336908D01*
X416038Y336485D01*
X415988Y336012D01*
Y345988D01*
X416038Y345515D01*
D02*
G37*
G36*
X77689Y333508D02*
X77664Y333696D01*
X77590Y333865D01*
X77466Y334014D01*
X77294Y334143D01*
X77071Y334252D01*
X76800Y334341D01*
X76479Y334411D01*
X76108Y334460D01*
X75689Y334490D01*
X75219Y334500D01*
Y336500D01*
X75689Y336510D01*
X76479Y336589D01*
X76800Y336659D01*
X77071Y336748D01*
X77294Y336857D01*
X77466Y336986D01*
X77590Y337135D01*
X77664Y337304D01*
X77689Y337492D01*
Y333508D01*
D02*
G37*
G36*
X413258Y335966D02*
X412904Y335829D01*
X412592Y335599D01*
X412321Y335279D01*
X412092Y334866D01*
X411904Y334362D01*
X411759Y333766D01*
X411654Y333079D01*
X411592Y332300D01*
X411571Y331429D01*
X406571D01*
X406550Y332300D01*
X406488Y333079D01*
X406384Y333766D01*
X406238Y334362D01*
X406050Y334866D01*
X405821Y335279D01*
X405550Y335599D01*
X405238Y335829D01*
X404884Y335966D01*
X404488Y336012D01*
X413654D01*
X413258Y335966D01*
D02*
G37*
G36*
X77689Y323508D02*
X77664Y323696D01*
X77590Y323865D01*
X77466Y324014D01*
X77294Y324143D01*
X77071Y324252D01*
X76800Y324341D01*
X76479Y324411D01*
X76108Y324460D01*
X75689Y324490D01*
X75219Y324500D01*
Y326500D01*
X75689Y326510D01*
X76479Y326589D01*
X76800Y326659D01*
X77071Y326748D01*
X77294Y326857D01*
X77466Y326986D01*
X77590Y327135D01*
X77664Y327304D01*
X77689Y327492D01*
Y323508D01*
D02*
G37*
G36*
X218811Y324761D02*
X218253Y324704D01*
X217717Y324616D01*
X217202Y324496D01*
X216709Y324346D01*
X216237Y324164D01*
X215787Y323952D01*
X215359Y323708D01*
X214952Y323433D01*
X214568Y323127D01*
X214204Y322790D01*
X212668Y324083D01*
X213018Y324461D01*
X213324Y324855D01*
X213590Y325267D01*
X213812Y325694D01*
X213993Y326138D01*
X214132Y326598D01*
X214229Y327075D01*
X214284Y327568D01*
X214298Y328078D01*
X214268Y328604D01*
X218811Y324761D01*
D02*
G37*
G36*
X344073Y324789D02*
X343699Y324721D01*
X343322Y324617D01*
X342942Y324479D01*
X342559Y324306D01*
X342174Y324098D01*
X341786Y323855D01*
X341395Y323577D01*
X341002Y323265D01*
X340207Y322534D01*
X338793Y323948D01*
X339099Y324277D01*
X339356Y324602D01*
X339566Y324926D01*
X339727Y325247D01*
X339841Y325565D01*
X339907Y325880D01*
X339924Y326194D01*
X339894Y326504D01*
X339816Y326813D01*
X339689Y327118D01*
X344073Y324789D01*
D02*
G37*
G36*
X261073D02*
X260699Y324721D01*
X260322Y324617D01*
X259942Y324479D01*
X259559Y324306D01*
X259174Y324098D01*
X258786Y323855D01*
X258396Y323577D01*
X258002Y323265D01*
X257207Y322534D01*
X255793Y323948D01*
X256099Y324277D01*
X256356Y324602D01*
X256566Y324926D01*
X256727Y325247D01*
X256841Y325565D01*
X256907Y325880D01*
X256924Y326194D01*
X256894Y326504D01*
X256816Y326813D01*
X256689Y327118D01*
X261073Y324789D01*
D02*
G37*
G36*
X304074Y325052D02*
X303550Y324833D01*
X302102Y324109D01*
X301662Y323846D01*
X300843Y323284D01*
X300465Y322987D01*
X299772Y322358D01*
X297683Y323097D01*
X298047Y323493D01*
X298352Y323891D01*
X298597Y324293D01*
X298783Y324698D01*
X298910Y325106D01*
X298977Y325517D01*
X298985Y325931D01*
X298934Y326349D01*
X298823Y326770D01*
X298653Y327194D01*
X304074Y325052D01*
D02*
G37*
G36*
X325457Y322089D02*
X324157Y320789D01*
X323657Y320813D01*
X323187Y321387D01*
X322075Y322299D01*
X320807Y322977D01*
X320380Y323106D01*
X320259Y323591D01*
X320408Y323741D01*
X321311Y325092D01*
X321933Y326594D01*
X322250Y328187D01*
Y329813D01*
X321933Y331406D01*
X321311Y332908D01*
X321239Y333016D01*
X321475Y333457D01*
X325457D01*
Y322089D01*
D02*
G37*
G36*
X415515Y325767D02*
X415634Y324048D01*
X415738Y323294D01*
X415872Y322610D01*
X416036Y321996D01*
X416229Y321453D01*
X416452Y320980D01*
X416705Y320577D01*
X416988Y320244D01*
X410012D01*
X410105Y320387D01*
X410188Y320620D01*
X410261Y320943D01*
X410324Y321356D01*
X410422Y322454D01*
X410495Y324777D01*
X410500Y325732D01*
X415500Y326732D01*
X415515Y325767D01*
D02*
G37*
G36*
X369957Y327911D02*
Y319543D01*
X365990D01*
X365599Y320275D01*
X364687Y321387D01*
X363575Y322299D01*
X362307Y322977D01*
X361551Y323206D01*
X361384Y323676D01*
X361425Y323767D01*
X362311Y325092D01*
X362933Y326594D01*
X363250Y328187D01*
Y329813D01*
X362933Y331406D01*
X362311Y332908D01*
X362239Y333016D01*
X362475Y333457D01*
X364411D01*
X369957Y327911D01*
D02*
G37*
G36*
X285990Y333081D02*
X285957Y332828D01*
Y321589D01*
X283911Y319543D01*
X282990D01*
X282599Y320275D01*
X281687Y321387D01*
X280575Y322299D01*
X279307Y322977D01*
X278551Y323206D01*
X278383Y323676D01*
X278426Y323767D01*
X279311Y325092D01*
X279933Y326594D01*
X280250Y328187D01*
Y329813D01*
X279933Y331406D01*
X279311Y332908D01*
X279239Y333016D01*
X279475Y333457D01*
X285660D01*
X285990Y333081D01*
D02*
G37*
G36*
X340510Y320852D02*
X340589Y320042D01*
X340659Y319714D01*
X340748Y319435D01*
X340857Y319208D01*
X340986Y319030D01*
X341135Y318904D01*
X341304Y318828D01*
X341492Y318803D01*
X337508D01*
X337696Y318828D01*
X337865Y318904D01*
X338014Y319030D01*
X338143Y319208D01*
X338252Y319435D01*
X338341Y319714D01*
X338411Y320042D01*
X338460Y320422D01*
X338490Y320852D01*
X338500Y321333D01*
X340500D01*
X340510Y320852D01*
D02*
G37*
G36*
X299010D02*
X299089Y320042D01*
X299159Y319714D01*
X299248Y319435D01*
X299357Y319208D01*
X299486Y319030D01*
X299635Y318904D01*
X299804Y318828D01*
X299992Y318803D01*
X296008D01*
X296196Y318828D01*
X296365Y318904D01*
X296514Y319030D01*
X296643Y319208D01*
X296752Y319435D01*
X296841Y319714D01*
X296911Y320042D01*
X296960Y320422D01*
X296990Y320852D01*
X297000Y321333D01*
X299000D01*
X299010Y320852D01*
D02*
G37*
G36*
X257510D02*
X257589Y320042D01*
X257659Y319714D01*
X257748Y319435D01*
X257857Y319208D01*
X257986Y319030D01*
X258135Y318904D01*
X258304Y318828D01*
X258492Y318803D01*
X254508D01*
X254696Y318828D01*
X254865Y318904D01*
X255014Y319030D01*
X255143Y319208D01*
X255252Y319435D01*
X255341Y319714D01*
X255411Y320042D01*
X255460Y320422D01*
X255490Y320852D01*
X255500Y321333D01*
X257500D01*
X257510Y320852D01*
D02*
G37*
G36*
X214010D02*
X214089Y320042D01*
X214159Y319714D01*
X214248Y319435D01*
X214357Y319208D01*
X214486Y319030D01*
X214635Y318904D01*
X214804Y318828D01*
X214992Y318803D01*
X211008D01*
X211196Y318828D01*
X211365Y318904D01*
X211514Y319030D01*
X211643Y319208D01*
X211752Y319435D01*
X211841Y319714D01*
X211911Y320042D01*
X211960Y320422D01*
X211990Y320852D01*
X212000Y321333D01*
X214000D01*
X214010Y320852D01*
D02*
G37*
G36*
X390024Y318702D02*
X390480Y318777D01*
X390913Y318877D01*
X391266Y318992D01*
X391540Y319123D01*
X391733Y319269D01*
Y315731D01*
X391540Y315877D01*
X391266Y316008D01*
X390913Y316123D01*
X390480Y316223D01*
X390024Y316298D01*
Y315500D01*
X390004Y315690D01*
X389944Y315860D01*
X389843Y316010D01*
X389702Y316140D01*
X389521Y316250D01*
X389300Y316340D01*
X389107Y316391D01*
X388703Y316431D01*
X387120Y316492D01*
X386209Y316500D01*
Y318500D01*
X387120Y318508D01*
X389245Y318645D01*
X389300Y318660D01*
X389521Y318750D01*
X389702Y318860D01*
X389843Y318990D01*
X389944Y319140D01*
X390004Y319310D01*
X390024Y319500D01*
Y318702D01*
D02*
G37*
G36*
X77689Y313508D02*
X77664Y313696D01*
X77590Y313865D01*
X77466Y314014D01*
X77294Y314143D01*
X77071Y314252D01*
X76800Y314341D01*
X76479Y314411D01*
X76108Y314460D01*
X75689Y314490D01*
X75219Y314500D01*
Y316500D01*
X75689Y316510D01*
X76479Y316589D01*
X76800Y316659D01*
X77071Y316748D01*
X77294Y316857D01*
X77466Y316986D01*
X77590Y317135D01*
X77664Y317304D01*
X77689Y317492D01*
Y313508D01*
D02*
G37*
G36*
X376020Y317120D02*
X376080Y316780D01*
X376180Y316480D01*
X376320Y316220D01*
X376500Y316000D01*
X376720Y315820D01*
X376980Y315680D01*
X377280Y315580D01*
X377620Y315520D01*
X378000Y315500D01*
X375000Y313500D01*
X372000Y315500D01*
X372380Y315520D01*
X372720Y315580D01*
X373020Y315680D01*
X373280Y315820D01*
X373500Y316000D01*
X373680Y316220D01*
X373820Y316480D01*
X373920Y316780D01*
X373980Y317120D01*
X374000Y317500D01*
X376000D01*
X376020Y317120D01*
D02*
G37*
G36*
X362783Y316309D02*
X362844Y316139D01*
X362946Y315989D01*
X363089Y315860D01*
X363273Y315750D01*
X363497Y315660D01*
X363763Y315590D01*
X364069Y315540D01*
X364416Y315510D01*
X364804Y315500D01*
Y313500D01*
X364416Y313490D01*
X364069Y313460D01*
X363763Y313410D01*
X363497Y313340D01*
X363273Y313250D01*
X363089Y313140D01*
X362946Y313011D01*
X362844Y312861D01*
X362783Y312691D01*
X362762Y312501D01*
Y316499D01*
X362783Y316309D01*
D02*
G37*
G36*
X321283D02*
X321344Y316139D01*
X321446Y315989D01*
X321589Y315860D01*
X321773Y315750D01*
X321997Y315660D01*
X322263Y315590D01*
X322569Y315540D01*
X322916Y315510D01*
X323304Y315500D01*
Y313500D01*
X322916Y313490D01*
X322569Y313460D01*
X322263Y313410D01*
X321997Y313340D01*
X321773Y313250D01*
X321589Y313140D01*
X321446Y313011D01*
X321344Y312861D01*
X321283Y312691D01*
X321262Y312501D01*
Y316499D01*
X321283Y316309D01*
D02*
G37*
G36*
X279783D02*
X279844Y316139D01*
X279946Y315989D01*
X280089Y315860D01*
X280273Y315750D01*
X280497Y315660D01*
X280763Y315590D01*
X281069Y315540D01*
X281416Y315510D01*
X281804Y315500D01*
Y313500D01*
X281416Y313490D01*
X281069Y313460D01*
X280763Y313410D01*
X280497Y313340D01*
X280273Y313250D01*
X280089Y313140D01*
X279946Y313011D01*
X279844Y312861D01*
X279783Y312691D01*
X279762Y312501D01*
Y316499D01*
X279783Y316309D01*
D02*
G37*
G36*
X236283D02*
X236344Y316139D01*
X236446Y315989D01*
X236589Y315860D01*
X236773Y315750D01*
X236997Y315660D01*
X237263Y315590D01*
X237569Y315540D01*
X237916Y315510D01*
X238304Y315500D01*
Y313500D01*
X237916Y313490D01*
X237569Y313460D01*
X237263Y313410D01*
X236997Y313340D01*
X236773Y313250D01*
X236589Y313140D01*
X236446Y313011D01*
X236344Y312861D01*
X236283Y312691D01*
X236262Y312501D01*
Y316499D01*
X236283Y316309D01*
D02*
G37*
G36*
X351304Y310172D02*
X351135Y310096D01*
X350986Y309969D01*
X350857Y309792D01*
X350748Y309565D01*
X350659Y309286D01*
X350589Y308958D01*
X350540Y308578D01*
X350510Y308148D01*
X350500Y307667D01*
X348500D01*
X348490Y308148D01*
X348411Y308958D01*
X348341Y309286D01*
X348252Y309565D01*
X348143Y309792D01*
X348014Y309969D01*
X347865Y310096D01*
X347696Y310172D01*
X347508Y310197D01*
X351492D01*
X351304Y310172D01*
D02*
G37*
G36*
X309804D02*
X309635Y310096D01*
X309486Y309969D01*
X309357Y309792D01*
X309248Y309565D01*
X309159Y309286D01*
X309089Y308958D01*
X309040Y308578D01*
X309010Y308148D01*
X309000Y307667D01*
X307000D01*
X306990Y308148D01*
X306911Y308958D01*
X306841Y309286D01*
X306752Y309565D01*
X306643Y309792D01*
X306514Y309969D01*
X306365Y310096D01*
X306196Y310172D01*
X306008Y310197D01*
X309992D01*
X309804Y310172D01*
D02*
G37*
G36*
X268304D02*
X268135Y310096D01*
X267986Y309969D01*
X267857Y309792D01*
X267748Y309565D01*
X267659Y309286D01*
X267589Y308958D01*
X267540Y308578D01*
X267510Y308148D01*
X267500Y307667D01*
X265500D01*
X265490Y308148D01*
X265411Y308958D01*
X265341Y309286D01*
X265252Y309565D01*
X265143Y309792D01*
X265014Y309969D01*
X264865Y310096D01*
X264696Y310172D01*
X264508Y310197D01*
X268492D01*
X268304Y310172D01*
D02*
G37*
G36*
X224804D02*
X224635Y310096D01*
X224486Y309969D01*
X224357Y309792D01*
X224248Y309565D01*
X224159Y309286D01*
X224089Y308958D01*
X224040Y308578D01*
X224010Y308148D01*
X224000Y307667D01*
X222000D01*
X221990Y308148D01*
X221911Y308958D01*
X221841Y309286D01*
X221752Y309565D01*
X221643Y309792D01*
X221514Y309969D01*
X221365Y310096D01*
X221196Y310172D01*
X221008Y310197D01*
X224992D01*
X224804Y310172D01*
D02*
G37*
G36*
X332165Y313879D02*
Y312800D01*
X332306Y311369D01*
X332723Y309993D01*
X333401Y308725D01*
X334313Y307613D01*
X335425Y306701D01*
X336693Y306023D01*
X338069Y305606D01*
X339500Y305465D01*
X340931Y305606D01*
X342307Y306023D01*
X343575Y306701D01*
X344005Y307053D01*
X344457Y306840D01*
Y299089D01*
X314934Y269566D01*
X314132Y268522D01*
X313629Y267305D01*
X313543Y266655D01*
X313043Y266688D01*
Y306840D01*
X313495Y307053D01*
X313925Y306701D01*
X315193Y306023D01*
X316569Y305606D01*
X318000Y305465D01*
X319431Y305606D01*
X320807Y306023D01*
X322075Y306701D01*
X323187Y307613D01*
X324099Y308725D01*
X324490Y309457D01*
X325000D01*
X326305Y309629D01*
X327522Y310133D01*
X328566Y310934D01*
X331703Y314071D01*
X332165Y313879D01*
D02*
G37*
G36*
X290791Y311520D02*
X290806Y311369D01*
X291223Y309993D01*
X291901Y308725D01*
X292813Y307613D01*
X293925Y306701D01*
X295193Y306023D01*
X296569Y305606D01*
X298000Y305465D01*
X299431Y305606D01*
X300807Y306023D01*
X302075Y306701D01*
X302505Y307053D01*
X302957Y306840D01*
Y267188D01*
X302457Y267155D01*
X302371Y267805D01*
X301868Y269022D01*
X301066Y270066D01*
X271543Y299589D01*
Y306840D01*
X271995Y307053D01*
X272425Y306701D01*
X273693Y306023D01*
X275069Y305606D01*
X276500Y305465D01*
X277931Y305606D01*
X279307Y306023D01*
X280575Y306701D01*
X281687Y307613D01*
X282599Y308725D01*
X282990Y309457D01*
X286000D01*
X287305Y309629D01*
X288522Y310133D01*
X289566Y310934D01*
X290320Y311688D01*
X290791Y311520D01*
D02*
G37*
G36*
X84336Y307304D02*
X84410Y307135D01*
X84534Y306986D01*
X84706Y306857D01*
X84929Y306748D01*
X85200Y306659D01*
X85521Y306589D01*
X85892Y306540D01*
X86311Y306510D01*
X86781Y306500D01*
Y304500D01*
X86311Y304490D01*
X85521Y304411D01*
X85200Y304341D01*
X84929Y304252D01*
X84706Y304143D01*
X84534Y304014D01*
X84410Y303865D01*
X84336Y303696D01*
X84311Y303508D01*
Y307492D01*
X84336Y307304D01*
D02*
G37*
G36*
X198600Y304071D02*
X198264Y303666D01*
X197968Y303247D01*
X197711Y302816D01*
X197494Y302373D01*
X197316Y301917D01*
X197178Y301449D01*
X197079Y300968D01*
X197020Y300475D01*
X197000Y299969D01*
X195000D01*
X194980Y300475D01*
X194921Y300968D01*
X194822Y301449D01*
X194684Y301917D01*
X194506Y302373D01*
X194289Y302816D01*
X194032Y303247D01*
X193736Y303666D01*
X193400Y304071D01*
X193025Y304465D01*
X198975D01*
X198600Y304071D01*
D02*
G37*
G36*
X186957D02*
X186621Y303666D01*
X186325Y303247D01*
X186068Y302816D01*
X185851Y302373D01*
X185673Y301917D01*
X185535Y301449D01*
X185436Y300968D01*
X185377Y300475D01*
X185357Y299969D01*
X183357D01*
X183337Y300475D01*
X183278Y300968D01*
X183179Y301449D01*
X183041Y301917D01*
X182863Y302373D01*
X182646Y302816D01*
X182389Y303247D01*
X182093Y303666D01*
X181757Y304071D01*
X181382Y304465D01*
X187332D01*
X186957Y304071D01*
D02*
G37*
G36*
X175314D02*
X174978Y303666D01*
X174682Y303247D01*
X174425Y302816D01*
X174208Y302373D01*
X174030Y301917D01*
X173892Y301449D01*
X173793Y300968D01*
X173734Y300475D01*
X173714Y299969D01*
X171714D01*
X171695Y300475D01*
X171635Y300968D01*
X171537Y301449D01*
X171398Y301917D01*
X171221Y302373D01*
X171003Y302816D01*
X170747Y303247D01*
X170450Y303666D01*
X170115Y304071D01*
X169739Y304465D01*
X175689D01*
X175314Y304071D01*
D02*
G37*
G36*
X163671D02*
X163335Y303666D01*
X163039Y303247D01*
X162782Y302816D01*
X162565Y302373D01*
X162387Y301917D01*
X162249Y301449D01*
X162150Y300968D01*
X162091Y300475D01*
X162071Y299969D01*
X160071D01*
X160052Y300475D01*
X159992Y300968D01*
X159894Y301449D01*
X159755Y301917D01*
X159578Y302373D01*
X159360Y302816D01*
X159104Y303247D01*
X158807Y303666D01*
X158472Y304071D01*
X158096Y304465D01*
X164046D01*
X163671Y304071D01*
D02*
G37*
G36*
X152028D02*
X151693Y303666D01*
X151396Y303247D01*
X151140Y302816D01*
X150922Y302373D01*
X150745Y301917D01*
X150606Y301449D01*
X150507Y300968D01*
X150448Y300475D01*
X150428Y299969D01*
X148428D01*
X148409Y300475D01*
X148349Y300968D01*
X148251Y301449D01*
X148113Y301917D01*
X147935Y302373D01*
X147718Y302816D01*
X147461Y303247D01*
X147165Y303666D01*
X146829Y304071D01*
X146453Y304465D01*
X152403D01*
X152028Y304071D01*
D02*
G37*
G36*
X140385D02*
X140050Y303666D01*
X139753Y303247D01*
X139497Y302816D01*
X139279Y302373D01*
X139102Y301917D01*
X138963Y301449D01*
X138865Y300968D01*
X138805Y300475D01*
X138786Y299969D01*
X136786D01*
X136766Y300475D01*
X136707Y300968D01*
X136608Y301449D01*
X136470Y301917D01*
X136292Y302373D01*
X136075Y302816D01*
X135818Y303247D01*
X135522Y303666D01*
X135186Y304071D01*
X134811Y304465D01*
X140761D01*
X140385Y304071D01*
D02*
G37*
G36*
X128743D02*
X128407Y303666D01*
X128111Y303247D01*
X127854Y302816D01*
X127637Y302373D01*
X127459Y301917D01*
X127321Y301449D01*
X127222Y300968D01*
X127163Y300475D01*
X127143Y299969D01*
X125143D01*
X125123Y300475D01*
X125064Y300968D01*
X124965Y301449D01*
X124827Y301917D01*
X124649Y302373D01*
X124432Y302816D01*
X124175Y303247D01*
X123879Y303666D01*
X123543Y304071D01*
X123168Y304465D01*
X129118D01*
X128743Y304071D01*
D02*
G37*
G36*
X117100D02*
X116764Y303666D01*
X116468Y303247D01*
X116211Y302816D01*
X115994Y302373D01*
X115816Y301917D01*
X115678Y301449D01*
X115579Y300968D01*
X115520Y300475D01*
X115500Y299969D01*
X113500D01*
X113480Y300475D01*
X113421Y300968D01*
X113322Y301449D01*
X113184Y301917D01*
X113006Y302373D01*
X112789Y302816D01*
X112532Y303247D01*
X112236Y303666D01*
X111900Y304071D01*
X111525Y304465D01*
X117475D01*
X117100Y304071D01*
D02*
G37*
G36*
X249207Y312368D02*
X249306Y311369D01*
X249723Y309993D01*
X250401Y308725D01*
X251313Y307613D01*
X252425Y306701D01*
X253693Y306023D01*
X255069Y305606D01*
X256500Y305465D01*
X257931Y305606D01*
X259307Y306023D01*
X260575Y306701D01*
X261005Y307053D01*
X261457Y306840D01*
Y297882D01*
X260957Y297675D01*
X253566Y305066D01*
X252522Y305868D01*
X251305Y306371D01*
X250000Y306543D01*
X237671D01*
X237492Y307043D01*
X238187Y307613D01*
X239099Y308725D01*
X239490Y309457D01*
X243500D01*
X244805Y309629D01*
X246022Y310133D01*
X247066Y310934D01*
X248687Y312554D01*
X249207Y312368D01*
D02*
G37*
G36*
X454512Y299012D02*
X461488D01*
X461300Y298962D01*
X461132Y298812D01*
X460984Y298562D01*
X460856Y298212D01*
X460747Y297762D01*
X460658Y297212D01*
X460589Y296562D01*
X460510Y294962D01*
X460500Y294012D01*
X455500D01*
X455490Y294962D01*
X455342Y297212D01*
X455253Y297762D01*
X455144Y298212D01*
X455016Y298562D01*
X454868Y298812D01*
X454700Y298962D01*
X454512Y299012D01*
X454462Y299485D01*
X454312Y299908D01*
X454062Y300281D01*
X453712Y300604D01*
X453262Y300878D01*
X452712Y301102D01*
X452062Y301276D01*
X451312Y301400D01*
X450462Y301475D01*
X449512Y301500D01*
Y306500D01*
X450462Y306525D01*
X451312Y306599D01*
X452062Y306724D01*
X452712Y306898D01*
X453262Y307122D01*
X453712Y307396D01*
X454062Y307719D01*
X454312Y308092D01*
X454462Y308515D01*
X454512Y308988D01*
Y299012D01*
D02*
G37*
G36*
X74545Y310005D02*
X74304Y309711D01*
X73603Y308401D01*
X73172Y306979D01*
X73027Y305500D01*
X73172Y304021D01*
X73603Y302599D01*
X74304Y301289D01*
X74951Y300500D01*
X74304Y299711D01*
X73603Y298401D01*
X73172Y296979D01*
X73027Y295500D01*
X73172Y294021D01*
X73603Y292599D01*
X74304Y291289D01*
X74545Y290995D01*
X74331Y290543D01*
X74000D01*
X72695Y290371D01*
X71478Y289867D01*
X70434Y289066D01*
X69505Y288137D01*
X69043Y288329D01*
Y306911D01*
X72589Y310457D01*
X74331D01*
X74545Y310005D01*
D02*
G37*
G36*
X178871Y301231D02*
X178888Y301211D01*
X179005Y301045D01*
X179096Y300893D01*
X179166Y300750D01*
X179220Y300611D01*
X179262Y300470D01*
X179292Y300321D01*
X179312Y300155D01*
X179314Y300111D01*
Y295143D01*
X179486Y293838D01*
X179990Y292621D01*
X180791Y291577D01*
X184363Y288005D01*
X184171Y287543D01*
X180017D01*
X177757Y289803D01*
Y300111D01*
X177759Y300155D01*
X177779Y300321D01*
X177810Y300470D01*
X177851Y300611D01*
X177905Y300750D01*
X177975Y300893D01*
X178067Y301045D01*
X178183Y301211D01*
X178200Y301231D01*
X178513Y301323D01*
X178558D01*
X178871Y301231D01*
D02*
G37*
G36*
X77689Y283508D02*
X77664Y283696D01*
X77590Y283865D01*
X77466Y284014D01*
X77294Y284143D01*
X77071Y284252D01*
X76800Y284341D01*
X76479Y284411D01*
X76108Y284460D01*
X75689Y284490D01*
X75219Y284500D01*
Y286500D01*
X75689Y286510D01*
X76479Y286589D01*
X76800Y286659D01*
X77071Y286748D01*
X77294Y286857D01*
X77466Y286986D01*
X77590Y287135D01*
X77664Y287304D01*
X77689Y287492D01*
Y283508D01*
D02*
G37*
G36*
X167228Y301231D02*
X167245Y301211D01*
X167362Y301045D01*
X167453Y300893D01*
X167523Y300750D01*
X167577Y300611D01*
X167619Y300470D01*
X167649Y300321D01*
X167669Y300155D01*
X167671Y300111D01*
Y287714D01*
X167843Y286409D01*
X168347Y285193D01*
X169148Y284148D01*
X171291Y282005D01*
X171100Y281543D01*
X169589D01*
X166114Y285017D01*
Y300111D01*
X166116Y300155D01*
X166136Y300321D01*
X166167Y300470D01*
X166208Y300611D01*
X166262Y300750D01*
X166333Y300893D01*
X166424Y301045D01*
X166541Y301211D01*
X166557Y301231D01*
X166870Y301323D01*
X166915D01*
X167228Y301231D01*
D02*
G37*
G36*
X155585D02*
X155602Y301211D01*
X155719Y301045D01*
X155810Y300893D01*
X155880Y300750D01*
X155934Y300611D01*
X155976Y300470D01*
X156007Y300321D01*
X156026Y300155D01*
X156028Y300111D01*
Y282929D01*
X156200Y281623D01*
X156704Y280407D01*
X157505Y279363D01*
X160363Y276505D01*
X160171Y276043D01*
X158089D01*
X154472Y279660D01*
Y300111D01*
X154473Y300155D01*
X154493Y300321D01*
X154524Y300470D01*
X154566Y300611D01*
X154620Y300750D01*
X154690Y300893D01*
X154781Y301045D01*
X154898Y301211D01*
X154915Y301231D01*
X155228Y301323D01*
X155272D01*
X155585Y301231D01*
D02*
G37*
G36*
X143942D02*
X143959Y301211D01*
X144076Y301045D01*
X144167Y300893D01*
X144237Y300750D01*
X144292Y300611D01*
X144333Y300470D01*
X144364Y300321D01*
X144384Y300155D01*
X144385Y300111D01*
Y277572D01*
X144557Y276266D01*
X145061Y275050D01*
X145862Y274005D01*
X149363Y270505D01*
X149171Y270043D01*
X147089D01*
X142829Y274303D01*
Y300111D01*
X142831Y300155D01*
X142850Y300321D01*
X142881Y300470D01*
X142923Y300611D01*
X142977Y300750D01*
X143047Y300893D01*
X143138Y301045D01*
X143255Y301211D01*
X143272Y301231D01*
X143585Y301323D01*
X143630D01*
X143942Y301231D01*
D02*
G37*
G36*
X452001Y270905D02*
X452266Y270992D01*
X452539Y271123D01*
X452733Y271269D01*
Y267731D01*
X452539Y267877D01*
X452266Y268008D01*
X452001Y268095D01*
Y267050D01*
X451708Y267325D01*
X451400Y267572D01*
X451075Y267790D01*
X450734Y267978D01*
X450376Y268138D01*
X450003Y268268D01*
X449613Y268370D01*
X449207Y268442D01*
X449081Y268455D01*
X448120Y268492D01*
X447209Y268500D01*
Y270500D01*
X448120Y270508D01*
X449384Y270590D01*
X449613Y270631D01*
X450003Y270732D01*
X450376Y270863D01*
X450734Y271022D01*
X451075Y271211D01*
X451400Y271428D01*
X451708Y271674D01*
X452001Y271950D01*
Y270905D01*
D02*
G37*
G36*
X442863Y266449D02*
X442535Y266096D01*
X442231Y265719D01*
X441953Y265318D01*
X441699Y264893D01*
X441470Y264443D01*
X441265Y263970D01*
X441086Y263472D01*
X440932Y262950D01*
X440802Y262405D01*
X440698Y261835D01*
X437249Y266684D01*
X437754Y266615D01*
X438247Y266594D01*
X438725Y266619D01*
X439190Y266691D01*
X439641Y266811D01*
X440079Y266977D01*
X440504Y267190D01*
X440914Y267449D01*
X441311Y267756D01*
X441695Y268109D01*
X442863Y266449D01*
D02*
G37*
G36*
X132300Y301231D02*
X132317Y301211D01*
X132433Y301045D01*
X132525Y300893D01*
X132595Y300750D01*
X132649Y300611D01*
X132690Y300470D01*
X132721Y300321D01*
X132741Y300155D01*
X132743Y300111D01*
Y272214D01*
X132914Y270909D01*
X133418Y269693D01*
X134220Y268648D01*
X137863Y265005D01*
X137671Y264543D01*
X135589D01*
X131186Y268946D01*
Y300111D01*
X131188Y300155D01*
X131208Y300321D01*
X131238Y300470D01*
X131280Y300611D01*
X131334Y300750D01*
X131404Y300893D01*
X131495Y301045D01*
X131612Y301211D01*
X131629Y301231D01*
X131942Y301323D01*
X131987D01*
X132300Y301231D01*
D02*
G37*
G36*
X120657D02*
X120674Y301211D01*
X120791Y301045D01*
X120882Y300893D01*
X120952Y300750D01*
X121006Y300611D01*
X121047Y300470D01*
X121078Y300321D01*
X121098Y300155D01*
X121100Y300111D01*
Y266857D01*
X121272Y265552D01*
X121775Y264336D01*
X122577Y263291D01*
X125863Y260005D01*
X125672Y259543D01*
X123589D01*
X119543Y263589D01*
Y300111D01*
X119545Y300155D01*
X119565Y300321D01*
X119596Y300470D01*
X119637Y300611D01*
X119691Y300750D01*
X119761Y300893D01*
X119852Y301045D01*
X119969Y301211D01*
X119986Y301231D01*
X120299Y301323D01*
X120344D01*
X120657Y301231D01*
D02*
G37*
G36*
X439100Y259071D02*
X438764Y258666D01*
X438468Y258247D01*
X438211Y257816D01*
X437994Y257373D01*
X437816Y256917D01*
X437678Y256449D01*
X437579Y255968D01*
X437520Y255475D01*
X437500Y254969D01*
X435500D01*
X435480Y255475D01*
X435421Y255968D01*
X435322Y256449D01*
X435184Y256917D01*
X435006Y257373D01*
X434789Y257816D01*
X434532Y258247D01*
X434236Y258666D01*
X433900Y259071D01*
X433525Y259465D01*
X439475D01*
X439100Y259071D01*
D02*
G37*
G36*
X109629Y260195D02*
X110133Y258978D01*
X110934Y257934D01*
X117934Y250934D01*
X118978Y250132D01*
X120195Y249629D01*
X121500Y249457D01*
X200911D01*
X202957Y247411D01*
Y246846D01*
X202505Y246632D01*
X202211Y246873D01*
X200901Y247574D01*
X199479Y248005D01*
X198000Y248151D01*
X196521Y248005D01*
X195099Y247574D01*
X193789Y246873D01*
X193000Y246226D01*
X192211Y246873D01*
X190901Y247574D01*
X189479Y248005D01*
X188000Y248151D01*
X186521Y248005D01*
X185099Y247574D01*
X183789Y246873D01*
X183000Y246226D01*
X182211Y246873D01*
X180901Y247574D01*
X179479Y248005D01*
X178000Y248151D01*
X176521Y248005D01*
X175099Y247574D01*
X173789Y246873D01*
X173000Y246226D01*
X172211Y246873D01*
X170901Y247574D01*
X169479Y248005D01*
X168000Y248151D01*
X166521Y248005D01*
X165099Y247574D01*
X163789Y246873D01*
X162640Y245931D01*
X161698Y244782D01*
X160997Y243472D01*
X160566Y242050D01*
X160420Y240571D01*
Y239784D01*
X160566Y238305D01*
X160997Y236883D01*
X161698Y235572D01*
X162640Y234424D01*
X162957Y234164D01*
Y189089D01*
X121411Y147543D01*
X103905D01*
X103806Y148043D01*
X104022Y148133D01*
X105066Y148934D01*
X118066Y161934D01*
X118868Y162978D01*
X119371Y164195D01*
X119543Y165500D01*
Y226000D01*
X119371Y227305D01*
X118868Y228522D01*
X118066Y229566D01*
X109043Y238589D01*
Y260812D01*
X109543Y260845D01*
X109629Y260195D01*
D02*
G37*
G36*
X319500Y245773D02*
X319510Y245292D01*
X319589Y244470D01*
X319659Y244130D01*
X319748Y243837D01*
X319857Y243591D01*
X319986Y243392D01*
X320135Y243240D01*
X320304Y243136D01*
X320492Y243078D01*
X316506Y243763D01*
X316695Y243755D01*
X316864Y243800D01*
X317013Y243899D01*
X317142Y244050D01*
X317251Y244254D01*
X317341Y244511D01*
X317410Y244822D01*
X317460Y245185D01*
X317490Y245601D01*
X317500Y246070D01*
X319500Y245773D01*
D02*
G37*
G36*
X239500D02*
X239510Y245292D01*
X239589Y244470D01*
X239659Y244130D01*
X239748Y243837D01*
X239857Y243591D01*
X239986Y243392D01*
X240135Y243240D01*
X240304Y243136D01*
X240492Y243078D01*
X236506Y243763D01*
X236695Y243755D01*
X236864Y243800D01*
X237013Y243899D01*
X237142Y244050D01*
X237251Y244254D01*
X237341Y244511D01*
X237410Y244822D01*
X237460Y245185D01*
X237490Y245601D01*
X237500Y246070D01*
X239500Y245773D01*
D02*
G37*
G36*
X309010Y245489D02*
X309089Y244698D01*
X309159Y244377D01*
X309248Y244106D01*
X309357Y243884D01*
X309486Y243711D01*
X309635Y243587D01*
X309804Y243513D01*
X309992Y243489D01*
X306008D01*
X306196Y243513D01*
X306365Y243587D01*
X306514Y243711D01*
X306643Y243884D01*
X306752Y244106D01*
X306841Y244377D01*
X306911Y244698D01*
X306960Y245069D01*
X306990Y245489D01*
X307000Y245958D01*
X309000D01*
X309010Y245489D01*
D02*
G37*
G36*
X289010D02*
X289089Y244698D01*
X289159Y244377D01*
X289248Y244106D01*
X289357Y243884D01*
X289486Y243711D01*
X289635Y243587D01*
X289804Y243513D01*
X289992Y243489D01*
X286008D01*
X286196Y243513D01*
X286365Y243587D01*
X286514Y243711D01*
X286643Y243884D01*
X286752Y244106D01*
X286841Y244377D01*
X286911Y244698D01*
X286960Y245069D01*
X286990Y245489D01*
X287000Y245958D01*
X289000D01*
X289010Y245489D01*
D02*
G37*
G36*
X279010D02*
X279089Y244698D01*
X279159Y244377D01*
X279248Y244106D01*
X279357Y243884D01*
X279486Y243711D01*
X279635Y243587D01*
X279804Y243513D01*
X279992Y243489D01*
X276008D01*
X276196Y243513D01*
X276365Y243587D01*
X276514Y243711D01*
X276643Y243884D01*
X276752Y244106D01*
X276841Y244377D01*
X276911Y244698D01*
X276960Y245069D01*
X276990Y245489D01*
X277000Y245958D01*
X279000D01*
X279010Y245489D01*
D02*
G37*
G36*
X269010D02*
X269089Y244698D01*
X269159Y244377D01*
X269248Y244106D01*
X269357Y243884D01*
X269486Y243711D01*
X269635Y243587D01*
X269804Y243513D01*
X269992Y243489D01*
X266008D01*
X266196Y243513D01*
X266365Y243587D01*
X266514Y243711D01*
X266643Y243884D01*
X266752Y244106D01*
X266841Y244377D01*
X266911Y244698D01*
X266960Y245069D01*
X266990Y245489D01*
X267000Y245958D01*
X269000D01*
X269010Y245489D01*
D02*
G37*
G36*
X259010D02*
X259089Y244698D01*
X259159Y244377D01*
X259248Y244106D01*
X259357Y243884D01*
X259486Y243711D01*
X259635Y243587D01*
X259804Y243513D01*
X259992Y243489D01*
X256008D01*
X256196Y243513D01*
X256365Y243587D01*
X256514Y243711D01*
X256643Y243884D01*
X256752Y244106D01*
X256841Y244377D01*
X256911Y244698D01*
X256960Y245069D01*
X256990Y245489D01*
X257000Y245958D01*
X259000D01*
X259010Y245489D01*
D02*
G37*
G36*
X249010D02*
X249089Y244698D01*
X249159Y244377D01*
X249248Y244106D01*
X249357Y243884D01*
X249486Y243711D01*
X249635Y243587D01*
X249804Y243513D01*
X249992Y243489D01*
X246008D01*
X246196Y243513D01*
X246365Y243587D01*
X246514Y243711D01*
X246643Y243884D01*
X246752Y244106D01*
X246841Y244377D01*
X246911Y244698D01*
X246960Y245069D01*
X246990Y245489D01*
X247000Y245958D01*
X249000D01*
X249010Y245489D01*
D02*
G37*
G36*
X229010D02*
X229089Y244698D01*
X229159Y244377D01*
X229248Y244106D01*
X229357Y243884D01*
X229486Y243711D01*
X229635Y243587D01*
X229804Y243513D01*
X229992Y243489D01*
X226008D01*
X226196Y243513D01*
X226365Y243587D01*
X226514Y243711D01*
X226643Y243884D01*
X226752Y244106D01*
X226841Y244377D01*
X226911Y244698D01*
X226960Y245069D01*
X226990Y245489D01*
X227000Y245958D01*
X229000D01*
X229010Y245489D01*
D02*
G37*
G36*
X219010D02*
X219089Y244698D01*
X219159Y244377D01*
X219248Y244106D01*
X219357Y243884D01*
X219486Y243711D01*
X219635Y243587D01*
X219804Y243513D01*
X219992Y243489D01*
X216008D01*
X216196Y243513D01*
X216365Y243587D01*
X216514Y243711D01*
X216643Y243884D01*
X216752Y244106D01*
X216841Y244377D01*
X216911Y244698D01*
X216960Y245069D01*
X216990Y245489D01*
X217000Y245958D01*
X219000D01*
X219010Y245489D01*
D02*
G37*
G36*
X209010D02*
X209089Y244698D01*
X209159Y244377D01*
X209248Y244106D01*
X209357Y243884D01*
X209486Y243711D01*
X209635Y243587D01*
X209804Y243513D01*
X209992Y243489D01*
X206008D01*
X206196Y243513D01*
X206365Y243587D01*
X206514Y243711D01*
X206643Y243884D01*
X206752Y244106D01*
X206841Y244377D01*
X206911Y244698D01*
X206960Y245069D01*
X206990Y245489D01*
X207000Y245958D01*
X209000D01*
X209010Y245489D01*
D02*
G37*
G36*
X298510Y245601D02*
X298589Y244822D01*
X298659Y244511D01*
X298749Y244254D01*
X298858Y244050D01*
X298987Y243899D01*
X299136Y243800D01*
X299305Y243755D01*
X299494Y243763D01*
X295508Y243078D01*
X295696Y243136D01*
X295865Y243240D01*
X296014Y243392D01*
X296143Y243591D01*
X296252Y243837D01*
X296341Y244130D01*
X296411Y244470D01*
X296460Y244858D01*
X296490Y245292D01*
X296500Y245773D01*
X298500Y246070D01*
X298510Y245601D01*
D02*
G37*
G36*
X199804Y236841D02*
X199635Y236767D01*
X199486Y236644D01*
X199357Y236471D01*
X199248Y236248D01*
X199159Y235977D01*
X199089Y235656D01*
X199040Y235285D01*
X199010Y234866D01*
X199000Y234397D01*
X197000D01*
X196990Y234866D01*
X196911Y235656D01*
X196841Y235977D01*
X196752Y236248D01*
X196643Y236471D01*
X196514Y236644D01*
X196365Y236767D01*
X196196Y236841D01*
X196008Y236866D01*
X199992D01*
X199804Y236841D01*
D02*
G37*
G36*
X189804D02*
X189635Y236767D01*
X189486Y236644D01*
X189357Y236471D01*
X189248Y236248D01*
X189159Y235977D01*
X189089Y235656D01*
X189040Y235285D01*
X189010Y234866D01*
X189000Y234397D01*
X187000D01*
X186990Y234866D01*
X186911Y235656D01*
X186841Y235977D01*
X186752Y236248D01*
X186643Y236471D01*
X186514Y236644D01*
X186365Y236767D01*
X186196Y236841D01*
X186008Y236866D01*
X189992D01*
X189804Y236841D01*
D02*
G37*
G36*
X179804D02*
X179635Y236767D01*
X179486Y236644D01*
X179357Y236471D01*
X179248Y236248D01*
X179159Y235977D01*
X179089Y235656D01*
X179040Y235285D01*
X179010Y234866D01*
X179000Y234397D01*
X177000D01*
X176990Y234866D01*
X176911Y235656D01*
X176841Y235977D01*
X176752Y236248D01*
X176643Y236471D01*
X176514Y236644D01*
X176365Y236767D01*
X176196Y236841D01*
X176008Y236866D01*
X179992D01*
X179804Y236841D01*
D02*
G37*
G36*
X169804D02*
X169635Y236767D01*
X169486Y236644D01*
X169357Y236471D01*
X169248Y236248D01*
X169159Y235977D01*
X169089Y235656D01*
X169040Y235285D01*
X169010Y234866D01*
X169000Y234397D01*
X167000D01*
X166990Y234866D01*
X166911Y235656D01*
X166841Y235977D01*
X166752Y236248D01*
X166643Y236471D01*
X166514Y236644D01*
X166365Y236767D01*
X166196Y236841D01*
X166008Y236866D01*
X169992D01*
X169804Y236841D01*
D02*
G37*
G36*
X99129Y235195D02*
X99633Y233978D01*
X100434Y232934D01*
X109457Y223911D01*
Y217406D01*
X108957Y217357D01*
X108750Y218396D01*
X108260Y219579D01*
X107549Y220643D01*
X106643Y221549D01*
X105579Y222260D01*
X104396Y222750D01*
X103140Y223000D01*
X101860D01*
X100604Y222750D01*
X99421Y222260D01*
X98997Y221977D01*
X98543Y222275D01*
Y235812D01*
X99043Y235845D01*
X99129Y235195D01*
D02*
G37*
G36*
X214943Y218108D02*
X215121Y217980D01*
X215320Y217867D01*
X215539Y217770D01*
X215779Y217688D01*
X216040Y217620D01*
X216322Y217567D01*
X216624Y217530D01*
X216948Y217508D01*
X217291Y217500D01*
Y215500D01*
X216948Y215493D01*
X216322Y215433D01*
X216040Y215380D01*
X215779Y215313D01*
X215539Y215230D01*
X215320Y215132D01*
X215121Y215020D01*
X214943Y214893D01*
X214785Y214750D01*
Y218250D01*
X214943Y218108D01*
D02*
G37*
G36*
X100715Y214750D02*
X100557Y214893D01*
X100379Y215020D01*
X100180Y215132D01*
X99961Y215230D01*
X99721Y215313D01*
X99460Y215380D01*
X99178Y215433D01*
X98876Y215470D01*
X98553Y215493D01*
X98209Y215500D01*
Y217500D01*
X98553Y217508D01*
X99178Y217567D01*
X99460Y217620D01*
X99721Y217688D01*
X99961Y217770D01*
X100180Y217867D01*
X100379Y217980D01*
X100557Y218108D01*
X100715Y218250D01*
Y214750D01*
D02*
G37*
G36*
X479748Y210211D02*
X479778Y209860D01*
X479828Y209551D01*
X479898Y209283D01*
X479988Y209057D01*
X480098Y208871D01*
X480228Y208727D01*
X480378Y208624D01*
X480548Y208562D01*
X480737Y208541D01*
X476740D01*
X476930Y208562D01*
X477099Y208624D01*
X477249Y208727D01*
X477379Y208871D01*
X477489Y209057D01*
X477579Y209283D01*
X477649Y209551D01*
X477699Y209860D01*
X477729Y210211D01*
X477739Y210602D01*
X479739D01*
X479748Y210211D01*
D02*
G37*
G36*
X434271Y211217D02*
X433925Y210844D01*
X433617Y210453D01*
X433346Y210043D01*
X433112Y209614D01*
X432915Y209168D01*
X432755Y208702D01*
X432633Y208219D01*
X432548Y207717D01*
X432499Y207196D01*
X432488Y206658D01*
X428297Y210849D01*
X428835Y210860D01*
X429356Y210909D01*
X429858Y210994D01*
X430341Y211116D01*
X430806Y211276D01*
X431253Y211473D01*
X431682Y211707D01*
X432092Y211978D01*
X432483Y212286D01*
X432857Y212632D01*
X434271Y211217D01*
D02*
G37*
G36*
X395203Y203625D02*
X394810Y204000D01*
X394404Y204336D01*
X393986Y204632D01*
X393555Y204889D01*
X393112Y205106D01*
X392656Y205284D01*
X392188Y205422D01*
X391707Y205521D01*
X391214Y205580D01*
X390708Y205600D01*
Y207600D01*
X391214Y207619D01*
X391707Y207679D01*
X392188Y207777D01*
X392656Y207916D01*
X393112Y208093D01*
X393555Y208311D01*
X393986Y208567D01*
X394404Y208864D01*
X394810Y209199D01*
X395203Y209575D01*
Y203625D01*
D02*
G37*
G36*
X444263Y203600D02*
X444242Y203790D01*
X444182Y203960D01*
X444081Y204110D01*
X443941Y204240D01*
X443760Y204350D01*
X443538Y204440D01*
X443277Y204510D01*
X442975Y204560D01*
X442633Y204590D01*
X442251Y204600D01*
Y206600D01*
X442633Y206610D01*
X442975Y206640D01*
X443277Y206690D01*
X443538Y206760D01*
X443760Y206850D01*
X443941Y206960D01*
X444081Y207090D01*
X444182Y207240D01*
X444242Y207410D01*
X444263Y207600D01*
Y203600D01*
D02*
G37*
G36*
X474716Y194006D02*
X474726Y194195D01*
X474679Y194364D01*
X474577Y194513D01*
X474418Y194642D01*
X474205Y194751D01*
X473935Y194841D01*
X473609Y194911D01*
X473228Y194960D01*
X472791Y194990D01*
X472298Y195000D01*
X472599Y197000D01*
X473109Y197010D01*
X473981Y197089D01*
X474341Y197159D01*
X474653Y197248D01*
X474914Y197357D01*
X475125Y197485D01*
X475287Y197634D01*
X475399Y197802D01*
X475461Y197991D01*
X474716Y194006D01*
D02*
G37*
G36*
X445024Y193608D02*
X444998Y193796D01*
X444920Y193965D01*
X444789Y194114D01*
X444607Y194243D01*
X444373Y194352D01*
X444086Y194441D01*
X443748Y194511D01*
X443357Y194560D01*
X442914Y194590D01*
X442419Y194600D01*
Y196600D01*
X442914Y196610D01*
X443748Y196689D01*
X444086Y196759D01*
X444373Y196848D01*
X444607Y196957D01*
X444789Y197086D01*
X444920Y197235D01*
X444998Y197404D01*
X445024Y197592D01*
Y193608D01*
D02*
G37*
G36*
X395203Y191323D02*
X394810Y191698D01*
X394404Y192034D01*
X393986Y192330D01*
X393555Y192587D01*
X393112Y192804D01*
X392656Y192982D01*
X392188Y193120D01*
X391707Y193219D01*
X391214Y193278D01*
X390708Y193298D01*
Y195298D01*
X391214Y195318D01*
X391707Y195377D01*
X392188Y195476D01*
X392656Y195614D01*
X393112Y195792D01*
X393555Y196009D01*
X393986Y196266D01*
X394404Y196562D01*
X394810Y196898D01*
X395203Y197273D01*
Y191323D01*
D02*
G37*
G36*
X484126Y188711D02*
X483786Y188358D01*
X483267Y187726D01*
X483088Y187449D01*
X482962Y187196D01*
X482889Y186969D01*
X482870Y186767D01*
X482904Y186590D01*
X482992Y186438D01*
X483133Y186312D01*
X479774Y188591D01*
X479951Y188501D01*
X480149Y188461D01*
X480368Y188469D01*
X480607Y188526D01*
X480867Y188631D01*
X481147Y188785D01*
X481448Y188988D01*
X481769Y189239D01*
X482111Y189539D01*
X482474Y189888D01*
X484126Y188711D01*
D02*
G37*
G36*
X445024Y183608D02*
X444998Y183796D01*
X444920Y183965D01*
X444789Y184114D01*
X444607Y184243D01*
X444373Y184352D01*
X444086Y184441D01*
X443748Y184511D01*
X443357Y184560D01*
X442914Y184590D01*
X442419Y184600D01*
Y186600D01*
X442914Y186610D01*
X443748Y186689D01*
X444086Y186759D01*
X444373Y186848D01*
X444607Y186957D01*
X444789Y187086D01*
X444920Y187235D01*
X444998Y187404D01*
X445024Y187592D01*
Y183608D01*
D02*
G37*
G36*
X432194Y183609D02*
X432314Y183481D01*
X432468Y183367D01*
X432655Y183269D01*
X432877Y183185D01*
X433133Y183117D01*
X433423Y183064D01*
X433747Y183027D01*
X434104Y183004D01*
X434496Y182996D01*
Y180996D01*
X434104Y180989D01*
X433423Y180928D01*
X433133Y180875D01*
X432877Y180807D01*
X432655Y180724D01*
X432468Y180625D01*
X432314Y180512D01*
X432194Y180383D01*
X432108Y180239D01*
Y183753D01*
X432194Y183609D01*
D02*
G37*
G36*
X395203Y179021D02*
X394810Y179396D01*
X394404Y179732D01*
X393986Y180028D01*
X393555Y180285D01*
X393112Y180502D01*
X392656Y180680D01*
X392188Y180818D01*
X391707Y180917D01*
X391214Y180976D01*
X390708Y180996D01*
Y182996D01*
X391214Y183016D01*
X391707Y183075D01*
X392188Y183174D01*
X392656Y183312D01*
X393112Y183490D01*
X393555Y183707D01*
X393986Y183964D01*
X394404Y184260D01*
X394810Y184596D01*
X395203Y184971D01*
Y179021D01*
D02*
G37*
G36*
X390894Y176951D02*
X391059Y176932D01*
X391209Y176901D01*
X391349Y176859D01*
X391488Y176805D01*
X391631Y176735D01*
X391784Y176644D01*
X391949Y176527D01*
X392129Y176379D01*
X392343Y176174D01*
X392419Y175942D01*
X392418Y175542D01*
X391830Y174954D01*
X391647Y174679D01*
X391556Y174588D01*
X391356Y174327D01*
X391277Y174242D01*
X391216Y174187D01*
X391169Y174152D01*
X391126Y174128D01*
X391079Y174106D01*
X391013Y174084D01*
X390917Y174063D01*
X390780Y174045D01*
X390727Y174043D01*
X279500D01*
X279500Y174043D01*
X278195Y173871D01*
X276978Y173368D01*
X275934Y172566D01*
X194434Y91066D01*
X193632Y90022D01*
X193543Y89806D01*
X193043Y89905D01*
Y91411D01*
X278585Y176953D01*
X390850D01*
X390894Y176951D01*
D02*
G37*
G36*
X445024Y173608D02*
X444998Y173796D01*
X444920Y173965D01*
X444789Y174114D01*
X444607Y174243D01*
X444373Y174352D01*
X444086Y174441D01*
X443748Y174511D01*
X443357Y174560D01*
X442914Y174590D01*
X442419Y174600D01*
Y176600D01*
X442914Y176610D01*
X443748Y176689D01*
X444086Y176759D01*
X444373Y176848D01*
X444607Y176957D01*
X444789Y177086D01*
X444920Y177235D01*
X444998Y177404D01*
X445024Y177592D01*
Y173608D01*
D02*
G37*
G36*
X82007Y170948D02*
X82068Y170322D01*
X82120Y170040D01*
X82187Y169779D01*
X82270Y169539D01*
X82367Y169320D01*
X82480Y169121D01*
X82608Y168943D01*
X82750Y168785D01*
X79250D01*
X79392Y168943D01*
X79520Y169121D01*
X79633Y169320D01*
X79730Y169539D01*
X79813Y169779D01*
X79880Y170040D01*
X79932Y170322D01*
X79970Y170624D01*
X79993Y170948D01*
X80000Y171291D01*
X82000D01*
X82007Y170948D01*
D02*
G37*
G36*
X465808Y192434D02*
X466853Y191632D01*
X468069Y191129D01*
X469374Y190957D01*
X471946D01*
X472245Y190598D01*
X471974Y190219D01*
X471390Y189508D01*
X470740Y188292D01*
X470340Y186972D01*
X470205Y185600D01*
X470340Y184228D01*
X470740Y182908D01*
X471390Y181692D01*
X472265Y180626D01*
X473331Y179752D01*
X474466Y179145D01*
X474617Y178630D01*
X474386Y178453D01*
X473745Y177617D01*
X473342Y176644D01*
X473270Y176100D01*
X484207D01*
X484136Y176644D01*
X483733Y177617D01*
X483091Y178453D01*
X482860Y178630D01*
X483011Y179145D01*
X484146Y179752D01*
X485212Y180626D01*
X486087Y181692D01*
X486737Y182908D01*
X486957Y183633D01*
X487457Y183559D01*
Y167641D01*
X486957Y167567D01*
X486737Y168292D01*
X486087Y169508D01*
X485212Y170574D01*
X484146Y171449D01*
X483011Y172055D01*
X482860Y172570D01*
X483091Y172747D01*
X483733Y173583D01*
X484136Y174556D01*
X484207Y175100D01*
X473270D01*
X473342Y174556D01*
X473745Y173583D01*
X474386Y172747D01*
X474617Y172570D01*
X474466Y172055D01*
X473331Y171449D01*
X472265Y170574D01*
X471390Y169508D01*
X470740Y168292D01*
X470340Y166972D01*
X470205Y165600D01*
X470340Y164228D01*
X470740Y162908D01*
X471390Y161692D01*
X471974Y160981D01*
X472246Y160600D01*
X471974Y160219D01*
X471390Y159508D01*
X470740Y158292D01*
X470340Y156972D01*
X470205Y155600D01*
X470340Y154228D01*
X470740Y152908D01*
X471390Y151692D01*
X471880Y151095D01*
X471666Y150643D01*
X468600D01*
X467295Y150471D01*
X466078Y149968D01*
X465034Y149166D01*
X460434Y144566D01*
X459632Y143522D01*
X459129Y142305D01*
X458957Y141000D01*
Y129089D01*
X457911Y128043D01*
X453000D01*
X451695Y127871D01*
X450478Y127367D01*
X449434Y126566D01*
X446170Y123302D01*
X445369Y122258D01*
X444865Y121042D01*
X444693Y119736D01*
Y119009D01*
X444683Y118902D01*
X444667Y118810D01*
X444653Y118749D01*
X444641Y118716D01*
X444636Y118704D01*
X444518Y118577D01*
X444403Y118417D01*
X444106Y118120D01*
X443313Y116933D01*
X442767Y115614D01*
X442488Y114214D01*
Y113229D01*
X435627D01*
X435583Y113231D01*
X435418Y113251D01*
X435268Y113281D01*
X435128Y113323D01*
X434989Y113377D01*
X434846Y113447D01*
X434693Y113538D01*
X434528Y113655D01*
X434348Y113804D01*
X434134Y114008D01*
X434058Y114240D01*
X434059Y114641D01*
X434647Y115229D01*
X435550Y116580D01*
X436171Y118081D01*
X436489Y119675D01*
Y120222D01*
X436522Y120435D01*
X436531Y120836D01*
X436553Y121068D01*
X436587Y121267D01*
X436631Y121440D01*
X436683Y121590D01*
X436742Y121727D01*
X436812Y121855D01*
X436896Y121983D01*
X436999Y122114D01*
X437029Y122146D01*
X440566Y125683D01*
X441367Y126728D01*
X441871Y127944D01*
X442043Y129249D01*
Y133273D01*
X442954Y134184D01*
X443544Y134066D01*
X443745Y133583D01*
X444386Y132747D01*
X445221Y132106D01*
X446194Y131703D01*
X447239Y131565D01*
X448239D01*
Y135600D01*
X448739D01*
Y136100D01*
X454207D01*
X454136Y136644D01*
X453733Y137617D01*
X453091Y138453D01*
X452860Y138630D01*
X453011Y139145D01*
X454146Y139752D01*
X455212Y140626D01*
X456087Y141692D01*
X456737Y142908D01*
X457137Y144228D01*
X457272Y145600D01*
X457137Y146972D01*
X456737Y148292D01*
X456087Y149508D01*
X455504Y150219D01*
X455231Y150600D01*
X455504Y150981D01*
X456087Y151692D01*
X456737Y152908D01*
X457137Y154228D01*
X457272Y155600D01*
X457137Y156972D01*
X456737Y158292D01*
X456087Y159508D01*
X455504Y160219D01*
X455231Y160600D01*
X455504Y160981D01*
X456087Y161692D01*
X456737Y162908D01*
X457137Y164228D01*
X457272Y165600D01*
X457137Y166972D01*
X456737Y168292D01*
X456087Y169508D01*
X455504Y170219D01*
X455231Y170600D01*
X455504Y170981D01*
X456087Y171692D01*
X456737Y172908D01*
X457137Y174228D01*
X457272Y175600D01*
X457137Y176972D01*
X456737Y178292D01*
X456087Y179508D01*
X455504Y180219D01*
X455231Y180600D01*
X455504Y180981D01*
X456087Y181692D01*
X456737Y182908D01*
X457137Y184228D01*
X457272Y185600D01*
X457137Y186972D01*
X456737Y188292D01*
X456087Y189508D01*
X455504Y190219D01*
X455231Y190600D01*
X455504Y190981D01*
X456087Y191692D01*
X456737Y192908D01*
X457137Y194228D01*
X457272Y195600D01*
X457137Y196972D01*
X456795Y198100D01*
X457082Y198600D01*
X457239D01*
Y200350D01*
X457700Y200541D01*
X465808Y192434D01*
D02*
G37*
G36*
X395730Y166263D02*
X395255Y166594D01*
X394302Y167149D01*
X393824Y167375D01*
X393345Y167566D01*
X392866Y167722D01*
X392386Y167844D01*
X391905Y167930D01*
X391423Y167983D01*
X390941Y168000D01*
X390599Y170000D01*
X391121Y170021D01*
X391618Y170085D01*
X392092Y170192D01*
X392543Y170341D01*
X392971Y170533D01*
X393375Y170768D01*
X393756Y171045D01*
X394113Y171365D01*
X394447Y171728D01*
X394758Y172134D01*
X395730Y166263D01*
D02*
G37*
G36*
X445571Y163103D02*
X445383Y163242D01*
X445176Y163367D01*
X444949Y163476D01*
X444703Y163572D01*
X444438Y163652D01*
X444153Y163718D01*
X443850Y163769D01*
X443526Y163805D01*
X442822Y163835D01*
X442259Y165835D01*
X442739Y165845D01*
X443530Y165924D01*
X443841Y165994D01*
X444096Y166083D01*
X444294Y166193D01*
X444435Y166322D01*
X444520Y166471D01*
X444549Y166640D01*
X444521Y166829D01*
X445571Y163103D01*
D02*
G37*
G36*
X89934Y216434D02*
X93434Y212934D01*
X94478Y212133D01*
X95695Y211629D01*
X97000Y211457D01*
X98351D01*
X98356Y211451D01*
X99421Y210740D01*
X100604Y210250D01*
X101860Y210000D01*
X103140D01*
X104396Y210250D01*
X105579Y210740D01*
X106643Y211451D01*
X107549Y212356D01*
X108260Y213421D01*
X108750Y214604D01*
X108957Y215643D01*
X109457Y215594D01*
Y167589D01*
X99411Y157543D01*
X93505D01*
X93387Y157687D01*
X92275Y158599D01*
X91007Y159277D01*
X89631Y159694D01*
X88200Y159835D01*
X84800D01*
X83369Y159694D01*
X81993Y159277D01*
X80725Y158599D01*
X79613Y157687D01*
X78701Y156575D01*
X78023Y155307D01*
X77606Y153931D01*
X77465Y152500D01*
X77512Y152023D01*
X77021Y151900D01*
X76811Y152408D01*
X75908Y153759D01*
X74759Y154908D01*
X73408Y155811D01*
X71906Y156433D01*
X70312Y156750D01*
X69766D01*
X69553Y156783D01*
X69152Y156793D01*
X69043Y156803D01*
Y182843D01*
X69505Y183034D01*
X75957Y176583D01*
Y171149D01*
X75951Y171143D01*
X75240Y170079D01*
X74750Y168896D01*
X74500Y167640D01*
Y166360D01*
X74750Y165104D01*
X75240Y163921D01*
X75951Y162856D01*
X76856Y161951D01*
X77921Y161240D01*
X79104Y160750D01*
X80360Y160500D01*
X81640D01*
X82896Y160750D01*
X84079Y161240D01*
X85144Y161951D01*
X86049Y162856D01*
X86760Y163921D01*
X87250Y165104D01*
X87500Y166360D01*
Y167640D01*
X87250Y168896D01*
X86760Y170079D01*
X86049Y171143D01*
X86043Y171149D01*
Y178672D01*
X85871Y179977D01*
X85368Y181193D01*
X84566Y182238D01*
X79211Y187593D01*
X79402Y188055D01*
X88445D01*
Y202759D01*
X88828Y204021D01*
X88973Y205500D01*
X88828Y206979D01*
X88397Y208401D01*
X87696Y209711D01*
X87049Y210500D01*
X87696Y211289D01*
X88397Y212599D01*
X88828Y214021D01*
X88973Y215500D01*
X88828Y216979D01*
X88790Y217103D01*
X89242Y217336D01*
X89934Y216434D01*
D02*
G37*
G36*
X395203Y154418D02*
X394810Y154793D01*
X394404Y155129D01*
X393986Y155425D01*
X393555Y155682D01*
X393112Y155899D01*
X392656Y156077D01*
X392188Y156215D01*
X391707Y156314D01*
X391214Y156373D01*
X390708Y156393D01*
Y158393D01*
X391214Y158413D01*
X391707Y158472D01*
X392188Y158571D01*
X392656Y158709D01*
X393112Y158887D01*
X393555Y159104D01*
X393986Y159361D01*
X394404Y159657D01*
X394810Y159993D01*
X395203Y160368D01*
Y154418D01*
D02*
G37*
G36*
X448098Y152610D02*
X447906Y152684D01*
X447695Y152712D01*
X447465Y152692D01*
X447216Y152625D01*
X446947Y152511D01*
X446660Y152350D01*
X446353Y152141D01*
X446028Y151886D01*
X445683Y151583D01*
X445319Y151233D01*
X443530Y152272D01*
X443866Y152623D01*
X444376Y153245D01*
X444548Y153516D01*
X444666Y153761D01*
X444730Y153979D01*
X444738Y154170D01*
X444692Y154335D01*
X444592Y154473D01*
X444436Y154585D01*
X448098Y152610D01*
D02*
G37*
G36*
X483099Y155291D02*
X483035Y155116D01*
X483021Y154919D01*
X483059Y154699D01*
X483148Y154456D01*
X483287Y154190D01*
X483477Y153902D01*
X483718Y153591D01*
X484010Y153256D01*
X484353Y152900D01*
X482939Y151485D01*
X482582Y151828D01*
X481937Y152361D01*
X481648Y152552D01*
X481383Y152691D01*
X481140Y152779D01*
X480919Y152817D01*
X480722Y152804D01*
X480548Y152740D01*
X480396Y152625D01*
X483214Y155443D01*
X483099Y155291D01*
D02*
G37*
G36*
X90828Y154304D02*
X90904Y154135D01*
X91031Y153986D01*
X91208Y153857D01*
X91435Y153748D01*
X91714Y153659D01*
X92042Y153589D01*
X92422Y153540D01*
X92852Y153510D01*
X93333Y153500D01*
Y151500D01*
X92852Y151490D01*
X92042Y151411D01*
X91714Y151341D01*
X91435Y151252D01*
X91208Y151143D01*
X91031Y151014D01*
X90904Y150865D01*
X90828Y150696D01*
X90803Y150508D01*
Y154492D01*
X90828Y154304D01*
D02*
G37*
G36*
X27331Y153301D02*
X27407Y153133D01*
X27534Y152984D01*
X27710Y152856D01*
X27938Y152747D01*
X28216Y152658D01*
X28544Y152589D01*
X28923Y152540D01*
X29353Y152510D01*
X29833Y152500D01*
Y150500D01*
X29353Y150490D01*
X28544Y150411D01*
X28216Y150342D01*
X27938Y150253D01*
X27710Y150144D01*
X27534Y150016D01*
X27407Y149867D01*
X27331Y149699D01*
X27306Y149512D01*
Y153489D01*
X27331Y153301D01*
D02*
G37*
G36*
X65254Y154189D02*
X65644Y153882D01*
X66054Y153612D01*
X66483Y153378D01*
X66931Y153182D01*
X67398Y153022D01*
X67884Y152899D01*
X68389Y152812D01*
X68914Y152763D01*
X69458Y152750D01*
X65250Y148542D01*
X65237Y149086D01*
X65188Y149610D01*
X65101Y150116D01*
X64978Y150602D01*
X64819Y151069D01*
X64622Y151517D01*
X64389Y151946D01*
X64118Y152356D01*
X63811Y152746D01*
X63468Y153118D01*
X64882Y154532D01*
X65254Y154189D01*
D02*
G37*
G36*
X35734Y146531D02*
X35615Y146715D01*
X35462Y146880D01*
X35275Y147025D01*
X35053Y147151D01*
X34797Y147258D01*
X34506Y147345D01*
X34181Y147413D01*
X33822Y147461D01*
X33428Y147490D01*
X33000Y147500D01*
Y149500D01*
X33428Y149510D01*
X34181Y149587D01*
X34506Y149655D01*
X34797Y149742D01*
X35053Y149849D01*
X35275Y149975D01*
X35462Y150120D01*
X35615Y150285D01*
X35734Y150469D01*
Y146531D01*
D02*
G37*
G36*
X475024Y143608D02*
X474998Y143796D01*
X474920Y143965D01*
X474789Y144114D01*
X474607Y144243D01*
X474373Y144352D01*
X474086Y144441D01*
X473748Y144511D01*
X473357Y144560D01*
X472914Y144590D01*
X472419Y144600D01*
Y146600D01*
X472914Y146610D01*
X473748Y146689D01*
X474086Y146759D01*
X474373Y146848D01*
X474607Y146957D01*
X474789Y147086D01*
X474920Y147235D01*
X474998Y147404D01*
X475024Y147592D01*
Y143608D01*
D02*
G37*
G36*
X447081Y142625D02*
X446930Y142740D01*
X446755Y142804D01*
X446558Y142817D01*
X446338Y142780D01*
X446095Y142691D01*
X445829Y142552D01*
X445540Y142361D01*
X445229Y142120D01*
X444895Y141828D01*
X444538Y141485D01*
X443124Y142900D01*
X443467Y143256D01*
X444000Y143902D01*
X444190Y144190D01*
X444330Y144456D01*
X444418Y144699D01*
X444456Y144919D01*
X444443Y145116D01*
X444379Y145291D01*
X444264Y145443D01*
X447081Y142625D01*
D02*
G37*
G36*
X395647Y141723D02*
X395183Y142060D01*
X394718Y142363D01*
X394249Y142629D01*
X393778Y142860D01*
X393305Y143056D01*
X392828Y143216D01*
X392350Y143340D01*
X391868Y143429D01*
X391384Y143482D01*
X390898Y143500D01*
X390608Y145500D01*
X391127Y145521D01*
X391625Y145585D01*
X392100Y145690D01*
X392554Y145838D01*
X392986Y146029D01*
X393396Y146261D01*
X393784Y146536D01*
X394151Y146854D01*
X394496Y147213D01*
X394819Y147615D01*
X395647Y141723D01*
D02*
G37*
G36*
X90828Y144304D02*
X90904Y144135D01*
X91031Y143986D01*
X91208Y143857D01*
X91435Y143748D01*
X91714Y143659D01*
X92042Y143589D01*
X92422Y143540D01*
X92852Y143510D01*
X93333Y143500D01*
Y141500D01*
X92852Y141490D01*
X92042Y141411D01*
X91714Y141341D01*
X91435Y141252D01*
X91208Y141143D01*
X91031Y141014D01*
X90904Y140865D01*
X90828Y140696D01*
X90803Y140508D01*
Y144492D01*
X90828Y144304D01*
D02*
G37*
G36*
X27466Y143163D02*
X27538Y143024D01*
X27657Y142901D01*
X27824Y142795D01*
X28039Y142705D01*
X28301Y142631D01*
X28612Y142574D01*
X28969Y142533D01*
X29375Y142508D01*
X29828Y142500D01*
Y140500D01*
X29375Y140492D01*
X28612Y140426D01*
X28301Y140369D01*
X28039Y140295D01*
X27824Y140205D01*
X27657Y140099D01*
X27538Y139976D01*
X27466Y139837D01*
X27442Y139681D01*
Y143319D01*
X27466Y143163D01*
D02*
G37*
G36*
X36213Y134306D02*
X35922Y134628D01*
X35607Y134916D01*
X35266Y135170D01*
X34900Y135390D01*
X34508Y135577D01*
X34092Y135729D01*
X33650Y135848D01*
X33182Y135932D01*
X32690Y135983D01*
X32172Y136000D01*
Y138000D01*
X32690Y138017D01*
X33182Y138068D01*
X33650Y138152D01*
X34092Y138271D01*
X34508Y138423D01*
X34900Y138610D01*
X35266Y138830D01*
X35607Y139084D01*
X35922Y139372D01*
X36213Y139694D01*
Y134306D01*
D02*
G37*
G36*
X82197Y130508D02*
X82172Y130696D01*
X82096Y130865D01*
X81969Y131014D01*
X81792Y131143D01*
X81565Y131252D01*
X81286Y131341D01*
X80958Y131411D01*
X80578Y131460D01*
X80148Y131490D01*
X79667Y131500D01*
Y133500D01*
X80148Y133510D01*
X80958Y133589D01*
X81286Y133659D01*
X81565Y133748D01*
X81792Y133857D01*
X81969Y133986D01*
X82096Y134135D01*
X82172Y134304D01*
X82197Y134492D01*
Y130508D01*
D02*
G37*
G36*
X395203Y129814D02*
X394810Y130190D01*
X394404Y130525D01*
X393986Y130822D01*
X393555Y131078D01*
X393112Y131296D01*
X392656Y131473D01*
X392188Y131612D01*
X391707Y131710D01*
X391214Y131770D01*
X390708Y131789D01*
Y133789D01*
X391214Y133809D01*
X391707Y133868D01*
X392188Y133967D01*
X392656Y134105D01*
X393112Y134283D01*
X393555Y134500D01*
X393986Y134757D01*
X394404Y135053D01*
X394810Y135389D01*
X395203Y135764D01*
Y129814D01*
D02*
G37*
G36*
X172957Y184595D02*
Y181589D01*
X122434Y131066D01*
X121633Y130022D01*
X121129Y128805D01*
X120957Y127500D01*
Y117089D01*
X110911Y107043D01*
X94160D01*
X93947Y107495D01*
X94299Y107925D01*
X94977Y109193D01*
X95394Y110569D01*
X95535Y112000D01*
X95394Y113431D01*
X94977Y114807D01*
X94299Y116075D01*
X93387Y117187D01*
X92275Y118099D01*
X91007Y118777D01*
X89631Y119194D01*
X88200Y119335D01*
X84800D01*
X83369Y119194D01*
X81993Y118777D01*
X80725Y118099D01*
X79613Y117187D01*
X78701Y116075D01*
X78023Y114807D01*
X77606Y113431D01*
X77567Y113040D01*
X77057Y112965D01*
X76811Y113559D01*
X75908Y114910D01*
X74759Y116059D01*
X73408Y116962D01*
X71906Y117584D01*
X70312Y117901D01*
X68687D01*
X67094Y117584D01*
X65592Y116962D01*
X64241Y116059D01*
X64043Y115862D01*
X63543Y116069D01*
Y130636D01*
X64005Y130828D01*
X64241Y130592D01*
X65592Y129689D01*
X67094Y129067D01*
X68687Y128750D01*
X70312D01*
X71906Y129067D01*
X73014Y129526D01*
X73606Y128934D01*
X74650Y128132D01*
X75866Y127629D01*
X77172Y127457D01*
X79495D01*
X79613Y127313D01*
X80725Y126401D01*
X81993Y125723D01*
X83369Y125306D01*
X84800Y125165D01*
X88200D01*
X89631Y125306D01*
X91007Y125723D01*
X92275Y126401D01*
X93387Y127313D01*
X94299Y128425D01*
X94977Y129693D01*
X95394Y131069D01*
X95535Y132500D01*
X95394Y133931D01*
X94977Y135307D01*
X94299Y136575D01*
X93947Y137005D01*
X94160Y137457D01*
X123500D01*
X124805Y137629D01*
X126022Y138133D01*
X127066Y138934D01*
X171566Y183434D01*
X172368Y184478D01*
X172457Y184694D01*
X172957Y184595D01*
D02*
G37*
G36*
X471880Y140105D02*
X471390Y139508D01*
X470740Y138292D01*
X470340Y136972D01*
X470205Y135600D01*
X470340Y134228D01*
X470740Y132908D01*
X471390Y131692D01*
X472265Y130626D01*
X473331Y129752D01*
X474547Y129102D01*
X475866Y128701D01*
X477239Y128566D01*
X480239D01*
X481611Y128701D01*
X482055Y128836D01*
X482457Y128538D01*
Y120473D01*
X482041Y120195D01*
X481378Y120469D01*
X479978Y120748D01*
X478550D01*
X477150Y120469D01*
X475831Y119923D01*
X474643Y119130D01*
X473634Y118120D01*
X472841Y116933D01*
X472294Y115614D01*
X472016Y114214D01*
Y112786D01*
X472294Y111386D01*
X472841Y110067D01*
X473212Y109511D01*
X473331Y109278D01*
X473463Y109087D01*
X473510Y109007D01*
X473552Y108926D01*
X473588Y108839D01*
X473621Y108744D01*
X473651Y108636D01*
X473676Y108513D01*
X473697Y108372D01*
X473708Y108236D01*
Y98917D01*
X472831Y98448D01*
X471765Y97574D01*
X470890Y96508D01*
X470509Y95794D01*
X469992Y95888D01*
X469871Y96805D01*
X469368Y98022D01*
X468566Y99066D01*
X465066Y102566D01*
X464022Y103367D01*
X462805Y103871D01*
X461500Y104043D01*
X455089D01*
X452700Y106432D01*
X452797Y106923D01*
X453169Y107077D01*
X454357Y107870D01*
X455366Y108880D01*
X456159Y110067D01*
X456706Y111386D01*
X456984Y112786D01*
Y114214D01*
X456706Y115614D01*
X456159Y116933D01*
X455770Y117516D01*
X456006Y117957D01*
X460000D01*
X461305Y118129D01*
X462522Y118632D01*
X463566Y119434D01*
X467566Y123434D01*
X468367Y124478D01*
X468871Y125695D01*
X469043Y127000D01*
Y138911D01*
X470689Y140557D01*
X471666D01*
X471880Y140105D01*
D02*
G37*
G36*
X395203Y117513D02*
X394810Y117888D01*
X394404Y118224D01*
X393986Y118520D01*
X393555Y118777D01*
X393112Y118994D01*
X392656Y119172D01*
X392188Y119310D01*
X391707Y119409D01*
X391214Y119468D01*
X390708Y119488D01*
Y121488D01*
X391214Y121507D01*
X391707Y121567D01*
X392188Y121666D01*
X392656Y121804D01*
X393112Y121981D01*
X393555Y122199D01*
X393986Y122455D01*
X394404Y122752D01*
X394810Y123087D01*
X395203Y123463D01*
Y117513D01*
D02*
G37*
G36*
X450749Y118773D02*
X450787Y118375D01*
X450851Y117995D01*
X450940Y117632D01*
X451055Y117286D01*
X451195Y116958D01*
X451360Y116647D01*
X451551Y116354D01*
X451768Y116078D01*
X452010Y115820D01*
X447463D01*
X447705Y116078D01*
X447921Y116354D01*
X448112Y116647D01*
X448278Y116958D01*
X448418Y117286D01*
X448532Y117632D01*
X448622Y117995D01*
X448685Y118375D01*
X448724Y118773D01*
X448736Y119189D01*
X450736D01*
X450749Y118773D01*
D02*
G37*
G36*
X481143Y110851D02*
X480878Y110641D01*
X480642Y110408D01*
X480433Y110152D01*
X480252Y109871D01*
X480099Y109567D01*
X479974Y109239D01*
X479876Y108888D01*
X479807Y108512D01*
X479765Y108113D01*
X479751Y107690D01*
X477751Y108027D01*
X477740Y108433D01*
X477707Y108827D01*
X477652Y109210D01*
X477575Y109581D01*
X477477Y109941D01*
X477356Y110289D01*
X477213Y110626D01*
X477048Y110951D01*
X476861Y111266D01*
X476653Y111568D01*
X481143Y110851D01*
D02*
G37*
G36*
X66465Y106676D02*
X66071Y107052D01*
X65666Y107387D01*
X65247Y107684D01*
X64816Y107940D01*
X64373Y108158D01*
X63917Y108335D01*
X63449Y108474D01*
X62968Y108572D01*
X62475Y108632D01*
X61969Y108651D01*
Y110651D01*
X62475Y110671D01*
X62968Y110730D01*
X63449Y110829D01*
X63917Y110967D01*
X64373Y111145D01*
X64816Y111362D01*
X65247Y111619D01*
X65666Y111915D01*
X66071Y112251D01*
X66465Y112626D01*
Y106676D01*
D02*
G37*
G36*
X36465D02*
X36072Y107052D01*
X35666Y107387D01*
X35247Y107684D01*
X34816Y107940D01*
X34373Y108158D01*
X33917Y108335D01*
X33449Y108474D01*
X32968Y108572D01*
X32475Y108632D01*
X31969Y108651D01*
Y110651D01*
X32475Y110671D01*
X32968Y110730D01*
X33449Y110829D01*
X33917Y110967D01*
X34373Y111145D01*
X34816Y111362D01*
X35247Y111619D01*
X35666Y111915D01*
X36072Y112251D01*
X36465Y112626D01*
Y106676D01*
D02*
G37*
G36*
X431667Y110786D02*
X432073Y110450D01*
X432491Y110154D01*
X432922Y109897D01*
X433365Y109680D01*
X433821Y109502D01*
X434290Y109364D01*
X434770Y109265D01*
X435263Y109206D01*
X435769Y109186D01*
Y107186D01*
X435263Y107166D01*
X434770Y107107D01*
X434290Y107008D01*
X433821Y106870D01*
X433365Y106692D01*
X432922Y106475D01*
X432491Y106218D01*
X432073Y105922D01*
X431667Y105586D01*
X431274Y105211D01*
Y111161D01*
X431667Y110786D01*
D02*
G37*
G36*
X395203Y105211D02*
X394810Y105586D01*
X394404Y105922D01*
X393986Y106218D01*
X393555Y106475D01*
X393112Y106692D01*
X392656Y106870D01*
X392188Y107008D01*
X391707Y107107D01*
X391214Y107166D01*
X390708Y107186D01*
Y109186D01*
X391214Y109206D01*
X391707Y109265D01*
X392188Y109364D01*
X392656Y109502D01*
X393112Y109680D01*
X393555Y109897D01*
X393986Y110154D01*
X394404Y110450D01*
X394810Y110786D01*
X395203Y111161D01*
Y105211D01*
D02*
G37*
G36*
X390894Y201555D02*
X391059Y201535D01*
X391209Y201504D01*
X391349Y201463D01*
X391488Y201409D01*
X391631Y201338D01*
X391784Y201247D01*
X391949Y201130D01*
X392129Y200982D01*
X392343Y200777D01*
X392384Y200702D01*
X392416Y200449D01*
X392384Y200195D01*
X392343Y200120D01*
X392129Y199916D01*
X391949Y199767D01*
X391784Y199650D01*
X391631Y199559D01*
X391488Y199489D01*
X391349Y199435D01*
X391209Y199393D01*
X391059Y199363D01*
X390894Y199343D01*
X390850Y199341D01*
X273798D01*
X272493Y199169D01*
X271276Y198665D01*
X270232Y197864D01*
X174434Y102066D01*
X173633Y101022D01*
X173543Y100806D01*
X173043Y100905D01*
Y106411D01*
X268189Y201556D01*
X390850D01*
X390894Y201555D01*
D02*
G37*
G36*
X90828Y103804D02*
X90904Y103635D01*
X91031Y103486D01*
X91208Y103357D01*
X91435Y103248D01*
X91714Y103159D01*
X92042Y103089D01*
X92422Y103040D01*
X92852Y103010D01*
X93333Y103000D01*
Y101000D01*
X92852Y100990D01*
X92042Y100911D01*
X91714Y100841D01*
X91435Y100752D01*
X91208Y100643D01*
X91031Y100514D01*
X90904Y100365D01*
X90828Y100196D01*
X90803Y100008D01*
Y103992D01*
X90828Y103804D01*
D02*
G37*
G36*
X73561Y99809D02*
X73634Y99744D01*
X73737Y99687D01*
X73872Y99637D01*
X74037Y99595D01*
X74234Y99561D01*
X74461Y99534D01*
X75008Y99504D01*
X75328Y99500D01*
Y97500D01*
X75008Y97496D01*
X74234Y97439D01*
X74037Y97405D01*
X73872Y97363D01*
X73737Y97313D01*
X73634Y97256D01*
X73561Y97191D01*
X73519Y97119D01*
Y99881D01*
X73561Y99809D01*
D02*
G37*
G36*
X390894Y189253D02*
X391059Y189233D01*
X391209Y189202D01*
X391349Y189161D01*
X391488Y189107D01*
X391631Y189037D01*
X391784Y188946D01*
X391949Y188829D01*
X392129Y188680D01*
X392343Y188475D01*
X392384Y188400D01*
X392416Y188147D01*
X392384Y187894D01*
X392343Y187819D01*
X392129Y187614D01*
X391949Y187465D01*
X391784Y187348D01*
X391631Y187257D01*
X391488Y187187D01*
X391349Y187133D01*
X391209Y187092D01*
X391059Y187061D01*
X390894Y187041D01*
X390850Y187039D01*
X276496D01*
X275191Y186867D01*
X273975Y186364D01*
X272930Y185562D01*
X184434Y97066D01*
X183633Y96022D01*
X183543Y95806D01*
X183043Y95905D01*
Y96411D01*
X275887Y189255D01*
X390850D01*
X390894Y189253D01*
D02*
G37*
G36*
X36465Y95525D02*
X36072Y95900D01*
X35666Y96236D01*
X35247Y96532D01*
X34816Y96789D01*
X34373Y97006D01*
X33917Y97184D01*
X33449Y97322D01*
X32968Y97421D01*
X32475Y97480D01*
X31969Y97500D01*
Y99500D01*
X32475Y99520D01*
X32968Y99579D01*
X33449Y99678D01*
X33917Y99816D01*
X34373Y99994D01*
X34816Y100211D01*
X35247Y100468D01*
X35666Y100764D01*
X36072Y101100D01*
X36465Y101475D01*
Y95525D01*
D02*
G37*
G36*
X479751Y97601D02*
X479761Y97192D01*
X479791Y96825D01*
X479841Y96500D01*
X479911Y96217D01*
X480000Y95976D01*
X480110Y95778D01*
X480239Y95621D01*
X480389Y95507D01*
X480558Y95434D01*
X480748Y95404D01*
X476751Y95591D01*
X476941Y95602D01*
X477111Y95656D01*
X477261Y95752D01*
X477391Y95890D01*
X477501Y96070D01*
X477591Y96292D01*
X477661Y96557D01*
X477711Y96863D01*
X477741Y97212D01*
X477751Y97602D01*
X479751Y97601D01*
D02*
G37*
G36*
X395180Y92933D02*
X394797Y93304D01*
X394399Y93635D01*
X393987Y93928D01*
X393561Y94182D01*
X393121Y94397D01*
X392666Y94572D01*
X392198Y94709D01*
X391715Y94806D01*
X391219Y94865D01*
X390708Y94884D01*
Y96884D01*
X391219Y96904D01*
X391715Y96962D01*
X392198Y97060D01*
X392666Y97197D01*
X393121Y97372D01*
X393561Y97587D01*
X393987Y97840D01*
X394399Y98133D01*
X394797Y98465D01*
X395180Y98836D01*
Y92933D01*
D02*
G37*
G36*
X431667Y98484D02*
X432073Y98148D01*
X432491Y97852D01*
X432922Y97595D01*
X433365Y97378D01*
X433821Y97200D01*
X434290Y97062D01*
X434770Y96963D01*
X435263Y96904D01*
X435769Y96884D01*
Y94884D01*
X435263Y94864D01*
X434770Y94805D01*
X434290Y94707D01*
X433821Y94568D01*
X433365Y94390D01*
X432922Y94173D01*
X432491Y93916D01*
X432073Y93620D01*
X431667Y93285D01*
X431274Y92909D01*
Y98859D01*
X431667Y98484D01*
D02*
G37*
G36*
X443763Y90600D02*
X443742Y90790D01*
X443682Y90960D01*
X443581Y91110D01*
X443441Y91240D01*
X443260Y91350D01*
X443038Y91440D01*
X442777Y91510D01*
X442475Y91560D01*
X442133Y91590D01*
X441751Y91600D01*
Y93600D01*
X442133Y93610D01*
X442475Y93640D01*
X442777Y93690D01*
X443038Y93760D01*
X443260Y93850D01*
X443441Y93960D01*
X443581Y94090D01*
X443682Y94240D01*
X443742Y94410D01*
X443763Y94600D01*
Y90600D01*
D02*
G37*
G36*
X82197Y90008D02*
X82172Y90196D01*
X82096Y90365D01*
X81969Y90514D01*
X81792Y90643D01*
X81565Y90752D01*
X81286Y90841D01*
X80958Y90911D01*
X80578Y90960D01*
X80148Y90990D01*
X79667Y91000D01*
Y93000D01*
X80148Y93010D01*
X80958Y93089D01*
X81286Y93159D01*
X81565Y93248D01*
X81792Y93357D01*
X81969Y93486D01*
X82096Y93635D01*
X82172Y93804D01*
X82197Y93992D01*
Y90008D01*
D02*
G37*
G36*
X182957Y177095D02*
Y172589D01*
X134934Y124566D01*
X134133Y123522D01*
X133629Y122305D01*
X133457Y121000D01*
Y89589D01*
X114911Y71043D01*
X94160D01*
X93947Y71495D01*
X94299Y71925D01*
X94977Y73193D01*
X95394Y74569D01*
X95535Y76000D01*
X95394Y77431D01*
X94977Y78807D01*
X94299Y80075D01*
X93387Y81187D01*
X92275Y82099D01*
X91007Y82777D01*
X89631Y83194D01*
X88200Y83335D01*
X84800D01*
X83369Y83194D01*
X81993Y82777D01*
X80725Y82099D01*
X79613Y81187D01*
X78701Y80075D01*
X78023Y78807D01*
X77606Y77431D01*
X77465Y76000D01*
X77512Y75523D01*
X77021Y75400D01*
X76811Y75908D01*
X75908Y77259D01*
X74759Y78408D01*
X73408Y79311D01*
X71906Y79933D01*
X70312Y80250D01*
X68687D01*
X67094Y79933D01*
X65592Y79311D01*
X64241Y78408D01*
X63854Y78022D01*
X63680Y77894D01*
X63390Y77618D01*
X63211Y77469D01*
X63045Y77352D01*
X62893Y77261D01*
X62750Y77191D01*
X62611Y77137D01*
X62470Y77095D01*
X62321Y77065D01*
X62155Y77045D01*
X62111Y77043D01*
X60089D01*
X58043Y79089D01*
Y105639D01*
X58543Y105885D01*
X59327Y105284D01*
X60544Y104780D01*
X61849Y104608D01*
X62111D01*
X62155Y104606D01*
X62321Y104587D01*
X62470Y104556D01*
X62611Y104514D01*
X62750Y104460D01*
X62893Y104390D01*
X62970Y104344D01*
X63066Y104063D01*
X63092Y103759D01*
X62189Y102408D01*
X61567Y100906D01*
X61250Y99313D01*
Y97688D01*
X61567Y96094D01*
X62189Y94592D01*
X63092Y93241D01*
X64241Y92092D01*
X65592Y91189D01*
X67094Y90567D01*
X68687Y90250D01*
X70312D01*
X71906Y90567D01*
X72317Y90737D01*
X72934Y89934D01*
X74434Y88434D01*
X75478Y87633D01*
X76695Y87129D01*
X78000Y86957D01*
X79495D01*
X79613Y86813D01*
X80725Y85901D01*
X81993Y85223D01*
X83369Y84806D01*
X84800Y84665D01*
X88200D01*
X89631Y84806D01*
X91007Y85223D01*
X92275Y85901D01*
X93387Y86813D01*
X94299Y87925D01*
X94977Y89193D01*
X95394Y90569D01*
X95535Y92000D01*
X95394Y93431D01*
X94977Y94807D01*
X94299Y96075D01*
X93947Y96505D01*
X94160Y96957D01*
X113000D01*
X114305Y97129D01*
X115522Y97632D01*
X116566Y98434D01*
X129566Y111434D01*
X130368Y112478D01*
X130871Y113695D01*
X131043Y115000D01*
Y125411D01*
X181566Y175934D01*
X182368Y176978D01*
X182457Y177194D01*
X182957Y177095D01*
D02*
G37*
G36*
X474524Y80608D02*
X474498Y80796D01*
X474420Y80965D01*
X474289Y81114D01*
X474107Y81243D01*
X473873Y81352D01*
X473586Y81441D01*
X473248Y81511D01*
X472857Y81560D01*
X472414Y81590D01*
X471919Y81600D01*
Y83600D01*
X472414Y83610D01*
X473248Y83689D01*
X473586Y83759D01*
X473873Y83848D01*
X474107Y83957D01*
X474289Y84086D01*
X474420Y84235D01*
X474498Y84404D01*
X474524Y84592D01*
Y80608D01*
D02*
G37*
G36*
X431667Y86182D02*
X432073Y85847D01*
X432491Y85550D01*
X432922Y85294D01*
X433365Y85076D01*
X433821Y84899D01*
X434290Y84760D01*
X434770Y84662D01*
X435263Y84602D01*
X435769Y84583D01*
Y82583D01*
X435263Y82563D01*
X434770Y82504D01*
X434290Y82405D01*
X433821Y82267D01*
X433365Y82089D01*
X432922Y81872D01*
X432491Y81615D01*
X432073Y81319D01*
X431667Y80983D01*
X431274Y80608D01*
Y86558D01*
X431667Y86182D01*
D02*
G37*
G36*
X395262Y80549D02*
X394859Y80920D01*
X394444Y81252D01*
X394019Y81544D01*
X393582Y81798D01*
X393135Y82012D01*
X392676Y82188D01*
X392206Y82324D01*
X391724Y82422D01*
X391232Y82481D01*
X390729Y82500D01*
X390689Y84500D01*
X391197Y84520D01*
X391691Y84580D01*
X392171Y84680D01*
X392637Y84820D01*
X393090Y85000D01*
X393529Y85219D01*
X393954Y85479D01*
X394365Y85779D01*
X394763Y86118D01*
X395146Y86498D01*
X395262Y80549D01*
D02*
G37*
G36*
X444703Y80420D02*
X444661Y80608D01*
X444568Y80777D01*
X444424Y80926D01*
X444229Y81054D01*
X443982Y81163D01*
X443685Y81252D01*
X443337Y81322D01*
X442938Y81371D01*
X442487Y81401D01*
X441986Y81411D01*
X441862Y83411D01*
X442353Y83421D01*
X443176Y83500D01*
X443506Y83570D01*
X443784Y83659D01*
X444008Y83768D01*
X444178Y83897D01*
X444295Y84046D01*
X444359Y84215D01*
X444369Y84403D01*
X444703Y80420D01*
D02*
G37*
G36*
X385434Y79934D02*
X386478Y79132D01*
X387695Y78629D01*
X389000Y78457D01*
X390873D01*
X390915Y78455D01*
X391085Y78435D01*
X391240Y78404D01*
X391390Y78360D01*
X391539Y78303D01*
X391694Y78229D01*
X391859Y78133D01*
X392038Y78010D01*
X392230Y77856D01*
X392339Y77756D01*
X392376Y77690D01*
X392403Y77371D01*
X392390Y77224D01*
X392341Y77101D01*
X392129Y76898D01*
X391949Y76750D01*
X391784Y76633D01*
X391631Y76542D01*
X391488Y76472D01*
X391349Y76418D01*
X391209Y76376D01*
X391059Y76346D01*
X390894Y76326D01*
X390850Y76324D01*
X380308D01*
X379043Y77589D01*
Y85672D01*
X379505Y85863D01*
X385434Y79934D01*
D02*
G37*
G36*
X459957Y93411D02*
Y86500D01*
X460129Y85195D01*
X460633Y83978D01*
X461434Y82934D01*
X465334Y79034D01*
X466378Y78233D01*
X466594Y78143D01*
X466495Y77643D01*
X464100D01*
X462795Y77471D01*
X461578Y76968D01*
X460534Y76166D01*
X457247Y72879D01*
X456727Y73066D01*
X456637Y73972D01*
X456237Y75292D01*
X455587Y76508D01*
X455004Y77219D01*
X454731Y77600D01*
X455004Y77981D01*
X455587Y78692D01*
X456237Y79908D01*
X456637Y81228D01*
X456772Y82600D01*
X456637Y83972D01*
X456295Y85100D01*
X456582Y85600D01*
X456739D01*
Y93957D01*
X459411D01*
X459957Y93411D01*
D02*
G37*
G36*
X27328Y75304D02*
X27404Y75135D01*
X27531Y74986D01*
X27708Y74857D01*
X27935Y74748D01*
X28214Y74659D01*
X28542Y74589D01*
X28922Y74540D01*
X29352Y74510D01*
X29833Y74500D01*
Y72500D01*
X29352Y72490D01*
X28542Y72411D01*
X28214Y72341D01*
X27935Y72252D01*
X27708Y72143D01*
X27531Y72014D01*
X27404Y71865D01*
X27328Y71696D01*
X27303Y71508D01*
Y75492D01*
X27328Y75304D01*
D02*
G37*
G36*
X474524Y70608D02*
X474498Y70796D01*
X474420Y70965D01*
X474289Y71114D01*
X474107Y71243D01*
X473873Y71352D01*
X473586Y71441D01*
X473248Y71511D01*
X472857Y71560D01*
X472414Y71590D01*
X471919Y71600D01*
Y73600D01*
X472414Y73610D01*
X473248Y73689D01*
X473586Y73759D01*
X473873Y73848D01*
X474107Y73957D01*
X474289Y74086D01*
X474420Y74235D01*
X474498Y74404D01*
X474524Y74592D01*
Y70608D01*
D02*
G37*
G36*
X444606Y70508D02*
X444572Y70696D01*
X444487Y70865D01*
X444350Y71014D01*
X444161Y71143D01*
X443921Y71252D01*
X443630Y71341D01*
X443287Y71411D01*
X442893Y71460D01*
X442447Y71490D01*
X441950Y71500D01*
X441889Y73500D01*
X442381Y73510D01*
X443208Y73589D01*
X443542Y73659D01*
X443824Y73748D01*
X444053Y73857D01*
X444229Y73986D01*
X444353Y74135D01*
X444423Y74304D01*
X444442Y74492D01*
X444606Y70508D01*
D02*
G37*
G36*
X35734Y70031D02*
X35615Y70215D01*
X35462Y70380D01*
X35275Y70525D01*
X35053Y70651D01*
X34797Y70758D01*
X34506Y70845D01*
X34181Y70913D01*
X33822Y70961D01*
X33428Y70990D01*
X33000Y71000D01*
Y73000D01*
X33428Y73010D01*
X34181Y73087D01*
X34506Y73155D01*
X34797Y73242D01*
X35053Y73349D01*
X35275Y73475D01*
X35462Y73620D01*
X35615Y73785D01*
X35734Y73969D01*
Y70031D01*
D02*
G37*
G36*
X66465Y69025D02*
X66071Y69400D01*
X65666Y69736D01*
X65247Y70032D01*
X64816Y70289D01*
X64373Y70506D01*
X63917Y70684D01*
X63449Y70822D01*
X62968Y70921D01*
X62475Y70980D01*
X61969Y71000D01*
Y73000D01*
X62475Y73020D01*
X62968Y73079D01*
X63449Y73178D01*
X63917Y73316D01*
X64373Y73494D01*
X64816Y73711D01*
X65247Y73968D01*
X65666Y74264D01*
X66071Y74600D01*
X66465Y74975D01*
Y69025D01*
D02*
G37*
G36*
X431667Y73881D02*
X432073Y73545D01*
X432491Y73249D01*
X432922Y72992D01*
X433365Y72775D01*
X433821Y72597D01*
X434290Y72459D01*
X434770Y72360D01*
X435263Y72301D01*
X435769Y72281D01*
Y70281D01*
X435263Y70261D01*
X434770Y70202D01*
X434290Y70103D01*
X433821Y69965D01*
X433365Y69787D01*
X432922Y69570D01*
X432491Y69313D01*
X432073Y69017D01*
X431667Y68681D01*
X431274Y68306D01*
Y74256D01*
X431667Y73881D01*
D02*
G37*
G36*
X395203Y68306D02*
X394810Y68681D01*
X394404Y69017D01*
X393986Y69313D01*
X393555Y69570D01*
X393112Y69787D01*
X392656Y69965D01*
X392188Y70103D01*
X391707Y70202D01*
X391214Y70261D01*
X390708Y70281D01*
Y72281D01*
X391214Y72301D01*
X391707Y72360D01*
X392188Y72459D01*
X392656Y72597D01*
X393112Y72775D01*
X393555Y72992D01*
X393986Y73249D01*
X394404Y73545D01*
X394810Y73881D01*
X395203Y74256D01*
Y68306D01*
D02*
G37*
G36*
X374653Y67715D02*
X375697Y66913D01*
X376914Y66410D01*
X378219Y66238D01*
X390850D01*
X390894Y66236D01*
X391059Y66216D01*
X391209Y66185D01*
X391349Y66144D01*
X391488Y66090D01*
X391631Y66020D01*
X391784Y65929D01*
X391949Y65812D01*
X392129Y65663D01*
X392343Y65458D01*
X392384Y65383D01*
X392416Y65130D01*
X392384Y64877D01*
X392343Y64802D01*
X392129Y64597D01*
X391949Y64448D01*
X391784Y64331D01*
X391631Y64240D01*
X391488Y64170D01*
X391349Y64116D01*
X391209Y64075D01*
X391059Y64044D01*
X390894Y64024D01*
X390850Y64022D01*
X375110D01*
X372043Y67089D01*
Y69671D01*
X372505Y69863D01*
X374653Y67715D01*
D02*
G37*
G36*
X90828Y67804D02*
X90904Y67635D01*
X91031Y67486D01*
X91208Y67357D01*
X91435Y67248D01*
X91714Y67159D01*
X92042Y67089D01*
X92422Y67040D01*
X92852Y67010D01*
X93333Y67000D01*
Y65000D01*
X92852Y64990D01*
X92042Y64911D01*
X91714Y64841D01*
X91435Y64752D01*
X91208Y64643D01*
X91031Y64514D01*
X90904Y64365D01*
X90828Y64196D01*
X90803Y64008D01*
Y67992D01*
X90828Y67804D01*
D02*
G37*
G36*
X27328Y65304D02*
X27404Y65135D01*
X27531Y64986D01*
X27708Y64857D01*
X27935Y64748D01*
X28214Y64659D01*
X28542Y64589D01*
X28922Y64540D01*
X29352Y64510D01*
X29833Y64500D01*
Y62500D01*
X29352Y62490D01*
X28542Y62411D01*
X28214Y62341D01*
X27935Y62252D01*
X27708Y62143D01*
X27531Y62014D01*
X27404Y61865D01*
X27328Y61696D01*
X27303Y61508D01*
Y65492D01*
X27328Y65304D01*
D02*
G37*
G36*
X169010Y62551D02*
X169040Y62209D01*
X169090Y61907D01*
X169160Y61645D01*
X169250Y61424D01*
X169360Y61243D01*
X169490Y61102D01*
X169640Y61001D01*
X169810Y60941D01*
X170000Y60921D01*
X166000D01*
X166190Y60941D01*
X166360Y61001D01*
X166510Y61102D01*
X166640Y61243D01*
X166750Y61424D01*
X166840Y61645D01*
X166910Y61907D01*
X166960Y62209D01*
X166990Y62551D01*
X167000Y62933D01*
X169000D01*
X169010Y62551D01*
D02*
G37*
G36*
X279010Y62836D02*
X279089Y62045D01*
X279159Y61724D01*
X279248Y61453D01*
X279357Y61230D01*
X279486Y61058D01*
X279635Y60934D01*
X279804Y60860D01*
X279992Y60835D01*
X276008D01*
X276196Y60860D01*
X276365Y60934D01*
X276514Y61058D01*
X276643Y61230D01*
X276752Y61453D01*
X276841Y61724D01*
X276911Y62045D01*
X276960Y62416D01*
X276990Y62836D01*
X277000Y63305D01*
X279000D01*
X279010Y62836D01*
D02*
G37*
G36*
X319010Y62811D02*
X319089Y62021D01*
X319159Y61700D01*
X319248Y61429D01*
X319357Y61206D01*
X319486Y61034D01*
X319635Y60910D01*
X319804Y60836D01*
X319992Y60811D01*
X316008D01*
X316196Y60836D01*
X316365Y60910D01*
X316514Y61034D01*
X316643Y61206D01*
X316752Y61429D01*
X316841Y61700D01*
X316911Y62021D01*
X316960Y62392D01*
X316990Y62811D01*
X317000Y63281D01*
X319000D01*
X319010Y62811D01*
D02*
G37*
G36*
X309010D02*
X309089Y62021D01*
X309159Y61700D01*
X309248Y61429D01*
X309357Y61206D01*
X309486Y61034D01*
X309635Y60910D01*
X309804Y60836D01*
X309992Y60811D01*
X306008D01*
X306196Y60836D01*
X306365Y60910D01*
X306514Y61034D01*
X306643Y61206D01*
X306752Y61429D01*
X306841Y61700D01*
X306911Y62021D01*
X306960Y62392D01*
X306990Y62811D01*
X307000Y63281D01*
X309000D01*
X309010Y62811D01*
D02*
G37*
G36*
X299010D02*
X299089Y62021D01*
X299159Y61700D01*
X299248Y61429D01*
X299357Y61206D01*
X299486Y61034D01*
X299635Y60910D01*
X299804Y60836D01*
X299992Y60811D01*
X296008D01*
X296196Y60836D01*
X296365Y60910D01*
X296514Y61034D01*
X296643Y61206D01*
X296752Y61429D01*
X296841Y61700D01*
X296911Y62021D01*
X296960Y62392D01*
X296990Y62811D01*
X297000Y63281D01*
X299000D01*
X299010Y62811D01*
D02*
G37*
G36*
X289010D02*
X289089Y62021D01*
X289159Y61700D01*
X289248Y61429D01*
X289357Y61206D01*
X289486Y61034D01*
X289635Y60910D01*
X289804Y60836D01*
X289992Y60811D01*
X286008D01*
X286196Y60836D01*
X286365Y60910D01*
X286514Y61034D01*
X286643Y61206D01*
X286752Y61429D01*
X286841Y61700D01*
X286911Y62021D01*
X286960Y62392D01*
X286990Y62811D01*
X287000Y63281D01*
X289000D01*
X289010Y62811D01*
D02*
G37*
G36*
X269010D02*
X269089Y62021D01*
X269159Y61700D01*
X269248Y61429D01*
X269357Y61206D01*
X269486Y61034D01*
X269635Y60910D01*
X269804Y60836D01*
X269992Y60811D01*
X266008D01*
X266196Y60836D01*
X266365Y60910D01*
X266514Y61034D01*
X266643Y61206D01*
X266752Y61429D01*
X266841Y61700D01*
X266911Y62021D01*
X266960Y62392D01*
X266990Y62811D01*
X267000Y63281D01*
X269000D01*
X269010Y62811D01*
D02*
G37*
G36*
X259010D02*
X259089Y62021D01*
X259159Y61700D01*
X259248Y61429D01*
X259357Y61206D01*
X259486Y61034D01*
X259635Y60910D01*
X259804Y60836D01*
X259992Y60811D01*
X256008D01*
X256196Y60836D01*
X256365Y60910D01*
X256514Y61034D01*
X256643Y61206D01*
X256752Y61429D01*
X256841Y61700D01*
X256911Y62021D01*
X256960Y62392D01*
X256990Y62811D01*
X257000Y63281D01*
X259000D01*
X259010Y62811D01*
D02*
G37*
G36*
X249010D02*
X249089Y62021D01*
X249159Y61700D01*
X249248Y61429D01*
X249357Y61206D01*
X249486Y61034D01*
X249635Y60910D01*
X249804Y60836D01*
X249992Y60811D01*
X246008D01*
X246196Y60836D01*
X246365Y60910D01*
X246514Y61034D01*
X246643Y61206D01*
X246752Y61429D01*
X246841Y61700D01*
X246911Y62021D01*
X246960Y62392D01*
X246990Y62811D01*
X247000Y63281D01*
X249000D01*
X249010Y62811D01*
D02*
G37*
G36*
X239010D02*
X239089Y62021D01*
X239159Y61700D01*
X239248Y61429D01*
X239357Y61206D01*
X239486Y61034D01*
X239635Y60910D01*
X239804Y60836D01*
X239992Y60811D01*
X236008D01*
X236196Y60836D01*
X236365Y60910D01*
X236514Y61034D01*
X236643Y61206D01*
X236752Y61429D01*
X236841Y61700D01*
X236911Y62021D01*
X236960Y62392D01*
X236990Y62811D01*
X237000Y63281D01*
X239000D01*
X239010Y62811D01*
D02*
G37*
G36*
X229010D02*
X229089Y62021D01*
X229159Y61700D01*
X229248Y61429D01*
X229357Y61206D01*
X229486Y61034D01*
X229635Y60910D01*
X229804Y60836D01*
X229992Y60811D01*
X226008D01*
X226196Y60836D01*
X226365Y60910D01*
X226514Y61034D01*
X226643Y61206D01*
X226752Y61429D01*
X226841Y61700D01*
X226911Y62021D01*
X226960Y62392D01*
X226990Y62811D01*
X227000Y63281D01*
X229000D01*
X229010Y62811D01*
D02*
G37*
G36*
X219010D02*
X219089Y62021D01*
X219159Y61700D01*
X219248Y61429D01*
X219357Y61206D01*
X219486Y61034D01*
X219635Y60910D01*
X219804Y60836D01*
X219992Y60811D01*
X216008D01*
X216196Y60836D01*
X216365Y60910D01*
X216514Y61034D01*
X216643Y61206D01*
X216752Y61429D01*
X216841Y61700D01*
X216911Y62021D01*
X216960Y62392D01*
X216990Y62811D01*
X217000Y63281D01*
X219000D01*
X219010Y62811D01*
D02*
G37*
G36*
X209010D02*
X209089Y62021D01*
X209159Y61700D01*
X209248Y61429D01*
X209357Y61206D01*
X209486Y61034D01*
X209635Y60910D01*
X209804Y60836D01*
X209992Y60811D01*
X206008D01*
X206196Y60836D01*
X206365Y60910D01*
X206514Y61034D01*
X206643Y61206D01*
X206752Y61429D01*
X206841Y61700D01*
X206911Y62021D01*
X206960Y62392D01*
X206990Y62811D01*
X207000Y63281D01*
X209000D01*
X209010Y62811D01*
D02*
G37*
G36*
X199010D02*
X199089Y62021D01*
X199159Y61700D01*
X199248Y61429D01*
X199357Y61206D01*
X199486Y61034D01*
X199635Y60910D01*
X199804Y60836D01*
X199992Y60811D01*
X196008D01*
X196196Y60836D01*
X196365Y60910D01*
X196514Y61034D01*
X196643Y61206D01*
X196752Y61429D01*
X196841Y61700D01*
X196911Y62021D01*
X196960Y62392D01*
X196990Y62811D01*
X197000Y63281D01*
X199000D01*
X199010Y62811D01*
D02*
G37*
G36*
X189010D02*
X189089Y62021D01*
X189159Y61700D01*
X189248Y61429D01*
X189357Y61206D01*
X189486Y61034D01*
X189635Y60910D01*
X189804Y60836D01*
X189992Y60811D01*
X186008D01*
X186196Y60836D01*
X186365Y60910D01*
X186514Y61034D01*
X186643Y61206D01*
X186752Y61429D01*
X186841Y61700D01*
X186911Y62021D01*
X186960Y62392D01*
X186990Y62811D01*
X187000Y63281D01*
X189000D01*
X189010Y62811D01*
D02*
G37*
G36*
X179010D02*
X179089Y62021D01*
X179159Y61700D01*
X179248Y61429D01*
X179357Y61206D01*
X179486Y61034D01*
X179635Y60910D01*
X179804Y60836D01*
X179992Y60811D01*
X176008D01*
X176196Y60836D01*
X176365Y60910D01*
X176514Y61034D01*
X176643Y61206D01*
X176752Y61429D01*
X176841Y61700D01*
X176911Y62021D01*
X176960Y62392D01*
X176990Y62811D01*
X177000Y63281D01*
X179000D01*
X179010Y62811D01*
D02*
G37*
G36*
X444606Y60508D02*
X444572Y60696D01*
X444487Y60865D01*
X444350Y61014D01*
X444161Y61143D01*
X443921Y61252D01*
X443630Y61341D01*
X443287Y61411D01*
X442893Y61460D01*
X442447Y61490D01*
X441950Y61500D01*
X441889Y63500D01*
X442381Y63510D01*
X443208Y63589D01*
X443542Y63659D01*
X443824Y63748D01*
X444053Y63857D01*
X444229Y63986D01*
X444353Y64135D01*
X444423Y64304D01*
X444442Y64492D01*
X444606Y60508D01*
D02*
G37*
G36*
X73561Y61809D02*
X73634Y61744D01*
X73737Y61687D01*
X73872Y61637D01*
X74037Y61595D01*
X74234Y61561D01*
X74461Y61534D01*
X75008Y61504D01*
X75328Y61500D01*
Y59500D01*
X75008Y59496D01*
X74234Y59439D01*
X74037Y59405D01*
X73872Y59363D01*
X73737Y59313D01*
X73634Y59256D01*
X73561Y59191D01*
X73519Y59119D01*
Y61881D01*
X73561Y61809D01*
D02*
G37*
G36*
X35560Y58906D02*
X35538Y58924D01*
X35486Y58940D01*
X35404Y58954D01*
X35292Y58966D01*
X34780Y58991D01*
X34000Y59000D01*
Y61000D01*
X34243Y61001D01*
X35172Y61063D01*
X35239Y61083D01*
X35280Y61105D01*
X35297Y61129D01*
X35560Y58906D01*
D02*
G37*
G36*
X431667Y61579D02*
X432073Y61243D01*
X432491Y60947D01*
X432922Y60690D01*
X433365Y60473D01*
X433821Y60295D01*
X434290Y60157D01*
X434770Y60058D01*
X435263Y59999D01*
X435769Y59979D01*
Y57979D01*
X435263Y57960D01*
X434770Y57900D01*
X434290Y57801D01*
X433821Y57663D01*
X433365Y57486D01*
X432922Y57268D01*
X432491Y57011D01*
X432073Y56715D01*
X431667Y56379D01*
X431274Y56004D01*
Y61954D01*
X431667Y61579D01*
D02*
G37*
G36*
X395203Y56004D02*
X394810Y56379D01*
X394404Y56715D01*
X393986Y57011D01*
X393555Y57268D01*
X393112Y57486D01*
X392656Y57663D01*
X392188Y57801D01*
X391707Y57900D01*
X391214Y57960D01*
X390708Y57979D01*
Y59979D01*
X391214Y59999D01*
X391707Y60058D01*
X392188Y60157D01*
X392656Y60295D01*
X393112Y60473D01*
X393555Y60690D01*
X393986Y60947D01*
X394404Y61243D01*
X394810Y61579D01*
X395203Y61954D01*
Y56004D01*
D02*
G37*
G36*
X82197Y54008D02*
X82172Y54196D01*
X82096Y54365D01*
X81969Y54514D01*
X81792Y54643D01*
X81565Y54752D01*
X81286Y54841D01*
X80958Y54911D01*
X80578Y54960D01*
X80148Y54990D01*
X79667Y55000D01*
Y57000D01*
X80148Y57010D01*
X80958Y57089D01*
X81286Y57159D01*
X81565Y57248D01*
X81792Y57357D01*
X81969Y57486D01*
X82096Y57635D01*
X82172Y57804D01*
X82197Y57992D01*
Y54008D01*
D02*
G37*
G36*
X369455Y55413D02*
X370499Y54612D01*
X371715Y54108D01*
X373021Y53936D01*
X390850D01*
X390894Y53934D01*
X391059Y53914D01*
X391209Y53884D01*
X391349Y53842D01*
X391488Y53788D01*
X391631Y53718D01*
X391784Y53627D01*
X391949Y53510D01*
X392129Y53362D01*
X392343Y53157D01*
X392384Y53082D01*
X392416Y52828D01*
X392384Y52575D01*
X392343Y52500D01*
X392129Y52295D01*
X391949Y52147D01*
X391784Y52030D01*
X391631Y51939D01*
X391488Y51869D01*
X391349Y51815D01*
X391209Y51773D01*
X391059Y51742D01*
X390894Y51722D01*
X390850Y51721D01*
X371911D01*
X365543Y58089D01*
Y58671D01*
X366005Y58863D01*
X369455Y55413D01*
D02*
G37*
G36*
X444524Y50608D02*
X444498Y50796D01*
X444420Y50965D01*
X444289Y51114D01*
X444107Y51243D01*
X443873Y51352D01*
X443586Y51441D01*
X443248Y51511D01*
X442857Y51560D01*
X442414Y51590D01*
X441919Y51600D01*
Y53600D01*
X442414Y53610D01*
X443248Y53689D01*
X443586Y53759D01*
X443873Y53848D01*
X444107Y53957D01*
X444289Y54086D01*
X444420Y54235D01*
X444498Y54404D01*
X444524Y54592D01*
Y50608D01*
D02*
G37*
G36*
X192957Y168095D02*
Y163089D01*
X149934Y120066D01*
X149133Y119022D01*
X148629Y117805D01*
X148457Y116500D01*
Y48089D01*
X130411Y30043D01*
X94160D01*
X93947Y30495D01*
X94299Y30925D01*
X94977Y32193D01*
X95394Y33569D01*
X95535Y35000D01*
X95394Y36431D01*
X94977Y37807D01*
X94299Y39075D01*
X93387Y40187D01*
X92275Y41099D01*
X91007Y41777D01*
X89631Y42194D01*
X88200Y42335D01*
X84800D01*
X83369Y42194D01*
X81993Y41777D01*
X80725Y41099D01*
X79613Y40187D01*
X78701Y39075D01*
X78023Y37807D01*
X77606Y36431D01*
X77555Y35918D01*
X77045Y35842D01*
X76811Y36408D01*
X75908Y37759D01*
X74759Y38908D01*
X73408Y39811D01*
X71906Y40433D01*
X70312Y40750D01*
X68687D01*
X67094Y40433D01*
X65592Y39811D01*
X64241Y38908D01*
X63854Y38522D01*
X63680Y38394D01*
X63390Y38118D01*
X63211Y37969D01*
X63045Y37852D01*
X62893Y37761D01*
X62750Y37691D01*
X62611Y37637D01*
X62470Y37595D01*
X62321Y37565D01*
X62155Y37545D01*
X62111Y37543D01*
X57589D01*
X53043Y42089D01*
Y69172D01*
X53505Y69363D01*
X54434Y68434D01*
X55478Y67633D01*
X56695Y67129D01*
X58000Y66957D01*
X62111D01*
X62155Y66955D01*
X62321Y66935D01*
X62470Y66904D01*
X62611Y66863D01*
X62750Y66809D01*
X62893Y66739D01*
X63045Y66648D01*
X63179Y66553D01*
X63212Y66513D01*
X63269Y65936D01*
X63092Y65759D01*
X62189Y64408D01*
X61567Y62906D01*
X61250Y61313D01*
Y59688D01*
X61567Y58094D01*
X62189Y56592D01*
X63092Y55241D01*
X64241Y54092D01*
X65592Y53189D01*
X67094Y52567D01*
X68687Y52250D01*
X70312D01*
X71906Y52567D01*
X73408Y53189D01*
X73673Y53366D01*
X74606Y52434D01*
X75650Y51632D01*
X76866Y51129D01*
X78172Y50957D01*
X79495D01*
X79613Y50813D01*
X80725Y49901D01*
X81993Y49223D01*
X83369Y48806D01*
X84800Y48665D01*
X88200D01*
X89631Y48806D01*
X91007Y49223D01*
X92275Y49901D01*
X93387Y50813D01*
X94299Y51925D01*
X94977Y53193D01*
X95394Y54569D01*
X95535Y56000D01*
X95394Y57431D01*
X94977Y58807D01*
X94299Y60075D01*
X93947Y60505D01*
X94160Y60957D01*
X117000D01*
X118305Y61129D01*
X119522Y61633D01*
X120566Y62434D01*
X142066Y83934D01*
X142868Y84978D01*
X143371Y86195D01*
X143543Y87500D01*
Y118911D01*
X191566Y166934D01*
X192367Y167978D01*
X192457Y168194D01*
X192957Y168095D01*
D02*
G37*
G36*
X483853Y45300D02*
X483510Y44944D01*
X482977Y44298D01*
X482787Y44010D01*
X482648Y43744D01*
X482559Y43501D01*
X482521Y43281D01*
X482535Y43084D01*
X482599Y42909D01*
X482714Y42757D01*
X479896Y45575D01*
X480048Y45460D01*
X480222Y45396D01*
X480419Y45383D01*
X480640Y45421D01*
X480883Y45509D01*
X481148Y45648D01*
X481437Y45839D01*
X481748Y46080D01*
X482082Y46372D01*
X482439Y46715D01*
X483853Y45300D01*
D02*
G37*
G36*
X431918Y48876D02*
X432176Y48625D01*
X432464Y48403D01*
X432782Y48210D01*
X433130Y48047D01*
X433508Y47914D01*
X433917Y47811D01*
X434355Y47737D01*
X434824Y47692D01*
X435323Y47677D01*
Y45678D01*
X434824Y45663D01*
X434355Y45618D01*
X433917Y45544D01*
X433508Y45441D01*
X433130Y45308D01*
X432782Y45145D01*
X432464Y44952D01*
X432176Y44730D01*
X431918Y44479D01*
X431690Y44198D01*
Y49157D01*
X431918Y48876D01*
D02*
G37*
G36*
X395203Y43703D02*
X394810Y44078D01*
X394404Y44414D01*
X393986Y44710D01*
X393555Y44967D01*
X393112Y45184D01*
X392656Y45362D01*
X392188Y45500D01*
X391707Y45599D01*
X391214Y45658D01*
X390708Y45678D01*
Y47677D01*
X391214Y47697D01*
X391707Y47756D01*
X392188Y47855D01*
X392656Y47993D01*
X393112Y48171D01*
X393555Y48388D01*
X393986Y48645D01*
X394404Y48941D01*
X394810Y49277D01*
X395203Y49652D01*
Y43703D01*
D02*
G37*
G36*
X444524Y40608D02*
X444498Y40796D01*
X444420Y40965D01*
X444289Y41114D01*
X444107Y41243D01*
X443873Y41352D01*
X443586Y41441D01*
X443248Y41511D01*
X442857Y41560D01*
X442414Y41590D01*
X441919Y41600D01*
Y43600D01*
X442414Y43610D01*
X443248Y43689D01*
X443586Y43759D01*
X443873Y43848D01*
X444107Y43957D01*
X444289Y44086D01*
X444420Y44235D01*
X444498Y44404D01*
X444524Y44592D01*
Y40608D01*
D02*
G37*
G36*
X366256Y43112D02*
X367301Y42310D01*
X368517Y41806D01*
X369823Y41634D01*
X369823Y41634D01*
X390850D01*
X390894Y41633D01*
X391059Y41613D01*
X391209Y41582D01*
X391349Y41541D01*
X391488Y41486D01*
X391631Y41416D01*
X391784Y41325D01*
X391949Y41208D01*
X392129Y41060D01*
X392343Y40855D01*
X392384Y40780D01*
X392416Y40527D01*
X392384Y40273D01*
X392343Y40198D01*
X392129Y39993D01*
X391949Y39845D01*
X391784Y39728D01*
X391631Y39637D01*
X391488Y39567D01*
X391349Y39513D01*
X391209Y39471D01*
X391059Y39441D01*
X390894Y39421D01*
X390850Y39419D01*
X367713D01*
X357543Y49589D01*
Y51171D01*
X358005Y51363D01*
X366256Y43112D01*
D02*
G37*
G36*
X431791Y36788D02*
X432122Y36492D01*
X432476Y36230D01*
X432854Y36004D01*
X433256Y35812D01*
X433682Y35655D01*
X434132Y35533D01*
X434606Y35445D01*
X435103Y35393D01*
X435624Y35376D01*
Y33376D01*
X435103Y33358D01*
X434606Y33306D01*
X434132Y33219D01*
X433682Y33097D01*
X433256Y32940D01*
X432854Y32748D01*
X432476Y32521D01*
X432122Y32260D01*
X431791Y31963D01*
X431484Y31632D01*
Y37119D01*
X431791Y36788D01*
D02*
G37*
G36*
X395203Y31401D02*
X394810Y31776D01*
X394404Y32112D01*
X393986Y32408D01*
X393555Y32665D01*
X393112Y32882D01*
X392656Y33060D01*
X392188Y33198D01*
X391707Y33297D01*
X391214Y33356D01*
X390708Y33376D01*
Y35376D01*
X391214Y35396D01*
X391707Y35455D01*
X392188Y35554D01*
X392656Y35692D01*
X393112Y35870D01*
X393555Y36087D01*
X393986Y36344D01*
X394404Y36640D01*
X394810Y36975D01*
X395203Y37351D01*
Y31401D01*
D02*
G37*
G36*
X444524Y30608D02*
X444498Y30796D01*
X444420Y30965D01*
X444289Y31114D01*
X444107Y31243D01*
X443873Y31352D01*
X443586Y31441D01*
X443248Y31511D01*
X442857Y31560D01*
X442414Y31590D01*
X441919Y31600D01*
Y33600D01*
X442414Y33610D01*
X443248Y33689D01*
X443586Y33759D01*
X443873Y33848D01*
X444107Y33957D01*
X444289Y34086D01*
X444420Y34235D01*
X444498Y34404D01*
X444524Y34592D01*
Y30608D01*
D02*
G37*
G36*
X66465Y29525D02*
X66071Y29900D01*
X65666Y30236D01*
X65247Y30532D01*
X64816Y30789D01*
X64373Y31006D01*
X63917Y31184D01*
X63449Y31322D01*
X62968Y31421D01*
X62475Y31480D01*
X61969Y31500D01*
Y33500D01*
X62475Y33520D01*
X62968Y33579D01*
X63449Y33678D01*
X63917Y33816D01*
X64373Y33994D01*
X64816Y34211D01*
X65247Y34468D01*
X65666Y34764D01*
X66071Y35100D01*
X66465Y35475D01*
Y29525D01*
D02*
G37*
G36*
X36465D02*
X36072Y29900D01*
X35666Y30236D01*
X35247Y30532D01*
X34816Y30789D01*
X34373Y31006D01*
X33917Y31184D01*
X33449Y31322D01*
X32968Y31421D01*
X32475Y31480D01*
X31969Y31500D01*
Y33500D01*
X32475Y33520D01*
X32968Y33579D01*
X33449Y33678D01*
X33917Y33816D01*
X34373Y33994D01*
X34816Y34211D01*
X35247Y34468D01*
X35666Y34764D01*
X36072Y35100D01*
X36465Y35475D01*
Y29525D01*
D02*
G37*
G36*
X347629Y46195D02*
X348132Y44978D01*
X348934Y43934D01*
X362058Y30810D01*
X363103Y30008D01*
X364319Y29504D01*
X365624Y29333D01*
X390850D01*
X390894Y29331D01*
X391059Y29311D01*
X391209Y29280D01*
X391349Y29239D01*
X391488Y29185D01*
X391631Y29115D01*
X391784Y29024D01*
X391949Y28907D01*
X392129Y28758D01*
X392343Y28553D01*
X392384Y28478D01*
X392416Y28225D01*
X392384Y27972D01*
X392343Y27897D01*
X392129Y27692D01*
X391949Y27543D01*
X391784Y27426D01*
X391631Y27335D01*
X391488Y27265D01*
X391349Y27211D01*
X391209Y27169D01*
X391059Y27139D01*
X390894Y27119D01*
X390850Y27117D01*
X362015D01*
X347043Y42089D01*
Y46812D01*
X347543Y46845D01*
X347629Y46195D01*
D02*
G37*
G36*
X483853Y25300D02*
X483510Y24944D01*
X482977Y24298D01*
X482787Y24010D01*
X482648Y23744D01*
X482559Y23501D01*
X482521Y23281D01*
X482535Y23084D01*
X482599Y22909D01*
X482714Y22757D01*
X479896Y25575D01*
X480048Y25460D01*
X480222Y25396D01*
X480419Y25383D01*
X480640Y25420D01*
X480883Y25509D01*
X481148Y25648D01*
X481437Y25839D01*
X481748Y26080D01*
X482082Y26372D01*
X482439Y26715D01*
X483853Y25300D01*
D02*
G37*
G36*
X90828Y26804D02*
X90904Y26635D01*
X91031Y26486D01*
X91208Y26357D01*
X91435Y26248D01*
X91714Y26159D01*
X92042Y26089D01*
X92422Y26040D01*
X92852Y26010D01*
X93333Y26000D01*
Y24000D01*
X92852Y23990D01*
X92042Y23911D01*
X91714Y23841D01*
X91435Y23752D01*
X91208Y23643D01*
X91031Y23514D01*
X90904Y23365D01*
X90828Y23196D01*
X90803Y23008D01*
Y26992D01*
X90828Y26804D01*
D02*
G37*
G36*
X432095Y23923D02*
X432262Y23744D01*
X432463Y23587D01*
X432698Y23451D01*
X432967Y23336D01*
X433271Y23242D01*
X433609Y23168D01*
X433981Y23116D01*
X434388Y23085D01*
X434828Y23074D01*
Y21074D01*
X434388Y21064D01*
X433981Y21032D01*
X433609Y20980D01*
X433271Y20907D01*
X432967Y20812D01*
X432698Y20697D01*
X432463Y20561D01*
X432262Y20404D01*
X432095Y20226D01*
X431963Y20027D01*
Y24122D01*
X432095Y23923D01*
D02*
G37*
G36*
X395203Y19099D02*
X394810Y19474D01*
X394404Y19810D01*
X393986Y20106D01*
X393555Y20363D01*
X393112Y20580D01*
X392656Y20758D01*
X392188Y20896D01*
X391707Y20995D01*
X391214Y21054D01*
X390708Y21074D01*
Y23074D01*
X391214Y23094D01*
X391707Y23153D01*
X392188Y23252D01*
X392656Y23390D01*
X393112Y23568D01*
X393555Y23785D01*
X393986Y24042D01*
X394404Y24338D01*
X394810Y24674D01*
X395203Y25049D01*
Y19099D01*
D02*
G37*
G36*
X36342Y18156D02*
X35999Y18507D01*
X35637Y18820D01*
X35254Y19097D01*
X34850Y19336D01*
X34426Y19539D01*
X33982Y19705D01*
X33517Y19834D01*
X33032Y19926D01*
X32526Y19982D01*
X32000Y20000D01*
Y22000D01*
X32526Y22018D01*
X33032Y22074D01*
X33517Y22166D01*
X33982Y22295D01*
X34426Y22461D01*
X34850Y22664D01*
X35254Y22903D01*
X35637Y23180D01*
X35999Y23493D01*
X36342Y23844D01*
Y18156D01*
D02*
G37*
G36*
X82671Y12509D02*
X82608Y12697D01*
X82497Y12866D01*
X82337Y13014D01*
X82130Y13143D01*
X81874Y13252D01*
X81570Y13341D01*
X81218Y13411D01*
X80818Y13460D01*
X80370Y13490D01*
X79874Y13500D01*
X79545Y15500D01*
X80025Y15510D01*
X80821Y15589D01*
X81136Y15659D01*
X81398Y15749D01*
X81604Y15858D01*
X81756Y15987D01*
X81853Y16136D01*
X81896Y16305D01*
X81884Y16494D01*
X82671Y12509D01*
D02*
G37*
%LPC*%
G36*
X81500Y390069D02*
Y386000D01*
X85910D01*
X85820Y386686D01*
X85362Y387791D01*
X84634Y388740D01*
X83685Y389469D01*
X82580Y389926D01*
X81500Y390069D01*
D02*
G37*
G36*
X80500D02*
X79420Y389926D01*
X78315Y389469D01*
X77366Y388740D01*
X76638Y387791D01*
X76180Y386686D01*
X76090Y386000D01*
X80500D01*
Y390069D01*
D02*
G37*
G36*
X85910Y385000D02*
X81500D01*
Y380931D01*
X82580Y381074D01*
X83685Y381531D01*
X84634Y382260D01*
X85362Y383209D01*
X85820Y384314D01*
X85910Y385000D01*
D02*
G37*
G36*
X80500D02*
X76090D01*
X76180Y384314D01*
X76638Y383209D01*
X77366Y382260D01*
X78315Y381531D01*
X79420Y381074D01*
X80500Y380931D01*
Y385000D01*
D02*
G37*
G36*
X81500Y380068D02*
Y376000D01*
X85910D01*
X85820Y376686D01*
X85362Y377791D01*
X84634Y378740D01*
X83685Y379469D01*
X82580Y379926D01*
X81500Y380068D01*
D02*
G37*
G36*
X80500D02*
X79420Y379926D01*
X78315Y379469D01*
X77366Y378740D01*
X76638Y377791D01*
X76180Y376686D01*
X76090Y376000D01*
X80500D01*
Y380068D01*
D02*
G37*
G36*
X403000Y297000D02*
X399959D01*
X400665Y293381D01*
X400444Y293507D01*
X400166Y293620D01*
X399831Y293719D01*
X399439Y293805D01*
X398990Y293878D01*
X398684Y293908D01*
X398839Y293675D01*
X399675Y292840D01*
X400658Y292183D01*
X401750Y291731D01*
X402909Y291500D01*
X403000D01*
Y297000D01*
D02*
G37*
G36*
X409500D02*
X404000D01*
Y291500D01*
X404091D01*
X405250Y291731D01*
X406342Y292183D01*
X407325Y292840D01*
X408160Y293675D01*
X408817Y294658D01*
X409269Y295750D01*
X409500Y296909D01*
Y297000D01*
D02*
G37*
G36*
X373880Y267597D02*
X373469Y267281D01*
X372788Y266393D01*
X372359Y265359D01*
X372213Y264250D01*
Y263000D01*
X376000D01*
Y265495D01*
X373494D01*
X373590Y265724D01*
X373676Y266031D01*
X373752Y266416D01*
X373818Y266880D01*
X373880Y267597D01*
D02*
G37*
G36*
X376000Y262000D02*
X372213D01*
Y260750D01*
X372359Y259641D01*
X372788Y258607D01*
X373469Y257719D01*
X374357Y257038D01*
X375391Y256609D01*
X376000Y256529D01*
Y262000D01*
D02*
G37*
G36*
X393750Y271500D02*
X379250D01*
Y268062D01*
X379150Y268013D01*
X379248Y266416D01*
X379324Y266031D01*
X379410Y265724D01*
X379506Y265495D01*
X377000D01*
Y262500D01*
Y256529D01*
X377609Y256609D01*
X378643Y257038D01*
X378802Y257159D01*
X379250Y256938D01*
Y253500D01*
X393750D01*
Y257457D01*
X399111D01*
X399155Y257455D01*
X399321Y257435D01*
X399470Y257405D01*
X399611Y257363D01*
X399750Y257309D01*
X399893Y257239D01*
X400045Y257148D01*
X400211Y257031D01*
X400390Y256882D01*
X400680Y256606D01*
X400854Y256478D01*
X401241Y256092D01*
X402592Y255189D01*
X404094Y254567D01*
X405687Y254250D01*
X407313D01*
X408906Y254567D01*
X410408Y255189D01*
X411759Y256092D01*
X412908Y257241D01*
X413811Y258592D01*
X414433Y260094D01*
X414750Y261687D01*
Y263313D01*
X414433Y264906D01*
X413811Y266408D01*
X412908Y267759D01*
X411759Y268908D01*
X410408Y269811D01*
X408906Y270433D01*
X407313Y270750D01*
X405687D01*
X404094Y270433D01*
X402592Y269811D01*
X401241Y268908D01*
X400854Y268522D01*
X400680Y268394D01*
X400390Y268118D01*
X400211Y267969D01*
X400045Y267852D01*
X399893Y267761D01*
X399750Y267691D01*
X399611Y267637D01*
X399470Y267595D01*
X399321Y267565D01*
X399155Y267545D01*
X399111Y267543D01*
X393750D01*
Y271500D01*
D02*
G37*
G36*
X21394Y393080D02*
X20606D01*
X19128Y392934D01*
X17706Y392503D01*
X16395Y391802D01*
X15247Y390860D01*
X14304Y389711D01*
X13603Y388401D01*
X13172Y386979D01*
X13026Y385500D01*
X13172Y384021D01*
X13603Y382599D01*
X14304Y381289D01*
X14951Y380500D01*
X14304Y379711D01*
X13603Y378401D01*
X13172Y376979D01*
X13026Y375500D01*
X13172Y374021D01*
X13603Y372599D01*
X14304Y371289D01*
X14951Y370500D01*
X14304Y369711D01*
X13603Y368401D01*
X13172Y366979D01*
X13026Y365500D01*
X13172Y364021D01*
X13603Y362599D01*
X14304Y361289D01*
X14951Y360500D01*
X14304Y359711D01*
X13603Y358401D01*
X13172Y356979D01*
X13026Y355500D01*
X13172Y354021D01*
X13603Y352599D01*
X14304Y351289D01*
X14951Y350500D01*
X14304Y349711D01*
X13603Y348401D01*
X13172Y346979D01*
X13026Y345500D01*
X13172Y344021D01*
X13603Y342599D01*
X14304Y341289D01*
X14951Y340500D01*
X14304Y339711D01*
X13603Y338401D01*
X13172Y336979D01*
X13026Y335500D01*
X13172Y334021D01*
X13603Y332599D01*
X14304Y331289D01*
X14951Y330500D01*
X14304Y329711D01*
X13603Y328401D01*
X13172Y326979D01*
X13026Y325500D01*
X13172Y324021D01*
X13603Y322599D01*
X14304Y321289D01*
X14951Y320500D01*
X14304Y319711D01*
X13603Y318401D01*
X13172Y316979D01*
X13026Y315500D01*
X13172Y314021D01*
X13603Y312599D01*
X14304Y311289D01*
X14951Y310500D01*
X14304Y309711D01*
X13603Y308401D01*
X13172Y306979D01*
X13026Y305500D01*
X13172Y304021D01*
X13603Y302599D01*
X14304Y301289D01*
X14951Y300500D01*
X14304Y299711D01*
X13603Y298401D01*
X13172Y296979D01*
X13026Y295500D01*
X13172Y294021D01*
X13603Y292599D01*
X14304Y291289D01*
X14951Y290500D01*
X14304Y289711D01*
X13603Y288401D01*
X13172Y286979D01*
X13026Y285500D01*
X13172Y284021D01*
X13603Y282599D01*
X14304Y281289D01*
X14951Y280500D01*
X14304Y279711D01*
X13603Y278401D01*
X13172Y276979D01*
X13026Y275500D01*
X13172Y274021D01*
X13603Y272599D01*
X14304Y271289D01*
X14951Y270500D01*
X14304Y269711D01*
X13603Y268401D01*
X13172Y266979D01*
X13026Y265500D01*
X13172Y264021D01*
X13603Y262599D01*
X14304Y261289D01*
X14951Y260500D01*
X14304Y259711D01*
X13603Y258401D01*
X13172Y256979D01*
X13026Y255500D01*
X13172Y254021D01*
X13603Y252599D01*
X14304Y251289D01*
X14951Y250500D01*
X14304Y249711D01*
X13603Y248401D01*
X13172Y246979D01*
X13026Y245500D01*
X13172Y244021D01*
X13603Y242599D01*
X14304Y241289D01*
X14951Y240500D01*
X14304Y239711D01*
X13603Y238401D01*
X13172Y236979D01*
X13026Y235500D01*
X13172Y234021D01*
X13603Y232599D01*
X14304Y231289D01*
X14951Y230500D01*
X14304Y229711D01*
X13603Y228401D01*
X13172Y226979D01*
X13026Y225500D01*
X13172Y224021D01*
X13603Y222599D01*
X14304Y221289D01*
X14951Y220500D01*
X14304Y219711D01*
X13603Y218401D01*
X13172Y216979D01*
X13026Y215500D01*
X13172Y214021D01*
X13603Y212599D01*
X14304Y211289D01*
X14951Y210500D01*
X14304Y209711D01*
X13603Y208401D01*
X13172Y206979D01*
X13026Y205500D01*
X13172Y204021D01*
X13603Y202599D01*
X14304Y201289D01*
X14951Y200500D01*
X14304Y199711D01*
X13603Y198401D01*
X13172Y196979D01*
X13026Y195500D01*
X13172Y194021D01*
X13603Y192599D01*
X14304Y191289D01*
X15247Y190140D01*
X16395Y189198D01*
X17706Y188497D01*
X19128Y188066D01*
X20606Y187920D01*
X21394D01*
X22873Y188066D01*
X24294Y188497D01*
X25605Y189198D01*
X26753Y190140D01*
X27696Y191289D01*
X28396Y192599D01*
X28828Y194021D01*
X28973Y195500D01*
X28828Y196979D01*
X28396Y198401D01*
X27696Y199711D01*
X27049Y200500D01*
X27696Y201289D01*
X28396Y202599D01*
X28828Y204021D01*
X28973Y205500D01*
X28828Y206979D01*
X28396Y208401D01*
X27696Y209711D01*
X27049Y210500D01*
X27696Y211289D01*
X28396Y212599D01*
X28828Y214021D01*
X28973Y215500D01*
X28828Y216979D01*
X28396Y218401D01*
X27696Y219711D01*
X27049Y220500D01*
X27696Y221289D01*
X28396Y222599D01*
X28828Y224021D01*
X28973Y225500D01*
X28828Y226979D01*
X28396Y228401D01*
X27696Y229711D01*
X27049Y230500D01*
X27696Y231289D01*
X28396Y232599D01*
X28828Y234021D01*
X28973Y235500D01*
X28828Y236979D01*
X28396Y238401D01*
X27696Y239711D01*
X27049Y240500D01*
X27696Y241289D01*
X28396Y242599D01*
X28828Y244021D01*
X28973Y245500D01*
X28828Y246979D01*
X28396Y248401D01*
X27696Y249711D01*
X27049Y250500D01*
X27696Y251289D01*
X28396Y252599D01*
X28828Y254021D01*
X28973Y255500D01*
X28828Y256979D01*
X28396Y258401D01*
X27696Y259711D01*
X27049Y260500D01*
X27696Y261289D01*
X28396Y262599D01*
X28828Y264021D01*
X28973Y265500D01*
X28828Y266979D01*
X28396Y268401D01*
X27696Y269711D01*
X27049Y270500D01*
X27696Y271289D01*
X28396Y272599D01*
X28828Y274021D01*
X28973Y275500D01*
X28828Y276979D01*
X28396Y278401D01*
X27696Y279711D01*
X27049Y280500D01*
X27696Y281289D01*
X28396Y282599D01*
X28828Y284021D01*
X28973Y285500D01*
X28828Y286979D01*
X28396Y288401D01*
X27696Y289711D01*
X27049Y290500D01*
X27696Y291289D01*
X28396Y292599D01*
X28828Y294021D01*
X28973Y295500D01*
X28828Y296979D01*
X28396Y298401D01*
X27696Y299711D01*
X27049Y300500D01*
X27696Y301289D01*
X28396Y302599D01*
X28828Y304021D01*
X28973Y305500D01*
X28828Y306979D01*
X28396Y308401D01*
X27696Y309711D01*
X27049Y310500D01*
X27696Y311289D01*
X28396Y312599D01*
X28828Y314021D01*
X28973Y315500D01*
X28828Y316979D01*
X28396Y318401D01*
X27696Y319711D01*
X27049Y320500D01*
X27696Y321289D01*
X28396Y322599D01*
X28828Y324021D01*
X28973Y325500D01*
X28828Y326979D01*
X28396Y328401D01*
X27696Y329711D01*
X27049Y330500D01*
X27696Y331289D01*
X28396Y332599D01*
X28828Y334021D01*
X28973Y335500D01*
X28828Y336979D01*
X28396Y338401D01*
X27696Y339711D01*
X27049Y340500D01*
X27696Y341289D01*
X28396Y342599D01*
X28828Y344021D01*
X28973Y345500D01*
X28828Y346979D01*
X28396Y348401D01*
X27696Y349711D01*
X27049Y350500D01*
X27696Y351289D01*
X28396Y352599D01*
X28828Y354021D01*
X28973Y355500D01*
X28828Y356979D01*
X28396Y358401D01*
X27696Y359711D01*
X27049Y360500D01*
X27696Y361289D01*
X28396Y362599D01*
X28828Y364021D01*
X28973Y365500D01*
X28828Y366979D01*
X28396Y368401D01*
X27696Y369711D01*
X27049Y370500D01*
X27696Y371289D01*
X28396Y372599D01*
X28828Y374021D01*
X28973Y375500D01*
X28828Y376979D01*
X28396Y378401D01*
X27696Y379711D01*
X27049Y380500D01*
X27696Y381289D01*
X28396Y382599D01*
X28828Y384021D01*
X28973Y385500D01*
X28828Y386979D01*
X28396Y388401D01*
X27696Y389711D01*
X26753Y390860D01*
X25605Y391802D01*
X24294Y392503D01*
X22873Y392934D01*
X21394Y393080D01*
D02*
G37*
G36*
X28971Y131000D02*
X23500D01*
Y127163D01*
X24700D01*
X25822Y127311D01*
X26869Y127744D01*
X27767Y128433D01*
X28456Y129331D01*
X28889Y130377D01*
X28971Y131000D01*
D02*
G37*
G36*
X22500D02*
X17029D01*
X17111Y130377D01*
X17544Y129331D01*
X18233Y128433D01*
X19131Y127744D01*
X20177Y127311D01*
X21300Y127163D01*
X22500D01*
Y131000D01*
D02*
G37*
G36*
X28971Y92000D02*
X23500D01*
Y88163D01*
X24700D01*
X25822Y88311D01*
X26869Y88744D01*
X27767Y89433D01*
X28456Y90331D01*
X28889Y91378D01*
X28971Y92000D01*
D02*
G37*
G36*
X22500D02*
X17029D01*
X17111Y91378D01*
X17544Y90331D01*
X18233Y89433D01*
X19131Y88744D01*
X20177Y88311D01*
X21300Y88163D01*
X22500D01*
Y92000D01*
D02*
G37*
G36*
X464850Y62100D02*
X464100D01*
Y59887D01*
X464662Y60037D01*
X465288Y60400D01*
X465801Y60912D01*
X466163Y61538D01*
X466243Y61837D01*
X465894Y61807D01*
X465696Y61774D01*
X465515Y61731D01*
X465350Y61679D01*
X465201Y61617D01*
X465068Y61546D01*
X464951Y61465D01*
X464850Y61375D01*
Y62100D01*
D02*
G37*
G36*
X28971Y53000D02*
X23500D01*
Y49163D01*
X24700D01*
X25822Y49311D01*
X26869Y49744D01*
X27767Y50433D01*
X28456Y51331D01*
X28889Y52377D01*
X28971Y53000D01*
D02*
G37*
G36*
X22500D02*
X17029D01*
X17111Y52377D01*
X17544Y51331D01*
X18233Y50433D01*
X19131Y49744D01*
X20177Y49311D01*
X21300Y49163D01*
X22500D01*
Y53000D01*
D02*
G37*
G36*
Y16500D02*
X17029D01*
X17111Y15878D01*
X17544Y14831D01*
X18233Y13933D01*
X19131Y13244D01*
X20177Y12811D01*
X21300Y12663D01*
X22500D01*
Y16500D01*
D02*
G37*
%LPD*%
G36*
X389746Y264310D02*
X389807Y264140D01*
X389907Y263990D01*
X390048Y263860D01*
X390229Y263750D01*
X390450Y263660D01*
X390712Y263590D01*
X391014Y263540D01*
X391356Y263510D01*
X391738Y263500D01*
Y261500D01*
X391356Y261490D01*
X391014Y261460D01*
X390712Y261410D01*
X390450Y261340D01*
X390229Y261250D01*
X390048Y261140D01*
X389907Y261010D01*
X389807Y260860D01*
X389746Y260690D01*
X389726Y260500D01*
Y264500D01*
X389746Y264310D01*
D02*
G37*
G36*
X403465Y259525D02*
X403071Y259900D01*
X402666Y260236D01*
X402247Y260532D01*
X401816Y260789D01*
X401373Y261006D01*
X400917Y261184D01*
X400449Y261322D01*
X399968Y261421D01*
X399475Y261480D01*
X398969Y261500D01*
Y263500D01*
X399475Y263520D01*
X399968Y263579D01*
X400449Y263678D01*
X400917Y263816D01*
X401373Y263994D01*
X401816Y264211D01*
X402247Y264468D01*
X402666Y264764D01*
X403071Y265100D01*
X403465Y265475D01*
Y259525D01*
D02*
G37*
%LPC*%
G36*
X417000Y372000D02*
X408500D01*
Y366500D01*
X417000D01*
Y372000D01*
D02*
G37*
G36*
X407500D02*
X399000D01*
Y369267D01*
X399212Y369396D01*
X399562Y369719D01*
X399812Y370092D01*
X399962Y370515D01*
X400012Y370988D01*
Y366500D01*
X407500D01*
Y372000D01*
D02*
G37*
G36*
Y365500D02*
X400012D01*
Y361012D01*
X399962Y361485D01*
X399812Y361908D01*
X399562Y362281D01*
X399212Y362604D01*
X399000Y362733D01*
Y360000D01*
X407500D01*
Y365500D01*
D02*
G37*
G36*
X417000D02*
X408500D01*
Y360000D01*
X417000D01*
Y365500D01*
D02*
G37*
G36*
X194500Y359969D02*
Y355000D01*
X195668D01*
Y358496D01*
X196058Y358212D01*
X196498Y357958D01*
X196987Y357733D01*
X197528Y357539D01*
X197714Y357487D01*
X197494Y358017D01*
X196853Y358853D01*
X196017Y359494D01*
X195044Y359897D01*
X194500Y359969D01*
D02*
G37*
G36*
X394000Y360000D02*
X392991D01*
X392988Y358988D01*
X388500Y358980D01*
Y351500D01*
X394000D01*
Y360000D01*
D02*
G37*
G36*
X387500D02*
X382000D01*
Y351500D01*
X382329D01*
X382572Y351725D01*
X382823Y352100D01*
X382973Y352525D01*
X383024Y353000D01*
X383022Y351500D01*
X387500D01*
Y358978D01*
X386417Y358976D01*
X386718Y359017D01*
X386987Y359141D01*
X387224Y359346D01*
X387430Y359633D01*
X387500Y359781D01*
Y360000D01*
D02*
G37*
G36*
Y350500D02*
X383021D01*
X383012Y343012D01*
X382962Y343485D01*
X382812Y343908D01*
X382562Y344281D01*
X382212Y344604D01*
X382000Y344733D01*
Y342000D01*
X387230D01*
X387100Y342212D01*
X386775Y342562D01*
X386400Y342812D01*
X385975Y342962D01*
X385500Y343012D01*
X387500D01*
Y350500D01*
D02*
G37*
G36*
X394000D02*
X388500D01*
Y343012D01*
X392988D01*
X392990Y342000D01*
X394000D01*
Y350500D01*
D02*
G37*
G36*
X472063Y373000D02*
X468024D01*
Y372000D01*
X468179Y370825D01*
X468633Y369731D01*
X469354Y368791D01*
X469841Y368417D01*
X469798Y369018D01*
X469702Y369529D01*
X469591Y369972D01*
X469465Y370349D01*
X469325Y370659D01*
X472063D01*
Y373000D01*
D02*
G37*
G36*
X477102D02*
X473063D01*
Y370659D01*
X475801D01*
X475661Y370349D01*
X475536Y369972D01*
X475425Y369529D01*
X475329Y369018D01*
X475253Y368392D01*
X475773Y368791D01*
X476494Y369731D01*
X476947Y370825D01*
X477102Y372000D01*
Y373000D01*
D02*
G37*
G36*
X475592Y343500D02*
X475500D01*
Y339500D01*
X479500D01*
Y339592D01*
X479193Y340737D01*
X478601Y341763D01*
X477763Y342601D01*
X476737Y343193D01*
X475592Y343500D01*
D02*
G37*
G36*
X474500D02*
X474408D01*
X473263Y343193D01*
X472237Y342601D01*
X471399Y341763D01*
X470807Y340737D01*
X470500Y339592D01*
Y339500D01*
X474500D01*
Y343500D01*
D02*
G37*
G36*
X479500Y338500D02*
X475500D01*
Y334500D01*
X475592D01*
X476737Y334807D01*
X477763Y335399D01*
X478601Y336237D01*
X479193Y337263D01*
X479500Y338408D01*
Y338500D01*
D02*
G37*
G36*
X474500D02*
X470500D01*
Y338408D01*
X470807Y337263D01*
X471399Y336237D01*
X472237Y335399D01*
X473263Y334807D01*
X474408Y334500D01*
X474500D01*
Y338500D01*
D02*
G37*
G36*
X475722Y309083D02*
X475766Y308482D01*
X475862Y307971D01*
X475972Y307528D01*
X476098Y307151D01*
X476238Y306841D01*
X473500D01*
Y304500D01*
X477539D01*
Y305500D01*
X477384Y306675D01*
X476931Y307769D01*
X476209Y308709D01*
X475722Y309083D01*
D02*
G37*
G36*
X470310Y309108D02*
X469791Y308709D01*
X469069Y307769D01*
X468616Y306675D01*
X468461Y305500D01*
Y304500D01*
X472500D01*
Y306841D01*
X469762D01*
X469902Y307151D01*
X470028Y307528D01*
X470138Y307971D01*
X470234Y308482D01*
X470310Y309108D01*
D02*
G37*
G36*
X472500Y303500D02*
X468461D01*
Y302500D01*
X468616Y301325D01*
X469069Y300231D01*
X469791Y299291D01*
X470278Y298917D01*
X470234Y299518D01*
X470138Y300029D01*
X470028Y300472D01*
X469902Y300849D01*
X469762Y301159D01*
X472500D01*
Y303500D01*
D02*
G37*
G36*
X477539D02*
X473500D01*
Y301159D01*
X476238D01*
X476098Y300849D01*
X475972Y300472D01*
X475862Y300029D01*
X475766Y299518D01*
X475690Y298892D01*
X476209Y299291D01*
X476931Y300231D01*
X477384Y301325D01*
X477539Y302500D01*
Y303500D01*
D02*
G37*
G36*
X475092Y274000D02*
X475000D01*
Y270000D01*
X479000D01*
Y270092D01*
X478693Y271237D01*
X478101Y272263D01*
X477263Y273101D01*
X476237Y273693D01*
X475092Y274000D01*
D02*
G37*
G36*
X474000D02*
X473908D01*
X472763Y273693D01*
X471737Y273101D01*
X470899Y272263D01*
X470307Y271237D01*
X470000Y270092D01*
Y270000D01*
X474000D01*
Y274000D01*
D02*
G37*
G36*
X479000Y269000D02*
X475000D01*
Y265000D01*
X475092D01*
X476237Y265307D01*
X477263Y265899D01*
X478101Y266737D01*
X478693Y267763D01*
X479000Y268908D01*
Y269000D01*
D02*
G37*
G36*
X474000D02*
X470000D01*
Y268908D01*
X470307Y267763D01*
X470899Y266737D01*
X471737Y265899D01*
X472763Y265307D01*
X473908Y265000D01*
X474000D01*
Y269000D01*
D02*
G37*
G36*
X454207Y135100D02*
X449239D01*
Y131565D01*
X450239D01*
X451283Y131703D01*
X452256Y132106D01*
X453091Y132747D01*
X453733Y133583D01*
X454136Y134556D01*
X454207Y135100D01*
D02*
G37*
%LPD*%
D10*
X463600Y62600D02*
X478239D01*
D38*
X376500Y281000D02*
X392043Y296543D01*
X402543D01*
X376500Y262500D02*
Y281000D01*
X21300Y131500D02*
X23000D01*
X154191Y375809D02*
X159571Y370429D01*
X204071D01*
X154191Y375809D02*
Y384309D01*
X154000Y384500D02*
X154191Y384309D01*
X194000Y354500D02*
X203000D01*
X204071Y353429D01*
X251500Y348000D02*
X292000D01*
X209500D02*
X251500D01*
X213358Y373358D02*
X214000Y374000D01*
X207000Y373358D02*
X213358D01*
X204071Y370429D02*
X207000Y373358D01*
X204071Y353429D02*
Y370429D01*
Y353429D02*
X209500Y348000D01*
X244000Y355500D02*
Y371071D01*
X246929Y374000D02*
X255000D01*
X244000Y371071D02*
X246929Y374000D01*
X244000Y355500D02*
X251500Y348000D01*
X285500Y371071D02*
X288429Y374000D01*
X298000D01*
X285500Y354500D02*
Y371071D01*
Y354500D02*
X292000Y348000D01*
X336179D01*
X385500D02*
X388000Y350500D01*
X336179Y348000D02*
X385500D01*
X388000Y350500D02*
Y351000D01*
X326500Y357679D02*
X336179Y348000D01*
X326500Y357679D02*
Y371071D01*
X329429Y374000D02*
X338000D01*
X326500Y371071D02*
X329429Y374000D01*
X402785Y318215D02*
Y325215D01*
Y318215D02*
X403500Y317500D01*
X390500Y337500D02*
X402785Y325215D01*
X388000Y351000D02*
X390500Y348500D01*
Y337500D02*
Y348500D01*
Y353500D02*
Y363071D01*
X393429Y366000D02*
X408000D01*
X390500Y363071D02*
X393429Y366000D01*
X388000Y351000D02*
X390500Y353500D01*
X402543Y296543D02*
X403500Y297500D01*
X474500Y269500D02*
Y289000D01*
X473000Y290500D02*
X474500Y289000D01*
X473000Y290500D02*
Y304000D01*
Y324500D01*
X475000Y326500D01*
Y339000D01*
Y357500D01*
X472563Y359937D02*
X475000Y357500D01*
X472563Y359937D02*
Y373500D01*
X408000Y341000D02*
X409071D01*
X452459D01*
X413000Y318000D02*
X413500Y317500D01*
X409071Y331429D02*
X413000Y327500D01*
X409071Y331429D02*
Y338500D01*
X408000Y339571D02*
X409071Y338500D01*
X413000Y318000D02*
Y327500D01*
X408000Y339571D02*
Y341000D01*
X394215Y311285D02*
X398500Y307000D01*
X393500Y317500D02*
X394215Y316786D01*
Y311285D02*
Y316786D01*
X398500Y307000D02*
X427500D01*
X430500Y304000D02*
X458000D01*
X427500Y307000D02*
X430500Y304000D01*
X454500Y269500D02*
Y270041D01*
X458000Y273541D01*
Y304000D01*
X457563Y372000D02*
Y373500D01*
X455000Y339000D02*
Y369437D01*
X457563Y372000D01*
D39*
X447747Y83091D02*
X448239Y82600D01*
X414000Y18000D02*
X419000Y13000D01*
X452500D01*
X457500Y18000D01*
X104000Y236500D02*
Y379500D01*
X109000Y384500D01*
X104000Y236500D02*
X114500Y226000D01*
X109000Y384500D02*
X124000D01*
X351000Y96000D02*
X367000Y80000D01*
X312500Y96000D02*
X351000D01*
X367000Y65000D02*
Y80000D01*
X457500Y18000D02*
Y66000D01*
X464100Y72600D01*
X478239D01*
X101500Y152500D02*
X114500Y165500D01*
X86500Y152500D02*
X101500D01*
X114500Y165500D02*
Y226000D01*
X404328Y216500D02*
X414000Y206828D01*
X213000Y216500D02*
X404328D01*
X93500Y220000D02*
X97000Y216500D01*
X93500Y220000D02*
Y302000D01*
X97000Y216500D02*
X102500D01*
X90000Y305500D02*
X93500Y302000D01*
X81000Y305500D02*
X90000D01*
X414000Y18000D02*
Y206828D01*
X469500Y227000D02*
X478739Y217761D01*
Y205600D02*
Y217761D01*
X449000Y227000D02*
X469500D01*
X436500Y239500D02*
X449000Y227000D01*
X436500Y239500D02*
Y262500D01*
X296672Y338500D02*
X334500D01*
X256000D02*
X296672D01*
X243500Y314500D02*
X247500Y318500D01*
X233000Y314500D02*
X243500D01*
X247500Y318500D02*
Y330000D01*
X256000Y338500D01*
X286000Y314500D02*
X291000Y319500D01*
X276500Y314500D02*
X286000D01*
X291000Y319500D02*
Y332828D01*
X296672Y338500D01*
X375000Y314500D02*
X380000D01*
X359500D02*
X375000D01*
X318000D02*
X325000D01*
X330500Y320000D01*
Y334500D01*
X334500Y338500D01*
X366500D01*
X375000Y330000D01*
Y314500D02*
Y330000D01*
X380000Y314500D02*
X383000Y317500D01*
X393500D01*
X238000Y57500D02*
Y82500D01*
X348500Y89500D02*
X360500Y77500D01*
X278000Y75000D02*
X306500Y103500D01*
X298000Y71500D02*
X316000Y89500D01*
X342000Y40000D02*
X359926Y22074D01*
X292500Y137000D02*
X372000D01*
X365624Y34376D02*
X398239D01*
X373021Y58979D02*
X398239D01*
X352500Y47500D02*
X365624Y34376D01*
X367000Y65000D02*
X373021Y58979D01*
X248000Y57500D02*
Y79500D01*
X278000Y57524D02*
Y75000D01*
X340828Y74500D02*
X342000Y73328D01*
X360500Y56000D02*
Y77500D01*
X238000Y82500D02*
X292500Y137000D01*
X360500Y112000D02*
X389000Y83500D01*
X342000Y40000D02*
Y73328D01*
X300500Y120000D02*
X366500D01*
X359926Y22074D02*
X398239D01*
X357000Y103500D02*
X374000Y86500D01*
X324000Y74500D02*
X340828D01*
X258000Y77500D02*
X300500Y120000D01*
X370000Y128000D02*
X389814Y108186D01*
X352500Y47500D02*
Y73500D01*
X248000Y79500D02*
X296500Y128000D01*
X306500Y103500D02*
X357000D01*
X369823Y46678D02*
X398239D01*
X360500Y56000D02*
X369823Y46678D01*
X303000Y112000D02*
X360500D01*
X317500Y80500D02*
X345500D01*
X258000Y57500D02*
Y77500D01*
X268000Y77000D02*
X303000Y112000D01*
X366500Y120000D02*
X390616Y95884D01*
X288000Y57500D02*
Y71500D01*
X316000Y89500D02*
X348500D01*
X288000Y71500D02*
X312500Y96000D01*
X268000Y57500D02*
Y77000D01*
X296500Y128000D02*
X370000D01*
X372000Y137000D02*
X388512Y120488D01*
X345500Y80500D02*
X352500Y73500D01*
X298000Y57500D02*
Y71500D01*
X318000Y57500D02*
Y68500D01*
X308000Y57500D02*
Y71000D01*
X317500Y80500D01*
X318000Y68500D02*
X324000Y74500D01*
X69500Y281000D02*
X74000Y285500D01*
X69500Y190172D02*
Y281000D01*
Y190172D02*
X81000Y178672D01*
Y167000D02*
Y178672D01*
X74000Y285500D02*
X81000D01*
X64000Y154000D02*
Y309000D01*
X58500Y113000D02*
Y317500D01*
Y113000D02*
X61849Y109651D01*
X64000Y309000D02*
X70500Y315500D01*
X58500Y317500D02*
X66500Y325500D01*
X61849Y109651D02*
X69500D01*
X64000Y154000D02*
X69500Y148500D01*
X483500Y392500D02*
X492500Y383500D01*
X150500Y392500D02*
X483500D01*
X144000Y386000D02*
X150500Y392500D01*
X486500Y192500D02*
Y377328D01*
X479328Y384500D02*
X486500Y377328D01*
X479600Y185600D02*
X486500Y192500D01*
X480239Y155600D02*
X487500Y148339D01*
X479739Y42600D02*
X487500Y50361D01*
Y148339D01*
X478239Y42600D02*
X479739D01*
X478739Y155600D02*
X480239D01*
X132500Y25000D02*
X153500Y46000D01*
Y116500D01*
X86500Y25000D02*
X132500D01*
X117000Y66000D02*
X138500Y87500D01*
X153500Y116500D02*
X198000Y161000D01*
X138500Y87500D02*
Y121000D01*
X86500Y66000D02*
X117000D01*
X198000Y161000D02*
Y240177D01*
X188000Y170500D02*
Y240177D01*
X138500Y121000D02*
X188000Y170500D01*
X86500Y102000D02*
X113000D01*
X126000Y115000D01*
X198000Y87500D02*
X279500Y169000D01*
X198000Y57500D02*
Y87500D01*
X492500Y35361D02*
Y383500D01*
X479739Y22600D02*
X492500Y35361D01*
X144000Y384500D02*
Y386000D01*
X194000Y384500D02*
X479328D01*
X478239Y22600D02*
X479739D01*
X478739Y185600D02*
X479600D01*
X478751Y93113D02*
Y112987D01*
X478239Y92600D02*
X478751Y93113D01*
Y112987D02*
X479264Y113500D01*
X70500Y315500D02*
X81000D01*
X66500Y325500D02*
X81000D01*
X66000Y335500D02*
X81000D01*
X53000Y322500D02*
X66000Y335500D01*
X53000Y77000D02*
Y322500D01*
Y77000D02*
X58000Y72000D01*
X69500D01*
X48000Y327000D02*
X66500Y345500D01*
X81000D01*
X48000Y40000D02*
Y327000D01*
Y40000D02*
X55500Y32500D01*
X69500D01*
X349500Y297000D02*
Y314500D01*
X318500Y266000D02*
X349500Y297000D01*
X318500Y240677D02*
Y266000D01*
X308000Y240177D02*
Y314500D01*
X318000Y240177D02*
X318500Y240677D01*
X266500Y297500D02*
X297500Y266500D01*
Y240677D02*
Y266500D01*
Y240677D02*
X298000Y240177D01*
X246000Y294000D02*
X278000Y262000D01*
Y240177D02*
Y262000D01*
X250000Y301500D02*
X288000Y263500D01*
Y240177D02*
Y263500D01*
X201500Y294000D02*
X246000D01*
X266500Y297500D02*
Y314500D01*
X225500Y301500D02*
X250000D01*
X223000Y304000D02*
X225500Y301500D01*
X223000Y304000D02*
Y314500D01*
X196000Y299500D02*
X201500Y294000D01*
X196000Y299500D02*
Y307500D01*
X268000Y240177D02*
Y262500D01*
X242000Y288500D02*
X268000Y262500D01*
X191000Y288500D02*
X242000D01*
X258000Y240177D02*
Y264000D01*
X239500Y282500D02*
X258000Y264000D01*
X177928Y282500D02*
X239500D01*
X172714Y287714D02*
X177928Y282500D01*
X184357Y295143D02*
X191000Y288500D01*
X184357Y295143D02*
Y307500D01*
X167500Y276500D02*
X237500D01*
X248000Y266000D01*
Y240177D02*
Y266000D01*
X238500Y240677D02*
Y266500D01*
X234000Y271000D02*
X238500Y266500D01*
X156000Y271000D02*
X234000D01*
X172714Y287714D02*
Y307500D01*
X161071Y282929D02*
Y307500D01*
X149428Y277572D02*
X156000Y271000D01*
X161071Y282929D02*
X167500Y276500D01*
X137786Y272214D02*
X145000Y265000D01*
X137786Y272214D02*
Y307500D01*
X145000Y265000D02*
X223500D01*
X114500Y261500D02*
Y307500D01*
X121500Y254500D02*
X203000D01*
X114500Y261500D02*
X121500Y254500D01*
X149428Y277572D02*
Y307500D01*
X126143Y266857D02*
X133500Y259500D01*
X213000D01*
X126143Y266857D02*
Y307500D01*
X223500Y265000D02*
X228000Y260500D01*
X213000Y259500D02*
X218000Y254500D01*
X203000D02*
X208000Y249500D01*
X238000Y240177D02*
X238500Y240677D01*
X228000Y240177D02*
Y260500D01*
X218000Y240177D02*
Y254500D01*
X208000Y240177D02*
Y249500D01*
X86500Y142500D02*
X123500D01*
X168000Y187000D01*
X126000Y115000D02*
Y127500D01*
X178000Y179500D01*
X168000Y187000D02*
Y240177D01*
X178000Y179500D02*
Y240177D01*
X168000Y57500D02*
Y108500D01*
X266100Y206600D01*
X398239D01*
X178000Y57500D02*
Y98500D01*
X273798Y194298D02*
X398239D01*
X178000Y98500D02*
X273798Y194298D01*
X188000Y93500D02*
X276496Y181996D01*
X398239D01*
X188000Y57500D02*
Y93500D01*
X279500Y169000D02*
X397544D01*
X398239Y169694D01*
X283500Y161000D02*
X380000D01*
X208000Y85500D02*
X283500Y161000D01*
X380000D02*
X383607Y157393D01*
X208000Y57500D02*
Y85500D01*
X287000Y153000D02*
X377000D01*
X218000Y84000D02*
X287000Y153000D01*
X218000Y57500D02*
Y84000D01*
X228000Y83500D02*
X290500Y146000D01*
X228000Y57500D02*
Y83500D01*
X290500Y146000D02*
X374000D01*
X383607Y157393D02*
X398239D01*
X385500Y144500D02*
X397648D01*
X398239Y145091D01*
X377000Y153000D02*
X385500Y144500D01*
X387211Y132789D02*
X398239D01*
X374000Y146000D02*
X387211Y132789D01*
X388512Y120488D02*
X398239D01*
X389814Y108186D02*
X398239D01*
X390616Y95884D02*
X398239D01*
X398156Y83500D02*
X398239Y83583D01*
X389000Y83500D02*
X398156D01*
X378219Y71281D02*
X398239D01*
X374000Y75500D02*
X378219Y71281D01*
X374000Y75500D02*
Y86500D01*
X464000Y141000D02*
X468600Y145600D01*
X478739D01*
X464000Y127000D02*
Y141000D01*
X460000Y123000D02*
X464000Y127000D01*
X453000Y123000D02*
X460000D01*
X449736Y119736D02*
X453000Y123000D01*
X449736Y113500D02*
Y119736D01*
X448139Y72500D02*
X448239Y72600D01*
X438000Y72500D02*
X448139D01*
X436781Y71281D02*
X438000Y72500D01*
X428239Y71281D02*
X436781D01*
X448050Y82411D02*
X448239Y82600D01*
X439000Y82411D02*
X448050D01*
X437828Y83583D02*
X439000Y82411D01*
X428239Y83583D02*
X437828D01*
X438000Y30000D02*
X440600Y32600D01*
X448239D01*
X438000Y25246D02*
Y30000D01*
X434828Y22074D02*
X438000Y25246D01*
X428239Y22074D02*
X434828D01*
X437500Y40000D02*
X440100Y42600D01*
X448239D01*
X437500Y36252D02*
Y40000D01*
X435624Y34376D02*
X437500Y36252D01*
X428239Y34376D02*
X435624D01*
X437500Y51000D02*
X439100Y52600D01*
X448239D01*
X437500Y48855D02*
Y51000D01*
X435323Y46678D02*
X437500Y48855D01*
X428239Y46678D02*
X435323D01*
X448139Y62500D02*
X448239Y62600D01*
X439849Y62500D02*
X448139D01*
X436328Y58979D02*
X439849Y62500D01*
X428239Y58979D02*
X436328D01*
X428239Y71281D02*
X428898Y71940D01*
X428239Y83583D02*
X428730Y83091D01*
X437616Y95884D02*
X440900Y92600D01*
X448239D01*
X428239Y95884D02*
X437616D01*
X465000Y86500D02*
X468900Y82600D01*
X478239D01*
X465000Y86500D02*
Y95500D01*
X461500Y99000D02*
X465000Y95500D01*
X453000Y99000D02*
X461500D01*
X443814Y108186D02*
X453000Y99000D01*
X428239Y108186D02*
X443814D01*
X478339Y196000D02*
X478739Y195600D01*
X469374Y196000D02*
X478339D01*
X453374Y212000D02*
X469374Y196000D01*
X433639Y212000D02*
X453374D01*
X428239Y206600D02*
X433639Y212000D01*
X437000Y135361D02*
X447239Y145600D01*
X437000Y129249D02*
Y135361D01*
X447239Y145600D02*
X448739D01*
X428239Y120488D02*
X437000Y129249D01*
X438500Y145828D02*
X448272Y155600D01*
X448739D01*
X438500Y143051D02*
Y145828D01*
Y155352D02*
Y161500D01*
X428239Y145091D02*
X438500Y155352D01*
X428239Y132789D02*
X438500Y143051D01*
X441835Y164835D02*
X447973D01*
X438500Y161500D02*
X441835Y164835D01*
X447973D02*
X448739Y165600D01*
X428239Y158739D02*
X429584D01*
X441100Y175600D02*
X448739D01*
X437000Y171500D02*
X441100Y175600D01*
X437000Y166154D02*
Y171500D01*
X429584Y158739D02*
X437000Y166154D01*
X428239Y157393D02*
Y158739D01*
Y169694D02*
X429194D01*
X439500Y180000D01*
Y183428D01*
X441672Y185600D01*
X448739D01*
X434496Y181996D02*
X436000Y183500D01*
Y191000D01*
X428239Y181996D02*
X434496D01*
X436000Y191000D02*
X440600Y195600D01*
X448739D01*
X437600Y205600D02*
X448739D01*
X435000Y203000D02*
X437600Y205600D01*
X435000Y195767D02*
Y203000D01*
X428239Y194298D02*
X433531D01*
X435000Y195767D01*
X386500Y262500D02*
X406500D01*
X436500D02*
X437500D01*
X444500Y269500D01*
X454500D01*
X355000Y359000D02*
Y368055D01*
X358000Y371055D02*
Y374000D01*
X355000Y368055D02*
X358000Y371055D01*
X348000Y372500D02*
Y374000D01*
X343500Y368000D02*
X348000Y372500D01*
X343500Y359000D02*
Y368000D01*
X318000Y373500D02*
Y374000D01*
X314000Y369500D02*
X318000Y373500D01*
X314000Y359000D02*
Y369500D01*
X302500Y367500D02*
X308000Y373000D01*
Y374000D01*
X302500Y359000D02*
Y367500D01*
X275000Y367328D02*
Y374000D01*
X272000Y364328D02*
X275000Y367328D01*
X272000Y359000D02*
Y364328D01*
X265000Y373500D02*
Y374000D01*
X260500Y369000D02*
X265000Y373500D01*
X260500Y359000D02*
Y369000D01*
X234000Y373000D02*
Y374000D01*
X230000Y369000D02*
X234000Y373000D01*
X230000Y359000D02*
Y369000D01*
X224000Y372500D02*
Y374000D01*
X218500Y367000D02*
X224000Y372500D01*
X218500Y359000D02*
Y367000D01*
X339500Y323241D02*
X343500Y327241D01*
Y329000D01*
X339500Y314500D02*
Y323241D01*
X303500Y327500D02*
Y329000D01*
X298000Y322000D02*
X303500Y327500D01*
X298000Y314500D02*
Y322000D01*
X256500Y323241D02*
X260500Y327241D01*
X256500Y314500D02*
Y323241D01*
X260500Y327241D02*
Y329000D01*
X218500Y328500D02*
Y329000D01*
X213000Y323000D02*
X218500Y328500D01*
X213000Y314500D02*
Y323000D01*
X76000Y133672D02*
Y136328D01*
X77172Y132500D02*
X86500D01*
X76000Y133672D02*
X77172Y132500D01*
X70000Y137500D02*
X74828D01*
X76000Y136328D01*
X69500Y137000D02*
X70000Y137500D01*
X78000Y92000D02*
X86500D01*
X76500Y93500D02*
X78000Y92000D01*
X76500Y93500D02*
Y97328D01*
X75328Y98500D02*
X76500Y97328D01*
X69500Y98500D02*
X75328D01*
X78172Y56000D02*
X86500D01*
X77000Y57172D02*
X78172Y56000D01*
X77000Y57172D02*
Y58828D01*
X75328Y60500D02*
X77000Y58828D01*
X69500Y60500D02*
X75328D01*
X77000Y14500D02*
X86000D01*
X86500Y15000D01*
X75500Y16000D02*
X77000Y14500D01*
X75500Y16000D02*
Y19828D01*
X69500Y21000D02*
X74328D01*
X75500Y19828D01*
X32000Y21000D02*
X39500D01*
X30000Y23000D02*
X32000Y21000D01*
X30000Y23000D02*
Y25828D01*
X28828Y27000D02*
X30000Y25828D01*
X23000Y27000D02*
X28828D01*
X31172Y32500D02*
X39500D01*
X30000Y33672D02*
X31172Y32500D01*
X30000Y33672D02*
Y35828D01*
X23000Y37000D02*
X28828D01*
X30000Y35828D01*
X23000Y37000D02*
X23500Y37500D01*
X39000Y60000D02*
X39500Y60500D01*
X34000Y60000D02*
X39000D01*
X30500Y63500D02*
X34000Y60000D01*
X23000Y63500D02*
X30500D01*
X33000Y72000D02*
X39500D01*
X23000Y73500D02*
X31500D01*
X33000Y72000D01*
X30000Y99672D02*
X31172Y98500D01*
X30000Y99672D02*
Y101328D01*
X31172Y98500D02*
X39500D01*
X28828Y102500D02*
X30000Y101328D01*
X23000Y102500D02*
X28828D01*
X31177Y109651D02*
X39500D01*
X28828Y112000D02*
X31177Y109651D01*
X23500Y112000D02*
X28828D01*
X23000Y112500D02*
X23500Y112000D01*
X31000Y138172D02*
X32172Y137000D01*
X31000Y138172D02*
Y140328D01*
X32172Y137000D02*
X39500D01*
X23000Y141500D02*
X29828D01*
X31000Y140328D01*
X33000Y148500D02*
X39500D01*
X30000Y151500D02*
X33000Y148500D01*
X23000Y151500D02*
X30000D01*
X134000Y371000D02*
Y384500D01*
X131000Y368000D02*
X134000Y371000D01*
X120000Y368000D02*
X131000D01*
X114500Y362500D02*
X120000Y368000D01*
X114500Y337500D02*
Y362500D01*
X193500Y347500D02*
X196000Y345000D01*
Y337500D02*
Y345000D01*
X186000Y347500D02*
X193500D01*
X176172Y346000D02*
X182550D01*
X183800Y338057D02*
X184357Y337500D01*
X183800Y338057D02*
Y344750D01*
X182550Y346000D02*
X183800Y344750D01*
X184000Y349500D02*
X186000Y347500D01*
X184000Y349500D02*
Y354500D01*
X174000Y348172D02*
Y354500D01*
Y348172D02*
X176172Y346000D01*
X172300Y337914D02*
X172714Y337500D01*
X172300Y337914D02*
Y344750D01*
X166500Y346000D02*
X171050D01*
X172300Y344750D01*
X164765Y347735D02*
X166500Y346000D01*
X164000Y354500D02*
X164765Y353735D01*
Y347735D02*
Y353735D01*
X159328Y346500D02*
X161071Y344757D01*
X154000Y347672D02*
X155172Y346500D01*
X161071Y337500D02*
Y344757D01*
X155172Y346500D02*
X159328D01*
X154000Y347672D02*
Y354500D01*
X148000Y345500D02*
X149428Y344072D01*
Y337500D02*
Y344072D01*
X145500Y345500D02*
X148000D01*
X144000Y347000D02*
X145500Y345500D01*
X144000Y347000D02*
Y354500D01*
X137750Y337536D02*
X137786Y337500D01*
X137750Y337536D02*
Y344750D01*
X134000Y348500D02*
X137750Y344750D01*
X134000Y348500D02*
Y354500D01*
X124000Y347000D02*
X126143Y344857D01*
Y337500D02*
Y344857D01*
X124000Y347000D02*
Y354500D01*
D40*
X21000Y385500D02*
D03*
Y355500D02*
D03*
Y345500D02*
D03*
Y335500D02*
D03*
Y325500D02*
D03*
Y305500D02*
D03*
Y375500D02*
D03*
Y295500D02*
D03*
Y285500D02*
D03*
Y275500D02*
D03*
Y265500D02*
D03*
Y255500D02*
D03*
Y365500D02*
D03*
Y245500D02*
D03*
Y235500D02*
D03*
Y225500D02*
D03*
Y215500D02*
D03*
Y205500D02*
D03*
Y195500D02*
D03*
X81000Y385500D02*
D03*
Y355500D02*
D03*
Y345500D02*
D03*
Y335500D02*
D03*
Y325500D02*
D03*
Y315500D02*
D03*
Y305500D02*
D03*
Y375500D02*
D03*
Y295500D02*
D03*
Y285500D02*
D03*
Y275500D02*
D03*
Y265500D02*
D03*
Y255500D02*
D03*
Y365500D02*
D03*
Y245500D02*
D03*
Y235500D02*
D03*
Y225500D02*
D03*
Y215500D02*
D03*
Y205500D02*
D03*
X21000Y315500D02*
D03*
D41*
X81000Y195500D02*
D03*
D42*
X398239Y46678D02*
D03*
X428239D02*
D03*
Y108186D02*
D03*
X398239D02*
D03*
X428239Y34376D02*
D03*
X398239D02*
D03*
Y58979D02*
D03*
X428239D02*
D03*
Y71281D02*
D03*
X398239D02*
D03*
X428239Y83583D02*
D03*
X398239D02*
D03*
Y22074D02*
D03*
X428239D02*
D03*
Y95884D02*
D03*
X398239D02*
D03*
Y181996D02*
D03*
X428239D02*
D03*
X398239Y194298D02*
D03*
X428239D02*
D03*
X398239Y206600D02*
D03*
X428239D02*
D03*
X398239Y157393D02*
D03*
X428239D02*
D03*
X398239Y145091D02*
D03*
X428239D02*
D03*
X398239Y169694D02*
D03*
X428239D02*
D03*
X398239Y120488D02*
D03*
X428239D02*
D03*
X398239Y132789D02*
D03*
X428239D02*
D03*
X161071Y307500D02*
D03*
Y337500D02*
D03*
X149428Y307500D02*
D03*
Y337500D02*
D03*
X126143Y307500D02*
D03*
Y337500D02*
D03*
X137786Y307500D02*
D03*
Y337500D02*
D03*
X114500D02*
D03*
Y307500D02*
D03*
X172714D02*
D03*
Y337500D02*
D03*
X184357Y307500D02*
D03*
Y337500D02*
D03*
X196000Y307500D02*
D03*
Y337500D02*
D03*
X218500Y359000D02*
D03*
Y329000D02*
D03*
X230000D02*
D03*
Y359000D02*
D03*
X260500Y329000D02*
D03*
Y359000D02*
D03*
X272000D02*
D03*
Y329000D02*
D03*
X302500D02*
D03*
Y359000D02*
D03*
X314000Y329000D02*
D03*
Y359000D02*
D03*
X343500Y329000D02*
D03*
Y359000D02*
D03*
X355000D02*
D03*
Y329000D02*
D03*
X69500Y32500D02*
D03*
X39500D02*
D03*
Y21000D02*
D03*
X69500D02*
D03*
X39500Y60500D02*
D03*
X69500D02*
D03*
Y72000D02*
D03*
X39500D02*
D03*
Y137000D02*
D03*
X69500D02*
D03*
Y148500D02*
D03*
X39500D02*
D03*
Y109651D02*
D03*
X69500D02*
D03*
Y98500D02*
D03*
X39500D02*
D03*
X436500Y262500D02*
D03*
X406500D02*
D03*
D43*
X168000Y57500D02*
D03*
D44*
X178000D02*
D03*
X188000D02*
D03*
X198000D02*
D03*
X208000D02*
D03*
X218000D02*
D03*
X228000D02*
D03*
X238000D02*
D03*
X248000D02*
D03*
X258000D02*
D03*
X268000D02*
D03*
X278000Y57524D02*
D03*
X288000Y57500D02*
D03*
X298000D02*
D03*
X308000D02*
D03*
X318000D02*
D03*
X168000Y240177D02*
D03*
X178000D02*
D03*
X188000D02*
D03*
X198000D02*
D03*
X208000D02*
D03*
X218000D02*
D03*
X228000D02*
D03*
X238000D02*
D03*
X248000D02*
D03*
X258000D02*
D03*
X268000D02*
D03*
X278000D02*
D03*
X288000D02*
D03*
X298000D02*
D03*
X308000D02*
D03*
X318000D02*
D03*
D45*
X448239Y92600D02*
D03*
X448739Y205600D02*
D03*
D46*
X448239Y82600D02*
D03*
Y72600D02*
D03*
Y62600D02*
D03*
Y52600D02*
D03*
Y42600D02*
D03*
Y32600D02*
D03*
Y22600D02*
D03*
X478239Y92600D02*
D03*
Y82600D02*
D03*
Y72600D02*
D03*
Y62600D02*
D03*
Y52600D02*
D03*
Y42600D02*
D03*
Y32600D02*
D03*
Y22600D02*
D03*
X448739Y195600D02*
D03*
Y185600D02*
D03*
Y175600D02*
D03*
Y165600D02*
D03*
Y155600D02*
D03*
Y145600D02*
D03*
Y135600D02*
D03*
X478739Y205600D02*
D03*
Y195600D02*
D03*
Y185600D02*
D03*
Y175600D02*
D03*
Y165600D02*
D03*
Y155600D02*
D03*
Y145600D02*
D03*
Y135600D02*
D03*
D47*
X194000Y384500D02*
D03*
X184000D02*
D03*
X174000D02*
D03*
X164000D02*
D03*
X154000D02*
D03*
X144000D02*
D03*
X134000D02*
D03*
X124000D02*
D03*
X194000Y354500D02*
D03*
X184000D02*
D03*
X174000D02*
D03*
X164000D02*
D03*
X154000D02*
D03*
X144000D02*
D03*
X134000D02*
D03*
D48*
X124000D02*
D03*
D49*
X233000Y314500D02*
D03*
X223000D02*
D03*
X213000D02*
D03*
X256500D02*
D03*
X266500D02*
D03*
X276500D02*
D03*
X298000D02*
D03*
X308000D02*
D03*
X318000D02*
D03*
X214000Y374000D02*
D03*
X224000D02*
D03*
X234000D02*
D03*
X275000D02*
D03*
X265000D02*
D03*
X255000D02*
D03*
X318000D02*
D03*
X308000D02*
D03*
X298000D02*
D03*
X359500Y314500D02*
D03*
X349500D02*
D03*
X339500D02*
D03*
X338000Y374000D02*
D03*
X348000D02*
D03*
X358000D02*
D03*
D50*
X393500Y317500D02*
D03*
X403500D02*
D03*
X413500D02*
D03*
D51*
X403500Y297500D02*
D03*
D52*
X458000Y304000D02*
D03*
X457563Y373500D02*
D03*
D53*
X473000Y304000D02*
D03*
X472563Y373500D02*
D03*
D54*
X86500Y15000D02*
D03*
Y25000D02*
D03*
Y35000D02*
D03*
X23000Y37000D02*
D03*
Y27000D02*
D03*
Y17000D02*
D03*
X86500Y56000D02*
D03*
Y66000D02*
D03*
Y76000D02*
D03*
X23000Y73500D02*
D03*
Y63500D02*
D03*
Y53500D02*
D03*
X86500Y132500D02*
D03*
Y142500D02*
D03*
Y152500D02*
D03*
X23000Y151500D02*
D03*
Y141500D02*
D03*
Y131500D02*
D03*
X86500Y112000D02*
D03*
Y102000D02*
D03*
Y92000D02*
D03*
X23000Y92500D02*
D03*
Y102500D02*
D03*
Y112500D02*
D03*
D55*
X474500Y269500D02*
D03*
X454500D02*
D03*
X455000Y339000D02*
D03*
X475000D02*
D03*
D56*
X388000Y351000D02*
D03*
D57*
X408000Y366000D02*
D03*
Y341000D02*
D03*
D58*
X449736Y113500D02*
D03*
X479264D02*
D03*
D59*
X376500Y262500D02*
D03*
D60*
X386500D02*
D03*
D61*
X463600Y62600D02*
D03*
D62*
X213000Y216500D02*
D03*
X102500D02*
D03*
X81000Y167000D02*
D03*
M02*
