M48
;Layer_Color=9474304
;FILE_FORMAT=4:4
METRIC,LZ
;TYPE=PLATED
T1F00S00C0.5080
T2F00S00C0.7112
T3F00S00C0.7874
T4F00S00C0.8100
T5F00S00C0.8128
T6F00S00C0.8890
T7F00S00C1.0000
T8F00S00C1.0160
T10F00S00C1.9050
%
T01
X01177544Y00159004
T02
X0020574Y0042418
X0026035Y0054991
X0054102
T03
X01138526Y00057404
Y00082804
Y00108204
Y00133604
X01214726
Y00108204
Y00082804
Y00057404
Y00159004
Y00184404
Y00209804
Y00235204
X01138526
Y00209804
Y00184404
Y00159004
X01139796Y00344424
Y00369824
Y00395224
Y00420624
Y00446024
Y00471424
Y00496824
Y00522224
X01215996
Y00496824
Y00471424
Y00446024
Y00420624
Y00395224
Y00369824
Y00344424
X0041656Y0090043
X0039116
X0036576
X0034036
X0031496
X0044196
X0046736
X0049276
X011557Y0086106
X012065
X0120523Y0068453
X0115443
X0049276Y0097663
X0046736
X0044196
X0041656
X0039116
X0036576
X0034036
X0031496
T04
X0114233Y0028829
X0121733
T05
X0005842Y0004318
Y0006858
Y0009398
Y0013589
X0021971Y0014224
Y000889
Y000635
Y000381
Y0016764
Y0019304
Y0023368
Y0025908
Y0028448
Y0033655
Y0036195
Y0038735
X0005842Y0038481
Y0035941
Y0033401
Y0028575
Y0026035
Y0023495
Y0018669
Y0016129
X0054102Y0079883
X0056642
X0059182
X0065151
X0067691
X0070231
X0075692
X0078232
X0080772
X0086233
X0088773
X0091313
X0095631Y0066675
X0098171
X0116332Y0077216
X0120142
X01200311Y0094869
X01162211
X0090932Y0094996
X0088392
X0085852
X0080772
X0078232
X0075692
X006985
X006731
X006477
X0059436
X0056896
X0054356
T06
X0010033Y0005334
Y0008255
X0017653
Y0005334
X01011526Y00056068
Y00087315
Y00118561
X01087726
Y00087315
Y00056068
Y00149807
Y00181054
Y002123
Y00243546
Y00274792
Y00306039
Y00337285
Y00368531
Y00399778
Y00431024
Y0046227
Y00493517
Y00524763
X01011526
Y00493517
Y0046227
Y00431024
Y00399778
Y00368531
Y00337285
Y00306039
Y00274792
Y00243546
Y002123
Y00181054
Y00149807
X0017653Y0015367
Y0018288
Y0025019
Y00278514
Y0034798
Y0037719
X0010033
Y0034798
Y00278514
Y0025019
Y0018288
Y0015367
X0029083Y0078105
X00320403
X00349976
X00379548
X00409121
Y0085725
X00379548
X00349976
X00320403
X0029083
X00438694
X00468267
X0049784
Y0078105
X00468267
X00438694
X0055499Y0083566
X005842
Y0091186
X0055499
X0066167
X0069088
Y0083566
X0066167
X0076835
X0079756
Y0091186
X0076835
X0087249
X009017
Y0083566
X0087249
X0103251Y0066675
X0110871
T07
X0042672Y0014605
X0045212
X0047752
X0050292
X0052832
X0055372
X0057912
X0060452
X0062992
X0065532
X0068072
X0070612Y00146111
X0073152Y0014605
X0075692
X0078232
X0080772
X0020574Y0049657
Y0052197
X0005334
Y0049657
Y0054737
Y0057277
Y0059817
Y0062357
Y0064897
Y0067437
Y0069977
Y0072517
Y0075057
Y0077597
Y0080137
Y0082677
Y0085217
Y0087757
Y0090297
Y0092837
X0020574
Y0090297
Y0087757
Y0085217
Y0082677
Y0080137
Y0077597
Y0075057
Y0072517
Y0069977
Y0067437
Y0064897
Y0062357
Y0059817
Y0057277
Y0054737
X0042672Y0061005
X0045212
X0047752
X0050292
X0052832
X0055372
X0057912
X0060452
X0062992
X0065532
X0068072
X0070612
X0073152
X0075692
X0078232
X0080772
X0020574Y0095377
Y0097917
X0005334
Y0095377
T08
X0099949Y0080645
X0102489
X0105029
T10
X0102489Y0075565
M30
