G04*
G04 #@! TF.GenerationSoftware,Altium Limited,Altium Designer,21.3.2 (30)*
G04*
G04 Layer_Color=65535*
%FSLAX25Y25*%
%MOIN*%
G70*
G04*
G04 #@! TF.SameCoordinates,223A028E-27ED-44F5-9DF7-BD247C2F6700*
G04*
G04*
G04 #@! TF.FilePolarity,Positive*
G04*
G01*
G75*
%ADD10C,0.01500*%
%ADD11C,0.00700*%
%ADD12C,0.01200*%
%ADD13C,0.01000*%
%ADD14C,0.00701*%
%ADD15C,0.00787*%
%ADD16R,0.04921X0.07874*%
G36*
X469563Y390000D02*
X474063Y388000D01*
X477563Y385000D01*
X480563Y380500D01*
X482063Y375500D01*
Y371500D01*
X480063Y365500D01*
X477063Y361500D01*
X473063Y358500D01*
X467563Y356500D01*
Y370500D01*
X468063D01*
X468069Y370382D01*
X468115Y370150D01*
X468206Y369931D01*
X468337Y369734D01*
X468417Y369646D01*
X469563Y368500D01*
X469563Y368500D01*
X469812Y368275D01*
X470368Y367903D01*
X470987Y367647D01*
X471643Y367516D01*
X471978Y367500D01*
X473356D01*
X473524Y367508D01*
X473852Y367573D01*
X474161Y367702D01*
X474439Y367887D01*
X474563Y368000D01*
X474682Y368006D01*
X474914Y368052D01*
X475132Y368143D01*
X475329Y368274D01*
X475417Y368354D01*
X476563Y369500D01*
X476563D01*
X476676Y369624D01*
X476862Y369902D01*
X476990Y370212D01*
X477055Y370540D01*
X477063Y370707D01*
Y375793D01*
X477055Y375960D01*
X476990Y376288D01*
X476862Y376598D01*
X476676Y376876D01*
X476563Y377000D01*
X476063Y377500D01*
X476057Y377618D01*
X476011Y377850D01*
X475921Y378069D01*
X475789Y378266D01*
X475710Y378354D01*
X475063Y379000D01*
X475063Y379000D01*
X474939Y379113D01*
X474661Y379298D01*
X474352Y379427D01*
X474024Y379492D01*
X473856Y379500D01*
X471063D01*
X467563Y376000D01*
Y390500D01*
X469563Y390000D01*
D02*
G37*
G36*
X470000Y320500D02*
X474500Y318500D01*
X478000Y315500D01*
X481000Y311000D01*
X482500Y306000D01*
Y302000D01*
X480500Y296000D01*
X477500Y292000D01*
X473500Y289000D01*
X468000Y287000D01*
Y301000D01*
X468500D01*
X468506Y300882D01*
X468552Y300650D01*
X468643Y300431D01*
X468774Y300234D01*
X468854Y300146D01*
X470000Y299000D01*
X470000Y299000D01*
X470248Y298775D01*
X470805Y298403D01*
X471423Y298147D01*
X472080Y298016D01*
X472414Y298000D01*
X473793D01*
X473960Y298008D01*
X474288Y298074D01*
X474598Y298202D01*
X474876Y298388D01*
X475000Y298500D01*
X475118Y298506D01*
X475350Y298552D01*
X475569Y298642D01*
X475766Y298774D01*
X475853Y298853D01*
X477000Y300000D01*
X477000D01*
X477112Y300124D01*
X477298Y300402D01*
X477426Y300712D01*
X477492Y301040D01*
X477500Y301207D01*
Y306293D01*
X477492Y306460D01*
X477426Y306788D01*
X477298Y307098D01*
X477112Y307376D01*
X477000Y307500D01*
X476500Y308000D01*
X476494Y308118D01*
X476448Y308350D01*
X476358Y308569D01*
X476226Y308766D01*
X476147Y308854D01*
X475500Y309500D01*
X475500Y309500D01*
X475376Y309612D01*
X475098Y309798D01*
X474788Y309927D01*
X474460Y309992D01*
X474293Y310000D01*
X471500D01*
X468000Y306500D01*
Y321000D01*
X470000Y320500D01*
D02*
G37*
G36*
X409282Y253023D02*
X409325D01*
Y253002D01*
X409368D01*
Y252980D01*
X409389D01*
Y252959D01*
X409432D01*
Y252938D01*
X409475D01*
Y252916D01*
X409517D01*
Y252895D01*
X409539D01*
Y252873D01*
X409581D01*
Y252852D01*
X409624D01*
Y252831D01*
X409667D01*
Y252809D01*
X409688D01*
Y252788D01*
X409731D01*
Y252767D01*
X409774D01*
Y252745D01*
X409817D01*
Y252724D01*
X409838D01*
Y252702D01*
X409881D01*
Y252681D01*
X409924D01*
Y252660D01*
X409945D01*
Y252638D01*
X409988D01*
Y252617D01*
X410030D01*
Y252596D01*
X410073D01*
Y252574D01*
X410094D01*
Y252553D01*
X410137D01*
Y252531D01*
X410180D01*
Y252510D01*
X410223D01*
Y252489D01*
X410244D01*
Y252467D01*
X410287D01*
Y252446D01*
X410330D01*
Y252425D01*
X410351D01*
Y252403D01*
X410394D01*
Y252382D01*
X410437D01*
Y252360D01*
X410479D01*
Y252339D01*
X410501D01*
Y252318D01*
X410543D01*
Y252296D01*
X410586D01*
Y252275D01*
X410629D01*
Y252254D01*
X410650D01*
Y252232D01*
X410693D01*
Y252211D01*
X410736D01*
Y252189D01*
X410779D01*
Y252168D01*
X410800D01*
Y252147D01*
X410843D01*
Y252125D01*
X410886D01*
Y252104D01*
X410907D01*
Y252082D01*
X410950D01*
Y252061D01*
X410992D01*
Y252040D01*
X411035D01*
Y252018D01*
X411057D01*
Y251997D01*
X411099D01*
Y251975D01*
X411142D01*
Y251954D01*
X411185D01*
Y251933D01*
X411206D01*
Y251911D01*
X411249D01*
Y251890D01*
X411292D01*
Y251869D01*
X411335D01*
Y251847D01*
X411356D01*
Y251826D01*
X411399D01*
Y251804D01*
X411442D01*
Y251783D01*
X411463D01*
Y251762D01*
X411506D01*
Y251740D01*
X411548D01*
Y251719D01*
X411591D01*
Y251698D01*
X411613D01*
Y251676D01*
X411655D01*
Y251655D01*
X411698D01*
Y251633D01*
X411741D01*
Y251612D01*
X411762D01*
Y251591D01*
X411805D01*
Y251569D01*
X411848D01*
Y251548D01*
X411891D01*
Y251526D01*
X411912D01*
Y251505D01*
X411955D01*
Y251484D01*
X411997D01*
Y251462D01*
X412019D01*
Y251441D01*
X412062D01*
Y251420D01*
X412104D01*
Y251398D01*
X412147D01*
Y251377D01*
X412169D01*
Y251356D01*
X412211D01*
Y251334D01*
X412254D01*
Y251313D01*
X412297D01*
Y251291D01*
X412318D01*
Y251270D01*
X412361D01*
Y251249D01*
X412404D01*
Y251227D01*
X412425D01*
Y251206D01*
X412468D01*
Y251184D01*
X412511D01*
Y251163D01*
X412553D01*
Y251142D01*
X412575D01*
Y251120D01*
X412617D01*
Y251099D01*
X412660D01*
Y251078D01*
X412703D01*
Y251056D01*
X412724D01*
Y251035D01*
X412767D01*
Y251013D01*
X412810D01*
Y250992D01*
X412853D01*
Y250971D01*
X412874D01*
Y250949D01*
X412917D01*
Y250928D01*
X412960D01*
Y250906D01*
X412981D01*
Y250885D01*
X413024D01*
Y250864D01*
X413066D01*
Y250842D01*
X413109D01*
Y250821D01*
X413131D01*
Y250800D01*
X413173D01*
Y250778D01*
X413216D01*
Y250757D01*
X413259D01*
Y250735D01*
X413280D01*
Y250714D01*
X413323D01*
Y250693D01*
X413366D01*
Y250671D01*
X413409D01*
Y250650D01*
X413430D01*
Y250628D01*
X413473D01*
Y250607D01*
X413516D01*
Y250586D01*
X413537D01*
Y250564D01*
X413580D01*
Y250543D01*
X413622D01*
Y250522D01*
X413665D01*
Y250500D01*
X413687D01*
Y250479D01*
X413729D01*
Y250458D01*
X413772D01*
Y250436D01*
X413815D01*
Y250415D01*
X413836D01*
Y250393D01*
X413879D01*
Y250372D01*
X413922D01*
Y250351D01*
X413965D01*
Y250329D01*
X413986D01*
Y250308D01*
X414029D01*
Y250287D01*
X414071D01*
Y250265D01*
X414093D01*
Y250244D01*
X414136D01*
Y250222D01*
X414178D01*
Y250201D01*
X414221D01*
Y250180D01*
X414242D01*
Y250158D01*
X414285D01*
Y250137D01*
X414328D01*
Y250115D01*
X414371D01*
Y250094D01*
X414392D01*
Y250073D01*
X414435D01*
Y250051D01*
X414478D01*
Y250030D01*
X414499D01*
Y250009D01*
X414542D01*
Y249987D01*
X414584D01*
Y249966D01*
X414627D01*
Y249944D01*
X414649D01*
Y249923D01*
X414691D01*
Y249902D01*
X414734D01*
Y249880D01*
X414777D01*
Y249859D01*
X414798D01*
Y249837D01*
X414841D01*
Y249816D01*
X414884D01*
Y249795D01*
X414927D01*
Y249773D01*
X414948D01*
Y249752D01*
X414991D01*
Y249730D01*
X415033D01*
Y249709D01*
X415055D01*
Y249688D01*
X415098D01*
Y249666D01*
X415140D01*
Y249645D01*
X415183D01*
Y249624D01*
X415204D01*
Y249602D01*
X415247D01*
Y249581D01*
X415290D01*
Y249559D01*
X415333D01*
Y249538D01*
X415354D01*
Y249517D01*
X415397D01*
Y249495D01*
X415440D01*
Y249474D01*
X415483D01*
Y249453D01*
X415504D01*
Y249431D01*
X415547D01*
Y249410D01*
X415589D01*
Y249389D01*
X415611D01*
Y249367D01*
X415654D01*
Y249346D01*
X415696D01*
Y249324D01*
X415739D01*
Y249303D01*
X415760D01*
Y249282D01*
X415803D01*
Y249260D01*
X415846D01*
Y249239D01*
X415889D01*
Y249217D01*
X415910D01*
Y249196D01*
X415953D01*
Y249175D01*
X415996D01*
Y249153D01*
X416017D01*
Y249132D01*
X416060D01*
Y249111D01*
X416103D01*
Y249089D01*
X416145D01*
Y249068D01*
X416167D01*
Y249046D01*
X416209D01*
Y249025D01*
X416252D01*
Y249004D01*
X416295D01*
Y248982D01*
X416316D01*
Y248961D01*
X416359D01*
Y248939D01*
X416402D01*
Y248918D01*
X416445D01*
Y248897D01*
X416466D01*
Y248875D01*
X416509D01*
Y248854D01*
X416551D01*
Y248833D01*
X416573D01*
Y248811D01*
X416616D01*
Y248790D01*
X416658D01*
Y248768D01*
X416701D01*
Y248747D01*
X416723D01*
Y248726D01*
X416765D01*
Y248704D01*
X416808D01*
Y248683D01*
X416851D01*
Y248661D01*
X416872D01*
Y248640D01*
X416915D01*
Y248619D01*
X416958D01*
Y248597D01*
X417000D01*
Y248576D01*
X417022D01*
Y248555D01*
X417065D01*
Y248533D01*
X417107D01*
Y248512D01*
X417129D01*
Y248491D01*
X417172D01*
Y248469D01*
X417214D01*
Y248448D01*
X417257D01*
Y248426D01*
X417278D01*
Y248405D01*
X417321D01*
Y248384D01*
X417364D01*
Y248362D01*
X417407D01*
Y248341D01*
X417428D01*
Y248319D01*
X417471D01*
Y248298D01*
X417514D01*
Y248277D01*
X417556D01*
Y248255D01*
X417578D01*
Y248234D01*
X417621D01*
Y248213D01*
X417663D01*
Y248191D01*
X417685D01*
Y248170D01*
X417728D01*
Y248148D01*
X417770D01*
Y248127D01*
X417813D01*
Y248106D01*
X417834D01*
Y248084D01*
X417877D01*
Y248063D01*
X417920D01*
Y248042D01*
X417963D01*
Y248020D01*
X417984D01*
Y247999D01*
X418027D01*
Y247977D01*
X418070D01*
Y247956D01*
X418091D01*
Y247935D01*
X418112D01*
Y237715D01*
X418134D01*
Y237693D01*
X418177D01*
Y237672D01*
X418219D01*
Y237650D01*
X418241D01*
Y237629D01*
X418283D01*
Y237608D01*
X418326D01*
Y237586D01*
X418369D01*
Y237565D01*
X418390D01*
Y237544D01*
X418433D01*
Y237522D01*
X418476D01*
Y237501D01*
X418497D01*
Y237479D01*
X418540D01*
Y237458D01*
X418583D01*
Y237437D01*
X418625D01*
Y237415D01*
X418647D01*
Y237394D01*
X418690D01*
Y237372D01*
X418732D01*
Y237351D01*
X418775D01*
Y237330D01*
X418796D01*
Y237308D01*
X418839D01*
Y237287D01*
X418882D01*
Y237266D01*
X418925D01*
Y237244D01*
X418946D01*
Y237223D01*
X418989D01*
Y237201D01*
X419032D01*
Y237180D01*
X419053D01*
Y237159D01*
X419096D01*
Y237137D01*
X419139D01*
Y237116D01*
X419181D01*
Y237094D01*
X419203D01*
Y237073D01*
X419245D01*
Y237052D01*
X419288D01*
Y237030D01*
X419331D01*
Y237009D01*
X419352D01*
Y236988D01*
X419395D01*
Y236966D01*
X419438D01*
Y236945D01*
X419459D01*
Y236924D01*
X419502D01*
Y236902D01*
X419545D01*
Y236881D01*
X419588D01*
Y236859D01*
X419609D01*
Y236838D01*
X419652D01*
Y236817D01*
X419695D01*
Y236795D01*
X419737D01*
Y236774D01*
X419759D01*
Y236752D01*
X419801D01*
Y236731D01*
X419844D01*
Y236710D01*
X419887D01*
Y236688D01*
X419908D01*
Y236667D01*
X419951D01*
Y236646D01*
X419994D01*
Y236624D01*
X420015D01*
Y236603D01*
X420058D01*
Y236581D01*
X420101D01*
Y236560D01*
X420144D01*
Y236539D01*
X420165D01*
Y236517D01*
X420208D01*
Y236496D01*
X420250D01*
Y236474D01*
X420293D01*
Y236453D01*
X420315D01*
Y236432D01*
X420357D01*
Y236410D01*
X420400D01*
Y236389D01*
X420443D01*
Y236368D01*
X420464D01*
Y236346D01*
X420507D01*
Y236325D01*
X420550D01*
Y236303D01*
X420571D01*
Y236282D01*
X420614D01*
Y236261D01*
X420657D01*
Y236239D01*
X420699D01*
Y236218D01*
X420721D01*
Y236196D01*
X420763D01*
Y236175D01*
X420806D01*
Y236154D01*
X420849D01*
Y236132D01*
X420870D01*
Y236111D01*
X420913D01*
Y236090D01*
X420956D01*
Y236068D01*
X420999D01*
Y236047D01*
X421020D01*
Y236026D01*
X421063D01*
Y236004D01*
X421106D01*
Y235983D01*
X421127D01*
Y235961D01*
X421170D01*
Y235940D01*
X421212D01*
Y235919D01*
X421255D01*
Y235897D01*
X421277D01*
Y235876D01*
X421319D01*
Y235855D01*
X421362D01*
Y235833D01*
X421405D01*
Y235812D01*
X421426D01*
Y235790D01*
X421469D01*
Y235769D01*
X421512D01*
Y235748D01*
X421533D01*
Y235726D01*
X421576D01*
Y235705D01*
X421619D01*
Y235683D01*
X421662D01*
Y235662D01*
X421683D01*
Y235641D01*
X421726D01*
Y235619D01*
X421768D01*
Y235598D01*
X421811D01*
Y235577D01*
X421833D01*
Y235555D01*
X421875D01*
Y235534D01*
X421918D01*
Y235512D01*
X421961D01*
Y235491D01*
X421982D01*
Y235470D01*
X422025D01*
Y235448D01*
X422068D01*
Y235427D01*
X422089D01*
Y235405D01*
X422132D01*
Y235384D01*
X422175D01*
Y235363D01*
X422217D01*
Y235341D01*
X422239D01*
Y235320D01*
X422282D01*
Y235299D01*
X422324D01*
Y235277D01*
X422367D01*
Y235256D01*
X422389D01*
Y235234D01*
X422431D01*
Y235213D01*
X422474D01*
Y235192D01*
X422517D01*
Y235170D01*
X422538D01*
Y235149D01*
X422581D01*
Y235127D01*
X422624D01*
Y235106D01*
X422645D01*
Y235085D01*
X422688D01*
Y235063D01*
X422731D01*
Y235042D01*
X422773D01*
Y235021D01*
X422795D01*
Y234999D01*
X422837D01*
Y234978D01*
X422880D01*
Y234957D01*
X422923D01*
Y234935D01*
X422944D01*
Y234914D01*
X422987D01*
Y234892D01*
X423030D01*
Y234871D01*
X423051D01*
Y234850D01*
X423094D01*
Y234828D01*
X423137D01*
Y234807D01*
X423180D01*
Y234785D01*
X423201D01*
Y234764D01*
X423244D01*
Y234743D01*
X423286D01*
Y234721D01*
X423329D01*
Y234700D01*
X423351D01*
Y234679D01*
X423393D01*
Y234657D01*
X423436D01*
Y234636D01*
X423479D01*
Y234614D01*
X423500D01*
Y234593D01*
X423543D01*
Y234572D01*
X423586D01*
Y234550D01*
X423607D01*
Y234529D01*
X423650D01*
Y234507D01*
X423693D01*
Y234486D01*
X423736D01*
Y234465D01*
X423757D01*
Y234443D01*
X423800D01*
Y234422D01*
X423842D01*
Y234401D01*
X423885D01*
Y234379D01*
X423907D01*
Y234358D01*
X423949D01*
Y234336D01*
X423992D01*
Y234315D01*
X424035D01*
Y234294D01*
X424056D01*
Y234272D01*
X424099D01*
Y234251D01*
X424142D01*
Y234229D01*
X424163D01*
Y234208D01*
X424206D01*
Y234187D01*
X424249D01*
Y234165D01*
X424291D01*
Y234144D01*
X424313D01*
Y234123D01*
X424356D01*
Y234101D01*
X424398D01*
Y234080D01*
X424441D01*
Y234058D01*
X424462D01*
Y234037D01*
X424505D01*
Y234016D01*
X424548D01*
Y233994D01*
X424591D01*
Y233973D01*
X424612D01*
Y233952D01*
X424655D01*
Y233930D01*
X424698D01*
Y233909D01*
X424719D01*
Y233887D01*
X424762D01*
Y233866D01*
X424804D01*
Y233845D01*
X424847D01*
Y233823D01*
X424869D01*
Y233802D01*
X424911D01*
Y233781D01*
X424954D01*
Y233759D01*
X424997D01*
Y233738D01*
X425018D01*
Y233716D01*
X425061D01*
Y233695D01*
X425104D01*
Y233674D01*
X425125D01*
Y233652D01*
X425168D01*
Y233631D01*
X425211D01*
Y233610D01*
X425253D01*
Y233588D01*
X425275D01*
Y233567D01*
X425318D01*
Y233545D01*
X425360D01*
Y233524D01*
X425403D01*
Y233503D01*
X425424D01*
Y233481D01*
X425467D01*
Y233460D01*
X425510D01*
Y233438D01*
X425553D01*
Y233417D01*
X425574D01*
Y233396D01*
X425617D01*
Y233374D01*
X425660D01*
Y233353D01*
X425681D01*
Y233331D01*
X425724D01*
Y233310D01*
X425767D01*
Y233289D01*
X425809D01*
Y233267D01*
X425831D01*
Y233246D01*
X425874D01*
Y233225D01*
X425916D01*
Y233203D01*
X425959D01*
Y233182D01*
X425980D01*
Y233160D01*
X426023D01*
Y233139D01*
X426066D01*
Y233118D01*
X426109D01*
Y233096D01*
X426130D01*
Y233075D01*
X426173D01*
Y233054D01*
X426216D01*
Y233032D01*
X426237D01*
Y233011D01*
X426280D01*
Y232989D01*
X426323D01*
Y232968D01*
X426365D01*
Y232947D01*
X426387D01*
Y232925D01*
X426429D01*
Y232904D01*
X426472D01*
Y232882D01*
X426515D01*
Y232861D01*
X426536D01*
Y232840D01*
X426579D01*
Y232818D01*
X426622D01*
Y232797D01*
X426665D01*
Y232776D01*
X426686D01*
Y232754D01*
X426729D01*
Y232733D01*
X426771D01*
Y232712D01*
X426793D01*
Y232690D01*
X426836D01*
Y232669D01*
X426878D01*
Y232647D01*
X426921D01*
Y232626D01*
X426943D01*
Y232605D01*
X426964D01*
Y222363D01*
X426943D01*
Y222342D01*
X426900D01*
Y222320D01*
X426857D01*
Y222299D01*
X426836D01*
Y222278D01*
X426793D01*
Y222256D01*
X426750D01*
Y222235D01*
X426707D01*
Y222214D01*
X426686D01*
Y222192D01*
X426643D01*
Y222171D01*
X426601D01*
Y222149D01*
X426579D01*
Y222128D01*
X426536D01*
Y222107D01*
X426494D01*
Y222085D01*
X426451D01*
Y222064D01*
X426429D01*
Y222042D01*
X426387D01*
Y222021D01*
X426344D01*
Y222000D01*
X426301D01*
Y221978D01*
X426280D01*
Y221957D01*
X426237D01*
Y221936D01*
X426194D01*
Y221914D01*
X426173D01*
Y221893D01*
X426130D01*
Y221871D01*
X426087D01*
Y221850D01*
X426045D01*
Y221829D01*
X426023D01*
Y221807D01*
X425980D01*
Y221786D01*
X425938D01*
Y221765D01*
X425895D01*
Y221743D01*
X425874D01*
Y221722D01*
X425831D01*
Y221700D01*
X425788D01*
Y221679D01*
X425745D01*
Y221658D01*
X425724D01*
Y221636D01*
X425681D01*
Y221615D01*
X425638D01*
Y221593D01*
X425617D01*
Y221572D01*
X425574D01*
Y221551D01*
X425531D01*
Y221529D01*
X425489D01*
Y221508D01*
X425467D01*
Y221487D01*
X425424D01*
Y221465D01*
X425382D01*
Y221444D01*
X425339D01*
Y221423D01*
X425318D01*
Y221401D01*
X425275D01*
Y221380D01*
X425232D01*
Y221358D01*
X425189D01*
Y221337D01*
X425168D01*
Y221316D01*
X425125D01*
Y221294D01*
X425082D01*
Y221273D01*
X425061D01*
Y221251D01*
X425018D01*
Y221230D01*
X424975D01*
Y221209D01*
X424933D01*
Y221187D01*
X424911D01*
Y221166D01*
X424869D01*
Y221145D01*
X424826D01*
Y221123D01*
X424783D01*
Y221102D01*
X424762D01*
Y221080D01*
X424719D01*
Y221059D01*
X424676D01*
Y221038D01*
X424655D01*
Y221016D01*
X424612D01*
Y220995D01*
X424569D01*
Y220973D01*
X424527D01*
Y220952D01*
X424505D01*
Y220931D01*
X424462D01*
Y220909D01*
X424420D01*
Y220888D01*
X424377D01*
Y220867D01*
X424356D01*
Y220845D01*
X424313D01*
Y220824D01*
X424270D01*
Y220802D01*
X424227D01*
Y220781D01*
X424206D01*
Y220760D01*
X424163D01*
Y220738D01*
X424120D01*
Y220717D01*
X424099D01*
Y220695D01*
X424056D01*
Y220674D01*
X424013D01*
Y220653D01*
X423971D01*
Y220631D01*
X423949D01*
Y220610D01*
X423907D01*
Y220589D01*
X423864D01*
Y220567D01*
X423821D01*
Y220546D01*
X423800D01*
Y220525D01*
X423757D01*
Y220503D01*
X423714D01*
Y220482D01*
X423671D01*
Y220460D01*
X423650D01*
Y220439D01*
X423607D01*
Y220418D01*
X423564D01*
Y220396D01*
X423543D01*
Y220375D01*
X423500D01*
Y220353D01*
X423457D01*
Y220332D01*
X423415D01*
Y220311D01*
X423393D01*
Y220289D01*
X423351D01*
Y220268D01*
X423308D01*
Y220247D01*
X423265D01*
Y220225D01*
X423244D01*
Y220204D01*
X423201D01*
Y220182D01*
X423158D01*
Y220161D01*
X423115D01*
Y220140D01*
X423094D01*
Y220118D01*
X423051D01*
Y220097D01*
X423008D01*
Y220075D01*
X422987D01*
Y220054D01*
X422944D01*
Y220033D01*
X422902D01*
Y220011D01*
X422859D01*
Y219990D01*
X422837D01*
Y219969D01*
X422795D01*
Y219947D01*
X422752D01*
Y219926D01*
X422709D01*
Y219904D01*
X422688D01*
Y219883D01*
X422645D01*
Y219862D01*
X422602D01*
Y219840D01*
X422581D01*
Y219819D01*
X422538D01*
Y219797D01*
X422495D01*
Y219776D01*
X422453D01*
Y219755D01*
X422431D01*
Y219733D01*
X422389D01*
Y219712D01*
X422346D01*
Y219691D01*
X422303D01*
Y219669D01*
X422282D01*
Y219648D01*
X422239D01*
Y219626D01*
X422196D01*
Y219605D01*
X422153D01*
Y219584D01*
X422132D01*
Y219562D01*
X422089D01*
Y219541D01*
X422046D01*
Y219520D01*
X422025D01*
Y219498D01*
X421982D01*
Y219477D01*
X421940D01*
Y219455D01*
X421897D01*
Y219434D01*
X421875D01*
Y219413D01*
X421833D01*
Y219391D01*
X421790D01*
Y219370D01*
X421747D01*
Y219349D01*
X421726D01*
Y219327D01*
X421683D01*
Y219306D01*
X421640D01*
Y219284D01*
X421597D01*
Y219263D01*
X421576D01*
Y219242D01*
X421533D01*
Y219220D01*
X421490D01*
Y219199D01*
X421469D01*
Y219178D01*
X421426D01*
Y219156D01*
X421384D01*
Y219135D01*
X421341D01*
Y219113D01*
X421319D01*
Y219092D01*
X421277D01*
Y219071D01*
X421234D01*
Y219049D01*
X421191D01*
Y219028D01*
X421170D01*
Y219006D01*
X421127D01*
Y218985D01*
X421084D01*
Y218964D01*
X421041D01*
Y218942D01*
X421020D01*
Y218921D01*
X420977D01*
Y218899D01*
X420935D01*
Y218878D01*
X420913D01*
Y218857D01*
X420870D01*
Y218835D01*
X420828D01*
Y218814D01*
X420785D01*
Y218793D01*
X420763D01*
Y218771D01*
X420721D01*
Y218750D01*
X420678D01*
Y218728D01*
X420635D01*
Y218707D01*
X420614D01*
Y218686D01*
X420571D01*
Y218664D01*
X420528D01*
Y218643D01*
X420507D01*
Y218622D01*
X420464D01*
Y218600D01*
X420421D01*
Y218579D01*
X420379D01*
Y218557D01*
X420357D01*
Y218536D01*
X420315D01*
Y218515D01*
X420272D01*
Y218493D01*
X420229D01*
Y218472D01*
X420208D01*
Y218450D01*
X420165D01*
Y218429D01*
X420122D01*
Y218408D01*
X420079D01*
Y218386D01*
X420058D01*
Y218365D01*
X420015D01*
Y218344D01*
X419972D01*
Y218322D01*
X419951D01*
Y218301D01*
X419908D01*
Y218280D01*
X419866D01*
Y218258D01*
X419823D01*
Y218237D01*
X419801D01*
Y218215D01*
X419759D01*
Y218194D01*
X419716D01*
Y218173D01*
X419673D01*
Y218151D01*
X419652D01*
Y218130D01*
X419609D01*
Y218108D01*
X419566D01*
Y218087D01*
X419523D01*
Y218066D01*
X419502D01*
Y218044D01*
X419459D01*
Y218023D01*
X419417D01*
Y218002D01*
X419395D01*
Y217980D01*
X419352D01*
Y217959D01*
X419310D01*
Y217937D01*
X419267D01*
Y217916D01*
X419245D01*
Y217895D01*
X419203D01*
Y217873D01*
X419160D01*
Y217852D01*
X419117D01*
Y217830D01*
X419096D01*
Y217809D01*
X419053D01*
Y217788D01*
X419010D01*
Y217766D01*
X418989D01*
Y217745D01*
X418946D01*
Y217724D01*
X418903D01*
Y217702D01*
X418861D01*
Y217681D01*
X418839D01*
Y217659D01*
X418796D01*
Y217638D01*
X418754D01*
Y217617D01*
X418711D01*
Y217595D01*
X418690D01*
Y217574D01*
X418647D01*
Y217553D01*
X418604D01*
Y217531D01*
X418561D01*
Y217510D01*
X418540D01*
Y217488D01*
X418497D01*
Y217467D01*
X418454D01*
Y217446D01*
X418433D01*
Y217424D01*
X418390D01*
Y217403D01*
X418348D01*
Y217382D01*
X418305D01*
Y217360D01*
X418283D01*
Y217339D01*
X418241D01*
Y217317D01*
X418198D01*
Y217296D01*
X418155D01*
Y217275D01*
X418134D01*
Y217253D01*
X418070D01*
Y217275D01*
X418027D01*
Y217296D01*
X418005D01*
Y217317D01*
X417963D01*
Y217339D01*
X417920D01*
Y217360D01*
X417899D01*
Y217382D01*
X417856D01*
Y217403D01*
X417813D01*
Y217424D01*
X417770D01*
Y217446D01*
X417749D01*
Y217467D01*
X417706D01*
Y217488D01*
X417663D01*
Y217510D01*
X417621D01*
Y217531D01*
X417599D01*
Y217553D01*
X417556D01*
Y217574D01*
X417514D01*
Y217595D01*
X417492D01*
Y217617D01*
X417450D01*
Y217638D01*
X417407D01*
Y217659D01*
X417364D01*
Y217681D01*
X417343D01*
Y217702D01*
X417300D01*
Y217724D01*
X417257D01*
Y217745D01*
X417214D01*
Y217766D01*
X417193D01*
Y217788D01*
X417150D01*
Y217809D01*
X417107D01*
Y217830D01*
X417065D01*
Y217852D01*
X417043D01*
Y217873D01*
X417000D01*
Y217895D01*
X416958D01*
Y217916D01*
X416936D01*
Y217937D01*
X416894D01*
Y217959D01*
X416851D01*
Y217980D01*
X416808D01*
Y218002D01*
X416787D01*
Y218023D01*
X416744D01*
Y218044D01*
X416701D01*
Y218066D01*
X416658D01*
Y218087D01*
X416637D01*
Y218108D01*
X416594D01*
Y218130D01*
X416551D01*
Y218151D01*
X416509D01*
Y218173D01*
X416487D01*
Y218194D01*
X416445D01*
Y218215D01*
X416402D01*
Y218237D01*
X416381D01*
Y218258D01*
X416338D01*
Y218280D01*
X416295D01*
Y218301D01*
X416252D01*
Y218322D01*
X416231D01*
Y218344D01*
X416188D01*
Y218365D01*
X416145D01*
Y218386D01*
X416103D01*
Y218408D01*
X416081D01*
Y218429D01*
X416038D01*
Y218450D01*
X415996D01*
Y218472D01*
X415953D01*
Y218493D01*
X415932D01*
Y218515D01*
X415889D01*
Y218536D01*
X415846D01*
Y218557D01*
X415825D01*
Y218579D01*
X415782D01*
Y218600D01*
X415739D01*
Y218622D01*
X415696D01*
Y218643D01*
X415675D01*
Y218664D01*
X415632D01*
Y218686D01*
X415589D01*
Y218707D01*
X415547D01*
Y218728D01*
X415525D01*
Y218750D01*
X415483D01*
Y218771D01*
X415440D01*
Y218793D01*
X415418D01*
Y218814D01*
X415376D01*
Y218835D01*
X415333D01*
Y218857D01*
X415290D01*
Y218878D01*
X415269D01*
Y218899D01*
X415226D01*
Y218921D01*
X415183D01*
Y218942D01*
X415140D01*
Y218964D01*
X415119D01*
Y218985D01*
X415076D01*
Y219006D01*
X415033D01*
Y219028D01*
X414991D01*
Y219049D01*
X414969D01*
Y219071D01*
X414927D01*
Y219092D01*
X414884D01*
Y219113D01*
X414862D01*
Y219135D01*
X414820D01*
Y219156D01*
X414777D01*
Y219178D01*
X414734D01*
Y219199D01*
X414713D01*
Y219220D01*
X414670D01*
Y219242D01*
X414627D01*
Y219263D01*
X414584D01*
Y219284D01*
X414563D01*
Y219306D01*
X414520D01*
Y219327D01*
X414478D01*
Y219349D01*
X414435D01*
Y219370D01*
X414413D01*
Y219391D01*
X414371D01*
Y219413D01*
X414328D01*
Y219434D01*
X414306D01*
Y219455D01*
X414264D01*
Y219477D01*
X414221D01*
Y219498D01*
X414178D01*
Y219520D01*
X414157D01*
Y219541D01*
X414114D01*
Y219562D01*
X414071D01*
Y219584D01*
X414029D01*
Y219605D01*
X414007D01*
Y219626D01*
X413965D01*
Y219648D01*
X413922D01*
Y219669D01*
X413879D01*
Y219691D01*
X413858D01*
Y219712D01*
X413815D01*
Y219733D01*
X413772D01*
Y219755D01*
X413751D01*
Y219776D01*
X413708D01*
Y219797D01*
X413665D01*
Y219819D01*
X413622D01*
Y219840D01*
X413601D01*
Y219862D01*
X413558D01*
Y219883D01*
X413516D01*
Y219904D01*
X413473D01*
Y219926D01*
X413451D01*
Y219947D01*
X413409D01*
Y219969D01*
X413366D01*
Y219990D01*
X413344D01*
Y220011D01*
X413302D01*
Y220033D01*
X413259D01*
Y220054D01*
X413216D01*
Y220075D01*
X413195D01*
Y220097D01*
X413152D01*
Y220118D01*
X413109D01*
Y220140D01*
X413066D01*
Y220161D01*
X413045D01*
Y220182D01*
X413002D01*
Y220204D01*
X412960D01*
Y220225D01*
X412917D01*
Y220247D01*
X412895D01*
Y220268D01*
X412853D01*
Y220289D01*
X412810D01*
Y220311D01*
X412788D01*
Y220332D01*
X412746D01*
Y220353D01*
X412703D01*
Y220375D01*
X412660D01*
Y220396D01*
X412639D01*
Y220418D01*
X412596D01*
Y220439D01*
X412553D01*
Y220460D01*
X412511D01*
Y220482D01*
X412489D01*
Y220503D01*
X412446D01*
Y220525D01*
X412404D01*
Y220546D01*
X412361D01*
Y220567D01*
X412339D01*
Y220589D01*
X412297D01*
Y220610D01*
X412254D01*
Y220631D01*
X412233D01*
Y220653D01*
X412190D01*
Y220674D01*
X412147D01*
Y220695D01*
X412104D01*
Y220717D01*
X412083D01*
Y220738D01*
X412040D01*
Y220760D01*
X411997D01*
Y220781D01*
X411955D01*
Y220802D01*
X411933D01*
Y220824D01*
X411891D01*
Y220845D01*
X411848D01*
Y220867D01*
X411826D01*
Y220888D01*
X411784D01*
Y220909D01*
X411741D01*
Y220931D01*
X411698D01*
Y220952D01*
X411677D01*
Y220973D01*
X411634D01*
Y220995D01*
X411591D01*
Y221016D01*
X411548D01*
Y221038D01*
X411527D01*
Y221059D01*
X411484D01*
Y221080D01*
X411442D01*
Y221102D01*
X411399D01*
Y221123D01*
X411377D01*
Y221145D01*
X411335D01*
Y221166D01*
X411292D01*
Y221187D01*
X411271D01*
Y221209D01*
X411228D01*
Y221230D01*
X411185D01*
Y221251D01*
X411142D01*
Y221273D01*
X411121D01*
Y221294D01*
X411078D01*
Y221316D01*
X411035D01*
Y221337D01*
X410992D01*
Y221358D01*
X410971D01*
Y221380D01*
X410928D01*
Y221401D01*
X410886D01*
Y221423D01*
X410843D01*
Y221444D01*
X410821D01*
Y221465D01*
X410779D01*
Y221487D01*
X410736D01*
Y221508D01*
X410715D01*
Y221529D01*
X410672D01*
Y221551D01*
X410629D01*
Y221572D01*
X410586D01*
Y221593D01*
X410565D01*
Y221615D01*
X410522D01*
Y221636D01*
X410479D01*
Y221658D01*
X410437D01*
Y221679D01*
X410415D01*
Y221700D01*
X410372D01*
Y221722D01*
X410330D01*
Y221743D01*
X410287D01*
Y221765D01*
X410266D01*
Y221786D01*
X410223D01*
Y221807D01*
X410180D01*
Y221829D01*
X410159D01*
Y221850D01*
X410116D01*
Y221871D01*
X410073D01*
Y221893D01*
X410030D01*
Y221914D01*
X410009D01*
Y221936D01*
X409966D01*
Y221957D01*
X409924D01*
Y221978D01*
X409881D01*
Y222000D01*
X409859D01*
Y222021D01*
X409817D01*
Y222042D01*
X409774D01*
Y222064D01*
X409753D01*
Y222085D01*
X409710D01*
Y222107D01*
X409667D01*
Y222128D01*
X409624D01*
Y222149D01*
X409603D01*
Y222171D01*
X409560D01*
Y222192D01*
X409517D01*
Y222214D01*
X409475D01*
Y222235D01*
X409453D01*
Y222256D01*
X409410D01*
Y222278D01*
X409368D01*
Y222299D01*
X409325D01*
Y222320D01*
X409304D01*
Y222342D01*
X409261D01*
Y222363D01*
X409239D01*
Y222342D01*
X409197D01*
Y222320D01*
X409154D01*
Y222299D01*
X409132D01*
Y222278D01*
X409090D01*
Y222256D01*
X409047D01*
Y222235D01*
X409004D01*
Y222214D01*
X408983D01*
Y222192D01*
X408940D01*
Y222171D01*
X408897D01*
Y222149D01*
X408876D01*
Y222128D01*
X408833D01*
Y222107D01*
X408790D01*
Y222085D01*
X408748D01*
Y222064D01*
X408726D01*
Y222042D01*
X408683D01*
Y222021D01*
X408641D01*
Y222000D01*
X408598D01*
Y221978D01*
X408576D01*
Y221957D01*
X408534D01*
Y221936D01*
X408491D01*
Y221914D01*
X408470D01*
Y221893D01*
X408427D01*
Y221871D01*
X408384D01*
Y221850D01*
X408341D01*
Y221829D01*
X408320D01*
Y221807D01*
X408277D01*
Y221786D01*
X408234D01*
Y221765D01*
X408192D01*
Y221743D01*
X408170D01*
Y221722D01*
X408127D01*
Y221700D01*
X408085D01*
Y221679D01*
X408042D01*
Y221658D01*
X408021D01*
Y221636D01*
X407978D01*
Y221615D01*
X407935D01*
Y221593D01*
X407914D01*
Y221572D01*
X407871D01*
Y221551D01*
X407828D01*
Y221529D01*
X407785D01*
Y221508D01*
X407764D01*
Y221487D01*
X407721D01*
Y221465D01*
X407679D01*
Y221444D01*
X407636D01*
Y221423D01*
X407614D01*
Y221401D01*
X407572D01*
Y221380D01*
X407529D01*
Y221358D01*
X407486D01*
Y221337D01*
X407465D01*
Y221316D01*
X407422D01*
Y221294D01*
X407379D01*
Y221273D01*
X407358D01*
Y221251D01*
X407315D01*
Y221230D01*
X407272D01*
Y221209D01*
X407230D01*
Y221187D01*
X407208D01*
Y221166D01*
X407165D01*
Y221145D01*
X407123D01*
Y221123D01*
X407080D01*
Y221102D01*
X407058D01*
Y221080D01*
X407016D01*
Y221059D01*
X406973D01*
Y221038D01*
X406930D01*
Y221016D01*
X406909D01*
Y220995D01*
X406866D01*
Y220973D01*
X406823D01*
Y220952D01*
X406802D01*
Y220931D01*
X406759D01*
Y220909D01*
X406716D01*
Y220888D01*
X406674D01*
Y220867D01*
X406652D01*
Y220845D01*
X406609D01*
Y220824D01*
X406567D01*
Y220802D01*
X406524D01*
Y220781D01*
X406503D01*
Y220760D01*
X406460D01*
Y220738D01*
X406417D01*
Y220717D01*
X406396D01*
Y220695D01*
X406353D01*
Y220674D01*
X406310D01*
Y220653D01*
X406267D01*
Y220631D01*
X406246D01*
Y220610D01*
X406203D01*
Y220589D01*
X406160D01*
Y220567D01*
X406118D01*
Y220546D01*
X406096D01*
Y220525D01*
X406054D01*
Y220503D01*
X406011D01*
Y220482D01*
X405968D01*
Y220460D01*
X405947D01*
Y220439D01*
X405904D01*
Y220418D01*
X405861D01*
Y220396D01*
X405840D01*
Y220375D01*
X405797D01*
Y220353D01*
X405754D01*
Y220332D01*
X405712D01*
Y220311D01*
X405690D01*
Y220289D01*
X405647D01*
Y220268D01*
X405605D01*
Y220247D01*
X405562D01*
Y220225D01*
X405540D01*
Y220204D01*
X405498D01*
Y220182D01*
X405455D01*
Y220161D01*
X405412D01*
Y220140D01*
X405391D01*
Y220118D01*
X405348D01*
Y220097D01*
X405305D01*
Y220075D01*
X405284D01*
Y220054D01*
X405241D01*
Y220033D01*
X405198D01*
Y220011D01*
X405156D01*
Y219990D01*
X405134D01*
Y219969D01*
X405091D01*
Y219947D01*
X405049D01*
Y219926D01*
X405006D01*
Y219904D01*
X404985D01*
Y219883D01*
X404942D01*
Y219862D01*
X404899D01*
Y219840D01*
X404856D01*
Y219819D01*
X404835D01*
Y219797D01*
X404792D01*
Y219776D01*
X404749D01*
Y219755D01*
X404728D01*
Y219733D01*
X404685D01*
Y219712D01*
X404642D01*
Y219691D01*
X404600D01*
Y219669D01*
X404578D01*
Y219648D01*
X404536D01*
Y219626D01*
X404493D01*
Y219605D01*
X404450D01*
Y219584D01*
X404429D01*
Y219562D01*
X404386D01*
Y219541D01*
X404343D01*
Y219520D01*
X404322D01*
Y219498D01*
X404279D01*
Y219477D01*
X404236D01*
Y219455D01*
X404193D01*
Y219434D01*
X404172D01*
Y219413D01*
X404129D01*
Y219391D01*
X404086D01*
Y219370D01*
X404044D01*
Y219349D01*
X404022D01*
Y219327D01*
X403980D01*
Y219306D01*
X403937D01*
Y219284D01*
X403894D01*
Y219263D01*
X403873D01*
Y219242D01*
X403830D01*
Y219220D01*
X403787D01*
Y219199D01*
X403766D01*
Y219178D01*
X403723D01*
Y219156D01*
X403680D01*
Y219135D01*
X403638D01*
Y219113D01*
X403616D01*
Y219092D01*
X403573D01*
Y219071D01*
X403531D01*
Y219049D01*
X403488D01*
Y219028D01*
X403467D01*
Y219006D01*
X403424D01*
Y218985D01*
X403381D01*
Y218964D01*
X403338D01*
Y218942D01*
X403317D01*
Y218921D01*
X403274D01*
Y218899D01*
X403231D01*
Y218878D01*
X403210D01*
Y218857D01*
X403167D01*
Y218835D01*
X403124D01*
Y218814D01*
X403082D01*
Y218793D01*
X403060D01*
Y218771D01*
X403018D01*
Y218750D01*
X402975D01*
Y218728D01*
X402932D01*
Y218707D01*
X402911D01*
Y218686D01*
X402868D01*
Y218664D01*
X402825D01*
Y218643D01*
X402804D01*
Y218622D01*
X402761D01*
Y218600D01*
X402718D01*
Y218579D01*
X402675D01*
Y218557D01*
X402654D01*
Y218536D01*
X402611D01*
Y218515D01*
X402568D01*
Y218493D01*
X402526D01*
Y218472D01*
X402504D01*
Y218450D01*
X402462D01*
Y218429D01*
X402419D01*
Y218408D01*
X402376D01*
Y218386D01*
X402355D01*
Y218365D01*
X402312D01*
Y218344D01*
X402269D01*
Y218322D01*
X402248D01*
Y218301D01*
X402205D01*
Y218280D01*
X402162D01*
Y218258D01*
X402119D01*
Y218237D01*
X402098D01*
Y218215D01*
X402055D01*
Y218194D01*
X402013D01*
Y218173D01*
X401970D01*
Y218151D01*
X401948D01*
Y218130D01*
X401906D01*
Y218108D01*
X401863D01*
Y218087D01*
X401820D01*
Y218066D01*
X401799D01*
Y218044D01*
X401756D01*
Y218023D01*
X401713D01*
Y218002D01*
X401692D01*
Y217980D01*
X401649D01*
Y217959D01*
X401606D01*
Y217937D01*
X401564D01*
Y217916D01*
X401542D01*
Y217895D01*
X401500D01*
Y217873D01*
X401457D01*
Y217852D01*
X401414D01*
Y217830D01*
X401393D01*
Y217809D01*
X401350D01*
Y217788D01*
X401307D01*
Y217766D01*
X401264D01*
Y217745D01*
X401243D01*
Y217724D01*
X401200D01*
Y217702D01*
X401157D01*
Y217681D01*
X401136D01*
Y217659D01*
X401093D01*
Y217638D01*
X401051D01*
Y217617D01*
X401008D01*
Y217595D01*
X400986D01*
Y217574D01*
X400944D01*
Y217553D01*
X400901D01*
Y217531D01*
X400858D01*
Y217510D01*
X400837D01*
Y217488D01*
X400794D01*
Y217467D01*
X400751D01*
Y217446D01*
X400730D01*
Y217424D01*
X400687D01*
Y217403D01*
X400644D01*
Y217382D01*
X400601D01*
Y217360D01*
X400580D01*
Y217339D01*
X400537D01*
Y217317D01*
X400495D01*
Y217296D01*
X400452D01*
Y217275D01*
X400430D01*
Y217253D01*
X400366D01*
Y217275D01*
X400323D01*
Y217296D01*
X400302D01*
Y217317D01*
X400259D01*
Y217339D01*
X400217D01*
Y217360D01*
X400195D01*
Y217382D01*
X400152D01*
Y217403D01*
X400110D01*
Y217424D01*
X400067D01*
Y217446D01*
X400046D01*
Y217467D01*
X400003D01*
Y217488D01*
X399960D01*
Y217510D01*
X399917D01*
Y217531D01*
X399896D01*
Y217553D01*
X399853D01*
Y217574D01*
X399810D01*
Y217595D01*
X399768D01*
Y217617D01*
X399746D01*
Y217638D01*
X399704D01*
Y217659D01*
X399661D01*
Y217681D01*
X399639D01*
Y217702D01*
X399597D01*
Y217724D01*
X399554D01*
Y217745D01*
X399511D01*
Y217766D01*
X399490D01*
Y217788D01*
X399447D01*
Y217809D01*
X399404D01*
Y217830D01*
X399361D01*
Y217852D01*
X399340D01*
Y217873D01*
X399297D01*
Y217895D01*
X399254D01*
Y217916D01*
X399233D01*
Y217937D01*
X399190D01*
Y217959D01*
X399148D01*
Y217980D01*
X399105D01*
Y218002D01*
X399083D01*
Y218023D01*
X399041D01*
Y218044D01*
X398998D01*
Y218066D01*
X398955D01*
Y218087D01*
X398934D01*
Y218108D01*
X398891D01*
Y218130D01*
X398848D01*
Y218151D01*
X398805D01*
Y218173D01*
X398784D01*
Y218194D01*
X398741D01*
Y218215D01*
X398699D01*
Y218237D01*
X398677D01*
Y218258D01*
X398635D01*
Y218280D01*
X398592D01*
Y218301D01*
X398549D01*
Y218322D01*
X398528D01*
Y218344D01*
X398485D01*
Y218365D01*
X398442D01*
Y218386D01*
X398399D01*
Y218408D01*
X398378D01*
Y218429D01*
X398335D01*
Y218450D01*
X398292D01*
Y218472D01*
X398250D01*
Y218493D01*
X398228D01*
Y218515D01*
X398185D01*
Y218536D01*
X398143D01*
Y218557D01*
X398121D01*
Y218579D01*
X398079D01*
Y218600D01*
X398036D01*
Y218622D01*
X397993D01*
Y218643D01*
X397972D01*
Y218664D01*
X397929D01*
Y218686D01*
X397886D01*
Y218707D01*
X397843D01*
Y218728D01*
X397822D01*
Y218750D01*
X397779D01*
Y218771D01*
X397737D01*
Y218793D01*
X397694D01*
Y218814D01*
X397672D01*
Y218835D01*
X397630D01*
Y218857D01*
X397587D01*
Y218878D01*
X397565D01*
Y218899D01*
X397523D01*
Y218921D01*
X397480D01*
Y218942D01*
X397437D01*
Y218964D01*
X397416D01*
Y218985D01*
X397373D01*
Y219006D01*
X397330D01*
Y219028D01*
X397288D01*
Y219049D01*
X397266D01*
Y219071D01*
X397223D01*
Y219092D01*
X397181D01*
Y219113D01*
X397159D01*
Y219135D01*
X397116D01*
Y219156D01*
X397074D01*
Y219178D01*
X397031D01*
Y219199D01*
X397009D01*
Y219220D01*
X396967D01*
Y219242D01*
X396924D01*
Y219263D01*
X396881D01*
Y219284D01*
X396860D01*
Y219306D01*
X396817D01*
Y219327D01*
X396774D01*
Y219349D01*
X396732D01*
Y219370D01*
X396710D01*
Y219391D01*
X396667D01*
Y219413D01*
X396625D01*
Y219434D01*
X396603D01*
Y219455D01*
X396561D01*
Y219477D01*
X396518D01*
Y219498D01*
X396475D01*
Y219520D01*
X396454D01*
Y219541D01*
X396411D01*
Y219562D01*
X396368D01*
Y219584D01*
X396325D01*
Y219605D01*
X396304D01*
Y219626D01*
X396261D01*
Y219648D01*
X396218D01*
Y219669D01*
X396176D01*
Y219691D01*
X396154D01*
Y219712D01*
X396111D01*
Y219733D01*
X396069D01*
Y219755D01*
X396047D01*
Y219776D01*
X396005D01*
Y219797D01*
X395962D01*
Y219819D01*
X395919D01*
Y219840D01*
X395898D01*
Y219862D01*
X395855D01*
Y219883D01*
X395812D01*
Y219904D01*
X395770D01*
Y219926D01*
X395748D01*
Y219947D01*
X395705D01*
Y219969D01*
X395663D01*
Y219990D01*
X395641D01*
Y220011D01*
X395598D01*
Y220033D01*
X395556D01*
Y220054D01*
X395513D01*
Y220075D01*
X395492D01*
Y220097D01*
X395449D01*
Y220118D01*
X395406D01*
Y220140D01*
X395363D01*
Y220161D01*
X395342D01*
Y220182D01*
X395299D01*
Y220204D01*
X395256D01*
Y220225D01*
X395214D01*
Y220247D01*
X395192D01*
Y220268D01*
X395149D01*
Y220289D01*
X395107D01*
Y220311D01*
X395085D01*
Y220332D01*
X395042D01*
Y220353D01*
X395000D01*
Y220375D01*
X394957D01*
Y220396D01*
X394936D01*
Y220418D01*
X394893D01*
Y220439D01*
X394850D01*
Y220460D01*
X394807D01*
Y220482D01*
X394786D01*
Y220503D01*
X394743D01*
Y220525D01*
X394700D01*
Y220546D01*
X394658D01*
Y220567D01*
X394636D01*
Y220589D01*
X394594D01*
Y220610D01*
X394551D01*
Y220631D01*
X394529D01*
Y220653D01*
X394487D01*
Y220674D01*
X394444D01*
Y220695D01*
X394401D01*
Y220717D01*
X394380D01*
Y220738D01*
X394337D01*
Y220760D01*
X394294D01*
Y220781D01*
X394251D01*
Y220802D01*
X394230D01*
Y220824D01*
X394187D01*
Y220845D01*
X394145D01*
Y220867D01*
X394102D01*
Y220888D01*
X394080D01*
Y220909D01*
X394038D01*
Y220931D01*
X393995D01*
Y220952D01*
X393973D01*
Y220973D01*
X393931D01*
Y220995D01*
X393888D01*
Y221016D01*
X393845D01*
Y221038D01*
X393824D01*
Y221059D01*
X393781D01*
Y221080D01*
X393738D01*
Y221102D01*
X393695D01*
Y221123D01*
X393674D01*
Y221145D01*
X393631D01*
Y221166D01*
X393589D01*
Y221187D01*
X393567D01*
Y221209D01*
X393525D01*
Y221230D01*
X393482D01*
Y221251D01*
X393439D01*
Y221273D01*
X393418D01*
Y221294D01*
X393375D01*
Y221316D01*
X393332D01*
Y221337D01*
X393289D01*
Y221358D01*
X393268D01*
Y221380D01*
X393225D01*
Y221401D01*
X393182D01*
Y221423D01*
X393140D01*
Y221444D01*
X393118D01*
Y221465D01*
X393075D01*
Y221487D01*
X393033D01*
Y221508D01*
X393011D01*
Y221529D01*
X392969D01*
Y221551D01*
X392926D01*
Y221572D01*
X392883D01*
Y221593D01*
X392862D01*
Y221615D01*
X392819D01*
Y221636D01*
X392776D01*
Y221658D01*
X392733D01*
Y221679D01*
X392712D01*
Y221700D01*
X392669D01*
Y221722D01*
X392627D01*
Y221743D01*
X392584D01*
Y221765D01*
X392562D01*
Y221786D01*
X392520D01*
Y221807D01*
X392477D01*
Y221829D01*
X392455D01*
Y221850D01*
X392413D01*
Y221871D01*
X392370D01*
Y221893D01*
X392327D01*
Y221914D01*
X392306D01*
Y221936D01*
X392263D01*
Y221957D01*
X392220D01*
Y221978D01*
X392178D01*
Y222000D01*
X392156D01*
Y222021D01*
X392113D01*
Y222042D01*
X392071D01*
Y222064D01*
X392028D01*
Y222085D01*
X392006D01*
Y222107D01*
X391964D01*
Y222128D01*
X391921D01*
Y222149D01*
X391899D01*
Y222171D01*
X391857D01*
Y222192D01*
X391814D01*
Y222214D01*
X391771D01*
Y222235D01*
X391750D01*
Y222256D01*
X391707D01*
Y222278D01*
X391664D01*
Y222299D01*
X391622D01*
Y222320D01*
X391600D01*
Y222342D01*
X391557D01*
Y222363D01*
X391536D01*
Y232605D01*
X391557D01*
Y232626D01*
X391579D01*
Y232647D01*
X391622D01*
Y232669D01*
X391664D01*
Y232690D01*
X391686D01*
Y232712D01*
X391728D01*
Y232733D01*
X391771D01*
Y232754D01*
X391814D01*
Y232776D01*
X391835D01*
Y232797D01*
X391878D01*
Y232818D01*
X391921D01*
Y232840D01*
X391964D01*
Y232861D01*
X391985D01*
Y232882D01*
X392028D01*
Y232904D01*
X392071D01*
Y232925D01*
X392092D01*
Y232947D01*
X392135D01*
Y232968D01*
X392178D01*
Y232989D01*
X392220D01*
Y233011D01*
X392242D01*
Y233032D01*
X392284D01*
Y233054D01*
X392327D01*
Y233075D01*
X392370D01*
Y233096D01*
X392391D01*
Y233118D01*
X392434D01*
Y233139D01*
X392477D01*
Y233160D01*
X392520D01*
Y233182D01*
X392541D01*
Y233203D01*
X392584D01*
Y233225D01*
X392627D01*
Y233246D01*
X392648D01*
Y233267D01*
X392691D01*
Y233289D01*
X392733D01*
Y233310D01*
X392776D01*
Y233331D01*
X392797D01*
Y233353D01*
X392840D01*
Y233374D01*
X392883D01*
Y233396D01*
X392926D01*
Y233417D01*
X392947D01*
Y233438D01*
X392990D01*
Y233460D01*
X393033D01*
Y233481D01*
X393075D01*
Y233503D01*
X393097D01*
Y233524D01*
X393140D01*
Y233545D01*
X393182D01*
Y233567D01*
X393204D01*
Y233588D01*
X393247D01*
Y233610D01*
X393289D01*
Y233631D01*
X393332D01*
Y233652D01*
X393353D01*
Y233674D01*
X393396D01*
Y233695D01*
X393439D01*
Y233716D01*
X393482D01*
Y233738D01*
X393503D01*
Y233759D01*
X393546D01*
Y233781D01*
X393589D01*
Y233802D01*
X393631D01*
Y233823D01*
X393653D01*
Y233845D01*
X393695D01*
Y233866D01*
X393738D01*
Y233887D01*
X393760D01*
Y233909D01*
X393802D01*
Y233930D01*
X393845D01*
Y233952D01*
X393888D01*
Y233973D01*
X393909D01*
Y233994D01*
X393952D01*
Y234016D01*
X393995D01*
Y234037D01*
X394038D01*
Y234058D01*
X394059D01*
Y234080D01*
X394102D01*
Y234101D01*
X394145D01*
Y234123D01*
X394166D01*
Y234144D01*
X394209D01*
Y234165D01*
X394251D01*
Y234187D01*
X394294D01*
Y234208D01*
X394316D01*
Y234229D01*
X394358D01*
Y234251D01*
X394401D01*
Y234272D01*
X394444D01*
Y234294D01*
X394465D01*
Y234315D01*
X394508D01*
Y234336D01*
X394551D01*
Y234358D01*
X394594D01*
Y234379D01*
X394615D01*
Y234401D01*
X394658D01*
Y234422D01*
X394700D01*
Y234443D01*
X394722D01*
Y234465D01*
X394765D01*
Y234486D01*
X394807D01*
Y234507D01*
X394850D01*
Y234529D01*
X394871D01*
Y234550D01*
X394914D01*
Y234572D01*
X394957D01*
Y234593D01*
X395000D01*
Y234614D01*
X395021D01*
Y234636D01*
X395064D01*
Y234657D01*
X395107D01*
Y234679D01*
X395149D01*
Y234700D01*
X395171D01*
Y234721D01*
X395214D01*
Y234743D01*
X395256D01*
Y234764D01*
X395278D01*
Y234785D01*
X395320D01*
Y234807D01*
X395363D01*
Y234828D01*
X395406D01*
Y234850D01*
X395427D01*
Y234871D01*
X395470D01*
Y234892D01*
X395513D01*
Y234914D01*
X395556D01*
Y234935D01*
X395577D01*
Y234957D01*
X395620D01*
Y234978D01*
X395663D01*
Y234999D01*
X395684D01*
Y235021D01*
X395727D01*
Y235042D01*
X395770D01*
Y235063D01*
X395812D01*
Y235085D01*
X395834D01*
Y235106D01*
X395876D01*
Y235127D01*
X395919D01*
Y235149D01*
X395962D01*
Y235170D01*
X395983D01*
Y235192D01*
X396026D01*
Y235213D01*
X396069D01*
Y235234D01*
X396111D01*
Y235256D01*
X396133D01*
Y235277D01*
X396176D01*
Y235299D01*
X396218D01*
Y235320D01*
X396240D01*
Y235341D01*
X396283D01*
Y235363D01*
X396325D01*
Y235384D01*
X396368D01*
Y235405D01*
X396390D01*
Y235427D01*
X396432D01*
Y235448D01*
X396475D01*
Y235470D01*
X396518D01*
Y235491D01*
X396539D01*
Y235512D01*
X396582D01*
Y235534D01*
X396625D01*
Y235555D01*
X396667D01*
Y235577D01*
X396689D01*
Y235598D01*
X396732D01*
Y235619D01*
X396774D01*
Y235641D01*
X396796D01*
Y235662D01*
X396838D01*
Y235683D01*
X396881D01*
Y235705D01*
X396924D01*
Y235726D01*
X396945D01*
Y235748D01*
X396988D01*
Y235769D01*
X397031D01*
Y235790D01*
X397074D01*
Y235812D01*
X397095D01*
Y235833D01*
X397138D01*
Y235855D01*
X397181D01*
Y235876D01*
X397223D01*
Y235897D01*
X397245D01*
Y235919D01*
X397288D01*
Y235940D01*
X397330D01*
Y235961D01*
X397352D01*
Y235983D01*
X397394D01*
Y236004D01*
X397437D01*
Y236026D01*
X397480D01*
Y236047D01*
X397501D01*
Y236068D01*
X397544D01*
Y236090D01*
X397587D01*
Y236111D01*
X397630D01*
Y236132D01*
X397651D01*
Y236154D01*
X397694D01*
Y236175D01*
X397737D01*
Y236196D01*
X397758D01*
Y236218D01*
X397801D01*
Y236239D01*
X397843D01*
Y236261D01*
X397886D01*
Y236282D01*
X397907D01*
Y236303D01*
X397950D01*
Y236325D01*
X397993D01*
Y236346D01*
X398036D01*
Y236368D01*
X398057D01*
Y236389D01*
X398100D01*
Y236410D01*
X398143D01*
Y236432D01*
X398185D01*
Y236453D01*
X398207D01*
Y236474D01*
X398250D01*
Y236496D01*
X398292D01*
Y236517D01*
X398314D01*
Y236539D01*
X398357D01*
Y236560D01*
X398399D01*
Y236581D01*
X398442D01*
Y236603D01*
X398463D01*
Y236624D01*
X398506D01*
Y236646D01*
X398549D01*
Y236667D01*
X398592D01*
Y236688D01*
X398613D01*
Y236710D01*
X398656D01*
Y236731D01*
X398699D01*
Y236752D01*
X398741D01*
Y236774D01*
X398763D01*
Y236795D01*
X398805D01*
Y236817D01*
X398848D01*
Y236838D01*
X398870D01*
Y236859D01*
X398912D01*
Y236881D01*
X398955D01*
Y236902D01*
X398998D01*
Y236924D01*
X399019D01*
Y236945D01*
X399062D01*
Y236966D01*
X399105D01*
Y236988D01*
X399148D01*
Y237009D01*
X399169D01*
Y237030D01*
X399212D01*
Y237052D01*
X399254D01*
Y237073D01*
X399297D01*
Y237094D01*
X399319D01*
Y237116D01*
X399361D01*
Y237137D01*
X399404D01*
Y237159D01*
X399426D01*
Y237180D01*
X399468D01*
Y237201D01*
X399511D01*
Y237223D01*
X399554D01*
Y237244D01*
X399575D01*
Y237266D01*
X399618D01*
Y237287D01*
X399661D01*
Y237308D01*
X399704D01*
Y237330D01*
X399725D01*
Y237351D01*
X399768D01*
Y237372D01*
X399810D01*
Y237394D01*
X399832D01*
Y237415D01*
X399874D01*
Y237437D01*
X399917D01*
Y237458D01*
X399960D01*
Y237479D01*
X399981D01*
Y237501D01*
X400024D01*
Y237522D01*
X400067D01*
Y237544D01*
X400110D01*
Y237565D01*
X400131D01*
Y237586D01*
X400174D01*
Y237608D01*
X400217D01*
Y237629D01*
X400259D01*
Y237650D01*
X400281D01*
Y237672D01*
X400323D01*
Y237693D01*
X400366D01*
Y237715D01*
X400388D01*
Y244043D01*
Y244065D01*
Y247956D01*
X400430D01*
Y247977D01*
X400473D01*
Y247999D01*
X400516D01*
Y248020D01*
X400537D01*
Y248042D01*
X400580D01*
Y248063D01*
X400623D01*
Y248084D01*
X400666D01*
Y248106D01*
X400687D01*
Y248127D01*
X400730D01*
Y248148D01*
X400772D01*
Y248170D01*
X400794D01*
Y248191D01*
X400837D01*
Y248213D01*
X400879D01*
Y248234D01*
X400922D01*
Y248255D01*
X400944D01*
Y248277D01*
X400986D01*
Y248298D01*
X401029D01*
Y248319D01*
X401072D01*
Y248341D01*
X401093D01*
Y248362D01*
X401136D01*
Y248384D01*
X401179D01*
Y248405D01*
X401200D01*
Y248426D01*
X401243D01*
Y248448D01*
X401286D01*
Y248469D01*
X401328D01*
Y248491D01*
X401350D01*
Y248512D01*
X401393D01*
Y248533D01*
X401435D01*
Y248555D01*
X401478D01*
Y248576D01*
X401500D01*
Y248597D01*
X401542D01*
Y248619D01*
X401585D01*
Y248640D01*
X401628D01*
Y248661D01*
X401649D01*
Y248683D01*
X401692D01*
Y248704D01*
X401735D01*
Y248726D01*
X401756D01*
Y248747D01*
X401799D01*
Y248768D01*
X401842D01*
Y248790D01*
X401884D01*
Y248811D01*
X401906D01*
Y248833D01*
X401948D01*
Y248854D01*
X401991D01*
Y248875D01*
X402034D01*
Y248897D01*
X402055D01*
Y248918D01*
X402098D01*
Y248939D01*
X402141D01*
Y248961D01*
X402184D01*
Y248982D01*
X402205D01*
Y249004D01*
X402248D01*
Y249025D01*
X402291D01*
Y249046D01*
X402312D01*
Y249068D01*
X402355D01*
Y249089D01*
X402397D01*
Y249111D01*
X402440D01*
Y249132D01*
X402462D01*
Y249153D01*
X402504D01*
Y249175D01*
X402547D01*
Y249196D01*
X402590D01*
Y249217D01*
X402611D01*
Y249239D01*
X402654D01*
Y249260D01*
X402697D01*
Y249282D01*
X402718D01*
Y249303D01*
X402761D01*
Y249324D01*
X402804D01*
Y249346D01*
X402846D01*
Y249367D01*
X402868D01*
Y249389D01*
X402911D01*
Y249410D01*
X402953D01*
Y249431D01*
X402996D01*
Y249453D01*
X403018D01*
Y249474D01*
X403060D01*
Y249495D01*
X403103D01*
Y249517D01*
X403146D01*
Y249538D01*
X403167D01*
Y249559D01*
X403210D01*
Y249581D01*
X403253D01*
Y249602D01*
X403274D01*
Y249624D01*
X403317D01*
Y249645D01*
X403360D01*
Y249666D01*
X403402D01*
Y249688D01*
X403424D01*
Y249709D01*
X403467D01*
Y249730D01*
X403509D01*
Y249752D01*
X403552D01*
Y249773D01*
X403573D01*
Y249795D01*
X403616D01*
Y249816D01*
X403659D01*
Y249837D01*
X403702D01*
Y249859D01*
X403723D01*
Y249880D01*
X403766D01*
Y249902D01*
X403809D01*
Y249923D01*
X403830D01*
Y249944D01*
X403873D01*
Y249966D01*
X403916D01*
Y249987D01*
X403958D01*
Y250009D01*
X403980D01*
Y250030D01*
X404022D01*
Y250051D01*
X404065D01*
Y250073D01*
X404108D01*
Y250094D01*
X404129D01*
Y250115D01*
X404172D01*
Y250137D01*
X404215D01*
Y250158D01*
X404258D01*
Y250180D01*
X404279D01*
Y250201D01*
X404322D01*
Y250222D01*
X404364D01*
Y250244D01*
X404386D01*
Y250265D01*
X404429D01*
Y250287D01*
X404471D01*
Y250308D01*
X404514D01*
Y250329D01*
X404536D01*
Y250351D01*
X404578D01*
Y250372D01*
X404621D01*
Y250393D01*
X404664D01*
Y250415D01*
X404685D01*
Y250436D01*
X404728D01*
Y250458D01*
X404771D01*
Y250479D01*
X404792D01*
Y250500D01*
X404835D01*
Y250522D01*
X404878D01*
Y250543D01*
X404920D01*
Y250564D01*
X404942D01*
Y250586D01*
X404985D01*
Y250607D01*
X405027D01*
Y250628D01*
X405070D01*
Y250650D01*
X405091D01*
Y250671D01*
X405134D01*
Y250693D01*
X405177D01*
Y250714D01*
X405220D01*
Y250735D01*
X405241D01*
Y250757D01*
X405284D01*
Y250778D01*
X405327D01*
Y250800D01*
X405348D01*
Y250821D01*
X405391D01*
Y250842D01*
X405434D01*
Y250864D01*
X405476D01*
Y250885D01*
X405498D01*
Y250906D01*
X405540D01*
Y250928D01*
X405583D01*
Y250949D01*
X405626D01*
Y250971D01*
X405647D01*
Y250992D01*
X405690D01*
Y251013D01*
X405733D01*
Y251035D01*
X405776D01*
Y251056D01*
X405797D01*
Y251078D01*
X405840D01*
Y251099D01*
X405883D01*
Y251120D01*
X405904D01*
Y251142D01*
X405947D01*
Y251163D01*
X405989D01*
Y251184D01*
X406032D01*
Y251206D01*
X406054D01*
Y251227D01*
X406096D01*
Y251249D01*
X406139D01*
Y251270D01*
X406182D01*
Y251291D01*
X406203D01*
Y251313D01*
X406246D01*
Y251334D01*
X406289D01*
Y251356D01*
X406331D01*
Y251377D01*
X406353D01*
Y251398D01*
X406396D01*
Y251420D01*
X406438D01*
Y251441D01*
X406460D01*
Y251462D01*
X406503D01*
Y251484D01*
X406545D01*
Y251505D01*
X406588D01*
Y251526D01*
X406609D01*
Y251548D01*
X406652D01*
Y251569D01*
X406695D01*
Y251591D01*
X406738D01*
Y251612D01*
X406759D01*
Y251633D01*
X406802D01*
Y251655D01*
X406845D01*
Y251676D01*
X406866D01*
Y251698D01*
X406909D01*
Y251719D01*
X406952D01*
Y251740D01*
X406994D01*
Y251762D01*
X407016D01*
Y251783D01*
X407058D01*
Y251804D01*
X407101D01*
Y251826D01*
X407144D01*
Y251847D01*
X407165D01*
Y251869D01*
X407208D01*
Y251890D01*
X407251D01*
Y251911D01*
X407294D01*
Y251933D01*
X407315D01*
Y251954D01*
X407358D01*
Y251975D01*
X407401D01*
Y251997D01*
X407422D01*
Y252018D01*
X407465D01*
Y252040D01*
X407508D01*
Y252061D01*
X407550D01*
Y252082D01*
X407572D01*
Y252104D01*
X407614D01*
Y252125D01*
X407657D01*
Y252147D01*
X407700D01*
Y252168D01*
X407721D01*
Y252189D01*
X407764D01*
Y252211D01*
X407807D01*
Y252232D01*
X407850D01*
Y252254D01*
X407871D01*
Y252275D01*
X407914D01*
Y252296D01*
X407957D01*
Y252318D01*
X407978D01*
Y252339D01*
X408021D01*
Y252360D01*
X408063D01*
Y252382D01*
X408106D01*
Y252403D01*
X408127D01*
Y252425D01*
X408170D01*
Y252446D01*
X408213D01*
Y252467D01*
X408256D01*
Y252489D01*
X408277D01*
Y252510D01*
X408320D01*
Y252531D01*
X408363D01*
Y252553D01*
X408384D01*
Y252574D01*
X408427D01*
Y252596D01*
X408470D01*
Y252617D01*
X408512D01*
Y252638D01*
X408534D01*
Y252660D01*
X408576D01*
Y252681D01*
X408619D01*
Y252702D01*
X408662D01*
Y252724D01*
X408683D01*
Y252745D01*
X408726D01*
Y252767D01*
X408769D01*
Y252788D01*
X408812D01*
Y252809D01*
X408833D01*
Y252831D01*
X408876D01*
Y252852D01*
X408919D01*
Y252873D01*
X408940D01*
Y252895D01*
X408983D01*
Y252916D01*
X409025D01*
Y252938D01*
X409068D01*
Y252959D01*
X409090D01*
Y252980D01*
X409132D01*
Y253002D01*
X409175D01*
Y253023D01*
X409218D01*
Y253045D01*
X409282D01*
Y253023D01*
D02*
G37*
%LPC*%
G36*
X409261Y242803D02*
X409239D01*
Y242782D01*
X409197D01*
Y242760D01*
X409154D01*
Y242739D01*
X409111D01*
Y242718D01*
X409090D01*
Y242696D01*
X409047D01*
Y242675D01*
X409004D01*
Y242653D01*
X408983D01*
Y242632D01*
X408940D01*
Y242611D01*
X408897D01*
Y242589D01*
X408854D01*
Y242568D01*
X408833D01*
Y242547D01*
X408790D01*
Y242525D01*
X408748D01*
Y242504D01*
X408705D01*
Y242482D01*
X408683D01*
Y242461D01*
X408641D01*
Y242440D01*
X408598D01*
Y242418D01*
X408576D01*
Y242397D01*
X408534D01*
Y242376D01*
X408491D01*
Y242354D01*
X408448D01*
Y242333D01*
X408427D01*
Y242311D01*
X408384D01*
Y242290D01*
X408341D01*
Y242269D01*
X408299D01*
Y242247D01*
X408277D01*
Y242226D01*
X408234D01*
Y242204D01*
X408192D01*
Y242183D01*
X408149D01*
Y242162D01*
X408127D01*
Y242140D01*
X408085D01*
Y242119D01*
X408042D01*
Y242098D01*
X408021D01*
Y242076D01*
X407978D01*
Y242055D01*
X407935D01*
Y242034D01*
X407892D01*
Y242012D01*
X407871D01*
Y241991D01*
X407828D01*
Y241969D01*
X407785D01*
Y241948D01*
X407743D01*
Y241927D01*
X407721D01*
Y241905D01*
X407679D01*
Y241884D01*
X407636D01*
Y241862D01*
X407593D01*
Y241841D01*
X407572D01*
Y241820D01*
X407529D01*
Y241798D01*
X407486D01*
Y241777D01*
X407465D01*
Y241756D01*
X407422D01*
Y241734D01*
X407379D01*
Y241713D01*
X407336D01*
Y241691D01*
X407315D01*
Y241670D01*
X407272D01*
Y241649D01*
X407230D01*
Y241627D01*
X407187D01*
Y241606D01*
X407165D01*
Y241584D01*
X407123D01*
Y241563D01*
X407080D01*
Y241542D01*
X407058D01*
Y241520D01*
X407016D01*
Y241499D01*
X406973D01*
Y241478D01*
X406930D01*
Y241456D01*
X406909D01*
Y241435D01*
X406866D01*
Y241413D01*
X406823D01*
Y241392D01*
X406780D01*
Y241371D01*
X406759D01*
Y241349D01*
X406716D01*
Y241328D01*
X406674D01*
Y241306D01*
X406631D01*
Y241285D01*
X406609D01*
Y241264D01*
X406567D01*
Y241242D01*
X406524D01*
Y241221D01*
X406503D01*
Y241200D01*
X406460D01*
Y241178D01*
X406417D01*
Y241157D01*
X406374D01*
Y241136D01*
X406353D01*
Y241114D01*
X406310D01*
Y241093D01*
X406267D01*
Y241071D01*
X406225D01*
Y241050D01*
X406203D01*
Y241029D01*
X406160D01*
Y241007D01*
X406118D01*
Y240986D01*
X406075D01*
Y240964D01*
X406054D01*
Y240943D01*
X406011D01*
Y240922D01*
X405968D01*
Y240900D01*
X405947D01*
Y240879D01*
X405904D01*
Y240858D01*
X405861D01*
Y240836D01*
X405818D01*
Y240815D01*
X405797D01*
Y240793D01*
X405754D01*
Y240772D01*
X405712D01*
Y240751D01*
X405669D01*
Y240729D01*
X405647D01*
Y240708D01*
X405605D01*
Y240686D01*
X405562D01*
Y240665D01*
X405519D01*
Y240644D01*
X405498D01*
Y240622D01*
X405455D01*
Y240601D01*
X405412D01*
Y240580D01*
X405391D01*
Y240558D01*
X405348D01*
Y240537D01*
X405305D01*
Y240515D01*
X405263D01*
Y240494D01*
X405241D01*
Y240473D01*
X405198D01*
Y240451D01*
X405156D01*
Y240430D01*
X405113D01*
Y240409D01*
X405091D01*
Y240387D01*
X405049D01*
Y240366D01*
X405006D01*
Y240344D01*
X404985D01*
Y240323D01*
X404942D01*
Y240302D01*
X404899D01*
Y240280D01*
X404856D01*
Y240259D01*
X404835D01*
Y240237D01*
X404792D01*
Y240216D01*
X404749D01*
Y240195D01*
X404707D01*
Y240173D01*
X404685D01*
Y240152D01*
X404642D01*
Y240131D01*
X404600D01*
Y240109D01*
X404557D01*
Y240088D01*
X404536D01*
Y240067D01*
X404493D01*
Y240045D01*
X404450D01*
Y240024D01*
X404429D01*
Y240002D01*
X404386D01*
Y239981D01*
X404343D01*
Y239960D01*
X404300D01*
Y239938D01*
X404279D01*
Y239917D01*
X404236D01*
Y239895D01*
X404193D01*
Y239874D01*
X404151D01*
Y239853D01*
X404129D01*
Y239831D01*
X404086D01*
Y239810D01*
X404044D01*
Y239789D01*
X404001D01*
Y239767D01*
X403980D01*
Y239746D01*
X403937D01*
Y239724D01*
X403894D01*
Y239703D01*
X403873D01*
Y239682D01*
X403830D01*
Y239660D01*
X403787D01*
Y239639D01*
X403745D01*
Y239617D01*
X403723D01*
Y239596D01*
X403680D01*
Y239575D01*
X403638D01*
Y239553D01*
X403595D01*
Y239532D01*
X403573D01*
Y239511D01*
X403531D01*
Y239489D01*
X403488D01*
Y239468D01*
X403445D01*
Y239446D01*
X403424D01*
Y239425D01*
X403381D01*
Y239404D01*
X403338D01*
Y239382D01*
X403317D01*
Y239361D01*
X403274D01*
Y239339D01*
X403231D01*
Y239318D01*
X403189D01*
Y239297D01*
X403167D01*
Y239275D01*
X403124D01*
Y239254D01*
X403082D01*
Y239233D01*
X403039D01*
Y239211D01*
X403018D01*
Y239190D01*
X402975D01*
Y239169D01*
X402932D01*
Y239147D01*
X402911D01*
Y239126D01*
X402868D01*
Y239104D01*
X402825D01*
Y239083D01*
X402782D01*
Y239062D01*
X402761D01*
Y239040D01*
X402718D01*
Y239019D01*
X402675D01*
Y238997D01*
X402633D01*
Y238976D01*
X402611D01*
Y238955D01*
X402568D01*
Y238933D01*
X402526D01*
Y238912D01*
X402483D01*
Y238891D01*
X402462D01*
Y238869D01*
X402419D01*
Y238848D01*
X402376D01*
Y238826D01*
X402355D01*
Y238805D01*
X402312D01*
Y238784D01*
X402269D01*
Y238762D01*
X402226D01*
Y238741D01*
X402205D01*
Y238720D01*
X402162D01*
Y238698D01*
X402119D01*
Y238677D01*
X402077D01*
Y238655D01*
X402055D01*
Y238634D01*
X402013D01*
Y238613D01*
X401970D01*
Y238591D01*
X401927D01*
Y238570D01*
X401906D01*
Y238548D01*
X401863D01*
Y238527D01*
X401820D01*
Y238506D01*
X401799D01*
Y238484D01*
X401756D01*
Y238463D01*
X401713D01*
Y238441D01*
X401671D01*
Y238420D01*
X401649D01*
Y238399D01*
X401606D01*
Y238377D01*
X401564D01*
Y238356D01*
X401521D01*
Y238335D01*
X401500D01*
Y238313D01*
X401457D01*
Y238292D01*
X401414D01*
Y238270D01*
X401371D01*
Y238249D01*
X401350D01*
Y238228D01*
X401307D01*
Y238206D01*
X401264D01*
Y238185D01*
X401243D01*
Y238164D01*
X401200D01*
Y238142D01*
X401157D01*
Y238121D01*
X401115D01*
Y238099D01*
X401093D01*
Y238078D01*
X401051D01*
Y238057D01*
X401008D01*
Y238035D01*
X400965D01*
Y238014D01*
X400944D01*
Y237993D01*
X400901D01*
Y237971D01*
X400858D01*
Y237950D01*
X400837D01*
Y237928D01*
X400794D01*
Y237907D01*
X400751D01*
Y237886D01*
X400708D01*
Y237864D01*
X400687D01*
Y237843D01*
X400644D01*
Y237822D01*
X400601D01*
Y237800D01*
X400559D01*
Y237779D01*
X400537D01*
Y237757D01*
X400495D01*
Y237736D01*
X400452D01*
Y237715D01*
X400409D01*
Y227495D01*
X400430D01*
Y227473D01*
X400473D01*
Y227452D01*
X400495D01*
Y227431D01*
X400537D01*
Y227409D01*
X400580D01*
Y227388D01*
X400623D01*
Y227366D01*
X400644D01*
Y227345D01*
X400687D01*
Y227324D01*
X400730D01*
Y227302D01*
X400772D01*
Y227281D01*
X400794D01*
Y227259D01*
X400837D01*
Y227238D01*
X400879D01*
Y227217D01*
X400922D01*
Y227195D01*
X400944D01*
Y227174D01*
X400986D01*
Y227152D01*
X401029D01*
Y227131D01*
X401051D01*
Y227110D01*
X401093D01*
Y227088D01*
X401136D01*
Y227067D01*
X401179D01*
Y227046D01*
X401200D01*
Y227024D01*
X401243D01*
Y227003D01*
X401286D01*
Y226981D01*
X401328D01*
Y226960D01*
X401350D01*
Y226939D01*
X401393D01*
Y226917D01*
X401435D01*
Y226896D01*
X401478D01*
Y226874D01*
X401500D01*
Y226853D01*
X401542D01*
Y226832D01*
X401585D01*
Y226810D01*
X401606D01*
Y226789D01*
X401649D01*
Y226768D01*
X401692D01*
Y226746D01*
X401735D01*
Y226725D01*
X401756D01*
Y226704D01*
X401799D01*
Y226682D01*
X401842D01*
Y226661D01*
X401884D01*
Y226639D01*
X401906D01*
Y226618D01*
X401948D01*
Y226597D01*
X401991D01*
Y226575D01*
X402034D01*
Y226554D01*
X402055D01*
Y226533D01*
X402098D01*
Y226511D01*
X402141D01*
Y226490D01*
X402162D01*
Y226468D01*
X402205D01*
Y226447D01*
X402248D01*
Y226426D01*
X402291D01*
Y226404D01*
X402312D01*
Y226383D01*
X402355D01*
Y226361D01*
X402397D01*
Y226340D01*
X402440D01*
Y226319D01*
X402462D01*
Y226297D01*
X402504D01*
Y226276D01*
X402547D01*
Y226255D01*
X402568D01*
Y226233D01*
X402611D01*
Y226212D01*
X402654D01*
Y226190D01*
X402697D01*
Y226169D01*
X402718D01*
Y226148D01*
X402761D01*
Y226126D01*
X402804D01*
Y226105D01*
X402846D01*
Y226083D01*
X402868D01*
Y226062D01*
X402911D01*
Y226041D01*
X402953D01*
Y226019D01*
X402996D01*
Y225998D01*
X403018D01*
Y225977D01*
X403060D01*
Y225955D01*
X403103D01*
Y225934D01*
X403124D01*
Y225912D01*
X403167D01*
Y225891D01*
X403210D01*
Y225870D01*
X403253D01*
Y225848D01*
X403274D01*
Y225827D01*
X403317D01*
Y225805D01*
X403360D01*
Y225784D01*
X403402D01*
Y225763D01*
X403424D01*
Y225741D01*
X403467D01*
Y225720D01*
X403509D01*
Y225699D01*
X403552D01*
Y225677D01*
X403573D01*
Y225656D01*
X403616D01*
Y225635D01*
X403659D01*
Y225613D01*
X403680D01*
Y225592D01*
X403723D01*
Y225570D01*
X403766D01*
Y225549D01*
X403809D01*
Y225528D01*
X403830D01*
Y225506D01*
X403873D01*
Y225485D01*
X403916D01*
Y225463D01*
X403958D01*
Y225442D01*
X403980D01*
Y225421D01*
X404022D01*
Y225399D01*
X404065D01*
Y225378D01*
X404108D01*
Y225357D01*
X404129D01*
Y225335D01*
X404172D01*
Y225314D01*
X404215D01*
Y225292D01*
X404236D01*
Y225271D01*
X404279D01*
Y225250D01*
X404322D01*
Y225228D01*
X404364D01*
Y225207D01*
X404386D01*
Y225185D01*
X404429D01*
Y225164D01*
X404471D01*
Y225143D01*
X404514D01*
Y225121D01*
X404536D01*
Y225100D01*
X404578D01*
Y225079D01*
X404621D01*
Y225057D01*
X404642D01*
Y225036D01*
X404685D01*
Y225014D01*
X404728D01*
Y224993D01*
X404771D01*
Y224972D01*
X404792D01*
Y224950D01*
X404835D01*
Y224929D01*
X404878D01*
Y224907D01*
X404920D01*
Y224886D01*
X404942D01*
Y224865D01*
X404985D01*
Y224843D01*
X405027D01*
Y224822D01*
X405070D01*
Y224801D01*
X405091D01*
Y224779D01*
X405134D01*
Y224758D01*
X405177D01*
Y224736D01*
X405198D01*
Y224715D01*
X405241D01*
Y224694D01*
X405284D01*
Y224672D01*
X405327D01*
Y224651D01*
X405348D01*
Y224630D01*
X405391D01*
Y224608D01*
X405434D01*
Y224587D01*
X405476D01*
Y224565D01*
X405498D01*
Y224544D01*
X405540D01*
Y224523D01*
X405583D01*
Y224501D01*
X405626D01*
Y224480D01*
X405647D01*
Y224459D01*
X405690D01*
Y224437D01*
X405733D01*
Y224416D01*
X405754D01*
Y224394D01*
X405797D01*
Y224373D01*
X405840D01*
Y224352D01*
X405883D01*
Y224330D01*
X405904D01*
Y224309D01*
X405947D01*
Y224288D01*
X405989D01*
Y224266D01*
X406032D01*
Y224245D01*
X406054D01*
Y224223D01*
X406096D01*
Y224202D01*
X406139D01*
Y224181D01*
X406160D01*
Y224159D01*
X406203D01*
Y224138D01*
X406246D01*
Y224116D01*
X406289D01*
Y224095D01*
X406310D01*
Y224074D01*
X406353D01*
Y224052D01*
X406396D01*
Y224031D01*
X406438D01*
Y224009D01*
X406460D01*
Y223988D01*
X406503D01*
Y223967D01*
X406545D01*
Y223945D01*
X406588D01*
Y223924D01*
X406609D01*
Y223903D01*
X406652D01*
Y223881D01*
X406695D01*
Y223860D01*
X406716D01*
Y223838D01*
X406759D01*
Y223817D01*
X406802D01*
Y223796D01*
X406845D01*
Y223774D01*
X406866D01*
Y223753D01*
X406909D01*
Y223732D01*
X406952D01*
Y223710D01*
X406994D01*
Y223689D01*
X407016D01*
Y223667D01*
X407058D01*
Y223646D01*
X407101D01*
Y223625D01*
X407144D01*
Y223603D01*
X407165D01*
Y223582D01*
X407208D01*
Y223561D01*
X407251D01*
Y223539D01*
X407272D01*
Y223518D01*
X407315D01*
Y223496D01*
X407358D01*
Y223475D01*
X407401D01*
Y223454D01*
X407422D01*
Y223432D01*
X407465D01*
Y223411D01*
X407508D01*
Y223390D01*
X407550D01*
Y223368D01*
X407572D01*
Y223347D01*
X407614D01*
Y223325D01*
X407657D01*
Y223304D01*
X407700D01*
Y223283D01*
X407721D01*
Y223261D01*
X407764D01*
Y223240D01*
X407807D01*
Y223218D01*
X407828D01*
Y223197D01*
X407871D01*
Y223176D01*
X407914D01*
Y223154D01*
X407957D01*
Y223133D01*
X407978D01*
Y223112D01*
X408021D01*
Y223090D01*
X408063D01*
Y223069D01*
X408106D01*
Y223047D01*
X408127D01*
Y223026D01*
X408170D01*
Y223005D01*
X408213D01*
Y222983D01*
X408234D01*
Y222962D01*
X408277D01*
Y222940D01*
X408320D01*
Y222919D01*
X408363D01*
Y222898D01*
X408384D01*
Y222876D01*
X408427D01*
Y222855D01*
X408470D01*
Y222834D01*
X408512D01*
Y222812D01*
X408534D01*
Y222791D01*
X408576D01*
Y222769D01*
X408619D01*
Y222748D01*
X408662D01*
Y222727D01*
X408683D01*
Y222705D01*
X408726D01*
Y222684D01*
X408769D01*
Y222663D01*
X408790D01*
Y222641D01*
X408833D01*
Y222620D01*
X408876D01*
Y222598D01*
X408919D01*
Y222577D01*
X408940D01*
Y222556D01*
X408983D01*
Y222534D01*
X409025D01*
Y222513D01*
X409068D01*
Y222492D01*
X409090D01*
Y222470D01*
X409132D01*
Y222449D01*
X409175D01*
Y222427D01*
X409218D01*
Y222406D01*
X409239D01*
Y222385D01*
X409261D01*
Y222406D01*
X409282D01*
Y222427D01*
X409325D01*
Y222449D01*
X409368D01*
Y222470D01*
X409410D01*
Y222492D01*
X409432D01*
Y222513D01*
X409475D01*
Y222534D01*
X409517D01*
Y222556D01*
X409539D01*
Y222577D01*
X409581D01*
Y222598D01*
X409624D01*
Y222620D01*
X409667D01*
Y222641D01*
X409688D01*
Y222663D01*
X409731D01*
Y222684D01*
X409774D01*
Y222705D01*
X409817D01*
Y222727D01*
X409838D01*
Y222748D01*
X409881D01*
Y222769D01*
X409924D01*
Y222791D01*
X409966D01*
Y222812D01*
X409988D01*
Y222834D01*
X410030D01*
Y222855D01*
X410073D01*
Y222876D01*
X410094D01*
Y222898D01*
X410137D01*
Y222919D01*
X410180D01*
Y222940D01*
X410223D01*
Y222962D01*
X410244D01*
Y222983D01*
X410287D01*
Y223005D01*
X410330D01*
Y223026D01*
X410372D01*
Y223047D01*
X410394D01*
Y223069D01*
X410437D01*
Y223090D01*
X410479D01*
Y223112D01*
X410522D01*
Y223133D01*
X410543D01*
Y223154D01*
X410586D01*
Y223176D01*
X410629D01*
Y223197D01*
X410650D01*
Y223218D01*
X410693D01*
Y223240D01*
X410736D01*
Y223261D01*
X410779D01*
Y223283D01*
X410800D01*
Y223304D01*
X410843D01*
Y223325D01*
X410886D01*
Y223347D01*
X410928D01*
Y223368D01*
X410950D01*
Y223390D01*
X410992D01*
Y223411D01*
X411035D01*
Y223432D01*
X411057D01*
Y223454D01*
X411099D01*
Y223475D01*
X411142D01*
Y223496D01*
X411185D01*
Y223518D01*
X411206D01*
Y223539D01*
X411249D01*
Y223561D01*
X411292D01*
Y223582D01*
X411335D01*
Y223603D01*
X411356D01*
Y223625D01*
X411399D01*
Y223646D01*
X411442D01*
Y223667D01*
X411484D01*
Y223689D01*
X411506D01*
Y223710D01*
X411548D01*
Y223732D01*
X411591D01*
Y223753D01*
X411613D01*
Y223774D01*
X411655D01*
Y223796D01*
X411698D01*
Y223817D01*
X411741D01*
Y223838D01*
X411762D01*
Y223860D01*
X411805D01*
Y223881D01*
X411848D01*
Y223903D01*
X411891D01*
Y223924D01*
X411912D01*
Y223945D01*
X411955D01*
Y223967D01*
X411997D01*
Y223988D01*
X412040D01*
Y224009D01*
X412062D01*
Y224031D01*
X412104D01*
Y224052D01*
X412147D01*
Y224074D01*
X412169D01*
Y224095D01*
X412211D01*
Y224116D01*
X412254D01*
Y224138D01*
X412297D01*
Y224159D01*
X412318D01*
Y224181D01*
X412361D01*
Y224202D01*
X412404D01*
Y224223D01*
X412446D01*
Y224245D01*
X412468D01*
Y224266D01*
X412511D01*
Y224288D01*
X412553D01*
Y224309D01*
X412575D01*
Y224330D01*
X412617D01*
Y224352D01*
X412660D01*
Y224373D01*
X412703D01*
Y224394D01*
X412724D01*
Y224416D01*
X412767D01*
Y224437D01*
X412810D01*
Y224459D01*
X412853D01*
Y224480D01*
X412874D01*
Y224501D01*
X412917D01*
Y224523D01*
X412960D01*
Y224544D01*
X413002D01*
Y224565D01*
X413024D01*
Y224587D01*
X413066D01*
Y224608D01*
X413109D01*
Y224630D01*
X413131D01*
Y224651D01*
X413173D01*
Y224672D01*
X413216D01*
Y224694D01*
X413259D01*
Y224715D01*
X413280D01*
Y224736D01*
X413323D01*
Y224758D01*
X413366D01*
Y224779D01*
X413409D01*
Y224801D01*
X413430D01*
Y224822D01*
X413473D01*
Y224843D01*
X413516D01*
Y224865D01*
X413558D01*
Y224886D01*
X413580D01*
Y224907D01*
X413622D01*
Y224929D01*
X413665D01*
Y224950D01*
X413687D01*
Y224972D01*
X413729D01*
Y224993D01*
X413772D01*
Y225014D01*
X413815D01*
Y225036D01*
X413836D01*
Y225057D01*
X413879D01*
Y225079D01*
X413922D01*
Y225100D01*
X413965D01*
Y225121D01*
X413986D01*
Y225143D01*
X414029D01*
Y225164D01*
X414071D01*
Y225185D01*
X414114D01*
Y225207D01*
X414136D01*
Y225228D01*
X414178D01*
Y225250D01*
X414221D01*
Y225271D01*
X414242D01*
Y225292D01*
X414285D01*
Y225314D01*
X414328D01*
Y225335D01*
X414371D01*
Y225357D01*
X414392D01*
Y225378D01*
X414435D01*
Y225399D01*
X414478D01*
Y225421D01*
X414520D01*
Y225442D01*
X414542D01*
Y225463D01*
X414584D01*
Y225485D01*
X414627D01*
Y225506D01*
X414649D01*
Y225528D01*
X414691D01*
Y225549D01*
X414734D01*
Y225570D01*
X414777D01*
Y225592D01*
X414798D01*
Y225613D01*
X414841D01*
Y225635D01*
X414884D01*
Y225656D01*
X414927D01*
Y225677D01*
X414948D01*
Y225699D01*
X414991D01*
Y225720D01*
X415033D01*
Y225741D01*
X415076D01*
Y225763D01*
X415098D01*
Y225784D01*
X415140D01*
Y225805D01*
X415183D01*
Y225827D01*
X415204D01*
Y225848D01*
X415247D01*
Y225870D01*
X415290D01*
Y225891D01*
X415333D01*
Y225912D01*
X415354D01*
Y225934D01*
X415397D01*
Y225955D01*
X415440D01*
Y225977D01*
X415483D01*
Y225998D01*
X415504D01*
Y226019D01*
X415547D01*
Y226041D01*
X415589D01*
Y226062D01*
X415632D01*
Y226083D01*
X415654D01*
Y226105D01*
X415696D01*
Y226126D01*
X415739D01*
Y226148D01*
X415760D01*
Y226169D01*
X415803D01*
Y226190D01*
X415846D01*
Y226212D01*
X415889D01*
Y226233D01*
X415910D01*
Y226255D01*
X415953D01*
Y226276D01*
X415996D01*
Y226297D01*
X416038D01*
Y226319D01*
X416060D01*
Y226340D01*
X416103D01*
Y226361D01*
X416145D01*
Y226383D01*
X416188D01*
Y226404D01*
X416209D01*
Y226426D01*
X416252D01*
Y226447D01*
X416295D01*
Y226468D01*
X416316D01*
Y226490D01*
X416359D01*
Y226511D01*
X416402D01*
Y226533D01*
X416445D01*
Y226554D01*
X416466D01*
Y226575D01*
X416509D01*
Y226597D01*
X416551D01*
Y226618D01*
X416594D01*
Y226639D01*
X416616D01*
Y226661D01*
X416658D01*
Y226682D01*
X416701D01*
Y226704D01*
X416723D01*
Y226725D01*
X416765D01*
Y226746D01*
X416808D01*
Y226768D01*
X416851D01*
Y226789D01*
X416872D01*
Y226810D01*
X416915D01*
Y226832D01*
X416958D01*
Y226853D01*
X417000D01*
Y226874D01*
X417022D01*
Y226896D01*
X417065D01*
Y226917D01*
X417107D01*
Y226939D01*
X417150D01*
Y226960D01*
X417172D01*
Y226981D01*
X417214D01*
Y227003D01*
X417257D01*
Y227024D01*
X417278D01*
Y227046D01*
X417321D01*
Y227067D01*
X417364D01*
Y227088D01*
X417407D01*
Y227110D01*
X417428D01*
Y227131D01*
X417471D01*
Y227152D01*
X417514D01*
Y227174D01*
X417556D01*
Y227195D01*
X417578D01*
Y227217D01*
X417621D01*
Y227238D01*
X417663D01*
Y227259D01*
X417706D01*
Y227281D01*
X417728D01*
Y227302D01*
X417770D01*
Y227324D01*
X417813D01*
Y227345D01*
X417834D01*
Y227366D01*
X417877D01*
Y227388D01*
X417920D01*
Y227409D01*
X417963D01*
Y227431D01*
X417984D01*
Y227452D01*
X418027D01*
Y227473D01*
X418070D01*
Y227495D01*
X418091D01*
Y237693D01*
X418070D01*
Y237715D01*
X418048D01*
Y237736D01*
X418005D01*
Y237757D01*
X417963D01*
Y237779D01*
X417920D01*
Y237800D01*
X417899D01*
Y237822D01*
X417856D01*
Y237843D01*
X417813D01*
Y237864D01*
X417792D01*
Y237886D01*
X417749D01*
Y237907D01*
X417706D01*
Y237928D01*
X417663D01*
Y237950D01*
X417642D01*
Y237971D01*
X417599D01*
Y237993D01*
X417556D01*
Y238014D01*
X417514D01*
Y238035D01*
X417492D01*
Y238057D01*
X417450D01*
Y238078D01*
X417407D01*
Y238099D01*
X417364D01*
Y238121D01*
X417343D01*
Y238142D01*
X417300D01*
Y238164D01*
X417257D01*
Y238185D01*
X417236D01*
Y238206D01*
X417193D01*
Y238228D01*
X417150D01*
Y238249D01*
X417107D01*
Y238270D01*
X417086D01*
Y238292D01*
X417043D01*
Y238313D01*
X417000D01*
Y238335D01*
X416958D01*
Y238356D01*
X416936D01*
Y238377D01*
X416894D01*
Y238399D01*
X416851D01*
Y238420D01*
X416829D01*
Y238441D01*
X416787D01*
Y238463D01*
X416744D01*
Y238484D01*
X416701D01*
Y238506D01*
X416680D01*
Y238527D01*
X416637D01*
Y238548D01*
X416594D01*
Y238570D01*
X416551D01*
Y238591D01*
X416530D01*
Y238613D01*
X416487D01*
Y238634D01*
X416445D01*
Y238655D01*
X416402D01*
Y238677D01*
X416381D01*
Y238698D01*
X416338D01*
Y238720D01*
X416295D01*
Y238741D01*
X416274D01*
Y238762D01*
X416231D01*
Y238784D01*
X416188D01*
Y238805D01*
X416145D01*
Y238826D01*
X416124D01*
Y238848D01*
X416081D01*
Y238869D01*
X416038D01*
Y238891D01*
X415996D01*
Y238912D01*
X415974D01*
Y238933D01*
X415932D01*
Y238955D01*
X415889D01*
Y238976D01*
X415846D01*
Y238997D01*
X415825D01*
Y239019D01*
X415782D01*
Y239040D01*
X415739D01*
Y239062D01*
X415718D01*
Y239083D01*
X415675D01*
Y239104D01*
X415632D01*
Y239126D01*
X415589D01*
Y239147D01*
X415568D01*
Y239169D01*
X415525D01*
Y239190D01*
X415483D01*
Y239211D01*
X415440D01*
Y239233D01*
X415418D01*
Y239254D01*
X415376D01*
Y239275D01*
X415333D01*
Y239297D01*
X415290D01*
Y239318D01*
X415269D01*
Y239339D01*
X415226D01*
Y239361D01*
X415183D01*
Y239382D01*
X415162D01*
Y239404D01*
X415119D01*
Y239425D01*
X415076D01*
Y239446D01*
X415033D01*
Y239468D01*
X415012D01*
Y239489D01*
X414969D01*
Y239511D01*
X414927D01*
Y239532D01*
X414884D01*
Y239553D01*
X414862D01*
Y239575D01*
X414820D01*
Y239596D01*
X414777D01*
Y239617D01*
X414755D01*
Y239639D01*
X414713D01*
Y239660D01*
X414670D01*
Y239682D01*
X414627D01*
Y239703D01*
X414606D01*
Y239724D01*
X414563D01*
Y239746D01*
X414520D01*
Y239767D01*
X414478D01*
Y239789D01*
X414456D01*
Y239810D01*
X414413D01*
Y239831D01*
X414371D01*
Y239853D01*
X414328D01*
Y239874D01*
X414306D01*
Y239895D01*
X414264D01*
Y239917D01*
X414221D01*
Y239938D01*
X414200D01*
Y239960D01*
X414157D01*
Y239981D01*
X414114D01*
Y240002D01*
X414071D01*
Y240024D01*
X414050D01*
Y240045D01*
X414007D01*
Y240067D01*
X413965D01*
Y240088D01*
X413922D01*
Y240109D01*
X413900D01*
Y240131D01*
X413858D01*
Y240152D01*
X413815D01*
Y240173D01*
X413772D01*
Y240195D01*
X413751D01*
Y240216D01*
X413708D01*
Y240237D01*
X413665D01*
Y240259D01*
X413644D01*
Y240280D01*
X413601D01*
Y240302D01*
X413558D01*
Y240323D01*
X413516D01*
Y240344D01*
X413494D01*
Y240366D01*
X413451D01*
Y240387D01*
X413409D01*
Y240409D01*
X413366D01*
Y240430D01*
X413344D01*
Y240451D01*
X413302D01*
Y240473D01*
X413259D01*
Y240494D01*
X413237D01*
Y240515D01*
X413195D01*
Y240537D01*
X413152D01*
Y240558D01*
X413109D01*
Y240580D01*
X413088D01*
Y240601D01*
X413045D01*
Y240622D01*
X413002D01*
Y240644D01*
X412960D01*
Y240665D01*
X412938D01*
Y240686D01*
X412895D01*
Y240708D01*
X412853D01*
Y240729D01*
X412810D01*
Y240751D01*
X412788D01*
Y240772D01*
X412746D01*
Y240793D01*
X412703D01*
Y240815D01*
X412682D01*
Y240836D01*
X412639D01*
Y240858D01*
X412596D01*
Y240879D01*
X412553D01*
Y240900D01*
X412532D01*
Y240922D01*
X412489D01*
Y240943D01*
X412446D01*
Y240964D01*
X412404D01*
Y240986D01*
X412382D01*
Y241007D01*
X412339D01*
Y241029D01*
X412297D01*
Y241050D01*
X412254D01*
Y241071D01*
X412233D01*
Y241093D01*
X412190D01*
Y241114D01*
X412147D01*
Y241136D01*
X412126D01*
Y241157D01*
X412083D01*
Y241178D01*
X412040D01*
Y241200D01*
X411997D01*
Y241221D01*
X411976D01*
Y241242D01*
X411933D01*
Y241264D01*
X411891D01*
Y241285D01*
X411848D01*
Y241306D01*
X411826D01*
Y241328D01*
X411784D01*
Y241349D01*
X411741D01*
Y241371D01*
X411698D01*
Y241392D01*
X411677D01*
Y241413D01*
X411634D01*
Y241435D01*
X411591D01*
Y241456D01*
X411570D01*
Y241478D01*
X411527D01*
Y241499D01*
X411484D01*
Y241520D01*
X411442D01*
Y241542D01*
X411420D01*
Y241563D01*
X411377D01*
Y241584D01*
X411335D01*
Y241606D01*
X411292D01*
Y241627D01*
X411271D01*
Y241649D01*
X411228D01*
Y241670D01*
X411185D01*
Y241691D01*
X411164D01*
Y241713D01*
X411121D01*
Y241734D01*
X411078D01*
Y241756D01*
X411035D01*
Y241777D01*
X411014D01*
Y241798D01*
X410971D01*
Y241820D01*
X410928D01*
Y241841D01*
X410886D01*
Y241862D01*
X410864D01*
Y241884D01*
X410821D01*
Y241905D01*
X410779D01*
Y241927D01*
X410736D01*
Y241948D01*
X410715D01*
Y241969D01*
X410672D01*
Y241991D01*
X410629D01*
Y242012D01*
X410608D01*
Y242034D01*
X410565D01*
Y242055D01*
X410522D01*
Y242076D01*
X410479D01*
Y242098D01*
X410458D01*
Y242119D01*
X410415D01*
Y242140D01*
X410372D01*
Y242162D01*
X410330D01*
Y242183D01*
X410308D01*
Y242204D01*
X410266D01*
Y242226D01*
X410223D01*
Y242247D01*
X410180D01*
Y242269D01*
X410159D01*
Y242290D01*
X410116D01*
Y242311D01*
X410073D01*
Y242333D01*
X410052D01*
Y242354D01*
X410009D01*
Y242376D01*
X409966D01*
Y242397D01*
X409924D01*
Y242418D01*
X409902D01*
Y242440D01*
X409859D01*
Y242461D01*
X409817D01*
Y242482D01*
X409774D01*
Y242504D01*
X409753D01*
Y242525D01*
X409710D01*
Y242547D01*
X409667D01*
Y242568D01*
X409624D01*
Y242589D01*
X409603D01*
Y242611D01*
X409560D01*
Y242632D01*
X409517D01*
Y242653D01*
X409496D01*
Y242675D01*
X409453D01*
Y242696D01*
X409410D01*
Y242718D01*
X409368D01*
Y242739D01*
X409346D01*
Y242760D01*
X409304D01*
Y242782D01*
X409261D01*
Y242803D01*
D02*
G37*
%LPD*%
G36*
X415675Y237800D02*
X415654D01*
Y237779D01*
X415632D01*
Y237757D01*
X415611D01*
Y237736D01*
X415589D01*
Y237715D01*
X415568D01*
Y237693D01*
X415547D01*
Y237672D01*
X415525D01*
Y237650D01*
X415504D01*
Y237629D01*
X415483D01*
Y237608D01*
X415461D01*
Y237586D01*
X415440D01*
Y237565D01*
X415418D01*
Y237544D01*
X415397D01*
Y237501D01*
X415376D01*
Y237479D01*
X415354D01*
Y237458D01*
X415333D01*
Y237437D01*
X415311D01*
Y237415D01*
X415290D01*
Y237394D01*
X415269D01*
Y237372D01*
X415247D01*
Y237351D01*
X415226D01*
Y237330D01*
X415204D01*
Y237308D01*
X415183D01*
Y237287D01*
X415162D01*
Y237266D01*
X415140D01*
Y237244D01*
X415119D01*
Y237223D01*
X415098D01*
Y237201D01*
X415076D01*
Y237180D01*
X415055D01*
Y237159D01*
X415033D01*
Y237137D01*
X415012D01*
Y237116D01*
X414991D01*
Y237073D01*
X414969D01*
Y237052D01*
X414948D01*
Y237030D01*
X414927D01*
Y237009D01*
X414905D01*
Y236988D01*
X414884D01*
Y236966D01*
X414862D01*
Y236945D01*
X414841D01*
Y236924D01*
X414820D01*
Y236902D01*
X414798D01*
Y236881D01*
X414777D01*
Y236859D01*
X414755D01*
Y236838D01*
X414734D01*
Y236817D01*
X414713D01*
Y236795D01*
X414691D01*
Y236774D01*
X414670D01*
Y236752D01*
X414649D01*
Y236731D01*
X414627D01*
Y236710D01*
X414606D01*
Y236688D01*
X414584D01*
Y236646D01*
X414563D01*
Y236624D01*
X414542D01*
Y236603D01*
X414520D01*
Y236581D01*
X414499D01*
Y236560D01*
X414478D01*
Y236539D01*
X414456D01*
Y236517D01*
X414435D01*
Y236496D01*
X414413D01*
Y236474D01*
X414392D01*
Y236453D01*
X414371D01*
Y236432D01*
X414349D01*
Y236410D01*
X414328D01*
Y236389D01*
X414306D01*
Y236368D01*
X414285D01*
Y236346D01*
X414264D01*
Y236325D01*
X414242D01*
Y236303D01*
X414221D01*
Y236282D01*
X414200D01*
Y236261D01*
X414178D01*
Y236218D01*
X414157D01*
Y236196D01*
X414136D01*
Y236175D01*
X414114D01*
Y236154D01*
X414093D01*
Y236132D01*
X414071D01*
Y236111D01*
X414050D01*
Y236090D01*
X414029D01*
Y236068D01*
X414007D01*
Y236047D01*
X413986D01*
Y236026D01*
X413965D01*
Y236004D01*
X413943D01*
Y235983D01*
X413922D01*
Y235961D01*
X413900D01*
Y235940D01*
X413879D01*
Y235919D01*
X413858D01*
Y235897D01*
X413836D01*
Y235876D01*
X413815D01*
Y235855D01*
X413793D01*
Y235833D01*
X413772D01*
Y235790D01*
X413751D01*
Y235769D01*
X413729D01*
Y235748D01*
X413708D01*
Y235726D01*
X413687D01*
Y235705D01*
X413665D01*
Y235683D01*
X413644D01*
Y235662D01*
X413622D01*
Y235641D01*
X413601D01*
Y235619D01*
X413580D01*
Y235598D01*
X413558D01*
Y235577D01*
X413537D01*
Y235555D01*
X413516D01*
Y235534D01*
X413494D01*
Y235512D01*
X413473D01*
Y235491D01*
X413451D01*
Y235470D01*
X413430D01*
Y235448D01*
X413409D01*
Y235427D01*
X413387D01*
Y235384D01*
X413366D01*
Y235363D01*
X413344D01*
Y235341D01*
X413323D01*
Y235320D01*
X413302D01*
Y235299D01*
X413280D01*
Y235277D01*
X413259D01*
Y235256D01*
X413237D01*
Y235213D01*
X413259D01*
Y235170D01*
X413280D01*
Y235149D01*
X413302D01*
Y235106D01*
X413323D01*
Y235085D01*
X413344D01*
Y235042D01*
X413366D01*
Y235021D01*
X413387D01*
Y234978D01*
X413409D01*
Y234935D01*
X413430D01*
Y234914D01*
X413451D01*
Y234871D01*
X413473D01*
Y234850D01*
X413494D01*
Y234807D01*
X413516D01*
Y234785D01*
X413537D01*
Y234743D01*
X413558D01*
Y234700D01*
X413580D01*
Y234679D01*
X413601D01*
Y234636D01*
X413622D01*
Y234614D01*
X413644D01*
Y234572D01*
X413665D01*
Y234550D01*
X413687D01*
Y234507D01*
X413708D01*
Y234465D01*
X413729D01*
Y234443D01*
X413751D01*
Y234401D01*
X413772D01*
Y234379D01*
X413793D01*
Y234336D01*
X413815D01*
Y234315D01*
X413836D01*
Y234272D01*
X413858D01*
Y234251D01*
X413879D01*
Y234208D01*
X413900D01*
Y234165D01*
X413922D01*
Y234144D01*
X413943D01*
Y234101D01*
X413965D01*
Y234080D01*
X413986D01*
Y234037D01*
X414007D01*
Y234016D01*
X414029D01*
Y233973D01*
X414050D01*
Y233930D01*
X414071D01*
Y233909D01*
X414093D01*
Y233866D01*
X414114D01*
Y233845D01*
X414136D01*
Y233802D01*
X414157D01*
Y233781D01*
X414178D01*
Y233738D01*
X414200D01*
Y233695D01*
X414221D01*
Y233674D01*
X414242D01*
Y233631D01*
X414264D01*
Y233610D01*
X414285D01*
Y233567D01*
X414306D01*
Y233545D01*
X414328D01*
Y233503D01*
X414349D01*
Y233481D01*
X414371D01*
Y233438D01*
X414392D01*
Y233396D01*
X414413D01*
Y233374D01*
X414435D01*
Y233331D01*
X414456D01*
Y233310D01*
X414478D01*
Y233267D01*
X414499D01*
Y233246D01*
X414520D01*
Y233203D01*
X414542D01*
Y233160D01*
X414563D01*
Y233139D01*
X414584D01*
Y233096D01*
X414606D01*
Y233075D01*
X414627D01*
Y233032D01*
X414649D01*
Y233011D01*
X414670D01*
Y232968D01*
X414691D01*
Y232925D01*
X414713D01*
Y232904D01*
X414734D01*
Y232861D01*
X414755D01*
Y232840D01*
X414777D01*
Y232797D01*
X414798D01*
Y232776D01*
X414820D01*
Y232733D01*
X414841D01*
Y232712D01*
X414862D01*
Y232669D01*
X414884D01*
Y232626D01*
X414905D01*
Y232605D01*
X414927D01*
Y232562D01*
X414948D01*
Y232540D01*
X414969D01*
Y232498D01*
X414991D01*
Y232476D01*
X415012D01*
Y232434D01*
X415033D01*
Y232391D01*
X415055D01*
Y232369D01*
X415076D01*
Y232327D01*
X415098D01*
Y232305D01*
X415119D01*
Y232262D01*
X415140D01*
Y232241D01*
X415162D01*
Y232198D01*
X415183D01*
Y232156D01*
X415204D01*
Y232134D01*
X415226D01*
Y232091D01*
X415247D01*
Y232070D01*
X415269D01*
Y232027D01*
X415290D01*
Y232006D01*
X415311D01*
Y231963D01*
X415333D01*
Y231942D01*
X415354D01*
Y231899D01*
X415376D01*
Y231856D01*
X415397D01*
Y231835D01*
X415418D01*
Y231792D01*
X415440D01*
Y231771D01*
X415461D01*
Y231728D01*
X415483D01*
Y231707D01*
X415504D01*
Y231664D01*
X415525D01*
Y231643D01*
Y231621D01*
X415547D01*
Y231600D01*
X415568D01*
Y231557D01*
X415589D01*
Y231536D01*
X415611D01*
Y231493D01*
X415632D01*
Y231471D01*
X415654D01*
Y231429D01*
X415675D01*
Y231386D01*
X415696D01*
Y231364D01*
X415718D01*
Y231322D01*
X415739D01*
Y231300D01*
X415760D01*
Y231258D01*
X415782D01*
Y231236D01*
X415803D01*
Y231193D01*
X414071D01*
Y231236D01*
X414050D01*
Y231258D01*
X414029D01*
Y231300D01*
X414007D01*
Y231343D01*
X413986D01*
Y231386D01*
X413965D01*
Y231407D01*
X413943D01*
Y231450D01*
X413922D01*
Y231493D01*
X413900D01*
Y231536D01*
X413879D01*
Y231557D01*
X413858D01*
Y231600D01*
X413836D01*
Y231643D01*
X413815D01*
Y231685D01*
X413793D01*
Y231707D01*
X413772D01*
Y231749D01*
X413751D01*
Y231792D01*
X413729D01*
Y231835D01*
X413708D01*
Y231856D01*
X413687D01*
Y231899D01*
X413665D01*
Y231942D01*
X413644D01*
Y231984D01*
X413622D01*
Y232006D01*
X413601D01*
Y232049D01*
X413580D01*
Y232091D01*
X413558D01*
Y232113D01*
X413537D01*
Y232156D01*
X413516D01*
Y232198D01*
X413494D01*
Y232241D01*
X413473D01*
Y232262D01*
X413451D01*
Y232305D01*
X413430D01*
Y232348D01*
X413409D01*
Y232391D01*
X413387D01*
Y232412D01*
X413366D01*
Y232455D01*
X413344D01*
Y232498D01*
X413323D01*
Y232540D01*
X413302D01*
Y232562D01*
X413280D01*
Y232605D01*
X413259D01*
Y232647D01*
X413237D01*
Y232690D01*
X413216D01*
Y232712D01*
X413195D01*
Y232754D01*
X413173D01*
Y232797D01*
X413152D01*
Y232818D01*
X413131D01*
Y232861D01*
X413109D01*
Y232904D01*
X413088D01*
Y232947D01*
X413066D01*
Y232968D01*
X413045D01*
Y233011D01*
X413024D01*
Y233054D01*
X413002D01*
Y233096D01*
X412981D01*
Y233118D01*
X412960D01*
Y233160D01*
X412938D01*
Y233203D01*
X412917D01*
Y233246D01*
X412895D01*
Y233267D01*
X412874D01*
Y233310D01*
X412853D01*
Y233353D01*
X412831D01*
Y233396D01*
X412810D01*
Y233417D01*
X412788D01*
Y233460D01*
X412767D01*
Y233503D01*
X412746D01*
Y233524D01*
X412724D01*
Y233567D01*
X412703D01*
Y233610D01*
X412682D01*
Y233652D01*
X412660D01*
Y233674D01*
X412639D01*
Y233716D01*
X412617D01*
Y233759D01*
X412596D01*
Y233802D01*
X412575D01*
Y233823D01*
X412553D01*
Y233866D01*
X412532D01*
Y233909D01*
X412511D01*
Y233952D01*
X412489D01*
Y233973D01*
X412468D01*
Y234016D01*
X412446D01*
Y234058D01*
X412425D01*
Y234101D01*
X412404D01*
Y234123D01*
X412382D01*
Y234165D01*
X412361D01*
Y234208D01*
X412339D01*
Y234229D01*
X412318D01*
Y234272D01*
X412275D01*
Y234251D01*
X412254D01*
Y234229D01*
X412233D01*
Y234208D01*
X412211D01*
Y234187D01*
X412190D01*
Y234144D01*
X412169D01*
Y234123D01*
X412147D01*
Y234101D01*
X412126D01*
Y234080D01*
X412104D01*
Y234058D01*
X412083D01*
Y234037D01*
X412062D01*
Y234016D01*
X412040D01*
Y233994D01*
X412019D01*
Y233973D01*
X411997D01*
Y233952D01*
X411976D01*
Y233930D01*
X411955D01*
Y233909D01*
X411933D01*
Y233887D01*
X411912D01*
Y233866D01*
X411891D01*
Y233845D01*
X411869D01*
Y233823D01*
X411848D01*
Y233802D01*
X411826D01*
Y233781D01*
X411805D01*
Y233759D01*
X411784D01*
Y233738D01*
X411762D01*
Y233716D01*
X411741D01*
Y233695D01*
X411720D01*
Y233674D01*
X411698D01*
Y233652D01*
X411677D01*
Y233631D01*
X411655D01*
Y233610D01*
X411634D01*
Y233567D01*
X411613D01*
Y233545D01*
X411591D01*
Y233524D01*
X411570D01*
Y233503D01*
X411548D01*
Y233481D01*
X411527D01*
Y233460D01*
X411506D01*
Y233438D01*
X411484D01*
Y233417D01*
X411463D01*
Y233396D01*
X411442D01*
Y233374D01*
X411420D01*
Y233353D01*
X411399D01*
Y233331D01*
X411377D01*
Y233310D01*
X411356D01*
Y233289D01*
X411335D01*
Y233267D01*
X411313D01*
Y233246D01*
X411292D01*
Y233225D01*
X411271D01*
Y233203D01*
X411249D01*
Y231193D01*
X409924D01*
Y237822D01*
X411249D01*
Y234914D01*
X411271D01*
Y234957D01*
X411292D01*
Y234978D01*
X411313D01*
Y234999D01*
X411335D01*
Y235021D01*
X411356D01*
Y235042D01*
X411377D01*
Y235063D01*
X411399D01*
Y235085D01*
X411420D01*
Y235106D01*
X411442D01*
Y235127D01*
X411463D01*
Y235170D01*
X411484D01*
Y235192D01*
X411506D01*
Y235213D01*
X411527D01*
Y235234D01*
X411548D01*
Y235256D01*
X411570D01*
Y235277D01*
X411591D01*
Y235299D01*
X411613D01*
Y235320D01*
X411634D01*
Y235341D01*
X411655D01*
Y235363D01*
X411677D01*
Y235405D01*
X411698D01*
Y235427D01*
X411720D01*
Y235448D01*
X411741D01*
Y235470D01*
X411762D01*
Y235491D01*
X411784D01*
Y235512D01*
X411805D01*
Y235534D01*
X411826D01*
Y235555D01*
X411848D01*
Y235577D01*
X411869D01*
Y235619D01*
X411891D01*
Y235641D01*
X411912D01*
Y235662D01*
X411933D01*
Y235683D01*
X411955D01*
Y235705D01*
X411976D01*
Y235726D01*
X411997D01*
Y235748D01*
X412019D01*
Y235769D01*
X412040D01*
Y235790D01*
X412062D01*
Y235833D01*
X412083D01*
Y235855D01*
X412104D01*
Y235876D01*
X412126D01*
Y235897D01*
X412147D01*
Y235919D01*
X412169D01*
Y235940D01*
X412190D01*
Y235961D01*
X412211D01*
Y235983D01*
X412233D01*
Y236004D01*
X412254D01*
Y236047D01*
X412275D01*
Y236068D01*
X412297D01*
Y236090D01*
X412318D01*
Y236111D01*
X412339D01*
Y236132D01*
X412361D01*
Y236154D01*
X412382D01*
Y236175D01*
X412404D01*
Y236196D01*
X412425D01*
Y236218D01*
X412446D01*
Y236239D01*
X412468D01*
Y236282D01*
X412489D01*
Y236303D01*
X412511D01*
Y236325D01*
X412532D01*
Y236346D01*
X412553D01*
Y236368D01*
X412575D01*
Y236389D01*
X412596D01*
Y236410D01*
X412617D01*
Y236432D01*
X412639D01*
Y236453D01*
X412660D01*
Y236496D01*
X412682D01*
Y236517D01*
X412703D01*
Y236539D01*
X412724D01*
Y236560D01*
X412746D01*
Y236581D01*
X412767D01*
Y236603D01*
X412788D01*
Y236624D01*
X412810D01*
Y236646D01*
X412831D01*
Y236667D01*
X412853D01*
Y236710D01*
X412874D01*
Y236731D01*
X412895D01*
Y236752D01*
X412917D01*
Y236774D01*
X412938D01*
Y236795D01*
X412960D01*
Y236817D01*
X412981D01*
Y236838D01*
X413002D01*
Y236859D01*
X413024D01*
Y236881D01*
X413045D01*
Y236924D01*
X413066D01*
Y236945D01*
X413088D01*
Y236966D01*
X413109D01*
Y236988D01*
X413131D01*
Y237009D01*
X413152D01*
Y237030D01*
X413173D01*
Y237052D01*
X413195D01*
Y237073D01*
X413216D01*
Y237094D01*
X413237D01*
Y237116D01*
X413259D01*
Y237159D01*
X413280D01*
Y237180D01*
X413302D01*
Y237201D01*
X413323D01*
Y237223D01*
X413344D01*
Y237244D01*
X413366D01*
Y237266D01*
X413387D01*
Y237287D01*
X413409D01*
Y237308D01*
X413430D01*
Y237330D01*
X413451D01*
Y237372D01*
X413473D01*
Y237394D01*
X413494D01*
Y237415D01*
X413516D01*
Y237437D01*
X413537D01*
Y237458D01*
X413558D01*
Y237479D01*
X413580D01*
Y237501D01*
X413601D01*
Y237522D01*
X413622D01*
Y237544D01*
X413644D01*
Y237586D01*
X413665D01*
Y237608D01*
X413687D01*
Y237629D01*
X413708D01*
Y237650D01*
X413729D01*
Y237672D01*
X413751D01*
Y237693D01*
X413772D01*
Y237715D01*
X413793D01*
Y237736D01*
X413815D01*
Y237757D01*
X413836D01*
Y237800D01*
X413858D01*
Y237822D01*
X415675D01*
Y237800D01*
D02*
G37*
G36*
X406674D02*
X406930D01*
Y237779D01*
X407101D01*
Y237757D01*
X407208D01*
Y237736D01*
X407294D01*
Y237715D01*
X407358D01*
Y237693D01*
X407422D01*
Y237672D01*
X407486D01*
Y237650D01*
X407529D01*
Y237629D01*
X407572D01*
Y237608D01*
X407614D01*
Y237586D01*
X407657D01*
Y237565D01*
X407700D01*
Y237544D01*
X407743D01*
Y237522D01*
X407764D01*
Y237501D01*
X407807D01*
Y237479D01*
X407828D01*
Y237458D01*
X407850D01*
Y237437D01*
X407892D01*
Y237415D01*
X407914D01*
Y237394D01*
X407935D01*
Y237372D01*
X407957D01*
Y237351D01*
X407978D01*
Y237330D01*
X407999D01*
Y237308D01*
X408021D01*
Y237287D01*
X408042D01*
Y237266D01*
X408063D01*
Y237244D01*
X408085D01*
Y237223D01*
X408106D01*
Y237201D01*
X408127D01*
Y237180D01*
X408149D01*
Y237137D01*
X408170D01*
Y237116D01*
X408192D01*
Y237094D01*
X408213D01*
Y237052D01*
X408234D01*
Y237030D01*
X408256D01*
Y236988D01*
X408277D01*
Y236945D01*
X408299D01*
Y236924D01*
X408320D01*
Y236881D01*
X408341D01*
Y236838D01*
X408363D01*
Y236774D01*
X408384D01*
Y236731D01*
X408405D01*
Y236667D01*
X408427D01*
Y236603D01*
X408448D01*
Y236517D01*
X408470D01*
Y236389D01*
X408491D01*
Y235919D01*
X408470D01*
Y235790D01*
X408448D01*
Y235705D01*
X408427D01*
Y235641D01*
X408405D01*
Y235577D01*
X408384D01*
Y235534D01*
X408363D01*
Y235470D01*
X408341D01*
Y235427D01*
X408320D01*
Y235384D01*
X408299D01*
Y235363D01*
X408277D01*
Y235320D01*
X408256D01*
Y235277D01*
X408234D01*
Y235256D01*
X408213D01*
Y235213D01*
X408192D01*
Y235192D01*
X408170D01*
Y235170D01*
X408149D01*
Y235127D01*
X408127D01*
Y235106D01*
X408106D01*
Y235085D01*
X408085D01*
Y235063D01*
X408063D01*
Y235042D01*
X408042D01*
Y235021D01*
X408021D01*
Y234999D01*
X407999D01*
Y234978D01*
X407978D01*
Y234957D01*
X407957D01*
Y234935D01*
X407935D01*
Y234914D01*
X407892D01*
Y234892D01*
X407871D01*
Y234871D01*
X407850D01*
Y234850D01*
X407807D01*
Y234828D01*
X407785D01*
Y234807D01*
X407743D01*
Y234785D01*
X407721D01*
Y234764D01*
X407679D01*
Y234743D01*
X407636D01*
Y234700D01*
X407700D01*
Y234679D01*
X407764D01*
Y234657D01*
X407807D01*
Y234636D01*
X407871D01*
Y234614D01*
X407914D01*
Y234593D01*
X407957D01*
Y234572D01*
X407999D01*
Y234550D01*
X408021D01*
Y234529D01*
X408063D01*
Y234507D01*
X408106D01*
Y234486D01*
X408127D01*
Y234465D01*
X408170D01*
Y234443D01*
X408192D01*
Y234422D01*
X408213D01*
Y234401D01*
X408256D01*
Y234379D01*
X408277D01*
Y234358D01*
X408299D01*
Y234336D01*
X408320D01*
Y234315D01*
X408341D01*
Y234294D01*
X408363D01*
Y234272D01*
X408384D01*
Y234251D01*
X408405D01*
Y234229D01*
X408427D01*
Y234208D01*
X408448D01*
Y234187D01*
X408470D01*
Y234144D01*
X408491D01*
Y234123D01*
X408512D01*
Y234101D01*
X408534D01*
Y234058D01*
X408555D01*
Y234037D01*
X408576D01*
Y233994D01*
X408598D01*
Y233952D01*
X408619D01*
Y233909D01*
X408641D01*
Y233866D01*
X408662D01*
Y233823D01*
X408683D01*
Y233781D01*
X408705D01*
Y233716D01*
X408726D01*
Y233652D01*
X408748D01*
Y233588D01*
X408769D01*
Y233503D01*
X408790D01*
Y233353D01*
X408812D01*
Y232882D01*
X408790D01*
Y232754D01*
X408769D01*
Y232647D01*
X408748D01*
Y232562D01*
X408726D01*
Y232498D01*
X408705D01*
Y232434D01*
X408683D01*
Y232369D01*
X408662D01*
Y232327D01*
X408641D01*
Y232284D01*
X408619D01*
Y232241D01*
X408598D01*
Y232198D01*
X408576D01*
Y232156D01*
X408555D01*
Y232113D01*
X408534D01*
Y232070D01*
X408512D01*
Y232049D01*
X408491D01*
Y232006D01*
X408470D01*
Y231984D01*
X408448D01*
Y231942D01*
X408427D01*
Y231920D01*
X408405D01*
Y231878D01*
X408384D01*
Y231856D01*
X408363D01*
Y231835D01*
X408341D01*
Y231814D01*
X408320D01*
Y231792D01*
X408299D01*
Y231771D01*
X408277D01*
Y231749D01*
X408256D01*
Y231728D01*
X408234D01*
Y231707D01*
X408213D01*
Y231685D01*
X408192D01*
Y231664D01*
X408170D01*
Y231643D01*
X408149D01*
Y231621D01*
X408127D01*
Y231600D01*
X408085D01*
Y231578D01*
X408063D01*
Y231557D01*
X408042D01*
Y231536D01*
X407999D01*
Y231514D01*
X407978D01*
Y231493D01*
X407935D01*
Y231471D01*
X407892D01*
Y231450D01*
X407871D01*
Y231429D01*
X407828D01*
Y231407D01*
X407764D01*
Y231386D01*
X407721D01*
Y231364D01*
X407679D01*
Y231343D01*
X407614D01*
Y231322D01*
X407529D01*
Y231300D01*
X407465D01*
Y231279D01*
X407358D01*
Y231258D01*
X407230D01*
Y231236D01*
X407016D01*
Y231215D01*
X406417D01*
Y231193D01*
X403360D01*
Y232070D01*
Y232091D01*
Y237822D01*
X406674D01*
Y237800D01*
D02*
G37*
G36*
X411826Y230082D02*
X411976D01*
Y230060D01*
X412062D01*
Y230039D01*
X412104D01*
Y230017D01*
X412169D01*
Y229996D01*
X412211D01*
Y229975D01*
X412254D01*
Y229953D01*
X412297D01*
Y229932D01*
X412318D01*
Y229911D01*
X412361D01*
Y229889D01*
X412382D01*
Y229868D01*
X412404D01*
Y229847D01*
X412425D01*
Y229825D01*
X412446D01*
Y229804D01*
X412468D01*
Y229782D01*
X412489D01*
Y229761D01*
X412511D01*
Y229740D01*
X412532D01*
Y229697D01*
X412553D01*
Y229675D01*
X412575D01*
Y229633D01*
X412596D01*
Y229590D01*
X412617D01*
Y229547D01*
X412639D01*
Y229504D01*
X412660D01*
Y229440D01*
X412682D01*
Y229376D01*
X412703D01*
Y229333D01*
X412617D01*
Y229312D01*
X412511D01*
Y229291D01*
X412425D01*
Y229269D01*
X412339D01*
Y229248D01*
X412254D01*
Y229226D01*
X412169D01*
Y229269D01*
X412147D01*
Y229333D01*
X412126D01*
Y229376D01*
X412104D01*
Y229419D01*
X412083D01*
Y229440D01*
X412062D01*
Y229462D01*
X412040D01*
Y229483D01*
X412019D01*
Y229504D01*
X411997D01*
Y229526D01*
X411976D01*
Y229547D01*
X411955D01*
Y229569D01*
X411912D01*
Y229590D01*
X411869D01*
Y229611D01*
X411805D01*
Y229633D01*
X411698D01*
Y229654D01*
X411613D01*
Y229633D01*
X411484D01*
Y229611D01*
X411420D01*
Y229590D01*
X411377D01*
Y229569D01*
X411335D01*
Y229547D01*
X411313D01*
Y229526D01*
X411292D01*
Y229504D01*
X411249D01*
Y229483D01*
X411228D01*
Y229462D01*
X411206D01*
Y229419D01*
X411185D01*
Y229398D01*
X411164D01*
Y229355D01*
X411142D01*
Y229333D01*
X411121D01*
Y229269D01*
X411099D01*
Y229205D01*
X411078D01*
Y229119D01*
X411057D01*
Y228991D01*
X411035D01*
Y228606D01*
X411057D01*
Y228457D01*
X411078D01*
Y228371D01*
X411099D01*
Y228307D01*
X411121D01*
Y228264D01*
X411142D01*
Y228222D01*
X411164D01*
Y228179D01*
X411185D01*
Y228157D01*
X411206D01*
Y228136D01*
X411228D01*
Y228115D01*
X411249D01*
Y228093D01*
X411271D01*
Y228072D01*
X411292D01*
Y228050D01*
X411313D01*
Y228029D01*
X411356D01*
Y228008D01*
X411377D01*
Y227986D01*
X411442D01*
Y227965D01*
X411506D01*
Y227944D01*
X411762D01*
Y227965D01*
X411826D01*
Y227986D01*
X411891D01*
Y228008D01*
X411912D01*
Y228029D01*
X411955D01*
Y228050D01*
X411976D01*
Y228072D01*
X411997D01*
Y228093D01*
X412019D01*
Y228115D01*
X412040D01*
Y228136D01*
X412062D01*
Y228179D01*
X412083D01*
Y228222D01*
X412104D01*
Y228243D01*
X412126D01*
Y228307D01*
X412147D01*
Y228371D01*
X412169D01*
Y228435D01*
X412190D01*
Y228478D01*
X412211D01*
Y228457D01*
X412275D01*
Y228435D01*
X412339D01*
Y228414D01*
X412425D01*
Y228393D01*
X412489D01*
Y228371D01*
X412553D01*
Y228350D01*
X412617D01*
Y228328D01*
X412682D01*
Y228307D01*
X412703D01*
Y228264D01*
X412682D01*
Y228200D01*
X412660D01*
Y228136D01*
X412639D01*
Y228093D01*
X412617D01*
Y228029D01*
X412596D01*
Y227986D01*
X412575D01*
Y227965D01*
X412553D01*
Y227922D01*
X412532D01*
Y227879D01*
X412511D01*
Y227858D01*
X412489D01*
Y227837D01*
X412468D01*
Y227815D01*
X412446D01*
Y227772D01*
X412425D01*
Y227751D01*
X412404D01*
Y227730D01*
X412361D01*
Y227708D01*
X412339D01*
Y227687D01*
X412318D01*
Y227666D01*
X412297D01*
Y227644D01*
X412254D01*
Y227623D01*
X412211D01*
Y227602D01*
X412169D01*
Y227580D01*
X412126D01*
Y227559D01*
X412083D01*
Y227537D01*
X411997D01*
Y227516D01*
X411912D01*
Y227495D01*
X411741D01*
Y227473D01*
X411570D01*
Y227495D01*
X411399D01*
Y227516D01*
X411292D01*
Y227537D01*
X411228D01*
Y227559D01*
X411185D01*
Y227580D01*
X411121D01*
Y227602D01*
X411078D01*
Y227623D01*
X411057D01*
Y227644D01*
X411014D01*
Y227666D01*
X410992D01*
Y227687D01*
X410950D01*
Y227708D01*
X410928D01*
Y227730D01*
X410907D01*
Y227751D01*
X410886D01*
Y227772D01*
X410864D01*
Y227794D01*
X410843D01*
Y227815D01*
X410821D01*
Y227837D01*
X410800D01*
Y227858D01*
X410779D01*
Y227879D01*
X410757D01*
Y227901D01*
X410736D01*
Y227922D01*
X410715D01*
Y227965D01*
X410693D01*
Y227986D01*
X410672D01*
Y228029D01*
X410650D01*
Y228072D01*
X410629D01*
Y228115D01*
X410608D01*
Y228157D01*
X410586D01*
Y228222D01*
X410565D01*
Y228286D01*
X410543D01*
Y228371D01*
X410522D01*
Y228478D01*
X410501D01*
Y229055D01*
X410522D01*
Y229184D01*
X410543D01*
Y229269D01*
X410565D01*
Y229333D01*
X410586D01*
Y229398D01*
X410608D01*
Y229462D01*
X410629D01*
Y229504D01*
X410650D01*
Y229547D01*
X410672D01*
Y229569D01*
X410693D01*
Y229611D01*
X410715D01*
Y229633D01*
X410736D01*
Y229675D01*
X410757D01*
Y229697D01*
X410779D01*
Y229718D01*
X410800D01*
Y229740D01*
X410821D01*
Y229761D01*
X410843D01*
Y229782D01*
X410864D01*
Y229804D01*
X410886D01*
Y229825D01*
X410907D01*
Y229847D01*
X410928D01*
Y229868D01*
X410950D01*
Y229889D01*
X410992D01*
Y229911D01*
X411014D01*
Y229932D01*
X411057D01*
Y229953D01*
X411078D01*
Y229975D01*
X411121D01*
Y229996D01*
X411185D01*
Y230017D01*
X411228D01*
Y230039D01*
X411292D01*
Y230060D01*
X411377D01*
Y230082D01*
X411527D01*
Y230103D01*
X411826D01*
Y230082D01*
D02*
G37*
G36*
X410073Y227516D02*
X409560D01*
Y228628D01*
X408576D01*
Y227516D01*
X408042D01*
Y230060D01*
X408576D01*
Y229077D01*
X409560D01*
Y229098D01*
Y230060D01*
X410073D01*
Y227516D01*
D02*
G37*
G36*
X415547D02*
X415055D01*
Y229355D01*
X415033D01*
Y229269D01*
X415012D01*
Y229184D01*
X414991D01*
Y229098D01*
X414969D01*
Y229013D01*
X414948D01*
Y228927D01*
X414927D01*
Y228842D01*
X414905D01*
Y228756D01*
X414884D01*
Y228671D01*
X414862D01*
Y228585D01*
X414841D01*
Y228500D01*
X414820D01*
Y228414D01*
X414798D01*
Y228328D01*
X414777D01*
Y228243D01*
X414755D01*
Y228157D01*
X414734D01*
Y228072D01*
X414713D01*
Y228008D01*
Y227986D01*
X414691D01*
Y227901D01*
X414670D01*
Y227815D01*
X414649D01*
Y227730D01*
X414627D01*
Y227644D01*
X414606D01*
Y227559D01*
X414584D01*
Y227516D01*
X414071D01*
Y227580D01*
X414050D01*
Y227666D01*
X414029D01*
Y227751D01*
X414007D01*
Y227837D01*
X413986D01*
Y227922D01*
X413965D01*
Y228008D01*
X413943D01*
Y228093D01*
X413922D01*
Y228179D01*
X413900D01*
Y228264D01*
X413879D01*
Y228350D01*
X413858D01*
Y228435D01*
X413836D01*
Y228521D01*
X413815D01*
Y228606D01*
X413793D01*
Y228692D01*
X413772D01*
Y228777D01*
X413751D01*
Y228863D01*
X413729D01*
Y228948D01*
X413708D01*
Y229034D01*
X413687D01*
Y229119D01*
X413665D01*
Y229205D01*
X413644D01*
Y229291D01*
X413622D01*
Y229376D01*
X413601D01*
Y227516D01*
X413109D01*
Y230060D01*
X413879D01*
Y230039D01*
X413900D01*
Y229975D01*
X413922D01*
Y229889D01*
X413943D01*
Y229804D01*
X413965D01*
Y229718D01*
X413986D01*
Y229654D01*
X414007D01*
Y229569D01*
X414029D01*
Y229483D01*
X414050D01*
Y229398D01*
X414071D01*
Y229333D01*
X414093D01*
Y229248D01*
X414114D01*
Y229162D01*
X414136D01*
Y229077D01*
X414157D01*
Y229013D01*
X414178D01*
Y228927D01*
X414200D01*
Y228842D01*
X414221D01*
Y228756D01*
X414242D01*
Y228692D01*
X414264D01*
Y228606D01*
X414285D01*
Y228521D01*
X414306D01*
Y228435D01*
X414328D01*
Y228414D01*
X414349D01*
Y228500D01*
X414371D01*
Y228564D01*
X414392D01*
Y228649D01*
X414413D01*
Y228735D01*
X414435D01*
Y228820D01*
X414456D01*
Y228906D01*
X414478D01*
Y228970D01*
X414499D01*
Y229055D01*
X414520D01*
Y229141D01*
X414542D01*
Y229226D01*
X414563D01*
Y229312D01*
X414584D01*
Y229376D01*
X414606D01*
Y229462D01*
X414627D01*
Y229547D01*
X414649D01*
Y229633D01*
X414670D01*
Y229718D01*
X414691D01*
Y229782D01*
X414713D01*
Y229868D01*
X414734D01*
Y229953D01*
X414755D01*
Y230039D01*
X414777D01*
Y230060D01*
X415547D01*
Y227516D01*
D02*
G37*
G36*
X407572D02*
X407080D01*
Y228029D01*
X407572D01*
Y227516D01*
D02*
G37*
G36*
X406374Y230039D02*
X406588D01*
Y230017D01*
X406674D01*
Y229996D01*
X406716D01*
Y229975D01*
X406759D01*
Y229953D01*
X406802D01*
Y229932D01*
X406845D01*
Y229911D01*
X406866D01*
Y229889D01*
X406887D01*
Y229868D01*
X406909D01*
Y229847D01*
X406930D01*
Y229825D01*
X406952D01*
Y229804D01*
X406973D01*
Y229782D01*
X406994D01*
Y229740D01*
X407016D01*
Y229718D01*
X407037D01*
Y229675D01*
X407058D01*
Y229633D01*
X407080D01*
Y229569D01*
X407101D01*
Y229483D01*
X407123D01*
Y229055D01*
X407101D01*
Y228970D01*
X407080D01*
Y228927D01*
X407058D01*
Y228863D01*
X407037D01*
Y228842D01*
X407016D01*
Y228799D01*
X406994D01*
Y228777D01*
X406973D01*
Y228735D01*
X406952D01*
Y228713D01*
X406930D01*
Y228692D01*
X406909D01*
Y228671D01*
X406887D01*
Y228649D01*
X406845D01*
Y228628D01*
X406823D01*
Y228606D01*
X406780D01*
Y228585D01*
X406759D01*
Y228564D01*
X406716D01*
Y228542D01*
X406652D01*
Y228521D01*
X406588D01*
Y228500D01*
X406438D01*
Y228478D01*
X405712D01*
Y227516D01*
X405198D01*
Y230060D01*
X406374D01*
Y230039D01*
D02*
G37*
G36*
X404878Y229611D02*
X404129D01*
Y227516D01*
X403616D01*
Y229611D01*
X402868D01*
Y230060D01*
X404878D01*
Y229611D01*
D02*
G37*
%LPC*%
G36*
X406267Y236710D02*
X404685D01*
Y235192D01*
X406032D01*
Y235213D01*
X406503D01*
Y235234D01*
X406609D01*
Y235256D01*
X406695D01*
Y235277D01*
X406738D01*
Y235299D01*
X406802D01*
Y235320D01*
X406845D01*
Y235341D01*
X406866D01*
Y235363D01*
X406909D01*
Y235384D01*
X406930D01*
Y235405D01*
X406952D01*
Y235427D01*
X406973D01*
Y235448D01*
X407016D01*
Y235491D01*
X407037D01*
Y235512D01*
X407058D01*
Y235534D01*
X407080D01*
Y235577D01*
X407101D01*
Y235598D01*
X407123D01*
Y235641D01*
X407144D01*
Y235705D01*
X407165D01*
Y235769D01*
X407187D01*
Y236154D01*
X407165D01*
Y236239D01*
X407144D01*
Y236282D01*
X407123D01*
Y236325D01*
X407101D01*
Y236368D01*
X407080D01*
Y236410D01*
X407058D01*
Y236432D01*
X407037D01*
Y236453D01*
X407016D01*
Y236474D01*
X406994D01*
Y236496D01*
X406973D01*
Y236517D01*
X406952D01*
Y236539D01*
X406930D01*
Y236560D01*
X406887D01*
Y236581D01*
X406845D01*
Y236603D01*
X406802D01*
Y236624D01*
X406759D01*
Y236646D01*
X406695D01*
Y236667D01*
X406588D01*
Y236688D01*
X406267D01*
Y236710D01*
D02*
G37*
G36*
X406182Y234080D02*
X404685D01*
Y232327D01*
X406417D01*
Y232348D01*
X406716D01*
Y232369D01*
X406823D01*
Y232391D01*
X406909D01*
Y232412D01*
X406952D01*
Y232434D01*
X407016D01*
Y232455D01*
X407037D01*
Y232476D01*
X407080D01*
Y232498D01*
X407123D01*
Y232519D01*
X407144D01*
Y232540D01*
X407165D01*
Y232562D01*
X407187D01*
Y232583D01*
X407208D01*
Y232605D01*
X407230D01*
Y232626D01*
X407251D01*
Y232647D01*
X407272D01*
Y232669D01*
X407294D01*
Y232712D01*
X407315D01*
Y232733D01*
X407336D01*
Y232776D01*
X407358D01*
Y232818D01*
X407379D01*
Y232882D01*
X407401D01*
Y232947D01*
X407422D01*
Y233096D01*
X407443D01*
Y233267D01*
X407422D01*
Y233417D01*
X407401D01*
Y233481D01*
X407379D01*
Y233545D01*
X407358D01*
Y233588D01*
X407336D01*
Y233631D01*
X407315D01*
Y233674D01*
X407294D01*
Y233695D01*
X407272D01*
Y233716D01*
X407251D01*
Y233759D01*
X407230D01*
Y233781D01*
X407208D01*
Y233802D01*
X407187D01*
Y233823D01*
X407144D01*
Y233845D01*
X407123D01*
Y233866D01*
X407101D01*
Y233887D01*
X407058D01*
Y233909D01*
X407016D01*
Y233930D01*
X406973D01*
Y233952D01*
X406930D01*
Y233973D01*
X406887D01*
Y233994D01*
X406802D01*
Y234016D01*
X406695D01*
Y234037D01*
X406524D01*
Y234058D01*
X406182D01*
Y234080D01*
D02*
G37*
G36*
X406246Y229611D02*
X405712D01*
Y229569D01*
Y229547D01*
Y228927D01*
X406289D01*
Y228948D01*
X406374D01*
Y228970D01*
X406417D01*
Y228991D01*
X406460D01*
Y229013D01*
X406481D01*
Y229034D01*
X406503D01*
Y229055D01*
X406524D01*
Y229098D01*
X406545D01*
Y229119D01*
X406567D01*
Y229184D01*
X406588D01*
Y229355D01*
X406567D01*
Y229419D01*
X406545D01*
Y229440D01*
X406524D01*
Y229483D01*
X406503D01*
Y229504D01*
X406481D01*
Y229526D01*
X406438D01*
Y229547D01*
X406417D01*
Y229569D01*
X406353D01*
Y229590D01*
X406246D01*
Y229611D01*
D02*
G37*
%LPD*%
D10*
X456739Y92500D02*
X456186Y93261D01*
X455291Y92970D01*
Y92030D01*
X456186Y91739D01*
X456739Y92500D01*
X124900Y362200D02*
X124347Y362961D01*
X123453Y362670D01*
Y361730D01*
X124347Y361439D01*
X124900Y362200D01*
X457239Y205500D02*
X456686Y206261D01*
X455791Y205970D01*
Y205030D01*
X456686Y204739D01*
X457239Y205500D01*
D11*
X458243Y97638D02*
X458309Y96641D01*
X458572Y95678D01*
X459021Y94785D01*
X459639Y94000D01*
X460400Y93353D01*
X461275Y92871D01*
X462228Y92572D01*
X463221Y92469D01*
X464216Y92564D01*
X465171Y92856D01*
X466049Y93332D01*
X466815Y93973D01*
X467439Y94753D01*
X467895Y95642D01*
X468165Y96604D01*
X468239Y97600D01*
X118962Y364505D02*
X119959Y364571D01*
X120923Y364833D01*
X121815Y365283D01*
X122600Y365900D01*
X123247Y366662D01*
X123729Y367536D01*
X124028Y368489D01*
X124132Y369483D01*
X124035Y370477D01*
X123744Y371432D01*
X123268Y372311D01*
X122627Y373077D01*
X121847Y373700D01*
X120958Y374156D01*
X119996Y374426D01*
X119000Y374500D01*
X211006Y310503D02*
X211439Y309613D01*
X211939Y308758D01*
X212502Y307944D01*
X213125Y307176D01*
X213805Y306457D01*
X214538Y305791D01*
X215319Y305184D01*
X216144Y304638D01*
X217009Y304156D01*
X217907Y303741D01*
X218835Y303396D01*
X219786Y303122D01*
X220755Y302921D01*
X221737Y302795D01*
X222725Y302744D01*
X223714Y302768D01*
X224699Y302867D01*
X225673Y303041D01*
X226632Y303289D01*
X227568Y303608D01*
X228478Y303998D01*
X229355Y304457D01*
X230195Y304980D01*
X230993Y305566D01*
X231743Y306211D01*
X232443Y306911D01*
X233087Y307663D01*
X233672Y308461D01*
X234195Y309301D01*
X234652Y310179D01*
X254506Y310503D02*
X254939Y309613D01*
X255439Y308758D01*
X256002Y307944D01*
X256625Y307176D01*
X257305Y306457D01*
X258038Y305791D01*
X258819Y305184D01*
X259644Y304638D01*
X260509Y304156D01*
X261407Y303741D01*
X262335Y303396D01*
X263286Y303122D01*
X264255Y302921D01*
X265237Y302795D01*
X266225Y302744D01*
X267214Y302768D01*
X268199Y302867D01*
X269173Y303041D01*
X270132Y303289D01*
X271068Y303608D01*
X271978Y303998D01*
X272855Y304457D01*
X273695Y304980D01*
X274493Y305566D01*
X275243Y306211D01*
X275943Y306911D01*
X276587Y307663D01*
X277172Y308461D01*
X277695Y309301D01*
X278152Y310179D01*
X296006Y310503D02*
X296439Y309613D01*
X296939Y308758D01*
X297502Y307944D01*
X298125Y307176D01*
X298805Y306457D01*
X299538Y305791D01*
X300319Y305184D01*
X301144Y304638D01*
X302009Y304156D01*
X302907Y303741D01*
X303835Y303396D01*
X304786Y303122D01*
X305755Y302921D01*
X306737Y302795D01*
X307725Y302744D01*
X308714Y302768D01*
X309699Y302867D01*
X310673Y303041D01*
X311632Y303289D01*
X312568Y303608D01*
X313478Y303998D01*
X314355Y304457D01*
X315195Y304980D01*
X315993Y305566D01*
X316743Y306211D01*
X317443Y306911D01*
X318087Y307663D01*
X318672Y308461D01*
X319195Y309301D01*
X319652Y310179D01*
X235994Y377997D02*
X235561Y378887D01*
X235061Y379742D01*
X234498Y380556D01*
X233875Y381324D01*
X233195Y382043D01*
X232462Y382709D01*
X231681Y383316D01*
X230856Y383862D01*
X229991Y384344D01*
X229093Y384759D01*
X228165Y385104D01*
X227214Y385378D01*
X226245Y385579D01*
X225263Y385705D01*
X224275Y385756D01*
X223286Y385732D01*
X222301Y385633D01*
X221327Y385459D01*
X220368Y385211D01*
X219432Y384892D01*
X218522Y384502D01*
X217645Y384043D01*
X216805Y383520D01*
X216007Y382934D01*
X215257Y382289D01*
X214557Y381589D01*
X213913Y380838D01*
X213328Y380039D01*
X212805Y379199D01*
X212348Y378321D01*
X276994Y377997D02*
X276561Y378887D01*
X276061Y379742D01*
X275498Y380556D01*
X274875Y381324D01*
X274195Y382043D01*
X273462Y382709D01*
X272681Y383316D01*
X271856Y383862D01*
X270991Y384344D01*
X270093Y384759D01*
X269165Y385104D01*
X268214Y385378D01*
X267245Y385579D01*
X266263Y385705D01*
X265275Y385756D01*
X264286Y385732D01*
X263301Y385633D01*
X262327Y385459D01*
X261368Y385211D01*
X260432Y384892D01*
X259522Y384502D01*
X258645Y384043D01*
X257805Y383520D01*
X257007Y382934D01*
X256257Y382289D01*
X255557Y381589D01*
X254913Y380838D01*
X254328Y380039D01*
X253805Y379199D01*
X253348Y378321D01*
X319994Y377997D02*
X319561Y378887D01*
X319061Y379742D01*
X318498Y380556D01*
X317875Y381324D01*
X317195Y382043D01*
X316462Y382709D01*
X315681Y383316D01*
X314856Y383862D01*
X313991Y384344D01*
X313093Y384759D01*
X312165Y385104D01*
X311214Y385378D01*
X310245Y385579D01*
X309263Y385705D01*
X308275Y385756D01*
X307286Y385732D01*
X306301Y385633D01*
X305327Y385459D01*
X304368Y385211D01*
X303432Y384892D01*
X302522Y384502D01*
X301645Y384043D01*
X300805Y383520D01*
X300007Y382934D01*
X299257Y382289D01*
X298557Y381589D01*
X297913Y380838D01*
X297328Y380039D01*
X296805Y379199D01*
X296348Y378321D01*
X337506Y310503D02*
X337939Y309613D01*
X338439Y308758D01*
X339002Y307944D01*
X339625Y307176D01*
X340305Y306457D01*
X341038Y305791D01*
X341819Y305184D01*
X342644Y304638D01*
X343509Y304156D01*
X344407Y303741D01*
X345335Y303396D01*
X346286Y303122D01*
X347255Y302921D01*
X348237Y302795D01*
X349225Y302744D01*
X350214Y302768D01*
X351199Y302867D01*
X352173Y303041D01*
X353132Y303289D01*
X354068Y303608D01*
X354978Y303998D01*
X355855Y304457D01*
X356695Y304980D01*
X357493Y305566D01*
X358243Y306211D01*
X358943Y306911D01*
X359587Y307663D01*
X360172Y308461D01*
X360695Y309301D01*
X361152Y310179D01*
X482500Y304000D02*
X482471Y304998D01*
X482383Y305992D01*
X482237Y306979D01*
X482033Y307956D01*
X481773Y308920D01*
X481456Y309866D01*
X481084Y310793D01*
X480658Y311696D01*
X480181Y312572D01*
X479652Y313419D01*
X479075Y314233D01*
X478451Y315012D01*
X477783Y315753D01*
X477072Y316454D01*
X476321Y317111D01*
X475533Y317724D01*
X474710Y318289D01*
X473855Y318805D01*
X472972Y319270D01*
X472063Y319682D01*
X471132Y320040D01*
X470181Y320343D01*
X469213Y320589D01*
X468233Y320779D01*
X467244Y320910D01*
X466248Y320984D01*
X465250Y320998D01*
X464253Y320954D01*
X463260Y320852D01*
X462275Y320691D01*
X461301Y320473D01*
X460342Y320198D01*
X459400Y319868D01*
X458479Y319482D01*
X457583Y319044D01*
X456713Y318553D01*
X455874Y318012D01*
X455069Y317424D01*
X454299Y316788D01*
X453568Y316109D01*
X452878Y315388D01*
X452231Y314627D01*
X451630Y313830D01*
X451077Y312999D01*
X450574Y312137D01*
X450122Y311247D01*
X449723Y310332D01*
X449379Y309396D01*
X449090Y308440D01*
X448858Y307469D01*
X448683Y306487D01*
X448566Y305495D01*
X448507Y304499D01*
Y303501D01*
X448566Y302504D01*
X448683Y301513D01*
X448858Y300531D01*
X449090Y299560D01*
X449379Y298604D01*
X449723Y297668D01*
X450122Y296753D01*
X450574Y295863D01*
X451077Y295001D01*
X451630Y294170D01*
X452231Y293373D01*
X452878Y292612D01*
X453568Y291891D01*
X454299Y291212D01*
X455069Y290577D01*
X455874Y289987D01*
X456713Y289447D01*
X457583Y288956D01*
X458479Y288517D01*
X459400Y288132D01*
X460342Y287802D01*
X461301Y287527D01*
X462275Y287309D01*
X463260Y287148D01*
X464253Y287046D01*
X465250Y287002D01*
X466248Y287017D01*
X467244Y287090D01*
X468233Y287221D01*
X469213Y287410D01*
X470181Y287657D01*
X471132Y287960D01*
X472063Y288318D01*
X472972Y288730D01*
X473855Y289195D01*
X474710Y289711D01*
X475533Y290276D01*
X476321Y290889D01*
X477072Y291546D01*
X477782Y292247D01*
X478451Y292988D01*
X479075Y293767D01*
X479652Y294581D01*
X480181Y295428D01*
X480658Y296304D01*
X481084Y297207D01*
X481456Y298133D01*
X481773Y299080D01*
X482033Y300044D01*
X482237Y301021D01*
X482383Y302008D01*
X482471Y303002D01*
X482500Y304000D01*
X90497Y13006D02*
X91387Y13439D01*
X92242Y13939D01*
X93056Y14502D01*
X93824Y15125D01*
X94543Y15805D01*
X95209Y16538D01*
X95816Y17319D01*
X96362Y18144D01*
X96844Y19009D01*
X97259Y19907D01*
X97605Y20835D01*
X97878Y21786D01*
X98079Y22755D01*
X98205Y23737D01*
X98256Y24725D01*
X98232Y25714D01*
X98133Y26699D01*
X97959Y27674D01*
X97711Y28632D01*
X97392Y29568D01*
X97001Y30478D01*
X96543Y31355D01*
X96020Y32195D01*
X95434Y32993D01*
X94789Y33743D01*
X94089Y34443D01*
X93338Y35087D01*
X92539Y35672D01*
X91699Y36195D01*
X90821Y36652D01*
X474500Y265500D02*
X475457Y265616D01*
X476359Y265958D01*
X477152Y266506D01*
X477792Y267228D01*
X478240Y268082D01*
X478471Y269018D01*
Y269982D01*
X478240Y270918D01*
X477792Y271772D01*
X477152Y272494D01*
X476359Y273042D01*
X475457Y273384D01*
X474500Y273500D01*
X454500D02*
X453543Y273384D01*
X452641Y273042D01*
X451848Y272494D01*
X451208Y271772D01*
X450760Y270918D01*
X450529Y269982D01*
Y269018D01*
X450760Y268082D01*
X451208Y267228D01*
X451848Y266506D01*
X452641Y265958D01*
X453543Y265616D01*
X454500Y265500D01*
X359994Y377997D02*
X359561Y378887D01*
X359061Y379742D01*
X358498Y380556D01*
X357875Y381324D01*
X357195Y382043D01*
X356462Y382709D01*
X355681Y383316D01*
X354856Y383862D01*
X353991Y384344D01*
X353093Y384759D01*
X352165Y385104D01*
X351214Y385378D01*
X350245Y385579D01*
X349263Y385705D01*
X348275Y385756D01*
X347286Y385732D01*
X346301Y385633D01*
X345327Y385459D01*
X344368Y385211D01*
X343432Y384892D01*
X342522Y384502D01*
X341645Y384043D01*
X340805Y383520D01*
X340007Y382934D01*
X339257Y382289D01*
X338557Y381589D01*
X337913Y380838D01*
X337328Y380039D01*
X336805Y379199D01*
X336348Y378321D01*
X19003Y38994D02*
X18113Y38561D01*
X17258Y38061D01*
X16444Y37498D01*
X15676Y36875D01*
X14957Y36195D01*
X14291Y35462D01*
X13684Y34681D01*
X13138Y33856D01*
X12656Y32991D01*
X12241Y32093D01*
X11896Y31165D01*
X11622Y30214D01*
X11421Y29245D01*
X11295Y28263D01*
X11244Y27275D01*
X11268Y26286D01*
X11367Y25301D01*
X11541Y24327D01*
X11789Y23368D01*
X12108Y22432D01*
X12499Y21522D01*
X12957Y20645D01*
X13480Y19805D01*
X14066Y19007D01*
X14711Y18257D01*
X15411Y17557D01*
X16162Y16913D01*
X16961Y16328D01*
X17801Y15805D01*
X18679Y15348D01*
X90497Y54006D02*
X91387Y54439D01*
X92242Y54939D01*
X93056Y55502D01*
X93824Y56125D01*
X94543Y56805D01*
X95209Y57538D01*
X95816Y58319D01*
X96362Y59144D01*
X96844Y60009D01*
X97259Y60907D01*
X97605Y61835D01*
X97878Y62786D01*
X98079Y63755D01*
X98205Y64737D01*
X98256Y65725D01*
X98232Y66715D01*
X98133Y67699D01*
X97959Y68673D01*
X97711Y69632D01*
X97392Y70568D01*
X97001Y71478D01*
X96543Y72355D01*
X96020Y73195D01*
X95434Y73993D01*
X94789Y74743D01*
X94089Y75443D01*
X93338Y76087D01*
X92539Y76672D01*
X91699Y77195D01*
X90821Y77652D01*
X19003Y75494D02*
X18113Y75061D01*
X17258Y74561D01*
X16444Y73998D01*
X15676Y73375D01*
X14957Y72695D01*
X14291Y71962D01*
X13684Y71181D01*
X13138Y70356D01*
X12656Y69491D01*
X12241Y68593D01*
X11896Y67665D01*
X11622Y66714D01*
X11421Y65745D01*
X11295Y64763D01*
X11244Y63775D01*
X11268Y62786D01*
X11367Y61801D01*
X11541Y60827D01*
X11789Y59868D01*
X12108Y58932D01*
X12499Y58022D01*
X12957Y57145D01*
X13480Y56305D01*
X14066Y55507D01*
X14711Y54757D01*
X15411Y54057D01*
X16162Y53413D01*
X16961Y52828D01*
X17801Y52305D01*
X18679Y51848D01*
X90497Y130506D02*
X91387Y130939D01*
X92242Y131439D01*
X93056Y132002D01*
X93824Y132625D01*
X94543Y133305D01*
X95209Y134038D01*
X95816Y134819D01*
X96362Y135644D01*
X96844Y136509D01*
X97259Y137407D01*
X97605Y138335D01*
X97878Y139286D01*
X98079Y140255D01*
X98205Y141237D01*
X98256Y142225D01*
X98232Y143214D01*
X98133Y144199D01*
X97959Y145174D01*
X97711Y146132D01*
X97392Y147068D01*
X97001Y147978D01*
X96543Y148855D01*
X96020Y149695D01*
X95434Y150493D01*
X94789Y151243D01*
X94089Y151943D01*
X93338Y152587D01*
X92539Y153172D01*
X91699Y153695D01*
X90821Y154152D01*
X19003Y153494D02*
X18113Y153061D01*
X17258Y152561D01*
X16444Y151998D01*
X15676Y151375D01*
X14957Y150695D01*
X14291Y149962D01*
X13684Y149181D01*
X13138Y148356D01*
X12656Y147491D01*
X12241Y146593D01*
X11896Y145665D01*
X11622Y144714D01*
X11421Y143745D01*
X11295Y142763D01*
X11244Y141775D01*
X11268Y140786D01*
X11367Y139801D01*
X11541Y138827D01*
X11789Y137868D01*
X12108Y136932D01*
X12499Y136022D01*
X12957Y135145D01*
X13480Y134305D01*
X14066Y133507D01*
X14711Y132757D01*
X15411Y132057D01*
X16162Y131413D01*
X16961Y130828D01*
X17801Y130305D01*
X18679Y129848D01*
X90497Y90006D02*
X91387Y90439D01*
X92242Y90939D01*
X93056Y91502D01*
X93824Y92125D01*
X94543Y92805D01*
X95209Y93538D01*
X95816Y94319D01*
X96362Y95144D01*
X96844Y96009D01*
X97259Y96907D01*
X97605Y97835D01*
X97878Y98786D01*
X98079Y99755D01*
X98205Y100737D01*
X98256Y101725D01*
X98232Y102715D01*
X98133Y103699D01*
X97959Y104674D01*
X97711Y105632D01*
X97392Y106568D01*
X97001Y107478D01*
X96543Y108355D01*
X96020Y109195D01*
X95434Y109993D01*
X94789Y110743D01*
X94089Y111443D01*
X93338Y112087D01*
X92539Y112672D01*
X91699Y113195D01*
X90821Y113652D01*
X19003Y114494D02*
X18113Y114061D01*
X17258Y113561D01*
X16444Y112998D01*
X15676Y112375D01*
X14957Y111695D01*
X14291Y110962D01*
X13684Y110181D01*
X13138Y109356D01*
X12656Y108491D01*
X12241Y107593D01*
X11896Y106665D01*
X11622Y105714D01*
X11421Y104745D01*
X11295Y103763D01*
X11244Y102775D01*
X11268Y101786D01*
X11367Y100801D01*
X11541Y99827D01*
X11789Y98868D01*
X12108Y97932D01*
X12499Y97022D01*
X12957Y96145D01*
X13480Y95305D01*
X14066Y94507D01*
X14711Y93757D01*
X15411Y93057D01*
X16162Y92413D01*
X16961Y91828D01*
X17801Y91305D01*
X18679Y90848D01*
X458743Y210638D02*
X458809Y209641D01*
X459072Y208678D01*
X459521Y207785D01*
X460139Y207000D01*
X460900Y206353D01*
X461775Y205871D01*
X462728Y205572D01*
X463721Y205469D01*
X464716Y205565D01*
X465671Y205856D01*
X466549Y206332D01*
X467315Y206973D01*
X467939Y207753D01*
X468395Y208642D01*
X468665Y209604D01*
X468739Y210600D01*
X455000Y343000D02*
X454043Y342884D01*
X453141Y342542D01*
X452348Y341994D01*
X451708Y341272D01*
X451260Y340418D01*
X451029Y339482D01*
Y338518D01*
X451260Y337582D01*
X451708Y336728D01*
X452348Y336006D01*
X453141Y335458D01*
X454043Y335116D01*
X455000Y335000D01*
X475000D02*
X475957Y335116D01*
X476859Y335458D01*
X477653Y336006D01*
X478292Y336728D01*
X478740Y337582D01*
X478971Y338518D01*
Y339482D01*
X478740Y340418D01*
X478292Y341272D01*
X477653Y341994D01*
X476859Y342542D01*
X475957Y342884D01*
X475000Y343000D01*
X482063Y373500D02*
X482034Y374498D01*
X481946Y375492D01*
X481800Y376479D01*
X481597Y377456D01*
X481336Y378420D01*
X481019Y379366D01*
X480647Y380293D01*
X480222Y381196D01*
X479744Y382072D01*
X479216Y382919D01*
X478639Y383733D01*
X478015Y384512D01*
X477346Y385253D01*
X476635Y385954D01*
X475884Y386611D01*
X475096Y387224D01*
X474273Y387789D01*
X473419Y388305D01*
X472536Y388770D01*
X471627Y389182D01*
X470695Y389540D01*
X469744Y389843D01*
X468777Y390090D01*
X467797Y390279D01*
X466807Y390410D01*
X465812Y390483D01*
X464814Y390498D01*
X463817Y390454D01*
X462824Y390352D01*
X461839Y390191D01*
X460865Y389973D01*
X459905Y389699D01*
X458963Y389368D01*
X458043Y388983D01*
X457146Y388544D01*
X456277Y388053D01*
X455438Y387512D01*
X454632Y386924D01*
X453862Y386288D01*
X453131Y385609D01*
X452441Y384888D01*
X451794Y384127D01*
X451194Y383330D01*
X450641Y382499D01*
X450137Y381637D01*
X449685Y380747D01*
X449287Y379832D01*
X448942Y378895D01*
X448653Y377940D01*
X448421Y376969D01*
X448246Y375987D01*
X448129Y374995D01*
X448071Y373999D01*
Y373001D01*
X448129Y372005D01*
X448246Y371013D01*
X448421Y370031D01*
X448653Y369060D01*
X448942Y368105D01*
X449287Y367168D01*
X449685Y366253D01*
X450137Y365363D01*
X450641Y364501D01*
X451194Y363670D01*
X451794Y362873D01*
X452441Y362112D01*
X453131Y361391D01*
X453862Y360712D01*
X454632Y360076D01*
X455438Y359488D01*
X456277Y358947D01*
X457146Y358456D01*
X458043Y358017D01*
X458963Y357632D01*
X459905Y357301D01*
X460865Y357027D01*
X461839Y356809D01*
X462824Y356648D01*
X463817Y356546D01*
X464814Y356502D01*
X465812Y356517D01*
X466807Y356590D01*
X467797Y356721D01*
X468777Y356910D01*
X469744Y357157D01*
X470695Y357460D01*
X471627Y357818D01*
X472536Y358230D01*
X473419Y358695D01*
X474273Y359211D01*
X475096Y359776D01*
X475884Y360388D01*
X476635Y361046D01*
X477346Y361747D01*
X478015Y362488D01*
X478638Y363267D01*
X479216Y364081D01*
X479744Y364928D01*
X480222Y365804D01*
X480647Y366707D01*
X481019Y367634D01*
X481336Y368580D01*
X481597Y369544D01*
X481800Y370521D01*
X481946Y371508D01*
X482034Y372502D01*
X482063Y373500D01*
X424939Y46777D02*
X429039D01*
X397639D02*
X401439D01*
Y51401D02*
X424939D01*
X401439Y41952D02*
Y51401D01*
Y41952D02*
X424939D01*
Y51401D01*
Y103461D02*
Y112910D01*
X401439Y103461D02*
X424939D01*
X401439D02*
Y112910D01*
X424939D01*
X397639Y108286D02*
X401439D01*
X424939D02*
X429039D01*
X424939Y29651D02*
Y39100D01*
X401439Y29651D02*
X424939D01*
X401439D02*
Y39100D01*
X424939D01*
X397639Y34476D02*
X401439D01*
X424939D02*
X429039D01*
X424939Y59079D02*
X429039D01*
X397639D02*
X401439D01*
Y63703D02*
X424939D01*
X401439Y54254D02*
Y63703D01*
Y54254D02*
X424939D01*
Y63703D01*
Y66556D02*
Y76005D01*
X401439Y66556D02*
X424939D01*
X401439D02*
Y76005D01*
X424939D01*
X397639Y71381D02*
X401439D01*
X424939D02*
X429039D01*
X424939Y78857D02*
Y88306D01*
X401439Y78857D02*
X424939D01*
X401439D02*
Y88306D01*
X424939D01*
X397639Y83683D02*
X401439D01*
X424939D02*
X429039D01*
X424939Y22174D02*
X429039D01*
X397639D02*
X401439D01*
Y26798D02*
X424939D01*
X401439Y17349D02*
Y26798D01*
Y17349D02*
X424939D01*
Y26798D01*
Y91159D02*
Y100608D01*
X401439Y91159D02*
X424939D01*
X401439D02*
Y100608D01*
X424939D01*
X397639Y95984D02*
X401439D01*
X424939D02*
X429039D01*
X424939Y182096D02*
X429039D01*
X397639D02*
X401439D01*
Y186720D02*
X424939D01*
X401439Y177271D02*
Y186720D01*
Y177271D02*
X424939D01*
Y186720D01*
Y194398D02*
X429039D01*
X397639D02*
X401439D01*
Y199022D02*
X424939D01*
X401439Y189573D02*
Y199022D01*
Y189573D02*
X424939D01*
Y199022D01*
Y206700D02*
X429039D01*
X397639D02*
X401439D01*
Y211323D02*
X424939D01*
X401439Y201874D02*
Y211323D01*
Y201874D02*
X424939D01*
Y211323D01*
Y157493D02*
X429039D01*
X397639D02*
X401439D01*
Y162117D02*
X424939D01*
X401439Y152668D02*
Y162117D01*
Y152668D02*
X424939D01*
Y162117D01*
Y145191D02*
X429039D01*
X397639D02*
X401439D01*
Y149815D02*
X424939D01*
X401439Y140366D02*
Y149815D01*
Y140366D02*
X424939D01*
Y149815D01*
Y169794D02*
X429039D01*
X397639D02*
X401439D01*
Y174418D02*
X424939D01*
X401439Y164969D02*
Y174418D01*
Y164969D02*
X424939D01*
Y174418D01*
Y120588D02*
X429039D01*
X397639D02*
X401439D01*
Y125212D02*
X424939D01*
X401439Y115763D02*
Y125212D01*
Y115763D02*
X424939D01*
Y125212D01*
Y132889D02*
X429039D01*
X397639D02*
X401439D01*
Y137513D02*
X424939D01*
X401439Y128064D02*
Y137513D01*
Y128064D02*
X424939D01*
Y137513D01*
X468239Y27600D02*
Y87600D01*
X458239Y27600D02*
X468239D01*
X458239D02*
Y87600D01*
X468239D01*
X443239Y97600D02*
X458239D01*
X468339D02*
X483239D01*
X443239Y17600D02*
Y97600D01*
Y17600D02*
X483239D01*
Y97500D01*
X483139Y97600D02*
X483239Y97500D01*
X160971Y334200D02*
Y338300D01*
Y306900D02*
Y310700D01*
X156348D02*
Y334200D01*
Y310700D02*
X165796D01*
Y334200D01*
X156348D02*
X165796D01*
X149328D02*
Y338300D01*
Y306900D02*
Y310700D01*
X144705D02*
Y334200D01*
Y310700D02*
X154154D01*
Y334200D01*
X144705D02*
X154154D01*
X126043D02*
Y338300D01*
Y306900D02*
Y310700D01*
X121419D02*
Y334200D01*
Y310700D02*
X130868D01*
Y334200D01*
X121419D02*
X130868D01*
X137686D02*
Y338300D01*
Y306900D02*
Y310700D01*
X133062D02*
Y334200D01*
Y310700D02*
X142511D01*
Y334200D01*
X133062D02*
X142511D01*
X109776D02*
X119225D01*
Y310700D02*
Y334200D01*
X109776Y310700D02*
X119225D01*
X109776D02*
Y334200D01*
X114400Y306900D02*
Y310700D01*
Y334200D02*
Y338300D01*
X172614Y334200D02*
Y338300D01*
Y306900D02*
Y310700D01*
X167990D02*
Y334200D01*
Y310700D02*
X177439D01*
Y334200D01*
X167990D02*
X177439D01*
X119000Y389400D02*
X119100Y389500D01*
X199000D01*
Y349500D02*
Y389500D01*
X119000Y349500D02*
X199000D01*
X119000Y374600D02*
Y389500D01*
Y349500D02*
Y364500D01*
X129000D02*
Y374500D01*
Y364500D02*
X189000D01*
Y374500D01*
X129000D02*
X189000D01*
X184257Y334200D02*
Y338300D01*
Y306900D02*
Y310700D01*
X179633D02*
Y334200D01*
Y310700D02*
X189082D01*
Y334200D01*
X179633D02*
X189082D01*
X195900D02*
Y338300D01*
Y306900D02*
Y310700D01*
X191276D02*
Y334200D01*
Y310700D02*
X200725D01*
Y334200D01*
X191276D02*
X200725D01*
X232800Y321000D02*
X234534Y318524D01*
X211200Y318400D02*
X212500Y321000D01*
X232800D01*
X213776Y355700D02*
X223225D01*
Y332200D02*
Y355700D01*
X213776Y332200D02*
X223225D01*
X213776D02*
Y355700D01*
X218400Y328400D02*
Y332200D01*
Y355700D02*
Y359800D01*
X225275Y332300D02*
X234724D01*
X225275D02*
Y355800D01*
X234724D01*
Y332300D02*
Y355800D01*
X230100D02*
Y359600D01*
Y328200D02*
Y332300D01*
X256000Y321000D02*
X276300D01*
X254700Y318400D02*
X256000Y321000D01*
X276300D02*
X278034Y318524D01*
X260400Y355700D02*
Y359800D01*
Y328400D02*
Y332200D01*
X255776D02*
Y355700D01*
Y332200D02*
X265225D01*
Y355700D01*
X255776D02*
X265225D01*
X272100Y328200D02*
Y332300D01*
Y355800D02*
Y359600D01*
X276724Y332300D02*
Y355800D01*
X267275D02*
X276724D01*
X267275Y332300D02*
Y355800D01*
Y332300D02*
X276724D01*
X297500Y321000D02*
X317800D01*
X296200Y318400D02*
X297500Y321000D01*
X317800D02*
X319534Y318524D01*
X302400Y355700D02*
Y359800D01*
Y328400D02*
Y332200D01*
X297776D02*
Y355700D01*
Y332200D02*
X307225D01*
Y355700D01*
X297776D02*
X307225D01*
X212466Y369976D02*
X214200Y367500D01*
X234500D02*
X235800Y370100D01*
X214200Y367500D02*
X234500D01*
X255200D02*
X275500D01*
X276800Y370100D01*
X253466Y369976D02*
X255200Y367500D01*
X298200D02*
X318500D01*
X319800Y370100D01*
X296466Y369976D02*
X298200Y367500D01*
X359300Y321000D02*
X361034Y318524D01*
X337700Y318400D02*
X339000Y321000D01*
X359300D01*
X80000Y14500D02*
Y34800D01*
Y14500D02*
X82600Y13200D01*
X80000Y34800D02*
X82476Y36534D01*
X309275Y332300D02*
X318724D01*
X309275D02*
Y355800D01*
X318724D01*
Y332300D02*
Y355800D01*
X314100D02*
Y359600D01*
Y328200D02*
Y332300D01*
X454500Y265500D02*
X474500D01*
X454500Y273500D02*
X474500D01*
X467000Y266500D02*
Y272000D01*
X462500Y266500D02*
Y272000D01*
X467000Y269500D02*
X470000D01*
X459500D02*
X462500D01*
X390000Y389000D02*
X423000D01*
X390000Y341500D02*
Y396000D01*
X423000Y341500D02*
Y396000D01*
X390000Y341500D02*
X423000D01*
X390000Y396000D02*
X423000D01*
X343400Y355700D02*
Y359800D01*
Y328400D02*
Y332200D01*
X338776D02*
Y355700D01*
Y332200D02*
X348225D01*
Y355700D01*
X338776D02*
X348225D01*
X336466Y369976D02*
X338200Y367500D01*
X358500D02*
X359800Y370100D01*
X338200Y367500D02*
X358500D01*
X355100Y328200D02*
Y332300D01*
Y355800D02*
Y359600D01*
X359724Y332300D02*
Y355800D01*
X350275D02*
X359724D01*
X350275Y332300D02*
Y355800D01*
Y332300D02*
X359724D01*
X380200Y259300D02*
Y265900D01*
Y262500D02*
X383100Y265400D01*
X380200Y262500D02*
X383100Y259600D01*
X374708Y258516D02*
Y266435D01*
X380200Y256100D02*
X381900Y257800D01*
X378600Y256400D02*
X380300Y258100D01*
X29500Y17200D02*
Y37500D01*
X26900Y38800D02*
X29500Y37500D01*
X27024Y15466D02*
X29500Y17200D01*
X66200Y27775D02*
Y37224D01*
X42700Y27775D02*
X66200D01*
X42700D02*
Y37224D01*
X66200D01*
X38900Y32600D02*
X42700D01*
X66200D02*
X70300D01*
X42800Y16276D02*
Y25725D01*
X66300D01*
Y16276D02*
Y25725D01*
X42800Y16276D02*
X66300D01*
Y20900D02*
X70100D01*
X38700D02*
X42800D01*
X80000Y55500D02*
Y75800D01*
Y55500D02*
X82600Y54200D01*
X80000Y75800D02*
X82476Y77534D01*
X42800Y55776D02*
Y65225D01*
X66300D01*
Y55776D02*
Y65225D01*
X42800Y55776D02*
X66300D01*
Y60400D02*
X70100D01*
X38700D02*
X42800D01*
X66200Y67275D02*
Y76724D01*
X42700Y67275D02*
X66200D01*
X42700D02*
Y76724D01*
X66200D01*
X38900Y72100D02*
X42700D01*
X66200D02*
X70300D01*
X29500Y53700D02*
Y74000D01*
X26900Y75300D02*
X29500Y74000D01*
X27024Y51966D02*
X29500Y53700D01*
X80000Y132000D02*
Y152300D01*
Y132000D02*
X82600Y130700D01*
X80000Y152300D02*
X82476Y154034D01*
X29500Y131700D02*
Y152000D01*
X26900Y153300D02*
X29500Y152000D01*
X27024Y129966D02*
X29500Y131700D01*
X42800Y132276D02*
Y141725D01*
X66300D01*
Y132276D02*
Y141725D01*
X42800Y132276D02*
X66300D01*
Y136900D02*
X70100D01*
X38700D02*
X42800D01*
X66200Y143775D02*
Y153224D01*
X42700Y143775D02*
X66200D01*
X42700D02*
Y153224D01*
X66200D01*
X38900Y148600D02*
X42700D01*
X66200D02*
X70300D01*
X80000Y111800D02*
X82476Y113534D01*
X80000Y91500D02*
X82600Y90200D01*
X80000Y91500D02*
Y111800D01*
X66200Y109751D02*
X70300D01*
X38900D02*
X42700D01*
Y114375D02*
X66200D01*
X42700Y104926D02*
Y114375D01*
Y104926D02*
X66200D01*
Y114375D01*
X38700Y98400D02*
X42800D01*
X66300D02*
X70100D01*
X42800Y93776D02*
X66300D01*
Y103225D01*
X42800D02*
X66300D01*
X42800Y93776D02*
Y103225D01*
X27024Y90966D02*
X29500Y92700D01*
X26900Y114300D02*
X29500Y113000D01*
Y92700D02*
Y113000D01*
X468739Y140600D02*
Y200600D01*
X458739Y140600D02*
X468739D01*
X458739D02*
Y200600D01*
X468739D01*
X443739Y210600D02*
X458739D01*
X468839D02*
X483739D01*
X443739Y130600D02*
Y210600D01*
Y130600D02*
X483739D01*
Y210500D01*
X483639Y210600D02*
X483739Y210500D01*
X460000Y339000D02*
X463000D01*
X467500D02*
X470500D01*
X463000Y336000D02*
Y341500D01*
X467500Y336000D02*
Y341500D01*
X455000Y343000D02*
X475000D01*
X455000Y335000D02*
X475000D01*
X405700Y262400D02*
X409800D01*
X433300D02*
X437100D01*
X409800Y257776D02*
X433300D01*
Y267225D01*
X409800D02*
X433300D01*
X409800Y257776D02*
Y267225D01*
D12*
X406863Y293148D02*
X407602Y293836D01*
X408203Y294648D01*
X408645Y295556D01*
X408914Y296529D01*
X409000Y297535D01*
X408901Y298540D01*
X408620Y299510D01*
X408166Y300412D01*
X407555Y301216D01*
X406807Y301895D01*
X405948Y302425D01*
X405006Y302790D01*
X404013Y302976D01*
X403004Y302978D01*
X402011Y302795D01*
X401068Y302433D01*
X400207Y301905D01*
X399457Y301229D01*
X398843Y300427D01*
X398387Y299526D01*
X398103Y298557D01*
X398000Y297552D01*
X398083Y296546D01*
X398349Y295572D01*
X398788Y294663D01*
X399387Y293849D01*
X400123Y293159D01*
X386500Y297500D02*
X390500D01*
X386500Y287500D02*
Y297500D01*
X380500Y287500D02*
X386500D01*
X380500D02*
Y297500D01*
X376000D02*
X380500D01*
X376000Y287500D02*
Y297500D01*
X373500Y287500D02*
X376000D01*
X373500D02*
Y330000D01*
X376000D01*
X416500Y297500D02*
X420500D01*
Y287500D02*
Y297500D01*
Y287500D02*
X426500D01*
Y297500D01*
X431000D01*
Y287500D02*
Y297500D01*
Y287500D02*
X433500D01*
Y330000D01*
X431000D02*
X433500D01*
X431000Y306500D02*
Y330000D01*
X376000Y306500D02*
X431000D01*
X376000D02*
Y330000D01*
X423000Y308000D02*
Y324500D01*
X384000D02*
X423000D01*
X384000Y308000D02*
Y324500D01*
Y308000D02*
X423000D01*
X416500Y287500D02*
Y297500D01*
X408500Y287500D02*
X416500D01*
X390500D02*
Y297500D01*
Y287500D02*
X398500D01*
X406900Y293100D02*
X408500Y291500D01*
Y287500D02*
Y291500D01*
X398500Y287500D02*
Y291500D01*
X400141Y293141D01*
D13*
X473000Y310000D02*
X471999Y309887D01*
X471047Y309554D01*
X470194Y309018D01*
X469482Y308306D01*
X468946Y307453D01*
X468613Y306501D01*
X468500Y305500D01*
Y303000D02*
X468502Y301986D01*
X468729Y300998D01*
X469170Y300085D01*
X469803Y299293D01*
X470597Y298663D01*
X471511Y298224D01*
X472500Y298000D01*
X473514Y298002D01*
X474502Y298229D01*
X475415Y298670D01*
X476206Y299303D01*
X476837Y300097D01*
X477276Y301011D01*
X477500Y302000D01*
Y305500D02*
X477387Y306501D01*
X477054Y307453D01*
X476518Y308306D01*
X475806Y309018D01*
X474953Y309554D01*
X474001Y309887D01*
X473000Y310000D01*
X477063Y375000D02*
X476951Y376001D01*
X476618Y376953D01*
X476082Y377806D01*
X475369Y378518D01*
X474516Y379054D01*
X473565Y379387D01*
X472563Y379500D01*
X472063Y367500D02*
X473077Y367502D01*
X474065Y367729D01*
X474978Y368170D01*
X475770Y368803D01*
X476401Y369597D01*
X476839Y370511D01*
X477063Y371500D01*
X468063Y372500D02*
X468065Y371486D01*
X468292Y370498D01*
X468733Y369585D01*
X469367Y368794D01*
X470160Y368163D01*
X471074Y367724D01*
X472063Y367500D01*
X472563Y379500D02*
X471562Y379387D01*
X470611Y379054D01*
X469758Y378518D01*
X469045Y377806D01*
X468509Y376953D01*
X468176Y376001D01*
X468063Y375000D01*
X449000Y304000D02*
X453500D01*
X451300Y301500D02*
Y306500D01*
X468500Y302000D02*
Y307000D01*
X477500Y302000D02*
Y305500D01*
X468000Y306500D02*
X468500D01*
X468000Y287500D02*
Y320500D01*
X474342Y109563D02*
Y117437D01*
X454658D02*
X474342D01*
X454658Y109563D02*
Y117437D01*
Y109563D02*
X474342D01*
X467563Y357000D02*
Y390000D01*
Y376000D02*
X468063D01*
X477063Y371500D02*
Y375000D01*
X468063Y371500D02*
Y376500D01*
X450863Y371000D02*
Y376000D01*
X448563Y373500D02*
X453063D01*
X101501Y26000D02*
X105499D01*
X106499Y26999D01*
Y28999D01*
X105499Y29998D01*
X101501D01*
X100501Y28999D01*
Y26999D01*
X102500Y27999D02*
X100501Y26000D01*
Y26999D02*
X101501Y26000D01*
X100501Y20002D02*
Y24000D01*
X104500Y20002D01*
X105499D01*
X106499Y21001D01*
Y23001D01*
X105499Y24000D01*
X444000Y219998D02*
Y215000D01*
X445000Y214000D01*
X446999D01*
X447999Y215000D01*
Y219998D01*
X452997Y214000D02*
Y219998D01*
X449998Y216999D01*
X453997D01*
X119600Y399098D02*
Y394100D01*
X120600Y393100D01*
X122599D01*
X123599Y394100D01*
Y399098D01*
X125598Y398098D02*
X126598Y399098D01*
X128597D01*
X129597Y398098D01*
Y397099D01*
X128597Y396099D01*
X127597D01*
X128597D01*
X129597Y395099D01*
Y394100D01*
X128597Y393100D01*
X126598D01*
X125598Y394100D01*
X443500Y106998D02*
Y102000D01*
X444500Y101000D01*
X446499D01*
X447499Y102000D01*
Y106998D01*
X453497Y101000D02*
X449498D01*
X453497Y104999D01*
Y105998D01*
X452497Y106998D01*
X450498D01*
X449498Y105998D01*
X373900Y339598D02*
Y334600D01*
X374900Y333600D01*
X376899D01*
X377899Y334600D01*
Y339598D01*
X379898Y333600D02*
X381897D01*
X380898D01*
Y339598D01*
X379898Y338598D01*
X379241Y118089D02*
Y124087D01*
X382240D01*
X383240Y123087D01*
Y121088D01*
X382240Y120088D01*
X379241D01*
X381240D02*
X383240Y118089D01*
X388238D02*
Y124087D01*
X385239Y121088D01*
X389238D01*
X391237Y118089D02*
X393236D01*
X392237D01*
Y124087D01*
X391237Y123087D01*
X152428Y285003D02*
X146430D01*
Y288002D01*
X147429Y289001D01*
X149428D01*
X150428Y288002D01*
Y285003D01*
Y287002D02*
X152428Y289001D01*
Y294000D02*
X146430D01*
X149428Y291001D01*
Y294999D01*
X147429Y296999D02*
X146430Y297998D01*
Y299998D01*
X147429Y300997D01*
X151428D01*
X152428Y299998D01*
Y297998D01*
X151428Y296999D01*
X147429D01*
X376241Y130684D02*
Y136681D01*
X379240D01*
X380240Y135682D01*
Y133683D01*
X379240Y132683D01*
X376241D01*
X378240D02*
X380240Y130684D01*
X382239Y135682D02*
X383239Y136681D01*
X385238D01*
X386238Y135682D01*
Y134682D01*
X385238Y133683D01*
X384239D01*
X385238D01*
X386238Y132683D01*
Y131683D01*
X385238Y130684D01*
X383239D01*
X382239Y131683D01*
X388237D02*
X389237Y130684D01*
X391236D01*
X392236Y131683D01*
Y135682D01*
X391236Y136681D01*
X389237D01*
X388237Y135682D01*
Y134682D01*
X389237Y133683D01*
X392236D01*
X141285Y285503D02*
X135287D01*
Y288502D01*
X136286Y289501D01*
X138286D01*
X139285Y288502D01*
Y285503D01*
Y287502D02*
X141285Y289501D01*
X136286Y291501D02*
X135287Y292500D01*
Y294500D01*
X136286Y295499D01*
X137286D01*
X138286Y294500D01*
Y293500D01*
Y294500D01*
X139285Y295499D01*
X140285D01*
X141285Y294500D01*
Y292500D01*
X140285Y291501D01*
X136286Y297499D02*
X135287Y298498D01*
Y300498D01*
X136286Y301497D01*
X137286D01*
X138286Y300498D01*
X139285Y301497D01*
X140285D01*
X141285Y300498D01*
Y298498D01*
X140285Y297499D01*
X139285D01*
X138286Y298498D01*
X137286Y297499D01*
X136286D01*
X138286Y298498D02*
Y300498D01*
X376741Y143278D02*
Y149276D01*
X379740D01*
X380740Y148276D01*
Y146277D01*
X379740Y145277D01*
X376741D01*
X378741D02*
X380740Y143278D01*
X382739Y148276D02*
X383739Y149276D01*
X385738D01*
X386738Y148276D01*
Y147277D01*
X385738Y146277D01*
X384739D01*
X385738D01*
X386738Y145277D01*
Y144278D01*
X385738Y143278D01*
X383739D01*
X382739Y144278D01*
X388737Y149276D02*
X392736D01*
Y148276D01*
X388737Y144278D01*
Y143278D01*
X129142Y285503D02*
X123144D01*
Y288502D01*
X124144Y289501D01*
X126143D01*
X127143Y288502D01*
Y285503D01*
Y287502D02*
X129142Y289501D01*
X124144Y291501D02*
X123144Y292500D01*
Y294500D01*
X124144Y295499D01*
X125143D01*
X126143Y294500D01*
Y293500D01*
Y294500D01*
X127143Y295499D01*
X128142D01*
X129142Y294500D01*
Y292500D01*
X128142Y291501D01*
X123144Y301497D02*
X124144Y299498D01*
X126143Y297499D01*
X128142D01*
X129142Y298498D01*
Y300498D01*
X128142Y301497D01*
X127143D01*
X126143Y300498D01*
Y297499D01*
X376741Y154373D02*
Y160371D01*
X379740D01*
X380740Y159371D01*
Y157371D01*
X379740Y156372D01*
X376741D01*
X378741D02*
X380740Y154373D01*
X382739Y159371D02*
X383739Y160371D01*
X385738D01*
X386738Y159371D01*
Y158371D01*
X385738Y157371D01*
X384739D01*
X385738D01*
X386738Y156372D01*
Y155372D01*
X385738Y154373D01*
X383739D01*
X382739Y155372D01*
X392736Y160371D02*
X388737D01*
Y157371D01*
X390737Y158371D01*
X391736D01*
X392736Y157371D01*
Y155372D01*
X391736Y154373D01*
X389737D01*
X388737Y155372D01*
X116499Y285003D02*
X110501D01*
Y288002D01*
X111501Y289001D01*
X113500D01*
X114500Y288002D01*
Y285003D01*
Y287002D02*
X116499Y289001D01*
X111501Y291001D02*
X110501Y292000D01*
Y294000D01*
X111501Y294999D01*
X112500D01*
X113500Y294000D01*
Y293000D01*
Y294000D01*
X114500Y294999D01*
X115499D01*
X116499Y294000D01*
Y292000D01*
X115499Y291001D01*
X116499Y299998D02*
X110501D01*
X113500Y296999D01*
Y300997D01*
X377741Y166967D02*
Y172965D01*
X380740D01*
X381739Y171965D01*
Y169966D01*
X380740Y168966D01*
X377741D01*
X379740D02*
X381739Y166967D01*
X383739Y171965D02*
X384739Y172965D01*
X386738D01*
X387738Y171965D01*
Y170966D01*
X386738Y169966D01*
X385738D01*
X386738D01*
X387738Y168966D01*
Y167967D01*
X386738Y166967D01*
X384739D01*
X383739Y167967D01*
X389737Y166967D02*
X391736D01*
X390737D01*
Y172965D01*
X389737Y171965D01*
X376003Y19501D02*
Y25499D01*
X379002D01*
X380001Y24499D01*
Y22500D01*
X379002Y21500D01*
X376003D01*
X378002D02*
X380001Y19501D01*
X382001Y24499D02*
X383000Y25499D01*
X385000D01*
X385999Y24499D01*
Y23500D01*
X385000Y22500D01*
X384000D01*
X385000D01*
X385999Y21500D01*
Y20501D01*
X385000Y19501D01*
X383000D01*
X382001Y20501D01*
X387999Y24499D02*
X388998Y25499D01*
X390998D01*
X391997Y24499D01*
Y20501D01*
X390998Y19501D01*
X388998D01*
X387999Y20501D01*
Y24499D01*
X46503Y156501D02*
Y162499D01*
X49502D01*
X50501Y161499D01*
Y159500D01*
X49502Y158500D01*
X46503D01*
X48502D02*
X50501Y156501D01*
X52501Y161499D02*
X53500Y162499D01*
X55500D01*
X56499Y161499D01*
Y160500D01*
X55500Y159500D01*
X54500D01*
X55500D01*
X56499Y158500D01*
Y157501D01*
X55500Y156501D01*
X53500D01*
X52501Y157501D01*
X58499Y161499D02*
X59498Y162499D01*
X61498D01*
X62497Y161499D01*
Y160500D01*
X61498Y159500D01*
X60498D01*
X61498D01*
X62497Y158500D01*
Y157501D01*
X61498Y156501D01*
X59498D01*
X58499Y157501D01*
X237501Y352497D02*
X243499D01*
Y349498D01*
X242499Y348499D01*
X240500D01*
X239500Y349498D01*
Y352497D01*
Y350498D02*
X237501Y348499D01*
X242499Y346499D02*
X243499Y345500D01*
Y343500D01*
X242499Y342501D01*
X241500D01*
X240500Y343500D01*
Y344500D01*
Y343500D01*
X239500Y342501D01*
X238501D01*
X237501Y343500D01*
Y345500D01*
X238501Y346499D01*
X237501Y336503D02*
Y340501D01*
X241500Y336503D01*
X242499D01*
X243499Y337502D01*
Y339502D01*
X242499Y340501D01*
X376741Y179061D02*
Y185060D01*
X379740D01*
X380740Y184060D01*
Y182061D01*
X379740Y181061D01*
X376741D01*
X378741D02*
X380740Y179061D01*
X386738D02*
X382739D01*
X386738Y183060D01*
Y184060D01*
X385738Y185060D01*
X383739D01*
X382739Y184060D01*
X388737Y180061D02*
X389737Y179061D01*
X391736D01*
X392736Y180061D01*
Y184060D01*
X391736Y185060D01*
X389737D01*
X388737Y184060D01*
Y183060D01*
X389737Y182061D01*
X392736D01*
X376003Y32501D02*
Y38499D01*
X379002D01*
X380001Y37499D01*
Y35500D01*
X379002Y34500D01*
X376003D01*
X378002D02*
X380001Y32501D01*
X385999D02*
X382001D01*
X385999Y36500D01*
Y37499D01*
X385000Y38499D01*
X383000D01*
X382001Y37499D01*
X387999D02*
X388998Y38499D01*
X390998D01*
X391997Y37499D01*
Y36500D01*
X390998Y35500D01*
X391997Y34500D01*
Y33501D01*
X390998Y32501D01*
X388998D01*
X387999Y33501D01*
Y34500D01*
X388998Y35500D01*
X387999Y36500D01*
Y37499D01*
X388998Y35500D02*
X390998D01*
X376241Y191656D02*
Y197654D01*
X379240D01*
X380240Y196654D01*
Y194655D01*
X379240Y193655D01*
X376241D01*
X378240D02*
X380240Y191656D01*
X386238D02*
X382239D01*
X386238Y195655D01*
Y196654D01*
X385238Y197654D01*
X383239D01*
X382239Y196654D01*
X392236Y197654D02*
X388237D01*
Y194655D01*
X390237Y195655D01*
X391236D01*
X392236Y194655D01*
Y192656D01*
X391236Y191656D01*
X389237D01*
X388237Y192656D01*
X376503Y44501D02*
Y50499D01*
X379502D01*
X380501Y49499D01*
Y47500D01*
X379502Y46500D01*
X376503D01*
X378502D02*
X380501Y44501D01*
X386499D02*
X382501D01*
X386499Y48500D01*
Y49499D01*
X385500Y50499D01*
X383500D01*
X382501Y49499D01*
X391498Y44501D02*
Y50499D01*
X388499Y47500D01*
X392497D01*
X61497Y129999D02*
Y124001D01*
X58498D01*
X57499Y125001D01*
Y127000D01*
X58498Y128000D01*
X61497D01*
X59498D02*
X57499Y129999D01*
X51501D02*
X55499D01*
X51501Y126000D01*
Y125001D01*
X52500Y124001D01*
X54500D01*
X55499Y125001D01*
X49501Y124001D02*
X45503D01*
Y125001D01*
X49501Y128999D01*
Y129999D01*
X211499Y336503D02*
X205501D01*
Y339502D01*
X206501Y340501D01*
X208500D01*
X209500Y339502D01*
Y336503D01*
Y338502D02*
X211499Y340501D01*
Y346499D02*
Y342501D01*
X207500Y346499D01*
X206501D01*
X205501Y345500D01*
Y343500D01*
X206501Y342501D01*
X205501Y352497D02*
X206501Y350498D01*
X208500Y348499D01*
X210499D01*
X211499Y349498D01*
Y351498D01*
X210499Y352497D01*
X209500D01*
X208500Y351498D01*
Y348499D01*
X376241Y202750D02*
Y208749D01*
X379240D01*
X380240Y207749D01*
Y205750D01*
X379240Y204750D01*
X376241D01*
X378240D02*
X380240Y202750D01*
X386238D02*
X382239D01*
X386238Y206749D01*
Y207749D01*
X385238Y208749D01*
X383239D01*
X382239Y207749D01*
X388237D02*
X389237Y208749D01*
X391236D01*
X392236Y207749D01*
Y206749D01*
X391236Y205750D01*
X390237D01*
X391236D01*
X392236Y204750D01*
Y203750D01*
X391236Y202750D01*
X389237D01*
X388237Y203750D01*
X375503Y56501D02*
Y62499D01*
X378502D01*
X379501Y61499D01*
Y59500D01*
X378502Y58500D01*
X375503D01*
X377502D02*
X379501Y56501D01*
X385499D02*
X381501D01*
X385499Y60500D01*
Y61499D01*
X384500Y62499D01*
X382500D01*
X381501Y61499D01*
X391497Y56501D02*
X387499D01*
X391497Y60500D01*
Y61499D01*
X390498Y62499D01*
X388498D01*
X387499Y61499D01*
X199499Y287502D02*
X193501D01*
Y290501D01*
X194501Y291501D01*
X196500D01*
X197500Y290501D01*
Y287502D01*
Y289502D02*
X199499Y291501D01*
Y297499D02*
Y293500D01*
X195500Y297499D01*
X194501D01*
X193501Y296499D01*
Y294500D01*
X194501Y293500D01*
X199499Y299498D02*
Y301498D01*
Y300498D01*
X193501D01*
X194501Y299498D01*
X377003Y68501D02*
Y74499D01*
X380002D01*
X381001Y73499D01*
Y71500D01*
X380002Y70500D01*
X377003D01*
X379002D02*
X381001Y68501D01*
X386999D02*
X383001D01*
X386999Y72500D01*
Y73499D01*
X386000Y74499D01*
X384000D01*
X383001Y73499D01*
X388999D02*
X389998Y74499D01*
X391998D01*
X392997Y73499D01*
Y69501D01*
X391998Y68501D01*
X389998D01*
X388999Y69501D01*
Y73499D01*
X187499Y287002D02*
X181501D01*
Y290002D01*
X182501Y291001D01*
X184500D01*
X185500Y290002D01*
Y287002D01*
Y289002D02*
X187499Y291001D01*
Y293001D02*
Y295000D01*
Y294000D01*
X181501D01*
X182501Y293001D01*
X181501Y297999D02*
Y301998D01*
X182501D01*
X186499Y297999D01*
X187499D01*
X377002Y80001D02*
Y85999D01*
X380001D01*
X381001Y84999D01*
Y83000D01*
X380001Y82000D01*
X377002D01*
X379002D02*
X381001Y80001D01*
X383000D02*
X385000D01*
X384000D01*
Y85999D01*
X383000Y84999D01*
X391998Y85999D02*
X389998Y84999D01*
X387999Y83000D01*
Y81001D01*
X388999Y80001D01*
X390998D01*
X391998Y81001D01*
Y82000D01*
X390998Y83000D01*
X387999D01*
X47002Y116501D02*
Y122499D01*
X50002D01*
X51001Y121499D01*
Y119500D01*
X50002Y118500D01*
X47002D01*
X49002D02*
X51001Y116501D01*
X53000D02*
X55000D01*
X54000D01*
Y122499D01*
X53000Y121499D01*
X57999Y117501D02*
X58999Y116501D01*
X60998D01*
X61998Y117501D01*
Y121499D01*
X60998Y122499D01*
X58999D01*
X57999Y121499D01*
Y120500D01*
X58999Y119500D01*
X61998D01*
X279001Y351998D02*
X284999D01*
Y348998D01*
X283999Y347999D01*
X282000D01*
X281000Y348998D01*
Y351998D01*
Y349998D02*
X279001Y347999D01*
Y346000D02*
Y344000D01*
Y345000D01*
X284999D01*
X283999Y346000D01*
Y341001D02*
X284999Y340001D01*
Y338002D01*
X283999Y337002D01*
X283000D01*
X282000Y338002D01*
X281000Y337002D01*
X280001D01*
X279001Y338002D01*
Y340001D01*
X280001Y341001D01*
X281000D01*
X282000Y340001D01*
X283000Y341001D01*
X283999D01*
X282000Y340001D02*
Y338002D01*
X176213Y286502D02*
X170215D01*
Y289502D01*
X171215Y290501D01*
X173214D01*
X174214Y289502D01*
Y286502D01*
Y288502D02*
X176213Y290501D01*
Y292500D02*
Y294500D01*
Y293500D01*
X170215D01*
X171215Y292500D01*
X170215Y301498D02*
Y297499D01*
X173214D01*
X172215Y299498D01*
Y300498D01*
X173214Y301498D01*
X175214D01*
X176213Y300498D01*
Y298499D01*
X175214Y297499D01*
X377241Y93170D02*
Y99168D01*
X380240D01*
X381240Y98168D01*
Y96169D01*
X380240Y95169D01*
X377241D01*
X379240D02*
X381240Y93170D01*
X383239D02*
X385238D01*
X384239D01*
Y99168D01*
X383239Y98168D01*
X391236Y93170D02*
Y99168D01*
X388237Y96169D01*
X392236D01*
X165070Y288502D02*
X159072D01*
Y291501D01*
X160072Y292501D01*
X162071D01*
X163071Y291501D01*
Y288502D01*
Y290501D02*
X165070Y292501D01*
Y294500D02*
Y296499D01*
Y295500D01*
X159072D01*
X160072Y294500D01*
X165070Y299499D02*
Y301498D01*
Y300498D01*
X159072D01*
X160072Y299499D01*
X377741Y105773D02*
Y111771D01*
X380740D01*
X381740Y110771D01*
Y108772D01*
X380740Y107772D01*
X377741D01*
X379740D02*
X381740Y105773D01*
X383739D02*
X385738D01*
X384739D01*
Y111771D01*
X383739Y110771D01*
X388737D02*
X389737Y111771D01*
X391737D01*
X392736Y110771D01*
Y106773D01*
X391737Y105773D01*
X389737D01*
X388737Y106773D01*
Y110771D01*
X60498Y91999D02*
Y86001D01*
X57499D01*
X56499Y87001D01*
Y89000D01*
X57499Y90000D01*
X60498D01*
X58498D02*
X56499Y91999D01*
X54500D02*
X52500D01*
X53500D01*
Y86001D01*
X54500Y87001D01*
X49501D02*
X48501Y86001D01*
X46502D01*
X45502Y87001D01*
Y88000D01*
X46502Y89000D01*
X47502D01*
X46502D01*
X45502Y90000D01*
Y90999D01*
X46502Y91999D01*
X48501D01*
X49501Y90999D01*
X253499Y337002D02*
X247501D01*
Y340002D01*
X248501Y341001D01*
X250500D01*
X251500Y340002D01*
Y337002D01*
Y339002D02*
X253499Y341001D01*
Y343001D02*
Y345000D01*
Y344000D01*
X247501D01*
X248501Y343001D01*
X253499Y351998D02*
Y347999D01*
X249500Y351998D01*
X248501D01*
X247501Y350998D01*
Y348998D01*
X248501Y347999D01*
X50002Y78501D02*
Y84499D01*
X53001D01*
X54000Y83499D01*
Y81500D01*
X53001Y80500D01*
X50002D01*
X52001D02*
X54000Y78501D01*
X56000Y79501D02*
X56999Y78501D01*
X58999D01*
X59998Y79501D01*
Y83499D01*
X58999Y84499D01*
X56999D01*
X56000Y83499D01*
Y82500D01*
X56999Y81500D01*
X59998D01*
X321001Y349498D02*
X326999D01*
Y346499D01*
X325999Y345500D01*
X324000D01*
X323000Y346499D01*
Y349498D01*
Y347499D02*
X321001Y345500D01*
X325999Y343500D02*
X326999Y342501D01*
Y340501D01*
X325999Y339502D01*
X325000D01*
X324000Y340501D01*
X323000Y339502D01*
X322001D01*
X321001Y340501D01*
Y342501D01*
X322001Y343500D01*
X323000D01*
X324000Y342501D01*
X325000Y343500D01*
X325999D01*
X324000Y342501D02*
Y340501D01*
X58498Y53499D02*
Y47501D01*
X55499D01*
X54500Y48501D01*
Y50500D01*
X55499Y51500D01*
X58498D01*
X56499D02*
X54500Y53499D01*
X52500Y47501D02*
X48502D01*
Y48501D01*
X52500Y52499D01*
Y53499D01*
X294999Y339002D02*
X289001D01*
Y342001D01*
X290001Y343000D01*
X292000D01*
X293000Y342001D01*
Y339002D01*
Y341001D02*
X294999Y343000D01*
X289001Y348998D02*
X290001Y346999D01*
X292000Y345000D01*
X293999D01*
X294999Y345999D01*
Y347999D01*
X293999Y348998D01*
X293000D01*
X292000Y347999D01*
Y345000D01*
X48502Y39501D02*
Y45499D01*
X51501D01*
X52500Y44499D01*
Y42500D01*
X51501Y41500D01*
X48502D01*
X50501D02*
X52500Y39501D01*
X58498Y45499D02*
X54500D01*
Y42500D01*
X56499Y43500D01*
X57499D01*
X58498Y42500D01*
Y40501D01*
X57499Y39501D01*
X55499D01*
X54500Y40501D01*
X362001Y349498D02*
X367999D01*
Y346499D01*
X366999Y345500D01*
X365000D01*
X364000Y346499D01*
Y349498D01*
Y347499D02*
X362001Y345500D01*
Y340501D02*
X367999D01*
X365000Y343500D01*
Y339502D01*
X58998Y13499D02*
Y7501D01*
X55999D01*
X55000Y8501D01*
Y10500D01*
X55999Y11500D01*
X58998D01*
X56999D02*
X55000Y13499D01*
X49002D02*
X53000D01*
X49002Y9500D01*
Y8501D01*
X50001Y7501D01*
X52001D01*
X53000Y8501D01*
X335999Y340501D02*
X330001D01*
Y343500D01*
X331001Y344500D01*
X333000D01*
X334000Y343500D01*
Y340501D01*
Y342501D02*
X335999Y344500D01*
Y346499D02*
Y348499D01*
Y347499D01*
X330001D01*
X331001Y346499D01*
X402900Y270600D02*
Y276598D01*
X405899D01*
X406899Y275598D01*
Y273599D01*
X405899Y272599D01*
X402900D01*
X404899D02*
X406899Y270600D01*
X408898Y275598D02*
X409898Y276598D01*
X411897D01*
X412897Y275598D01*
Y274599D01*
X411897Y273599D01*
X410897D01*
X411897D01*
X412897Y272599D01*
Y271600D01*
X411897Y270600D01*
X409898D01*
X408898Y271600D01*
X7999Y137001D02*
X4001D01*
X3001Y136002D01*
Y134002D01*
X4001Y133002D01*
X7999D01*
X8999Y134002D01*
Y136002D01*
X7000Y135002D02*
X8999Y137001D01*
Y136002D02*
X7999Y137001D01*
X8999Y139000D02*
Y141000D01*
Y140000D01*
X3001D01*
X4001Y139000D01*
X3001Y147998D02*
X4001Y145998D01*
X6000Y143999D01*
X7999D01*
X8999Y144999D01*
Y146998D01*
X7999Y147998D01*
X7000D01*
X6000Y146998D01*
Y143999D01*
X219501Y389501D02*
Y393499D01*
X218501Y394499D01*
X216502D01*
X215502Y393499D01*
Y389501D01*
X216502Y388501D01*
X218501D01*
X217502Y390500D02*
X219501Y388501D01*
X218501D02*
X219501Y389501D01*
X221500Y388501D02*
X223500D01*
X222500D01*
Y394499D01*
X221500Y393499D01*
X230498Y394499D02*
X226499D01*
Y391500D01*
X228498Y392500D01*
X229498D01*
X230498Y391500D01*
Y389501D01*
X229498Y388501D01*
X227499D01*
X226499Y389501D01*
X101501Y145999D02*
X105499D01*
X106499Y146999D01*
Y148998D01*
X105499Y149998D01*
X101501D01*
X100501Y148998D01*
Y146999D01*
X102500Y147998D02*
X100501Y145999D01*
Y146999D02*
X101501Y145999D01*
X100501Y144000D02*
Y142000D01*
Y143000D01*
X106499D01*
X105499Y144000D01*
X100501Y136002D02*
X106499D01*
X103500Y139001D01*
Y135002D01*
X219501Y298999D02*
Y295001D01*
X218501Y294001D01*
X216502D01*
X215502Y295001D01*
Y298999D01*
X216502Y299999D01*
X218501D01*
X217502Y298000D02*
X219501Y299999D01*
X218501D02*
X219501Y298999D01*
X221500Y299999D02*
X223500D01*
X222500D01*
Y294001D01*
X221500Y295001D01*
X226499D02*
X227499Y294001D01*
X229498D01*
X230498Y295001D01*
Y296000D01*
X229498Y297000D01*
X228498D01*
X229498D01*
X230498Y298000D01*
Y298999D01*
X229498Y299999D01*
X227499D01*
X226499Y298999D01*
X6999Y97001D02*
X3001D01*
X2001Y96001D01*
Y94002D01*
X3001Y93002D01*
X6999D01*
X7999Y94002D01*
Y96001D01*
X6000Y95002D02*
X7999Y97001D01*
Y96001D02*
X6999Y97001D01*
X7999Y99001D02*
Y101000D01*
Y100000D01*
X2001D01*
X3001Y99001D01*
X7999Y107998D02*
Y103999D01*
X4000Y107998D01*
X3001D01*
X2001Y106998D01*
Y104999D01*
X3001Y103999D01*
X262501Y390001D02*
Y393999D01*
X261501Y394999D01*
X259502D01*
X258502Y393999D01*
Y390001D01*
X259502Y389001D01*
X261501D01*
X260502Y391000D02*
X262501Y389001D01*
X261501D02*
X262501Y390001D01*
X264500Y389001D02*
X266499D01*
X265500D01*
Y394999D01*
X264500Y393999D01*
X269498Y389001D02*
X271498D01*
X270498D01*
Y394999D01*
X269498Y393999D01*
X102001Y104999D02*
X105999D01*
X106999Y105999D01*
Y107998D01*
X105999Y108998D01*
X102001D01*
X101001Y107998D01*
Y105999D01*
X103000Y106998D02*
X101001Y104999D01*
Y105999D02*
X102001Y104999D01*
X101001Y102999D02*
Y101000D01*
Y102000D01*
X106999D01*
X105999Y102999D01*
Y98001D02*
X106999Y97001D01*
Y95002D01*
X105999Y94002D01*
X102001D01*
X101001Y95002D01*
Y97001D01*
X102001Y98001D01*
X105999D01*
X268000Y297999D02*
Y294001D01*
X268999Y293001D01*
X270999D01*
X271998Y294001D01*
Y297999D01*
X270999Y298999D01*
X268999D01*
X269999Y297000D02*
X268000Y298999D01*
X268999D02*
X268000Y297999D01*
X266000D02*
X265001Y298999D01*
X263001D01*
X262002Y297999D01*
Y294001D01*
X263001Y293001D01*
X265001D01*
X266000Y294001D01*
Y295000D01*
X265001Y296000D01*
X262002D01*
X7499Y61000D02*
X3501D01*
X2501Y60001D01*
Y58001D01*
X3501Y57002D01*
X7499D01*
X8499Y58001D01*
Y60001D01*
X6500Y59001D02*
X8499Y61000D01*
Y60001D02*
X7499Y61000D01*
X3501Y63000D02*
X2501Y63999D01*
Y65999D01*
X3501Y66998D01*
X4500D01*
X5500Y65999D01*
X6500Y66998D01*
X7499D01*
X8499Y65999D01*
Y63999D01*
X7499Y63000D01*
X6500D01*
X5500Y63999D01*
X4500Y63000D01*
X3501D01*
X5500Y63999D02*
Y65999D01*
X306500Y389501D02*
Y393499D01*
X305501Y394499D01*
X303501D01*
X302502Y393499D01*
Y389501D01*
X303501Y388501D01*
X305501D01*
X304501Y390500D02*
X306500Y388501D01*
X305501D02*
X306500Y389501D01*
X308500Y394499D02*
X312498D01*
Y393499D01*
X308500Y389501D01*
Y388501D01*
X101501Y68000D02*
X105499D01*
X106499Y68999D01*
Y70999D01*
X105499Y71998D01*
X101501D01*
X100501Y70999D01*
Y68999D01*
X102500Y69999D02*
X100501Y68000D01*
Y68999D02*
X101501Y68000D01*
X106499Y62002D02*
X105499Y64001D01*
X103500Y66000D01*
X101501D01*
X100501Y65001D01*
Y63001D01*
X101501Y62002D01*
X102500D01*
X103500Y63001D01*
Y66000D01*
X309500Y298499D02*
Y294501D01*
X310499Y293501D01*
X312499D01*
X313498Y294501D01*
Y298499D01*
X312499Y299499D01*
X310499D01*
X311499Y297500D02*
X309500Y299499D01*
X310499D02*
X309500Y298499D01*
X303502Y293501D02*
X307500D01*
Y296500D01*
X305501Y295500D01*
X304501D01*
X303502Y296500D01*
Y298499D01*
X304501Y299499D01*
X306501D01*
X307500Y298499D01*
X7499Y26000D02*
X3501D01*
X2501Y25001D01*
Y23001D01*
X3501Y22002D01*
X7499D01*
X8499Y23001D01*
Y25001D01*
X6500Y24001D02*
X8499Y26000D01*
Y25001D02*
X7499Y26000D01*
X8499Y30999D02*
X2501D01*
X5500Y28000D01*
Y31998D01*
X346500Y389501D02*
Y393499D01*
X345501Y394499D01*
X343501D01*
X342502Y393499D01*
Y389501D01*
X343501Y388501D01*
X345501D01*
X344501Y390500D02*
X346500Y388501D01*
X345501D02*
X346500Y389501D01*
X348500Y393499D02*
X349499Y394499D01*
X351499D01*
X352498Y393499D01*
Y392500D01*
X351499Y391500D01*
X350499D01*
X351499D01*
X352498Y390500D01*
Y389501D01*
X351499Y388501D01*
X349499D01*
X348500Y389501D01*
X349500Y298499D02*
Y294501D01*
X350500Y293501D01*
X352499D01*
X353499Y294501D01*
Y298499D01*
X352499Y299499D01*
X350500D01*
X351499Y297500D02*
X349500Y299499D01*
X350500D02*
X349500Y298499D01*
X347501Y299499D02*
X345501D01*
X346501D01*
Y293501D01*
X347501Y294501D01*
X367001Y243498D02*
X372999D01*
X371000Y241498D01*
X372999Y239499D01*
X367001D01*
X372999Y237500D02*
Y233501D01*
Y235500D01*
X367001D01*
Y231502D02*
Y229502D01*
Y230502D01*
X372999D01*
X371999Y231502D01*
X373900Y279698D02*
Y273700D01*
X377899D01*
X383897Y279698D02*
X379898D01*
Y273700D01*
X383897D01*
X379898Y276699D02*
X381897D01*
X385896Y279698D02*
Y273700D01*
X388895D01*
X389895Y274700D01*
Y278698D01*
X388895Y279698D01*
X385896D01*
X391894Y273700D02*
X393894D01*
X392894D01*
Y279698D01*
X391894Y278698D01*
X108499Y205997D02*
X102501D01*
X104500D01*
X108499Y201998D01*
X105500Y204997D01*
X102501Y201998D01*
X108499Y199999D02*
Y198000D01*
Y198999D01*
X102501D01*
Y199999D01*
Y198000D01*
X108499Y195001D02*
Y191002D01*
Y193001D01*
X102501D01*
Y189002D02*
Y187003D01*
Y188003D01*
X108499D01*
X107499Y189002D01*
X377501Y376002D02*
Y374003D01*
Y375002D01*
X382499D01*
X383499Y374003D01*
Y373003D01*
X382499Y372003D01*
X377501Y378001D02*
X383499D01*
Y381000D01*
X382499Y382000D01*
X378501D01*
X377501Y381000D01*
Y378001D01*
X378501Y387998D02*
X377501Y386998D01*
Y384999D01*
X378501Y383999D01*
X382499D01*
X383499Y384999D01*
Y386998D01*
X382499Y387998D01*
X383499Y389997D02*
Y391997D01*
Y390997D01*
X377501D01*
X378501Y389997D01*
X444001Y126499D02*
Y120501D01*
X447000D01*
X448000Y121501D01*
Y125499D01*
X447000Y126499D01*
X444001D01*
X449999Y120501D02*
X451999D01*
X450999D01*
Y126499D01*
X449999Y125499D01*
X453500Y284499D02*
X452501Y285499D01*
X450501D01*
X449502Y284499D01*
Y280501D01*
X450501Y279501D01*
X452501D01*
X453500Y280501D01*
X458499Y279501D02*
Y285499D01*
X455500Y282500D01*
X459498D01*
X453899Y351898D02*
X452899Y352898D01*
X450900D01*
X449900Y351898D01*
Y347900D01*
X450900Y346900D01*
X452899D01*
X453899Y347900D01*
X455898Y351898D02*
X456898Y352898D01*
X458897D01*
X459897Y351898D01*
Y350899D01*
X458897Y349899D01*
X457897D01*
X458897D01*
X459897Y348899D01*
Y347900D01*
X458897Y346900D01*
X456898D01*
X455898Y347900D01*
X453099Y329298D02*
X452099Y330298D01*
X450100D01*
X449100Y329298D01*
Y325300D01*
X450100Y324300D01*
X452099D01*
X453099Y325300D01*
X459097Y324300D02*
X455098D01*
X459097Y328299D01*
Y329298D01*
X458097Y330298D01*
X456098D01*
X455098Y329298D01*
X452699Y398898D02*
X451699Y399898D01*
X449700D01*
X448700Y398898D01*
Y394900D01*
X449700Y393900D01*
X451699D01*
X452699Y394900D01*
X454698Y393900D02*
X456697D01*
X455698D01*
Y399898D01*
X454698Y398898D01*
D14*
X374728Y258481D02*
X375289Y257651D01*
X375951Y256899D01*
X376702Y256238D01*
X377532Y255676D01*
X378426Y255225D01*
X379370Y254890D01*
X380348Y254679D01*
X381346Y254593D01*
X382347Y254635D01*
X383334Y254803D01*
X384292Y255095D01*
X385205Y255507D01*
X386059Y256031D01*
X386839Y256659D01*
X387533Y257381D01*
X388130Y258185D01*
X388619Y259059D01*
X388994Y259988D01*
X389248Y260956D01*
X389377Y261950D01*
X389379Y262951D01*
X389254Y263945D01*
X389004Y264915D01*
X388632Y265845D01*
X388146Y266720D01*
X387552Y267527D01*
X386861Y268251D01*
X386083Y268882D01*
X385231Y269410D01*
X384320Y269825D01*
X383363Y270121D01*
X382377Y270292D01*
X381376Y270338D01*
X380378Y270256D01*
X379398Y270048D01*
X378453Y269717D01*
X377557Y269269D01*
X376725Y268711D01*
X375971Y268052D01*
X375307Y267302D01*
X374743Y266474D01*
D15*
X6000Y185500D02*
X96000D01*
Y395500D01*
X6000Y185500D02*
Y395500D01*
X96000D01*
X123906Y29744D02*
X362094D01*
Y267933D01*
X123906Y267933D02*
X362094Y267933D01*
X123906Y29744D02*
Y267933D01*
D16*
X471882Y113500D02*
D03*
M02*
